<?xml version="1.0" encoding="UTF-8"?>
<svg xmlns="http://www.w3.org/2000/svg" xmlns:xlink="http://www.w3.org/1999/xlink" width="533.79pt" height="591.24pt" viewBox="0 0 533.79 591.24" version="1.1">
<defs>
<clipPath id="clip1">
  <path d="M 0 0 L 533.789063 0 L 533.789063 591.238281 L 0 591.238281 Z M 0 0 "/>
</clipPath>
</defs>
<g id="surface1">
<g clip-path="url(#clip1)" clip-rule="nonzero">
<path style=" stroke:none;fill-rule:evenodd;fill:rgb(13.699341%,12.199402%,12.5%);fill-opacity:1;" d="M 0.34375 108.988281 C 0.34375 108.988281 36.84375 77.488281 42.09375 29.738281 L 111.09375 0.488281 C 111.09375 0.488281 113.839844 -1.226563 115.09375 1.769531 C 115.09375 1.769531 122.84375 17.738281 163.09375 10.488281 C 163.09375 10.488281 255.410156 -0.765625 363.09375 10.238281 C 363.09375 10.238281 395.09375 21.050781 416.84375 2.769531 C 416.84375 2.769531 419.34375 -1.449219 426.34375 1.769531 L 484.84375 23.488281 C 484.84375 23.488281 490.527344 23.738281 491.84375 31.238281 C 491.84375 31.238281 504.4375 79.988281 533.140625 104.738281 C 533.140625 104.738281 535.140625 107.6875 532.140625 109.6875 C 532.140625 109.6875 482.710938 141.46875 512.152344 213.605469 C 512.152344 213.605469 538.445313 275.253906 526.144531 350.496094 C 526.144531 350.496094 517.160156 419.070313 474.171875 465.40625 C 474.171875 465.40625 417.4375 537.601563 350.835938 543.589844 C 350.835938 543.589844 287.089844 559.574219 274.160156 591.238281 C 274.160156 591.238281 258.835938 558.785156 190.703125 543.847656 C 190.703125 543.847656 91.621094 514.855469 43.066406 431.796875 C 43.066406 431.796875 -7.15625 364.738281 20.84375 225.40625 C 20.84375 225.40625 56.511719 140.40625 2.402344 113.738281 C 2.402344 113.738281 -1.085938 110.296875 0.34375 108.988281 "/>
</g>
<path style=" stroke:none;fill-rule:evenodd;fill:rgb(100%,100%,100%);fill-opacity:1;" d="M 3.347656 108.09375 C 3.347656 108.09375 39.4375 79.949219 44.628906 32.738281 L 112.851563 3.816406 C 112.851563 3.816406 115.566406 2.121094 116.804688 5.085938 C 116.804688 5.085938 124.46875 20.871094 164.265625 13.703125 C 164.265625 13.703125 255.539063 2.574219 362.007813 13.457031 C 362.007813 13.457031 393.648438 24.144531 415.152344 6.070313 C 415.152344 6.070313 417.625 1.902344 424.546875 5.085938 L 482.386719 26.558594 C 482.386719 26.558594 488.003906 26.804688 489.308594 34.222656 C 489.308594 34.222656 501.761719 79.421875 530.140625 103.894531 C 530.140625 103.894531 532.113281 106.804688 529.152344 108.78125 C 529.152344 108.78125 480.273438 143.207031 509.386719 214.527344 C 509.386719 214.527344 535.382813 275.480469 523.222656 349.878906 C 523.222656 349.878906 514.339844 417.679688 471.832031 463.492188 C 471.832031 463.492188 415.738281 534.875 349.890625 540.792969 C 349.890625 540.792969 286.859375 554.597656 274.078125 585.90625 C 274.078125 585.90625 258.925781 555.816406 191.5625 541.046875 C 191.5625 541.046875 93.59375 512.382813 45.589844 430.261719 C 45.589844 430.261719 -4.066406 363.960938 23.617188 226.199219 C 23.617188 226.199219 58.882813 139.15625 5.382813 112.789063 C 5.382813 112.789063 1.9375 109.386719 3.347656 108.09375 "/>
<path style=" stroke:none;fill-rule:evenodd;fill:rgb(87.098694%,39.99939%,38.398743%);fill-opacity:1;" d="M 326.242188 298.535156 L 326.242188 299.535156 C 333.238281 293.539063 347.230469 294.539063 360.226563 294.539063 L 368.222656 283.550781 C 368.222656 289.542969 368.222656 294.539063 367.222656 301.535156 C 367.222656 308.527344 367.222656 312.527344 362.226563 315.523438 L 336.238281 316.523438 L 330.242188 316.523438 L 330.242188 319.519531 C 330.242188 321.519531 331.238281 321.519531 332.238281 321.519531 L 360.226563 321.519531 C 365.222656 321.519531 370.222656 309.527344 373.21875 307.53125 C 373.21875 313.523438 373.21875 319.519531 373.21875 324.515625 C 373.21875 333.511719 374.21875 334.507813 369.222656 338.507813 L 336.238281 339.503906 L 336.238281 343.503906 L 371.222656 343.503906 L 376.21875 333.511719 L 378.21875 362.484375 C 371.222656 365.484375 363.226563 363.484375 354.230469 363.484375 L 343.234375 363.484375 L 344.234375 368.480469 L 374.21875 370.480469 L 384.214844 359.488281 L 383.214844 386.46875 L 350.230469 389.464844 L 352.230469 451.414063 C 349.230469 455.414063 336.238281 468.402344 332.238281 472.398438 C 327.242188 477.394531 316.246094 488.386719 312.25 493.382813 C 305.253906 503.375 298.257813 504.375 285.265625 507.371094 C 280.265625 509.371094 254.277344 517.363281 253.277344 517.363281 C 251.28125 517.363281 195.308594 470.402344 192.308594 470.402344 C 192.308594 470.402344 169.320313 478.394531 167.320313 479.394531 L 196.308594 379.472656 C 198.304688 382.472656 202.304688 410.449219 204.304688 417.441406 C 205.304688 422.4375 210.300781 453.414063 210.300781 458.410156 L 253.277344 480.394531 C 259.277344 478.394531 283.265625 470.402344 285.265625 467.402344 C 289.261719 463.40625 300.257813 447.421875 304.253906 441.425781 L 303.253906 412.445313 L 284.265625 432.433594 L 260.273438 417.441406 C 266.273438 417.441406 277.269531 414.445313 280.265625 410.449219 C 283.265625 407.449219 292.261719 396.460938 292.261719 394.460938 L 288.261719 390.464844 L 268.269531 413.445313 L 240.285156 396.460938 L 257.277344 395.460938 L 278.265625 373.476563 L 276.269531 369.480469 L 251.28125 393.460938 L 225.292969 379.472656 L 242.285156 377.476563 L 263.273438 354.492188 L 260.273438 351.496094 L 237.285156 376.476563 L 205.304688 359.488281 L 227.292969 357.488281 L 240.285156 339.503906 L 59.375 428.433594 C 60.375 436.429688 92.359375 469.402344 100.355469 474.398438 C 118.347656 488.386719 133.339844 499.378906 154.328125 509.371094 C 172.320313 518.363281 195.308594 528.355469 217.296875 533.351563 C 228.292969 536.351563 240.285156 541.347656 248.28125 546.34375 C 253.277344 549.339844 257.277344 552.335938 261.273438 555.335938 C 264.273438 558.332031 270.269531 564.328125 273.269531 565.328125 C 277.269531 563.328125 285.265625 555.335938 290.261719 551.339844 C 294.257813 548.339844 304.253906 542.34375 310.25 540.347656 C 317.246094 537.347656 324.242188 533.351563 332.238281 531.355469 C 340.234375 529.355469 350.230469 528.355469 357.226563 526.355469 C 383.214844 519.363281 421.195313 497.378906 437.1875 481.394531 C 460.175781 458.410156 476.167969 443.421875 492.160156 411.449219 C 504.15625 387.46875 515.148438 347.496094 515.148438 310.527344 C 515.148438 292.542969 512.152344 273.558594 509.152344 258.566406 C 507.152344 249.574219 506.152344 242.582031 503.15625 234.585938 C 501.15625 225.59375 497.160156 219.597656 495.160156 212.605469 L 326.242188 298.535156 "/>
<path style=" stroke:none;fill-rule:evenodd;fill:rgb(87.799072%,83.099365%,24.699402%);fill-opacity:1;" d="M 496.160156 128.671875 L 39.382813 128.671875 C 43.382813 135.664063 47.378906 149.652344 47.378906 161.644531 L 47.378906 179.632813 C 47.378906 201.613281 38.386719 220.597656 34.386719 239.585938 C 29.390625 259.566406 27.390625 281.550781 27.390625 305.53125 C 27.390625 330.511719 30.390625 351.496094 34.386719 371.480469 C 36.386719 381.472656 40.382813 391.464844 43.382813 399.457031 C 46.382813 405.453125 55.375 420.441406 56.375 423.4375 C 61.375 422.4375 85.363281 409.449219 92.359375 406.453125 C 95.355469 404.453125 128.339844 388.464844 128.339844 387.46875 C 128.339844 380.472656 123.34375 365.484375 122.34375 358.488281 C 120.34375 347.496094 118.347656 337.507813 116.347656 327.515625 C 112.347656 307.53125 108.351563 287.546875 104.351563 267.5625 L 194.308594 179.632813 L 197.308594 179.632813 L 175.316406 264.5625 L 220.296875 241.582031 L 175.316406 319.519531 L 142.332031 321.519531 L 153.328125 347.496094 L 226.292969 293.539063 L 247.28125 316.523438 L 242.285156 281.550781 L 266.273438 281.550781 C 269.269531 281.550781 281.265625 263.5625 284.265625 261.566406 L 312.25 284.546875 L 302.253906 255.570313 C 307.253906 255.570313 326.242188 249.574219 332.238281 248.574219 C 343.234375 245.578125 353.230469 242.582031 363.226563 240.582031 C 367.222656 239.585938 393.210938 232.589844 393.210938 231.589844 C 393.210938 230.589844 382.214844 209.605469 381.214844 205.609375 C 378.21875 207.609375 360.226563 228.59375 359.226563 228.59375 L 262.273438 219.597656 L 311.25 198.617188 L 311.25 197.617188 L 230.289063 163.644531 L 230.289063 159.648438 L 356.230469 143.660156 L 442.1875 232.589844 L 494.160156 207.609375 C 491.160156 194.617188 489.164063 186.625 489.164063 170.636719 L 489.164063 158.648438 C 489.164063 142.660156 493.160156 138.664063 496.160156 128.671875 "/>
<path style=" stroke:none;fill-rule:evenodd;fill:rgb(15.299988%,16.499329%,17.999268%);fill-opacity:1;" d="M 23.390625 106.6875 L 512.152344 106.6875 C 510.152344 103.691406 505.15625 98.695313 502.15625 94.699219 C 500.15625 91.699219 496.160156 84.707031 494.160156 80.707031 C 489.164063 70.714844 484.164063 60.722656 481.167969 49.734375 C 478.167969 41.738281 479.167969 39.742188 471.171875 36.742188 C 466.175781 34.746094 461.175781 32.746094 455.179688 30.746094 C 445.183594 27.75 432.191406 20.757813 423.195313 18.757813 C 412.199219 24.753906 406.203125 28.75 389.210938 28.75 L 378.21875 28.75 C 368.222656 28.75 357.226563 23.753906 347.230469 23.753906 C 335.238281 23.753906 324.242188 21.753906 312.25 21.753906 L 251.28125 21.753906 C 235.289063 21.753906 217.296875 23.753906 200.304688 23.753906 C 191.308594 23.753906 183.3125 25.753906 175.316406 25.753906 C 165.320313 25.753906 159.324219 26.75 150.328125 26.75 L 138.335938 26.75 C 123.34375 26.75 119.34375 23.753906 110.351563 18.757813 L 56.375 41.738281 C 55.375 51.730469 47.378906 70.714844 43.382813 77.710938 C 41.382813 82.707031 37.386719 88.703125 34.386719 92.699219 C 31.386719 96.695313 26.390625 103.691406 23.390625 106.6875 "/>
<path style=" stroke:none;fill-rule:evenodd;fill:rgb(100%,100%,100%);fill-opacity:1;" d="M 270.269531 76.710938 C 265.273438 72.714844 252.28125 37.742188 244.285156 37.742188 L 241.285156 36.742188 L 220.296875 39.742188 L 201.304688 75.710938 C 201.304688 69.71875 198.304688 65.71875 193.308594 64.722656 C 196.308594 62.722656 199.304688 61.722656 199.304688 55.730469 L 199.304688 50.734375 C 199.304688 45.734375 195.308594 40.738281 191.308594 40.738281 L 186.3125 40.738281 L 132.339844 41.738281 L 130.339844 44.738281 L 130.339844 78.710938 C 128.339844 77.710938 121.34375 64.722656 119.34375 61.722656 C 114.347656 53.730469 113.347656 50.734375 106.351563 45.734375 C 81.363281 45.734375 80.363281 43.738281 71.367188 59.726563 C 66.371094 70.714844 59.375 80.707031 54.378906 90.699219 L 55.375 93.699219 C 59.375 93.699219 69.371094 94.699219 71.367188 93.699219 C 78.363281 92.699219 77.367188 85.703125 80.363281 85.703125 L 112.347656 85.703125 C 113.347656 89.703125 117.347656 94.699219 122.34375 94.699219 L 148.332031 94.699219 L 194.308594 93.699219 C 195.308594 95.695313 196.308594 96.695313 198.304688 96.695313 L 210.300781 96.695313 C 214.296875 96.695313 219.296875 89.703125 220.296875 86.703125 L 248.28125 86.703125 C 253.277344 86.703125 250.28125 96.695313 264.273438 96.695313 C 271.269531 96.695313 279.265625 94.699219 288.261719 94.699219 C 289.261719 94.699219 290.261719 93.699219 290.261719 91.699219 L 290.261719 80.707031 C 299.257813 80.707031 305.253906 80.707031 313.25 80.707031 C 325.242188 80.707031 320.246094 85.703125 322.246094 94.699219 L 338.238281 94.699219 C 340.234375 94.699219 340.234375 93.699219 340.234375 92.699219 L 340.234375 77.710938 C 340.234375 73.714844 337.238281 72.714844 336.238281 70.714844 C 340.234375 68.71875 341.234375 67.71875 341.234375 60.722656 L 341.234375 54.730469 L 361.226563 56.726563 L 361.226563 90.699219 C 361.226563 91.699219 362.226563 94.699219 364.226563 94.699219 L 377.21875 94.699219 C 378.21875 94.699219 380.21875 92.699219 380.21875 90.699219 L 380.21875 56.726563 L 390.210938 56.726563 L 400.207031 57.726563 L 400.207031 91.699219 C 403.203125 92.699219 401.207031 93.699219 404.203125 93.699219 L 416.199219 93.699219 C 418.199219 93.699219 419.195313 92.699219 419.195313 90.699219 L 419.195313 76.710938 L 452.183594 77.710938 L 452.183594 87.703125 C 452.183594 88.703125 454.179688 90.699219 454.179688 91.699219 L 469.171875 92.699219 L 470.171875 92.699219 C 472.171875 92.699219 473.171875 90.699219 473.171875 89.703125 L 473.171875 54.730469 C 473.171875 52.730469 471.171875 48.734375 469.171875 48.734375 L 454.179688 48.734375 C 454.179688 51.730469 452.183594 51.730469 452.183594 56.726563 L 452.183594 62.722656 L 419.195313 61.722656 L 419.195313 49.734375 C 419.195313 43.738281 407.203125 43.738281 402.207031 42.738281 C 396.210938 42.738281 386.214844 41.738281 380.21875 41.738281 C 372.222656 41.738281 339.234375 37.742188 336.238281 39.742188 C 329.242188 34.746094 295.257813 36.742188 283.265625 36.742188 L 277.269531 36.742188 C 268.269531 36.742188 270.269531 43.738281 270.269531 52.730469 C 270.269531 60.722656 270.269531 68.71875 270.269531 76.710938 "/>
<path style=" stroke:none;fill-rule:evenodd;fill:rgb(76.499939%,39.99939%,42.399597%);fill-opacity:1;" d="M 245.28125 163.644531 L 322.246094 195.617188 L 322.246094 196.617188 L 283.265625 216.601563 L 356.230469 224.59375 L 383.214844 197.617188 L 401.207031 234.585938 L 311.25 259.566406 L 322.246094 293.539063 L 439.1875 234.585938 C 437.1875 231.589844 423.195313 218.601563 419.195313 213.605469 C 412.199219 206.609375 406.203125 199.613281 398.207031 192.621094 C 394.210938 188.625 358.226563 149.652344 357.226563 149.652344 L 245.28125 163.644531 "/>
<path style=" stroke:none;fill-rule:evenodd;fill:rgb(76.499939%,39.99939%,42.399597%);fill-opacity:1;" d="M 109.351563 270.558594 L 133.339844 384.46875 L 247.28125 327.515625 L 248.28125 327.515625 L 227.292969 300.535156 L 151.328125 356.492188 L 134.335938 314.523438 L 170.320313 314.523438 L 205.304688 253.570313 L 168.320313 273.558594 L 190.308594 190.621094 L 109.351563 270.558594 "/>
<path style=" stroke:none;fill-rule:evenodd;fill:rgb(76.499939%,39.99939%,42.399597%);fill-opacity:1;" d="M 326.242188 299.535156 L 326.242188 298.535156 C 307.253906 308.527344 287.261719 316.523438 268.269531 325.515625 C 255.277344 332.511719 252.28125 330.511719 243.285156 343.503906 C 240.285156 347.496094 238.285156 351.496094 235.289063 355.492188 C 231.289063 362.484375 231.289063 362.484375 221.296875 364.484375 L 239.285156 368.480469 L 238.285156 367.480469 L 260.273438 342.503906 L 261.273438 342.503906 L 269.269531 354.492188 L 246.28125 381.472656 L 237.285156 382.472656 L 252.28125 390.464844 L 276.269531 364.484375 L 285.265625 371.480469 L 263.273438 399.457031 L 253.277344 400.457031 L 267.273438 407.449219 L 290.261719 383.46875 L 301.257813 393.460938 L 279.265625 419.441406 L 270.269531 419.441406 C 271.269531 420.441406 279.265625 425.4375 281.265625 425.4375 C 283.265625 425.4375 301.257813 403.453125 305.253906 401.457031 L 328.242188 401.457031 C 330.242188 399.457031 343.234375 392.464844 343.234375 390.464844 L 344.234375 387.46875 L 343.234375 381.472656 L 366.222656 380.472656 L 377.21875 380.472656 L 378.21875 369.480469 C 377.21875 370.480469 376.21875 373.476563 374.21875 373.476563 L 339.234375 373.476563 L 336.238281 360.488281 L 373.21875 359.488281 L 372.222656 346.5 L 368.222656 350.496094 L 333.238281 350.496094 L 330.242188 333.511719 L 367.222656 333.511719 L 368.222656 322.519531 L 364.226563 325.515625 L 326.242188 327.515625 L 324.242188 311.527344 L 361.226563 309.527344 L 363.226563 295.539063 L 361.226563 299.535156 L 326.242188 299.535156 "/>
<path style=" stroke:none;fill-rule:evenodd;fill:rgb(100%,100%,100%);fill-opacity:1;" d="M 185.3125 128.671875 L 357.226563 128.671875 L 357.226563 106.6875 L 185.3125 106.6875 L 185.3125 128.671875 "/>
<path style=" stroke:none;fill-rule:evenodd;fill:rgb(14.498901%,65.899658%,72.198486%);fill-opacity:1;" d="M 39.382813 128.671875 L 185.3125 128.671875 L 185.3125 106.6875 L 23.390625 106.6875 C 22.394531 108.6875 29.390625 114.683594 31.386719 116.679688 C 34.386719 119.679688 37.386719 124.675781 39.382813 128.671875 "/>
<path style=" stroke:none;fill-rule:evenodd;fill:rgb(87.098694%,39.99939%,38.398743%);fill-opacity:1;" d="M 357.226563 128.671875 L 496.160156 128.671875 C 497.160156 126.671875 500.15625 120.675781 503.15625 116.679688 C 506.152344 112.683594 510.152344 110.683594 512.152344 106.6875 L 357.226563 106.6875 L 357.226563 128.671875 "/>
<path style=" stroke:none;fill-rule:evenodd;fill:rgb(76.499939%,39.99939%,42.399597%);fill-opacity:1;" d="M 272.269531 287.546875 L 248.28125 287.546875 L 254.277344 325.515625 L 315.25 297.539063 L 286.261719 268.5625 C 285.265625 271.558594 275.269531 287.546875 272.269531 287.546875 "/>
<path style=" stroke:none;fill-rule:evenodd;fill:rgb(76.499939%,39.99939%,42.399597%);fill-opacity:1;" d="M 329.242188 409.449219 L 312.25 409.449219 L 312.25 438.425781 C 312.25 440.425781 320.246094 447.421875 321.246094 448.417969 L 346.234375 446.421875 L 345.234375 399.457031 C 342.234375 400.457031 331.238281 409.449219 329.242188 409.449219 "/>
<path style=" stroke:none;fill-rule:evenodd;fill:rgb(76.499939%,39.99939%,42.399597%);fill-opacity:1;" d="M 290.261719 473.398438 L 290.261719 478.394531 C 290.261719 484.390625 301.257813 492.382813 305.253906 494.382813 L 345.234375 453.414063 L 319.246094 455.414063 L 309.253906 447.421875 C 306.253906 452.414063 290.261719 469.402344 290.261719 473.398438 "/>
<path style=" stroke:none;fill-rule:evenodd;fill:rgb(76.499939%,39.99939%,42.399597%);fill-opacity:1;" d="M 250.28125 494.382813 L 255.277344 509.371094 L 297.257813 499.378906 C 295.257813 496.382813 283.265625 488.386719 283.265625 485.390625 L 283.265625 475.398438 C 278.265625 476.398438 269.269531 480.394531 264.273438 482.390625 C 253.277344 486.390625 255.277344 485.390625 250.28125 494.382813 "/>
<path style=" stroke:none;fill-rule:evenodd;fill:rgb(76.499939%,39.99939%,42.399597%);fill-opacity:1;" d="M 174.316406 470.402344 L 201.304688 459.410156 L 195.308594 398.457031 Z M 174.316406 470.402344 "/>
<path style=" stroke:none;fill-rule:evenodd;fill:rgb(76.499939%,39.99939%,42.399597%);fill-opacity:1;" d="M 199.304688 467.402344 L 199.304688 468.402344 L 248.28125 509.371094 C 248.28125 506.371094 244.285156 498.378906 244.285156 496.382813 C 244.285156 495.382813 248.28125 487.386719 248.28125 485.390625 C 247.28125 484.390625 210.300781 463.40625 208.300781 463.40625 C 207.300781 463.40625 202.304688 466.402344 199.304688 467.402344 "/>
<path style=" stroke:none;fill-rule:evenodd;fill:rgb(15.299988%,16.499329%,17.999268%);fill-opacity:1;" d="M 290.261719 64.722656 L 316.246094 64.722656 C 319.246094 64.722656 321.246094 62.722656 321.246094 59.726563 L 321.246094 58.726563 C 321.246094 55.730469 319.246094 52.730469 316.246094 52.730469 L 290.261719 52.730469 L 290.261719 64.722656 "/>
<path style=" stroke:none;fill-rule:evenodd;fill:rgb(15.299988%,16.499329%,17.999268%);fill-opacity:1;" d="M 152.328125 73.714844 L 148.332031 73.714844 L 148.332031 80.707031 C 155.328125 80.707031 182.3125 81.707031 182.3125 75.710938 C 182.3125 73.714844 181.3125 73.714844 180.316406 72.714844 L 152.328125 73.714844 "/>
<path style=" stroke:none;fill-rule:evenodd;fill:rgb(15.299988%,16.499329%,17.999268%);fill-opacity:1;" d="M 148.332031 54.730469 L 148.332031 61.722656 L 150.328125 61.722656 C 155.328125 61.722656 180.316406 62.722656 180.316406 58.726563 C 180.316406 51.730469 171.320313 53.730469 166.320313 54.730469 C 161.324219 54.730469 153.328125 54.730469 148.332031 54.730469 "/>
<path style=" stroke:none;fill-rule:evenodd;fill:rgb(15.299988%,16.499329%,17.999268%);fill-opacity:1;" d="M 225.292969 71.714844 L 245.28125 71.714844 L 235.289063 52.730469 Z M 225.292969 71.714844 "/>
<path style=" stroke:none;fill-rule:evenodd;fill:rgb(15.299988%,16.499329%,17.999268%);fill-opacity:1;" d="M 86.359375 73.714844 L 104.351563 73.714844 L 94.355469 59.726563 Z M 86.359375 73.714844 "/>
</g>
</svg>
