<svg xmlns="http://www.w3.org/2000/svg" viewBox="0 0 267.7 68.92"><title>Brilliance Auto logo - Brandlogos.net</title><rect x="0.43" y="41.02" width="267.27" height="1.05" style="fill:#231f20"/><path d="M252.9,379v.68c0,2.09.1,3.25-2.75,3.25v1.86h14.23c5.09,0,8.51-2.16,9.89-5.79h-7.4c-.64,2.41-2.13,3.88-4.37,3.88-2,0-3.09-1.16-3.09-3.51V379H252.9m25.36,0v1.45c0,2-.54,2.7-2.56,2.86V385h11.51V383c-2.66-.15-3.19-.8-3.16-3.06V379Zm18,0v1.45c0,2-.33,2.65-2.35,2.8V385h10.46v-1.74c-2-.15-2.32-.71-2.32-2.75V379Zm12.67,0v1.45c0,2-.39,2.7-2.41,2.86V385h10.36v-1.64c-2-.15-2.16-.81-2.16-2.86V379Zm12.77,0v1.45c0,2-.39,2.7-2.41,2.86V385h10.36v-1.64c-2-.15-2.16-.81-2.16-2.86V379Zm13,0v1.45c0,2-.33,2.65-2.35,2.8V385h10.46v-1.74c-2-.15-2.32-.71-2.32-2.75V379Zm9.35,0a7,7,0,0,0,0,.85c.07,4.39,2.72,5.75,5.65,5.81a6.44,6.44,0,0,0,5.71-3.51c.92,1.94,2.06,3.51,4.5,3.51a4.77,4.77,0,0,0,4.92-5v-1.48H363v.87c-.13,2-.86,2-1.38,2s-1-.46-1-2v-1h-5.9c-.35,2.45-1.47,3.18-2.69,3.18s-2-1.29-2-3.18Zm24,0v1.45c0,2-.58,2.7-2.42,2.86V385H376.1v-1.64c-2-.15-2.26-.81-2.26-2.86V379Zm11.59,0V385h7.8v-1.64c-1.84-.15-2-.81-2-2.86V379Zm10.27,0c1.49,3.78,4.61,6.55,9.11,6.55,3.51,0,5.5-3,6-6.56h-1.86c-.49,2.08-1.59,3.57-3.58,3.57-1.66,0-2.65-1.28-3.19-3.56ZM408,379c1.54,3.79,4.74,6.65,9.22,6.65,4.22,0,6.61-2.71,7.7-6.65h-1.8c-1,2.93-2.55,4.2-4.9,4.2s-3.55-1.35-4.16-4.2Zm28.41,0-.13.37c-.73,2.35-1.57,3.67-3.87,3.87V385h8.48v-1.64c-2.48,0-2.88-.56-2.88-2.2a12.24,12.24,0,0,1,.49-2.1Zm14.75,0,.19.58a6.5,6.5,0,0,1,.37,1.84c0,1.38-1.1,1.58-3.76,1.58V385h13.44v-1.74c-2.21-.2-2.18-1.06-3-3.52l-.23-.68Zm10.85,0c.09,5,2.63,6.6,6,6.6a7.88,7.88,0,0,0,5.88-3.45l.09,3.1,7.9-.31v-1.84c-1.84-.15-2.22-.51-2.22-2.55V379h-6.07c-.56,2.07-1.9,3.25-3.4,3.25-1.15,0-1.92-.33-1.92-2.73V379Zm24.22,0v.36c.16,4.68,1.52,6,6,6.14,2.3.05,5.44-2.59,5.4-6.28V379H496c0,2.16-.74,3.46-2.3,3.37-.94-.06-1.1-.74-1.12-3.06V379Zm13.34,0c1.59,4,4.79,6.65,8.57,6.65s7-2.66,8.58-6.65h-5.71c-.53,3.29-1.57,4.77-2.86,4.77s-2.33-1.48-2.86-4.77h-5.71" transform="translate(-250.15 -349.54)" style="fill:#b45240;fill-rule:evenodd"/><path d="M252.9,379h6.53v-6.7H252.9Zm13.93-6.7a16.06,16.06,0,0,1,.39,3.78,11.49,11.49,0,0,1-.34,2.92h7.4a11.68,11.68,0,0,0,.69-4.38,5.52,5.52,0,0,0-.58-2.31Zm11.43,0V379H284v-5.75c0-.32,0-.64,0-.94Zm18,6.7H302v-6.7h-5.79Zm12.67,0h5.79v-6.7h-5.79Zm12.77,0h5.79v-6.7h-5.79Zm13,0h5.79v-6.7h-5.79Zm15.48-6.7-.56.24c-3.33,1.45-5.28,3.74-5.57,6.46h6c0-.21,0-.44,0-.67.19-3.27,1.58-5.08,4.11-6Zm4.68,0v4.93a12.51,12.51,0,0,1-.11,1.77h5.9v-6.7Zm13.24,6.7h5.79v-6.7h-5.79Zm11.59,0h5.79v-6.7h-5.79Zm9.32-6.7c0,.41,0,.84,0,1.27a14.89,14.89,0,0,0,1,5.43h6.49a30.67,30.67,0,0,1-.57-6.7Zm18.11,0c0,.45,0,.9,0,1.37a14.22,14.22,0,0,0,1,5.33h6.07a26.13,26.13,0,0,1-.43-5.28h11.49q0-.73,0-1.42Zm31.73,0-2.35,6.7h2.08v0l1.54-3.93h9.84l1.29,4h7l-2.27-6.7h-6.82l.2.64h-8.58l.23-.64Zm23.26,0v6.41c0,.1,0,.19,0,.29h6.24v-6.7Zm11.84,0v4.47a8.43,8.43,0,0,1-.28,2.23h6.07v-6.7Zm12.38,6.7h6.26v-6.7h-6.26Zm12.3-6.7c0,.31,0,.61,0,.92a15.6,15.6,0,0,0,1.07,5.77h5.71a37.13,37.13,0,0,1-.38-5.77c0-.32,0-.62,0-.92Zm12.85,0c0,.3,0,.61,0,.92a37.07,37.07,0,0,1-.38,5.77h5.71a15.62,15.62,0,0,0,1.06-5.77q0-.46,0-.92ZM405,379a14.26,14.26,0,0,0,.1-2.92h-1.65a13.42,13.42,0,0,1-.31,2.92ZM425,379a18.71,18.71,0,0,0,.48-2.34h-1.7a17.3,17.3,0,0,1-.57,2.34Zm72.74,0v-1.45H496V379h1.75" transform="translate(-250.15 -349.54)" style="fill:#b45240;fill-rule:evenodd"/><path d="M252.9,365.64v6.7h6.53v-4.67h2.07c2,.06,4.4.8,5.34,4.67h7.56c-1.75-3.57-7-5.76-10.1-5.85l3-.56c.26-.08.54-.18.82-.29H252.9m25.35,0c0,.1,0,.21,0,.31v6.38h5.81a11.24,11.24,0,0,1,2.1-6.7H284a7.12,7.12,0,0,0-.34,1l0-1Zm8.75,0a3.19,3.19,0,0,0,2.83,1.74,2.93,2.93,0,0,0,2.93-1.74Zm9.25,0c0,.12,0,.24,0,.38v6.32H302v-6.7Zm12.67,6.7h5.79v-6.7h-5.79Zm12.77,0h5.79v-6.7h-5.79Zm13-6.7c0,.12,0,.24,0,.38v6.32h5.79v-6.7Zm10.21,0a3.75,3.75,0,0,0-.11.9c0,1.46,1.35,2.61,3.5,2.61,1.7,0,3.4-.84,3.4-2.56a2.87,2.87,0,0,0-.14-.95Zm9.9,0c0,.29,0,.6,0,1v3.64c-1.52.57-2.61,1.18-4.67,2.1h4l.71-.23v.23h5.79v-4.93a9.57,9.57,0,0,0-.15-1.77Zm13.27,0c0,.15,0,.3,0,.46v6.23h5.79v-3a4.63,4.63,0,0,1,1.55-3.68Zm11.26,0a3.71,3.71,0,0,1,.34,1.71v5h5.79v-4.65a11.54,11.54,0,0,0-.17-2Zm11.63,0a15.08,15.08,0,0,0-2,6.69h6.87v-.2a17.83,17.83,0,0,1,1-6.5Zm8,0a3.74,3.74,0,0,0-.25,1.37,2.94,2.94,0,0,0,2.88,2.67,3.29,3.29,0,0,0,3.45-3.24,5.56,5.56,0,0,0-.06-.8Zm10.11,0a15.27,15.27,0,0,0-1.94,6.7h18.07a18.41,18.41,0,0,0-1.41-6.69H418.9a26.74,26.74,0,0,1,.49,6h-5.7a26.7,26.7,0,0,1,.49-6Zm32.14,0-2.35,6.7H441l2.39-6.7Zm5.88,0,2.07,6.7h6.82l-2.28-6.7Zm15,6.7h6.25v-6.7h-6.25Zm11.84,0h5.79v-6.7h-5.79Zm12.38,0h6.26v-6.7h-6.26Zm14.24-6.7a14.8,14.8,0,0,0-1.94,6.7H505a26.74,26.74,0,0,1,.78-6.7Zm10.13,0a26.52,26.52,0,0,1,.78,6.7h6.38a14.71,14.71,0,0,0-1.94-6.69h-5.21" transform="translate(-250.15 -349.54)" style="fill:#b45240;fill-rule:evenodd"/><path d="M268.15,365.64c2.48-1,5.7-3.15,5.7-7.31,0-5.67-5.42-8.63-11.76-8.63H250.15v2.14c2.85,0,2.75.87,2.75,3v10.84h15.25m15.51,0-.08-4.38-8,.31v1.84c1.92.14,2.59.47,2.66,2.24Zm2.5,0q.27-.34.57-.67a3.1,3.1,0,0,0,.26.67h5.75a3.55,3.55,0,0,0,.26-1.3c0-1.67-1.09-3-3.29-3-2.42,0-4.69,2-5.7,4.28Zm15.88,0v-4.32l-8.09.31v1.84c1.89.14,2.25.47,2.29,2.17Zm12.67,0V349.85l-8.09.3V352c2,.15,2.3.51,2.3,2.55v11.1Zm12.77,0V349.85l-8.09.3V352c2,.15,2.3.51,2.3,2.55v11.1Zm13,0v-4.32l-8.09.31v1.84c1.89.14,2.26.47,2.3,2.17Zm11.08,0c-.26-.74-.87-1.17-1.85-1.82a4.14,4.14,0,0,1,2-.58c1.8-.09,2.83.24,3.05,2.39h5.68c-.66-3.53-3.48-4.44-8-4.44-3.38,0-6.9,1.77-7.56,4.44Zm23.87,0a4.14,4.14,0,0,1,2.6-.84,1.44,1.44,0,0,1,1.31.84h6a4.79,4.79,0,0,0-5.21-4.37,7.73,7.73,0,0,0-6.49,4.05l-.09-3.92-7.68.3v1.84c1.49.1,2.15.45,2.25,2.09Zm21.39,0c.72-1.81,1.67-2.38,2.18-2.38,1,0,1.67-.12,2.2.71a2.47,2.47,0,0,0-2.26,1.67h6c-.39-2.73-2.83-4.59-6.9-4.59-2.74,0-5.37,1.69-7.1,4.59Zm17.38,0c.43-1.74,1.17-2.6,2.36-2.6s1.93.87,2.36,2.6h4.84a7.38,7.38,0,0,0-7.07-4.75,8.88,8.88,0,0,0-7.66,4.75Zm29.17,0,2-5.54,1.71,5.54h6.62l-5.47-16.11h-1.39l-5.64,16.11Zm25,0v-4.46l-8.26.31V363c1.84.15,2,.51,2,2.55v.07Zm11.39,0v-4.46l-7.93.31V363c1.6.12,2.14.51,2.14,2.55v.07Zm12.86,0v-1.78h4.3v-2.14h-4.3V351.42h-2.23c-.52,4.81-2.72,9.42-6.59,10.5v1.94h2.56v1.78Zm13.19,0c.58-2,1.44-2.92,2.46-2.92s1.88.92,2.46,2.92h5.21a8.53,8.53,0,0,0-15.35,0ZM333.88,353.25a3.61,3.61,0,1,1,3.61,3.61A3.61,3.61,0,0,1,333.88,353.25Zm-38.41,0a3.61,3.61,0,1,1,3.61,3.61A3.61,3.61,0,0,1,295.47,353.25Zm-36.05,1.25c0-1.63.55-2.65,2.44-2.65,3.08,0,4.64,2.6,4.64,6.54,0,4.8-1.89,7.17-5.7,7.17h-1.38V354.5" transform="translate(-250.15 -349.54)" style="fill:#b45240;fill-rule:evenodd"/><path d="M273.81,411.77V412h-9.53v6.34h-2V412h-9.54v-.19h21m79.85,0v.39h-3.48l1.23,1.42a9.42,9.42,0,0,1-1.88,1.83c1.23.6,2.41.57,4.81.63l-.85,2.18c-6.42-.35-8.36-2.63-9.65-6.07h-3.35v3.71l3.59-1v1.84l-5.35,1.58-1.17-1.61a1.34,1.34,0,0,0,1-1.24v-3.24h-2.35c.05,1.74-.13,4.65-1.61,6.15l-1.64-1.22a9.6,9.6,0,0,0,1.45-5.32Zm64.9,0a17.74,17.74,0,0,1-3.81,6.7l-1.58-1.22a15.59,15.59,0,0,0,3.38-5.47Zm13.26,0c0,.48.06,1,.11,1.45.21,2.25.68,2.56,1.1,1a15.56,15.56,0,0,0,.54-2.24l1.81,1c-.78,3.77-1.88,5.23-2.88,5.23-1.42.05-2.67-2.56-2.67-5.44,0-.32,0-.67,0-1Zm83.51,0v1.12h-8.75v5.5h-2v-5.5h-10.2v-1.12Zm-165.45.39h-4a5.63,5.63,0,0,0,1.59,1.84,7.25,7.25,0,0,0,2.41-1.84" transform="translate(-250.15 -349.54)" style="fill:#929497;fill-rule:evenodd"/><path d="M252.78,411.76v-1.7h9.54v-2.52h2v2.52h9.53v1.7h-21m81.61,0c0-1.39,0-2.93,0-4.72V404.5h19.09v1.89H336.18c0,1.89.08,3.17,0,3.87h17.47v1.51Zm82.15,0c.37-1,.71-2.06,1.06-3.31l1.7,1c-.25.82-.49,1.57-.74,2.28Zm13.27,0a41.12,41.12,0,0,1-.12-5.11H419.8v-1.9h12.13a61.71,61.71,0,0,0-.11,7Zm64.6,0V411h10.2v-3h-8.42l3.69-6.77h-5v-1.89h6l.52-1,1.57-3.09,1.77.86-1.15,2.23-.51,1h12.06v1.89h-13l-2.54,4.87h5v-2.76h2v2.76h7.71V408h-7.71v3h8.75v.78ZM338.07,407.3h13.29v1.9H338.07ZM336,396.25h15.9v7.29H336Zm2.19,2.62h11.63v-.93H338.16Zm0,2.79h11.63v-.89H338.16Zm84.51-4h10.8v1.9H422a11.77,11.77,0,0,1-2.56,3.76l-1.68-1.11a12.65,12.65,0,0,0,3.4-7.12l1.8.81A9.06,9.06,0,0,1,422.67,397.63Zm-9.54-.44,1.24-1.46a11.64,11.64,0,0,1,4.23,3.56l-1.29,1.42A10.22,10.22,0,0,0,413.12,397.19Zm0,6.94,1.19-1.43a9.87,9.87,0,0,1,4.17,3.56l-1.34,1.45A9.5,9.5,0,0,0,413.14,404.13Zm8.66-2.85h10.9v1.9h-10.9Zm-155.47,4.43h3.56a.94.94,0,0,0,.77-.39,6.59,6.59,0,0,0,.63-2.15l1.74,1a7.24,7.24,0,0,1-1.12,2.83,1.75,1.75,0,0,1-1.34.63h-4.29q-2.68,0-2.67-2.42v-1.79a16.69,16.69,0,0,1-3,1.38l-1-2.09c2.41-.47,3.09-.78,4.07-1.52v-5.44h2.05v4.52a18.4,18.4,0,0,0,4.46-3.32l1.5,1.56a17.23,17.23,0,0,1-6,4V405A.59.59,0,0,0,266.32,405.71Zm-7.53-10.39,1.73,1.83a11.92,11.92,0,0,1-2,2.25v8.32h-2v-6.17a15.46,15.46,0,0,1-3,2.09l-.42-2.09a16.26,16.26,0,0,0,5.7-6.23" transform="translate(-250.15 -349.54)" style="fill:#929497;fill-rule:evenodd"/></svg>