<svg xmlns="http://www.w3.org/2000/svg" viewBox="0 0 183 159"><title>Chongqing Changan logo</title><path d="M506.55,432.51c-20.62.39-45.44,4-59.86,12.62a53.05,53.05,0,0,0-24.24,34.78c-3.51,17.67-1.89,34.88,1.57,52.56s10.39,37.49,29.59,47.68S485.69,591.57,512,591.5c26.31.08,39.19-1.13,58.38-11.33s26.13-30,29.59-47.68,5.08-34.89,1.57-52.56a53.05,53.05,0,0,0-24.24-34.78c-18.73-10.3-39.34-12.28-59.86-12.62C513.71,432.54,510,432.47,506.55,432.51Zm26.84,4.76c7.61.73,26.66,2.2,40.92,10.7s20.63,19.31,23.29,32.42,2.43,29.69-1.26,50.67-14,38.44-28,45.8S536.56,588.11,512,587.73c-24.56.38-42.33-3.51-56.33-10.86s-24.32-24.81-28-45.8-3.92-37.56-1.26-50.67,9-23.92,23.29-32.42,33.3-10,40.92-10.7A249.37,249.37,0,0,1,533.4,437.27Zm-26.12,3.65a179.54,179.54,0,0,0-32.76,3.42c-9.78,2.1-13.13,2.85-21.57,7.89a47.55,47.55,0,0,0-22,31.15c-3.18,15.82-1.71,31.24,1.43,47.08s9.43,33.57,26.85,42.71c29,15.08,77.3,14.48,105.53,0,17.42-9.13,23.71-26.87,26.85-42.71s4.61-31.25,1.43-47.08a47.55,47.55,0,0,0-22-31.15c-8.44-5-11.78-5.79-21.57-7.89a179.54,179.54,0,0,0-32.76-3.42C513.48,440.94,510.28,440.88,507.28,440.92Zm23,7.61a147.48,147.48,0,0,1,14.88,1.95c.92.19,1.44.49,1.23,1.36-10,24.21-20.65,48.44-31.77,72.65-1.5,3.21-3.39,3.33-4.93.59-11.22-24.41-22-48.84-32-73.25-.2-.87.32-1.17,1.23-1.36a147.48,147.48,0,0,1,14.88-1.95A215.82,215.82,0,0,1,530.26,448.53Zm-61.44,4.58c.57,0,.76.36.74,1.07v40.72c0,12.86,2.1,18.89,7.79,29.38l27.26,50.2c.93,1.77-.58,1.66-2.22,1.68-16.25-.7-28.7-3.86-38.84-9.09-12.09-6.24-21-21.07-24.2-38.89s-3.39-31.9-1.09-43,7.8-20.31,20.12-27.53a52.91,52.91,0,0,1,9.77-4.37A2.44,2.44,0,0,1,468.82,453.11Zm86.35,0a2.44,2.44,0,0,1,.66.14,52.91,52.91,0,0,1,9.77,4.37c12.31,7.22,17.82,16.4,20.12,27.53s2.1,25.21-1.09,43-12.1,32.64-24.2,38.89c-10.14,5.23-22.58,8.39-38.84,9.09-1.64,0-3.15.1-2.22-1.68l27.26-50.2c5.69-10.49,7.79-16.52,7.79-29.38V454.18C554.42,453.47,554.61,453.1,555.18,453.11Z" transform="translate(-420.5 -432.5)" style="fill:#0b457f"/></svg>