<svg xmlns="http://www.w3.org/2000/svg" viewBox="0 0 238.5 26"><title>Dacia logo</title><path d="M561.17,525h10.17V499H561.17ZM510,500.41l-10.39,10.53a1.27,1.27,0,0,0,0,2.12L510,523.59a4,4,0,0,0,3.43,1.4H547.6v-8.79H516L511.56,512l4.46-4.21h31.58V499H513.39a4,4,0,0,0-3.43,1.4ZM430.4,523.6l10.39-10.54a1.27,1.27,0,0,0,0-2.12L430.4,500.41A4,4,0,0,0,427,499H392.75v8.79h31.58L428.8,512l-4.46,4.21H392.75V525H427A4,4,0,0,0,430.4,523.6ZM618,525h13.23l-24.95-25.4a1.23,1.23,0,0,0-2.1,0L579.25,525h13.11l12.8-13.17L618,525Zm-135.64,0h13.23l-24.94-25.4a1.23,1.23,0,0,0-2.11,0L443.62,525h13.11l12.8-13.17L482.38,525Z" transform="translate(-392.75 -499)"/></svg>