<?xml version="1.0" encoding="UTF-8"?>
<svg xmlns="http://www.w3.org/2000/svg" xmlns:xlink="http://www.w3.org/1999/xlink" width="212pt" height="127pt" viewBox="0 0 212 127" version="1.1">
<g id="surface1">
<path style=" stroke:none;fill-rule:evenodd;fill:rgb(0%,58.799744%,84.698486%);fill-opacity:1;" d="M 73.820313 1.84375 C 83.058594 1.0625 92.300781 0.785156 101.542969 1.0625 C 103.410156 8.675781 103.125 16.230469 103.496094 23.84375 C 103.335938 26.339844 105.933594 26.457031 105.835938 23.902344 C 106.421875 16.308594 106.234375 8.40625 108.570313 1.0625 C 116.84375 0.730469 126.09375 1.097656 136.488281 2.039063 C 127.605469 6.910156 121.902344 14.546875 117.472656 24.292969 C 116.523438 26.726563 118.773438 27.492188 119.890625 24.878906 C 125.523438 15.609375 130.554688 5.800781 143.125 2.820313 C 151.875 1.652344 166.953125 3.699219 180.414063 5.941406 C 188.140625 7.054688 190.171875 11.28125 189.003906 17.265625 C 177.761719 78.847656 23.75 73.851563 21.695313 16.09375 C 21.464844 8.933594 25.890625 6.074219 32.429688 5.160156 C 42.910156 3.730469 49.089844 2.820313 63.863281 2.429688 C 77.121094 3.371094 84.449219 12.539063 89.632813 24.683594 C 90.710938 27.445313 93.203125 26.320313 92.367188 24.488281 C 87.292969 13.28125 81.011719 6.0625 73.820313 1.84375 "/>
<path style=" stroke:none;fill-rule:evenodd;fill:rgb(100%,100%,100%);fill-opacity:1;" d="M 178.070313 10.238281 C 148.445313 6.816406 124.753906 13.21875 122.238281 52.015625 C 121.78125 55.609375 124.109375 57.09375 126.804688 56.390625 C 154.660156 49.675781 179 38.496094 178.070313 10.238281 "/>
<path style=" stroke:none;fill-rule:evenodd;fill:rgb(100%,100%,100%);fill-opacity:1;" d="M 31.671875 9.980469 C 61.292969 6.5625 84.984375 12.960938 87.503906 51.757813 C 87.960938 55.351563 85.628906 56.835938 82.9375 56.132813 C 55.078125 49.417969 30.742188 38.238281 31.671875 9.980469 "/>
<path style=" stroke:none;fill-rule:evenodd;fill:rgb(0%,58.799744%,84.698486%);fill-opacity:1;" d="M 1.25 75.300781 C 1.25 79.890625 1.25 84.484375 1.25 89.074219 C 1.140625 91.453125 2.464844 92.0625 4.234375 91.894531 C 10.488281 91.867188 16.738281 91.839844 22.988281 91.8125 C 37.867188 91.425781 37.175781 73.117188 23.152344 72.976563 C 16.929688 72.976563 10.707031 72.976563 4.484375 72.976563 C 2.699219 72.8125 1.457031 73.699219 1.25 75.300781 "/>
<path style=" stroke:none;fill-rule:evenodd;fill:rgb(100%,100%,100%);fill-opacity:1;" d="M 7.472656 76.878906 C 7.472656 80.695313 7.472656 84.511719 7.472656 88.328125 C 12.453125 88.328125 17.429688 88.328125 22.40625 88.328125 C 28.859375 87.609375 28.953125 77.570313 22.40625 76.960938 C 17.429688 76.933594 12.453125 76.90625 7.472656 76.878906 "/>
<path style=" stroke:none;fill-rule:evenodd;fill:rgb(0%,58.799744%,84.698486%);fill-opacity:1;" d="M 30.457031 91.8125 C 36.207031 86.058594 41.710938 80.058594 47.464844 74.308594 C 49.742188 72.089844 50.765625 72.082031 53.4375 74.554688 C 58.886719 79.617188 64.335938 84.675781 69.785156 89.738281 C 71.007813 91.03125 70.390625 91.984375 68.539063 91.980469 L 42.070313 91.980469 L 45.972656 88.078125 C 50.148438 88.078125 54.324219 88.078125 58.5 88.078125 C 59.46875 88.070313 59.769531 87.832031 59.078125 87.167969 C 56.757813 84.871094 54.351563 82.578125 52.027344 80.28125 C 50.609375 78.734375 50.757813 78.933594 49.539063 80.113281 L 37.839844 91.980469 L 30.457031 91.8125 "/>
<path style=" stroke:none;fill-rule:evenodd;fill:rgb(0%,58.799744%,84.698486%);fill-opacity:1;" d="M 70.449219 77.210938 C 70.449219 80.640625 70.449219 84.066406 70.449219 87.5 C 70.792969 89.933594 72.175781 91.671875 75.839844 91.894531 C 83.777344 91.894531 91.714844 91.894531 99.652344 91.894531 C 102.300781 91.851563 102.257813 87.457031 99.652344 87.414063 C 92.878906 87.414063 86.101563 87.414063 79.324219 87.414063 C 78.523438 87.4375 77.566406 87.527344 77.457031 86.417969 L 77.457031 85.117188 C 77.535156 84.214844 78.511719 84.105469 79.144531 84.078125 L 99.734375 84.152344 C 101.566406 84.167969 101.441406 80.40625 99.734375 80.445313 C 92.792969 80.5 85.851563 80.554688 78.910156 80.613281 C 77.941406 80.613281 77.414063 80.28125 77.335938 79.617188 C 77.335938 78.953125 77.335938 78.710938 77.335938 78.046875 C 77.386719 77.191406 77.777344 76.777344 78.496094 76.804688 L 99.820313 76.957031 C 102.007813 77.089844 101.925781 72.867188 99.820313 72.976563 C 91.851563 72.976563 83.886719 72.976563 75.921875 72.976563 C 72.4375 72.953125 70.613281 74.359375 70.449219 77.210938 "/>
<path style=" stroke:none;fill-rule:evenodd;fill:rgb(0%,58.799744%,84.698486%);fill-opacity:1;" d="M 102.308594 72.8125 C 104.574219 78.234375 106.84375 83.652344 109.109375 89.074219 C 110.449219 93.355469 116.519531 93.074219 117.824219 89.074219 C 118.957031 85.644531 120.089844 82.214844 121.226563 78.785156 C 121.417969 78.289063 121.613281 78.289063 121.804688 78.785156 C 123.023438 82.269531 124.238281 85.757813 125.457031 89.242188 C 126.703125 93.070313 132.238281 93.101563 133.671875 89.242188 C 135.828125 83.792969 137.984375 78.34375 140.144531 72.894531 C 138.039063 72.867188 135.9375 72.839844 133.835938 72.8125 C 132.398438 76.488281 130.960938 80.167969 129.523438 83.847656 C 129.269531 84.578125 128.738281 84.578125 128.445313 84.015625 C 127.199219 80.777344 125.953125 77.542969 124.710938 74.308594 C 123.78125 71.617188 119.425781 71.507813 118.488281 74.390625 C 117.214844 77.652344 115.941406 80.914063 114.671875 84.179688 C 114.433594 84.679688 113.921875 84.824219 113.59375 84.179688 C 112.097656 80.417969 110.605469 76.65625 109.109375 72.894531 C 106.84375 72.867188 104.574219 72.839844 102.308594 72.8125 "/>
<path style=" stroke:none;fill-rule:evenodd;fill:rgb(0%,58.799744%,84.698486%);fill-opacity:1;" d="M 149.3125 72.820313 C 136.015625 73.777344 135.367188 91.140625 149.3125 91.984375 C 154.21875 91.96875 159.128906 91.953125 164.035156 91.9375 C 177.535156 91.921875 178.191406 73.203125 164.128906 72.871094 C 159.191406 72.851563 154.25 72.835938 149.3125 72.820313 "/>
<path style=" stroke:none;fill-rule:evenodd;fill:rgb(100%,100%,100%);fill-opacity:1;" d="M 150.757813 87.351563 C 144.441406 86.546875 144.917969 77.710938 150.757813 77.503906 C 154.8125 77.46875 158.867188 77.4375 162.925781 77.40625 C 169.332031 78.386719 169.15625 86.292969 162.925781 87.203125 C 158.867188 87.253906 154.8125 87.300781 150.757813 87.351563 "/>
<path style=" stroke:none;fill-rule:evenodd;fill:rgb(0%,58.799744%,84.698486%);fill-opacity:1;" d="M 185.816406 72.824219 C 172.519531 73.777344 171.875 91.140625 185.816406 91.988281 C 190.726563 91.972656 195.632813 91.953125 200.539063 91.9375 C 214.039063 91.921875 214.695313 73.207031 200.632813 72.871094 C 195.695313 72.855469 190.757813 72.839844 185.816406 72.824219 "/>
<path style=" stroke:none;fill-rule:evenodd;fill:rgb(100%,100%,100%);fill-opacity:1;" d="M 187.261719 87.355469 C 180.945313 86.546875 181.425781 77.714844 187.261719 77.503906 C 191.316406 77.472656 195.375 77.441406 199.433594 77.410156 C 205.835938 78.386719 205.660156 86.296875 199.433594 87.207031 C 195.375 87.257813 191.316406 87.304688 187.261719 87.355469 "/>
<path style=" stroke:none;fill-rule:evenodd;fill:rgb(92.89856%,12.5%,16.099548%);fill-opacity:1;" d="M 0.925781 102.585938 L 210.96875 102.585938 L 210.96875 126.75 L 0.925781 126.75 L 0.925781 102.585938 "/>
<path style="fill:none;stroke-width:2.8346;stroke-linecap:butt;stroke-linejoin:miter;stroke:rgb(92.89856%,10.998535%,14.099121%);stroke-opacity:1;stroke-miterlimit:22.9256;" d="M 9.257813 244.140625 L 2109.6875 244.140625 L 2109.6875 2.5 L 9.257813 2.5 Z M 9.257813 244.140625 " transform="matrix(0.1,0,0,-0.1,0,127)"/>
<path style=" stroke:none;fill-rule:evenodd;fill:rgb(100%,100%,100%);fill-opacity:1;" d="M 64.941406 123.480469 L 59.925781 123.480469 L 59.925781 106.96875 L 66.679688 106.96875 L 69.078125 115.21875 C 69.234375 115.894531 69.425781 116.695313 69.652344 117.628906 C 69.851563 116.582031 70.035156 115.785156 70.203125 115.242188 L 72.648438 106.96875 L 79.390625 106.96875 L 79.390625 123.480469 L 74.375 123.480469 L 74.421875 115.351563 C 74.421875 115.152344 74.421875 114.964844 74.421875 114.796875 C 74.421875 114.628906 74.421875 114.28125 74.425781 113.75 C 74.429688 113.21875 74.4375 112.789063 74.445313 112.460938 C 74.300781 113.101563 74.066406 114.082031 73.730469 115.398438 L 71.597656 123.480469 L 67.730469 123.480469 L 65.574219 115.582031 C 65.480469 115.242188 65.394531 114.890625 65.308594 114.53125 C 65.230469 114.167969 65.167969 113.890625 65.128906 113.699219 C 65.089844 113.507813 65.007813 113.09375 64.871094 112.460938 C 64.917969 113.878906 64.941406 114.898438 64.941406 115.507813 Z M 81.910156 115.238281 C 81.910156 113.894531 82.113281 112.683594 82.527344 111.617188 C 82.933594 110.550781 83.535156 109.636719 84.316406 108.878906 C 85.101563 108.121094 86.046875 107.539063 87.148438 107.140625 C 88.25 106.738281 89.496094 106.539063 90.882813 106.539063 C 92.285156 106.539063 93.535156 106.738281 94.636719 107.140625 C 95.738281 107.539063 96.671875 108.117188 97.445313 108.871094 C 98.210938 109.628906 98.804688 110.539063 99.21875 111.613281 C 99.632813 112.683594 99.839844 113.894531 99.839844 115.238281 C 99.839844 116.578125 99.636719 117.785156 99.222656 118.851563 C 98.816406 119.917969 98.222656 120.832031 97.449219 121.597656 C 96.675781 122.359375 95.730469 122.941406 94.621094 123.339844 C 93.503906 123.742188 92.261719 123.941406 90.882813 123.941406 C 89.527344 123.941406 88.289063 123.742188 87.171875 123.339844 C 86.054688 122.941406 85.101563 122.355469 84.316406 121.589844 C 83.535156 120.824219 82.933594 119.910156 82.527344 118.84375 C 82.113281 117.777344 81.910156 116.578125 81.910156 115.238281 Z M 87.5 115.246094 C 87.5 116.800781 87.769531 117.945313 88.308594 118.679688 C 88.84375 119.414063 89.703125 119.78125 90.882813 119.78125 C 91.652344 119.78125 92.285156 119.621094 92.78125 119.292969 C 93.277344 118.96875 93.640625 118.476563 93.871094 117.808594 C 94.109375 117.144531 94.226563 116.289063 94.226563 115.246094 C 94.226563 114.195313 94.109375 113.335938 93.871094 112.667969 C 93.640625 112.003906 93.277344 111.511719 92.78125 111.1875 C 92.285156 110.859375 91.652344 110.699219 90.882813 110.699219 C 89.703125 110.699219 88.84375 111.066406 88.308594 111.804688 C 87.769531 112.535156 87.5 113.683594 87.5 115.246094 Z M 106.003906 123.480469 L 106.003906 111.332031 L 101.035156 111.332031 L 101.035156 106.96875 L 116.410156 106.96875 L 116.410156 111.332031 L 111.546875 111.332031 L 111.546875 123.480469 Z M 117.566406 115.238281 C 117.566406 113.894531 117.769531 112.683594 118.183594 111.617188 C 118.589844 110.550781 119.191406 109.636719 119.976563 108.878906 C 120.757813 108.121094 121.703125 107.539063 122.804688 107.140625 C 123.90625 106.738281 125.15625 106.539063 126.539063 106.539063 C 127.941406 106.539063 129.191406 106.738281 130.292969 107.140625 C 131.394531 107.539063 132.328125 108.117188 133.101563 108.871094 C 133.867188 109.628906 134.460938 110.539063 134.878906 111.613281 C 135.289063 112.683594 135.496094 113.894531 135.496094 115.238281 C 135.496094 116.578125 135.292969 117.785156 134.882813 118.851563 C 134.472656 119.917969 133.882813 120.832031 133.105469 121.597656 C 132.335938 122.359375 131.390625 122.941406 130.277344 123.339844 C 129.160156 123.742188 127.917969 123.941406 126.539063 123.941406 C 125.183594 123.941406 123.945313 123.742188 122.828125 123.339844 C 121.710938 122.941406 120.757813 122.355469 119.976563 121.589844 C 119.191406 120.824219 118.589844 119.910156 118.183594 118.84375 C 117.769531 117.777344 117.566406 116.578125 117.566406 115.238281 Z M 123.160156 115.246094 C 123.160156 116.800781 123.425781 117.945313 123.964844 118.679688 C 124.503906 119.414063 125.363281 119.78125 126.539063 119.78125 C 127.3125 119.78125 127.941406 119.621094 128.4375 119.292969 C 128.933594 118.96875 129.296875 118.476563 129.527344 117.808594 C 129.765625 117.144531 129.882813 116.289063 129.882813 115.246094 C 129.882813 114.195313 129.765625 113.335938 129.527344 112.667969 C 129.296875 112.003906 128.933594 111.511719 128.4375 111.1875 C 127.941406 110.859375 127.3125 110.699219 126.539063 110.699219 C 125.363281 110.699219 124.503906 111.066406 123.964844 111.804688 C 123.425781 112.535156 123.160156 113.683594 123.160156 115.246094 Z M 138.027344 123.480469 L 138.027344 106.96875 L 146.300781 106.96875 C 147.988281 106.96875 149.355469 107.121094 150.40625 107.429688 C 151.453125 107.734375 152.226563 108.234375 152.738281 108.933594 C 153.246094 109.625 153.5 110.554688 153.5 111.722656 C 153.5 112.726563 153.269531 113.566406 152.820313 114.234375 C 152.363281 114.898438 151.664063 115.421875 150.714844 115.8125 C 151.355469 115.945313 151.878906 116.15625 152.285156 116.445313 C 152.6875 116.730469 152.988281 117.125 153.1875 117.621094 C 153.386719 118.121094 153.5 118.742188 153.523438 119.488281 L 153.617188 121.777344 C 153.632813 122.179688 153.664063 122.453125 153.710938 122.605469 C 153.761719 122.757813 153.894531 122.84375 154.121094 122.863281 L 154.121094 123.480469 L 148.515625 123.480469 C 148.3125 122.660156 148.214844 122.085938 148.214844 121.753906 L 148.214844 120.105469 C 148.214844 119.246094 148.035156 118.644531 147.679688 118.300781 C 147.324219 117.953125 146.714844 117.785156 145.855469 117.785156 L 143.5 117.785156 L 143.5 123.480469 Z M 143.5 114.0625 L 146.019531 114.0625 C 146.839844 114.0625 147.4375 113.957031 147.804688 113.746094 C 148.167969 113.53125 148.351563 113.128906 148.351563 112.53125 C 148.351563 111.910156 148.164063 111.496094 147.792969 111.289063 C 147.414063 111.085938 146.78125 110.980469 145.878906 110.980469 L 143.5 110.980469 L 143.5 114.0625 "/>
</g>
</svg>
