<?xml version="1.0" encoding="UTF-8"?>
<svg xmlns="http://www.w3.org/2000/svg" xmlns:xlink="http://www.w3.org/1999/xlink" width="193pt" height="193pt" viewBox="0 0 193 193" version="1.1">
<defs>
<clipPath id="clip1">
  <path d="M 16 16 L 177 16 L 177 177 L 16 177 Z M 16 16 "/>
</clipPath>
<clipPath id="clip2">
  <path d="M 96.355469 176.742188 L 96.414063 176.742188 C 140.636719 176.726563 176.492188 140.863281 176.492188 96.621094 C 176.492188 52.371094 140.621094 16.503906 96.382813 16.503906 C 52.144531 16.503906 16.277344 52.355469 16.261719 96.59375 L 16.261719 96.648438 C 16.277344 140.878906 52.128906 176.726563 96.355469 176.742188 Z M 96.355469 176.742188 "/>
</clipPath>
<clipPath id="clip3">
  <path d="M 27 16 L 177 16 L 177 158 L 27 158 Z M 27 16 "/>
</clipPath>
<clipPath id="clip4">
  <path d="M 96.355469 176.742188 L 96.414063 176.742188 C 140.636719 176.726563 176.492188 140.863281 176.492188 96.621094 C 176.492188 52.371094 140.621094 16.503906 96.382813 16.503906 C 52.144531 16.503906 16.277344 52.355469 16.261719 96.59375 L 16.261719 96.648438 C 16.277344 140.878906 52.128906 176.726563 96.355469 176.742188 Z M 96.355469 176.742188 "/>
</clipPath>
<clipPath id="clip5">
  <path d="M 28 16 L 177 16 L 177 156 L 28 156 Z M 28 16 "/>
</clipPath>
<clipPath id="clip6">
  <path d="M 96.355469 176.742188 L 96.414063 176.742188 C 140.636719 176.726563 176.492188 140.863281 176.492188 96.621094 C 176.492188 52.371094 140.621094 16.503906 96.382813 16.503906 C 52.144531 16.503906 16.277344 52.355469 16.261719 96.59375 L 16.261719 96.648438 C 16.277344 140.878906 52.128906 176.726563 96.355469 176.742188 Z M 96.355469 176.742188 "/>
</clipPath>
<clipPath id="clip7">
  <path d="M 30 16 L 177 16 L 177 155 L 30 155 Z M 30 16 "/>
</clipPath>
<clipPath id="clip8">
  <path d="M 96.355469 176.742188 L 96.414063 176.742188 C 140.636719 176.726563 176.492188 140.863281 176.492188 96.621094 C 176.492188 52.371094 140.621094 16.503906 96.382813 16.503906 C 52.144531 16.503906 16.277344 52.355469 16.261719 96.59375 L 16.261719 96.648438 C 16.277344 140.878906 52.128906 176.726563 96.355469 176.742188 Z M 96.355469 176.742188 "/>
</clipPath>
<clipPath id="clip9">
  <path d="M 31 16 L 177 16 L 177 154 L 31 154 Z M 31 16 "/>
</clipPath>
<clipPath id="clip10">
  <path d="M 96.355469 176.742188 L 96.414063 176.742188 C 140.636719 176.726563 176.492188 140.863281 176.492188 96.621094 C 176.492188 52.371094 140.621094 16.503906 96.382813 16.503906 C 52.144531 16.503906 16.277344 52.355469 16.261719 96.59375 L 16.261719 96.648438 C 16.277344 140.878906 52.128906 176.726563 96.355469 176.742188 Z M 96.355469 176.742188 "/>
</clipPath>
<clipPath id="clip11">
  <path d="M 33 16 L 177 16 L 177 152 L 33 152 Z M 33 16 "/>
</clipPath>
<clipPath id="clip12">
  <path d="M 96.355469 176.742188 L 96.414063 176.742188 C 140.636719 176.726563 176.492188 140.863281 176.492188 96.621094 C 176.492188 52.371094 140.621094 16.503906 96.382813 16.503906 C 52.144531 16.503906 16.277344 52.355469 16.261719 96.59375 L 16.261719 96.648438 C 16.277344 140.878906 52.128906 176.726563 96.355469 176.742188 Z M 96.355469 176.742188 "/>
</clipPath>
<clipPath id="clip13">
  <path d="M 34 16 L 177 16 L 177 151 L 34 151 Z M 34 16 "/>
</clipPath>
<clipPath id="clip14">
  <path d="M 96.355469 176.742188 L 96.414063 176.742188 C 140.636719 176.726563 176.492188 140.863281 176.492188 96.621094 C 176.492188 52.371094 140.621094 16.503906 96.382813 16.503906 C 52.144531 16.503906 16.277344 52.355469 16.261719 96.59375 L 16.261719 96.648438 C 16.277344 140.878906 52.128906 176.726563 96.355469 176.742188 Z M 96.355469 176.742188 "/>
</clipPath>
<clipPath id="clip15">
  <path d="M 35 16 L 177 16 L 177 150 L 35 150 Z M 35 16 "/>
</clipPath>
<clipPath id="clip16">
  <path d="M 96.355469 176.742188 L 96.414063 176.742188 C 140.636719 176.726563 176.492188 140.863281 176.492188 96.621094 C 176.492188 52.371094 140.621094 16.503906 96.382813 16.503906 C 52.144531 16.503906 16.277344 52.355469 16.261719 96.59375 L 16.261719 96.648438 C 16.277344 140.878906 52.128906 176.726563 96.355469 176.742188 Z M 96.355469 176.742188 "/>
</clipPath>
<clipPath id="clip17">
  <path d="M 37 16 L 177 16 L 177 148 L 37 148 Z M 37 16 "/>
</clipPath>
<clipPath id="clip18">
  <path d="M 96.355469 176.742188 L 96.414063 176.742188 C 140.636719 176.726563 176.492188 140.863281 176.492188 96.621094 C 176.492188 52.371094 140.621094 16.503906 96.382813 16.503906 C 52.144531 16.503906 16.277344 52.355469 16.261719 96.59375 L 16.261719 96.648438 C 16.277344 140.878906 52.128906 176.726563 96.355469 176.742188 Z M 96.355469 176.742188 "/>
</clipPath>
<clipPath id="clip19">
  <path d="M 38 16 L 177 16 L 177 147 L 38 147 Z M 38 16 "/>
</clipPath>
<clipPath id="clip20">
  <path d="M 96.355469 176.742188 L 96.414063 176.742188 C 140.636719 176.726563 176.492188 140.863281 176.492188 96.621094 C 176.492188 52.371094 140.621094 16.503906 96.382813 16.503906 C 52.144531 16.503906 16.277344 52.355469 16.261719 96.59375 L 16.261719 96.648438 C 16.277344 140.878906 52.128906 176.726563 96.355469 176.742188 Z M 96.355469 176.742188 "/>
</clipPath>
<clipPath id="clip21">
  <path d="M 39 16 L 177 16 L 177 145 L 39 145 Z M 39 16 "/>
</clipPath>
<clipPath id="clip22">
  <path d="M 96.355469 176.742188 L 96.414063 176.742188 C 140.636719 176.726563 176.492188 140.863281 176.492188 96.621094 C 176.492188 52.371094 140.621094 16.503906 96.382813 16.503906 C 52.144531 16.503906 16.277344 52.355469 16.261719 96.59375 L 16.261719 96.648438 C 16.277344 140.878906 52.128906 176.726563 96.355469 176.742188 Z M 96.355469 176.742188 "/>
</clipPath>
<clipPath id="clip23">
  <path d="M 41 16 L 177 16 L 177 144 L 41 144 Z M 41 16 "/>
</clipPath>
<clipPath id="clip24">
  <path d="M 96.355469 176.742188 L 96.414063 176.742188 C 140.636719 176.726563 176.492188 140.863281 176.492188 96.621094 C 176.492188 52.371094 140.621094 16.503906 96.382813 16.503906 C 52.144531 16.503906 16.277344 52.355469 16.261719 96.59375 L 16.261719 96.648438 C 16.277344 140.878906 52.128906 176.726563 96.355469 176.742188 Z M 96.355469 176.742188 "/>
</clipPath>
<clipPath id="clip25">
  <path d="M 42 16 L 177 16 L 177 143 L 42 143 Z M 42 16 "/>
</clipPath>
<clipPath id="clip26">
  <path d="M 96.355469 176.742188 L 96.414063 176.742188 C 140.636719 176.726563 176.492188 140.863281 176.492188 96.621094 C 176.492188 52.371094 140.621094 16.503906 96.382813 16.503906 C 52.144531 16.503906 16.277344 52.355469 16.261719 96.59375 L 16.261719 96.648438 C 16.277344 140.878906 52.128906 176.726563 96.355469 176.742188 Z M 96.355469 176.742188 "/>
</clipPath>
<clipPath id="clip27">
  <path d="M 44 16 L 177 16 L 177 141 L 44 141 Z M 44 16 "/>
</clipPath>
<clipPath id="clip28">
  <path d="M 96.355469 176.742188 L 96.414063 176.742188 C 140.636719 176.726563 176.492188 140.863281 176.492188 96.621094 C 176.492188 52.371094 140.621094 16.503906 96.382813 16.503906 C 52.144531 16.503906 16.277344 52.355469 16.261719 96.59375 L 16.261719 96.648438 C 16.277344 140.878906 52.128906 176.726563 96.355469 176.742188 Z M 96.355469 176.742188 "/>
</clipPath>
<clipPath id="clip29">
  <path d="M 45 16 L 177 16 L 177 140 L 45 140 Z M 45 16 "/>
</clipPath>
<clipPath id="clip30">
  <path d="M 96.355469 176.742188 L 96.414063 176.742188 C 140.636719 176.726563 176.492188 140.863281 176.492188 96.621094 C 176.492188 52.371094 140.621094 16.503906 96.382813 16.503906 C 52.144531 16.503906 16.277344 52.355469 16.261719 96.59375 L 16.261719 96.648438 C 16.277344 140.878906 52.128906 176.726563 96.355469 176.742188 Z M 96.355469 176.742188 "/>
</clipPath>
<clipPath id="clip31">
  <path d="M 46 16 L 177 16 L 177 139 L 46 139 Z M 46 16 "/>
</clipPath>
<clipPath id="clip32">
  <path d="M 96.355469 176.742188 L 96.414063 176.742188 C 140.636719 176.726563 176.492188 140.863281 176.492188 96.621094 C 176.492188 52.371094 140.621094 16.503906 96.382813 16.503906 C 52.144531 16.503906 16.277344 52.355469 16.261719 96.59375 L 16.261719 96.648438 C 16.277344 140.878906 52.128906 176.726563 96.355469 176.742188 Z M 96.355469 176.742188 "/>
</clipPath>
<clipPath id="clip33">
  <path d="M 48 16 L 177 16 L 177 137 L 48 137 Z M 48 16 "/>
</clipPath>
<clipPath id="clip34">
  <path d="M 96.355469 176.742188 L 96.414063 176.742188 C 140.636719 176.726563 176.492188 140.863281 176.492188 96.621094 C 176.492188 52.371094 140.621094 16.503906 96.382813 16.503906 C 52.144531 16.503906 16.277344 52.355469 16.261719 96.59375 L 16.261719 96.648438 C 16.277344 140.878906 52.128906 176.726563 96.355469 176.742188 Z M 96.355469 176.742188 "/>
</clipPath>
<clipPath id="clip35">
  <path d="M 49 16 L 177 16 L 177 136 L 49 136 Z M 49 16 "/>
</clipPath>
<clipPath id="clip36">
  <path d="M 96.355469 176.742188 L 96.414063 176.742188 C 140.636719 176.726563 176.492188 140.863281 176.492188 96.621094 C 176.492188 52.371094 140.621094 16.503906 96.382813 16.503906 C 52.144531 16.503906 16.277344 52.355469 16.261719 96.59375 L 16.261719 96.648438 C 16.277344 140.878906 52.128906 176.726563 96.355469 176.742188 Z M 96.355469 176.742188 "/>
</clipPath>
<clipPath id="clip37">
  <path d="M 50 16 L 177 16 L 177 134 L 50 134 Z M 50 16 "/>
</clipPath>
<clipPath id="clip38">
  <path d="M 96.355469 176.742188 L 96.414063 176.742188 C 140.636719 176.726563 176.492188 140.863281 176.492188 96.621094 C 176.492188 52.371094 140.621094 16.503906 96.382813 16.503906 C 52.144531 16.503906 16.277344 52.355469 16.261719 96.59375 L 16.261719 96.648438 C 16.277344 140.878906 52.128906 176.726563 96.355469 176.742188 Z M 96.355469 176.742188 "/>
</clipPath>
<clipPath id="clip39">
  <path d="M 52 16 L 177 16 L 177 133 L 52 133 Z M 52 16 "/>
</clipPath>
<clipPath id="clip40">
  <path d="M 96.355469 176.742188 L 96.414063 176.742188 C 140.636719 176.726563 176.492188 140.863281 176.492188 96.621094 C 176.492188 52.371094 140.621094 16.503906 96.382813 16.503906 C 52.144531 16.503906 16.277344 52.355469 16.261719 96.59375 L 16.261719 96.648438 C 16.277344 140.878906 52.128906 176.726563 96.355469 176.742188 Z M 96.355469 176.742188 "/>
</clipPath>
<clipPath id="clip41">
  <path d="M 53 16 L 177 16 L 177 132 L 53 132 Z M 53 16 "/>
</clipPath>
<clipPath id="clip42">
  <path d="M 96.355469 176.742188 L 96.414063 176.742188 C 140.636719 176.726563 176.492188 140.863281 176.492188 96.621094 C 176.492188 52.371094 140.621094 16.503906 96.382813 16.503906 C 52.144531 16.503906 16.277344 52.355469 16.261719 96.59375 L 16.261719 96.648438 C 16.277344 140.878906 52.128906 176.726563 96.355469 176.742188 Z M 96.355469 176.742188 "/>
</clipPath>
<clipPath id="clip43">
  <path d="M 55 16 L 177 16 L 177 130 L 55 130 Z M 55 16 "/>
</clipPath>
<clipPath id="clip44">
  <path d="M 96.355469 176.742188 L 96.414063 176.742188 C 140.636719 176.726563 176.492188 140.863281 176.492188 96.621094 C 176.492188 52.371094 140.621094 16.503906 96.382813 16.503906 C 52.144531 16.503906 16.277344 52.355469 16.261719 96.59375 L 16.261719 96.648438 C 16.277344 140.878906 52.128906 176.726563 96.355469 176.742188 Z M 96.355469 176.742188 "/>
</clipPath>
<clipPath id="clip45">
  <path d="M 56 16 L 175 16 L 175 129 L 56 129 Z M 56 16 "/>
</clipPath>
<clipPath id="clip46">
  <path d="M 96.355469 176.742188 L 96.414063 176.742188 C 140.636719 176.726563 176.492188 140.863281 176.492188 96.621094 C 176.492188 52.371094 140.621094 16.503906 96.382813 16.503906 C 52.144531 16.503906 16.277344 52.355469 16.261719 96.59375 L 16.261719 96.648438 C 16.277344 140.878906 52.128906 176.726563 96.355469 176.742188 Z M 96.355469 176.742188 "/>
</clipPath>
<clipPath id="clip47">
  <path d="M 57 16 L 174 16 L 174 128 L 57 128 Z M 57 16 "/>
</clipPath>
<clipPath id="clip48">
  <path d="M 96.355469 176.742188 L 96.414063 176.742188 C 140.636719 176.726563 176.492188 140.863281 176.492188 96.621094 C 176.492188 52.371094 140.621094 16.503906 96.382813 16.503906 C 52.144531 16.503906 16.277344 52.355469 16.261719 96.59375 L 16.261719 96.648438 C 16.277344 140.878906 52.128906 176.726563 96.355469 176.742188 Z M 96.355469 176.742188 "/>
</clipPath>
<clipPath id="clip49">
  <path d="M 59 16 L 172 16 L 172 126 L 59 126 Z M 59 16 "/>
</clipPath>
<clipPath id="clip50">
  <path d="M 96.355469 176.742188 L 96.414063 176.742188 C 140.636719 176.726563 176.492188 140.863281 176.492188 96.621094 C 176.492188 52.371094 140.621094 16.503906 96.382813 16.503906 C 52.144531 16.503906 16.277344 52.355469 16.261719 96.59375 L 16.261719 96.648438 C 16.277344 140.878906 52.128906 176.726563 96.355469 176.742188 Z M 96.355469 176.742188 "/>
</clipPath>
<clipPath id="clip51">
  <path d="M 60 16 L 171 16 L 171 125 L 60 125 Z M 60 16 "/>
</clipPath>
<clipPath id="clip52">
  <path d="M 96.355469 176.742188 L 96.414063 176.742188 C 140.636719 176.726563 176.492188 140.863281 176.492188 96.621094 C 176.492188 52.371094 140.621094 16.503906 96.382813 16.503906 C 52.144531 16.503906 16.277344 52.355469 16.261719 96.59375 L 16.261719 96.648438 C 16.277344 140.878906 52.128906 176.726563 96.355469 176.742188 Z M 96.355469 176.742188 "/>
</clipPath>
<clipPath id="clip53">
  <path d="M 61 16 L 170 16 L 170 123 L 61 123 Z M 61 16 "/>
</clipPath>
<clipPath id="clip54">
  <path d="M 96.355469 176.742188 L 96.414063 176.742188 C 140.636719 176.726563 176.492188 140.863281 176.492188 96.621094 C 176.492188 52.371094 140.621094 16.503906 96.382813 16.503906 C 52.144531 16.503906 16.277344 52.355469 16.261719 96.59375 L 16.261719 96.648438 C 16.277344 140.878906 52.128906 176.726563 96.355469 176.742188 Z M 96.355469 176.742188 "/>
</clipPath>
<clipPath id="clip55">
  <path d="M 63 17 L 168 17 L 168 122 L 63 122 Z M 63 17 "/>
</clipPath>
<clipPath id="clip56">
  <path d="M 96.355469 176.742188 L 96.414063 176.742188 C 140.636719 176.726563 176.492188 140.863281 176.492188 96.621094 C 176.492188 52.371094 140.621094 16.503906 96.382813 16.503906 C 52.144531 16.503906 16.277344 52.355469 16.261719 96.59375 L 16.261719 96.648438 C 16.277344 140.878906 52.128906 176.726563 96.355469 176.742188 Z M 96.355469 176.742188 "/>
</clipPath>
<clipPath id="clip57">
  <path d="M 64 18 L 167 18 L 167 121 L 64 121 Z M 64 18 "/>
</clipPath>
<clipPath id="clip58">
  <path d="M 96.355469 176.742188 L 96.414063 176.742188 C 140.636719 176.726563 176.492188 140.863281 176.492188 96.621094 C 176.492188 52.371094 140.621094 16.503906 96.382813 16.503906 C 52.144531 16.503906 16.277344 52.355469 16.261719 96.59375 L 16.261719 96.648438 C 16.277344 140.878906 52.128906 176.726563 96.355469 176.742188 Z M 96.355469 176.742188 "/>
</clipPath>
<clipPath id="clip59">
  <path d="M 66 19 L 166 19 L 166 119 L 66 119 Z M 66 19 "/>
</clipPath>
<clipPath id="clip60">
  <path d="M 96.355469 176.742188 L 96.414063 176.742188 C 140.636719 176.726563 176.492188 140.863281 176.492188 96.621094 C 176.492188 52.371094 140.621094 16.503906 96.382813 16.503906 C 52.144531 16.503906 16.277344 52.355469 16.261719 96.59375 L 16.261719 96.648438 C 16.277344 140.878906 52.128906 176.726563 96.355469 176.742188 Z M 96.355469 176.742188 "/>
</clipPath>
<clipPath id="clip61">
  <path d="M 67 21 L 164 21 L 164 118 L 67 118 Z M 67 21 "/>
</clipPath>
<clipPath id="clip62">
  <path d="M 96.355469 176.742188 L 96.414063 176.742188 C 140.636719 176.726563 176.492188 140.863281 176.492188 96.621094 C 176.492188 52.371094 140.621094 16.503906 96.382813 16.503906 C 52.144531 16.503906 16.277344 52.355469 16.261719 96.59375 L 16.261719 96.648438 C 16.277344 140.878906 52.128906 176.726563 96.355469 176.742188 Z M 96.355469 176.742188 "/>
</clipPath>
<clipPath id="clip63">
  <path d="M 68 22 L 163 22 L 163 117 L 68 117 Z M 68 22 "/>
</clipPath>
<clipPath id="clip64">
  <path d="M 96.355469 176.742188 L 96.414063 176.742188 C 140.636719 176.726563 176.492188 140.863281 176.492188 96.621094 C 176.492188 52.371094 140.621094 16.503906 96.382813 16.503906 C 52.144531 16.503906 16.277344 52.355469 16.261719 96.59375 L 16.261719 96.648438 C 16.277344 140.878906 52.128906 176.726563 96.355469 176.742188 Z M 96.355469 176.742188 "/>
</clipPath>
<clipPath id="clip65">
  <path d="M 70 24 L 161 24 L 161 115 L 70 115 Z M 70 24 "/>
</clipPath>
<clipPath id="clip66">
  <path d="M 96.355469 176.742188 L 96.414063 176.742188 C 140.636719 176.726563 176.492188 140.863281 176.492188 96.621094 C 176.492188 52.371094 140.621094 16.503906 96.382813 16.503906 C 52.144531 16.503906 16.277344 52.355469 16.261719 96.59375 L 16.261719 96.648438 C 16.277344 140.878906 52.128906 176.726563 96.355469 176.742188 Z M 96.355469 176.742188 "/>
</clipPath>
<clipPath id="clip67">
  <path d="M 71 25 L 160 25 L 160 114 L 71 114 Z M 71 25 "/>
</clipPath>
<clipPath id="clip68">
  <path d="M 96.355469 176.742188 L 96.414063 176.742188 C 140.636719 176.726563 176.492188 140.863281 176.492188 96.621094 C 176.492188 52.371094 140.621094 16.503906 96.382813 16.503906 C 52.144531 16.503906 16.277344 52.355469 16.261719 96.59375 L 16.261719 96.648438 C 16.277344 140.878906 52.128906 176.726563 96.355469 176.742188 Z M 96.355469 176.742188 "/>
</clipPath>
<clipPath id="clip69">
  <path d="M 72 26 L 159 26 L 159 112 L 72 112 Z M 72 26 "/>
</clipPath>
<clipPath id="clip70">
  <path d="M 96.355469 176.742188 L 96.414063 176.742188 C 140.636719 176.726563 176.492188 140.863281 176.492188 96.621094 C 176.492188 52.371094 140.621094 16.503906 96.382813 16.503906 C 52.144531 16.503906 16.277344 52.355469 16.261719 96.59375 L 16.261719 96.648438 C 16.277344 140.878906 52.128906 176.726563 96.355469 176.742188 Z M 96.355469 176.742188 "/>
</clipPath>
<clipPath id="clip71">
  <path d="M 74 28 L 157 28 L 157 111 L 74 111 Z M 74 28 "/>
</clipPath>
<clipPath id="clip72">
  <path d="M 96.355469 176.742188 L 96.414063 176.742188 C 140.636719 176.726563 176.492188 140.863281 176.492188 96.621094 C 176.492188 52.371094 140.621094 16.503906 96.382813 16.503906 C 52.144531 16.503906 16.277344 52.355469 16.261719 96.59375 L 16.261719 96.648438 C 16.277344 140.878906 52.128906 176.726563 96.355469 176.742188 Z M 96.355469 176.742188 "/>
</clipPath>
<clipPath id="clip73">
  <path d="M 75 29 L 156 29 L 156 110 L 75 110 Z M 75 29 "/>
</clipPath>
<clipPath id="clip74">
  <path d="M 96.355469 176.742188 L 96.414063 176.742188 C 140.636719 176.726563 176.492188 140.863281 176.492188 96.621094 C 176.492188 52.371094 140.621094 16.503906 96.382813 16.503906 C 52.144531 16.503906 16.277344 52.355469 16.261719 96.59375 L 16.261719 96.648438 C 16.277344 140.878906 52.128906 176.726563 96.355469 176.742188 Z M 96.355469 176.742188 "/>
</clipPath>
<clipPath id="clip75">
  <path d="M 77 30 L 155 30 L 155 108 L 77 108 Z M 77 30 "/>
</clipPath>
<clipPath id="clip76">
  <path d="M 96.355469 176.742188 L 96.414063 176.742188 C 140.636719 176.726563 176.492188 140.863281 176.492188 96.621094 C 176.492188 52.371094 140.621094 16.503906 96.382813 16.503906 C 52.144531 16.503906 16.277344 52.355469 16.261719 96.59375 L 16.261719 96.648438 C 16.277344 140.878906 52.128906 176.726563 96.355469 176.742188 Z M 96.355469 176.742188 "/>
</clipPath>
<clipPath id="clip77">
  <path d="M 78 32 L 153 32 L 153 107 L 78 107 Z M 78 32 "/>
</clipPath>
<clipPath id="clip78">
  <path d="M 96.355469 176.742188 L 96.414063 176.742188 C 140.636719 176.726563 176.492188 140.863281 176.492188 96.621094 C 176.492188 52.371094 140.621094 16.503906 96.382813 16.503906 C 52.144531 16.503906 16.277344 52.355469 16.261719 96.59375 L 16.261719 96.648438 C 16.277344 140.878906 52.128906 176.726563 96.355469 176.742188 Z M 96.355469 176.742188 "/>
</clipPath>
<clipPath id="clip79">
  <path d="M 79 33 L 152 33 L 152 106 L 79 106 Z M 79 33 "/>
</clipPath>
<clipPath id="clip80">
  <path d="M 96.355469 176.742188 L 96.414063 176.742188 C 140.636719 176.726563 176.492188 140.863281 176.492188 96.621094 C 176.492188 52.371094 140.621094 16.503906 96.382813 16.503906 C 52.144531 16.503906 16.277344 52.355469 16.261719 96.59375 L 16.261719 96.648438 C 16.277344 140.878906 52.128906 176.726563 96.355469 176.742188 Z M 96.355469 176.742188 "/>
</clipPath>
<clipPath id="clip81">
  <path d="M 81 35 L 150 35 L 150 104 L 81 104 Z M 81 35 "/>
</clipPath>
<clipPath id="clip82">
  <path d="M 96.355469 176.742188 L 96.414063 176.742188 C 140.636719 176.726563 176.492188 140.863281 176.492188 96.621094 C 176.492188 52.371094 140.621094 16.503906 96.382813 16.503906 C 52.144531 16.503906 16.277344 52.355469 16.261719 96.59375 L 16.261719 96.648438 C 16.277344 140.878906 52.128906 176.726563 96.355469 176.742188 Z M 96.355469 176.742188 "/>
</clipPath>
<clipPath id="clip83">
  <path d="M 82 36 L 149 36 L 149 103 L 82 103 Z M 82 36 "/>
</clipPath>
<clipPath id="clip84">
  <path d="M 96.355469 176.742188 L 96.414063 176.742188 C 140.636719 176.726563 176.492188 140.863281 176.492188 96.621094 C 176.492188 52.371094 140.621094 16.503906 96.382813 16.503906 C 52.144531 16.503906 16.277344 52.355469 16.261719 96.59375 L 16.261719 96.648438 C 16.277344 140.878906 52.128906 176.726563 96.355469 176.742188 Z M 96.355469 176.742188 "/>
</clipPath>
<clipPath id="clip85">
  <path d="M 83 37 L 148 37 L 148 102 L 83 102 Z M 83 37 "/>
</clipPath>
<clipPath id="clip86">
  <path d="M 96.355469 176.742188 L 96.414063 176.742188 C 140.636719 176.726563 176.492188 140.863281 176.492188 96.621094 C 176.492188 52.371094 140.621094 16.503906 96.382813 16.503906 C 52.144531 16.503906 16.277344 52.355469 16.261719 96.59375 L 16.261719 96.648438 C 16.277344 140.878906 52.128906 176.726563 96.355469 176.742188 Z M 96.355469 176.742188 "/>
</clipPath>
<clipPath id="clip87">
  <path d="M 85 39 L 146 39 L 146 100 L 85 100 Z M 85 39 "/>
</clipPath>
<clipPath id="clip88">
  <path d="M 96.355469 176.742188 L 96.414063 176.742188 C 140.636719 176.726563 176.492188 140.863281 176.492188 96.621094 C 176.492188 52.371094 140.621094 16.503906 96.382813 16.503906 C 52.144531 16.503906 16.277344 52.355469 16.261719 96.59375 L 16.261719 96.648438 C 16.277344 140.878906 52.128906 176.726563 96.355469 176.742188 Z M 96.355469 176.742188 "/>
</clipPath>
<clipPath id="clip89">
  <path d="M 86 40 L 145 40 L 145 99 L 86 99 Z M 86 40 "/>
</clipPath>
<clipPath id="clip90">
  <path d="M 96.355469 176.742188 L 96.414063 176.742188 C 140.636719 176.726563 176.492188 140.863281 176.492188 96.621094 C 176.492188 52.371094 140.621094 16.503906 96.382813 16.503906 C 52.144531 16.503906 16.277344 52.355469 16.261719 96.59375 L 16.261719 96.648438 C 16.277344 140.878906 52.128906 176.726563 96.355469 176.742188 Z M 96.355469 176.742188 "/>
</clipPath>
<clipPath id="clip91">
  <path d="M 88 41 L 144 41 L 144 97 L 88 97 Z M 88 41 "/>
</clipPath>
<clipPath id="clip92">
  <path d="M 96.355469 176.742188 L 96.414063 176.742188 C 140.636719 176.726563 176.492188 140.863281 176.492188 96.621094 C 176.492188 52.371094 140.621094 16.503906 96.382813 16.503906 C 52.144531 16.503906 16.277344 52.355469 16.261719 96.59375 L 16.261719 96.648438 C 16.277344 140.878906 52.128906 176.726563 96.355469 176.742188 Z M 96.355469 176.742188 "/>
</clipPath>
<clipPath id="clip93">
  <path d="M 89 43 L 142 43 L 142 96 L 89 96 Z M 89 43 "/>
</clipPath>
<clipPath id="clip94">
  <path d="M 96.355469 176.742188 L 96.414063 176.742188 C 140.636719 176.726563 176.492188 140.863281 176.492188 96.621094 C 176.492188 52.371094 140.621094 16.503906 96.382813 16.503906 C 52.144531 16.503906 16.277344 52.355469 16.261719 96.59375 L 16.261719 96.648438 C 16.277344 140.878906 52.128906 176.726563 96.355469 176.742188 Z M 96.355469 176.742188 "/>
</clipPath>
<clipPath id="clip95">
  <path d="M 90 44 L 141 44 L 141 95 L 90 95 Z M 90 44 "/>
</clipPath>
<clipPath id="clip96">
  <path d="M 96.355469 176.742188 L 96.414063 176.742188 C 140.636719 176.726563 176.492188 140.863281 176.492188 96.621094 C 176.492188 52.371094 140.621094 16.503906 96.382813 16.503906 C 52.144531 16.503906 16.277344 52.355469 16.261719 96.59375 L 16.261719 96.648438 C 16.277344 140.878906 52.128906 176.726563 96.355469 176.742188 Z M 96.355469 176.742188 "/>
</clipPath>
<clipPath id="clip97">
  <path d="M 92 46 L 139 46 L 139 93 L 92 93 Z M 92 46 "/>
</clipPath>
<clipPath id="clip98">
  <path d="M 96.355469 176.742188 L 96.414063 176.742188 C 140.636719 176.726563 176.492188 140.863281 176.492188 96.621094 C 176.492188 52.371094 140.621094 16.503906 96.382813 16.503906 C 52.144531 16.503906 16.277344 52.355469 16.261719 96.59375 L 16.261719 96.648438 C 16.277344 140.878906 52.128906 176.726563 96.355469 176.742188 Z M 96.355469 176.742188 "/>
</clipPath>
<clipPath id="clip99">
  <path d="M 93 47 L 138 47 L 138 92 L 93 92 Z M 93 47 "/>
</clipPath>
<clipPath id="clip100">
  <path d="M 96.355469 176.742188 L 96.414063 176.742188 C 140.636719 176.726563 176.492188 140.863281 176.492188 96.621094 C 176.492188 52.371094 140.621094 16.503906 96.382813 16.503906 C 52.144531 16.503906 16.277344 52.355469 16.261719 96.59375 L 16.261719 96.648438 C 16.277344 140.878906 52.128906 176.726563 96.355469 176.742188 Z M 96.355469 176.742188 "/>
</clipPath>
<clipPath id="clip101">
  <path d="M 94 48 L 137 48 L 137 91 L 94 91 Z M 94 48 "/>
</clipPath>
<clipPath id="clip102">
  <path d="M 96.355469 176.742188 L 96.414063 176.742188 C 140.636719 176.726563 176.492188 140.863281 176.492188 96.621094 C 176.492188 52.371094 140.621094 16.503906 96.382813 16.503906 C 52.144531 16.503906 16.277344 52.355469 16.261719 96.59375 L 16.261719 96.648438 C 16.277344 140.878906 52.128906 176.726563 96.355469 176.742188 Z M 96.355469 176.742188 "/>
</clipPath>
<clipPath id="clip103">
  <path d="M 96 50 L 135 50 L 135 89 L 96 89 Z M 96 50 "/>
</clipPath>
<clipPath id="clip104">
  <path d="M 96.355469 176.742188 L 96.414063 176.742188 C 140.636719 176.726563 176.492188 140.863281 176.492188 96.621094 C 176.492188 52.371094 140.621094 16.503906 96.382813 16.503906 C 52.144531 16.503906 16.277344 52.355469 16.261719 96.59375 L 16.261719 96.648438 C 16.277344 140.878906 52.128906 176.726563 96.355469 176.742188 Z M 96.355469 176.742188 "/>
</clipPath>
<clipPath id="clip105">
  <path d="M 97 51 L 134 51 L 134 88 L 97 88 Z M 97 51 "/>
</clipPath>
<clipPath id="clip106">
  <path d="M 96.355469 176.742188 L 96.414063 176.742188 C 140.636719 176.726563 176.492188 140.863281 176.492188 96.621094 C 176.492188 52.371094 140.621094 16.503906 96.382813 16.503906 C 52.144531 16.503906 16.277344 52.355469 16.261719 96.59375 L 16.261719 96.648438 C 16.277344 140.878906 52.128906 176.726563 96.355469 176.742188 Z M 96.355469 176.742188 "/>
</clipPath>
<clipPath id="clip107">
  <path d="M 99 52 L 133 52 L 133 86 L 99 86 Z M 99 52 "/>
</clipPath>
<clipPath id="clip108">
  <path d="M 96.355469 176.742188 L 96.414063 176.742188 C 140.636719 176.726563 176.492188 140.863281 176.492188 96.621094 C 176.492188 52.371094 140.621094 16.503906 96.382813 16.503906 C 52.144531 16.503906 16.277344 52.355469 16.261719 96.59375 L 16.261719 96.648438 C 16.277344 140.878906 52.128906 176.726563 96.355469 176.742188 Z M 96.355469 176.742188 "/>
</clipPath>
<clipPath id="clip109">
  <path d="M 100 54 L 131 54 L 131 85 L 100 85 Z M 100 54 "/>
</clipPath>
<clipPath id="clip110">
  <path d="M 96.355469 176.742188 L 96.414063 176.742188 C 140.636719 176.726563 176.492188 140.863281 176.492188 96.621094 C 176.492188 52.371094 140.621094 16.503906 96.382813 16.503906 C 52.144531 16.503906 16.277344 52.355469 16.261719 96.59375 L 16.261719 96.648438 C 16.277344 140.878906 52.128906 176.726563 96.355469 176.742188 Z M 96.355469 176.742188 "/>
</clipPath>
<clipPath id="clip111">
  <path d="M 101 55 L 130 55 L 130 84 L 101 84 Z M 101 55 "/>
</clipPath>
<clipPath id="clip112">
  <path d="M 96.355469 176.742188 L 96.414063 176.742188 C 140.636719 176.726563 176.492188 140.863281 176.492188 96.621094 C 176.492188 52.371094 140.621094 16.503906 96.382813 16.503906 C 52.144531 16.503906 16.277344 52.355469 16.261719 96.59375 L 16.261719 96.648438 C 16.277344 140.878906 52.128906 176.726563 96.355469 176.742188 Z M 96.355469 176.742188 "/>
</clipPath>
<clipPath id="clip113">
  <path d="M 103 57 L 128 57 L 128 82 L 103 82 Z M 103 57 "/>
</clipPath>
<clipPath id="clip114">
  <path d="M 96.355469 176.742188 L 96.414063 176.742188 C 140.636719 176.726563 176.492188 140.863281 176.492188 96.621094 C 176.492188 52.371094 140.621094 16.503906 96.382813 16.503906 C 52.144531 16.503906 16.277344 52.355469 16.261719 96.59375 L 16.261719 96.648438 C 16.277344 140.878906 52.128906 176.726563 96.355469 176.742188 Z M 96.355469 176.742188 "/>
</clipPath>
<clipPath id="clip115">
  <path d="M 104 58 L 127 58 L 127 81 L 104 81 Z M 104 58 "/>
</clipPath>
<clipPath id="clip116">
  <path d="M 96.355469 176.742188 L 96.414063 176.742188 C 140.636719 176.726563 176.492188 140.863281 176.492188 96.621094 C 176.492188 52.371094 140.621094 16.503906 96.382813 16.503906 C 52.144531 16.503906 16.277344 52.355469 16.261719 96.59375 L 16.261719 96.648438 C 16.277344 140.878906 52.128906 176.726563 96.355469 176.742188 Z M 96.355469 176.742188 "/>
</clipPath>
<clipPath id="clip117">
  <path d="M 105 59 L 126 59 L 126 80 L 105 80 Z M 105 59 "/>
</clipPath>
<clipPath id="clip118">
  <path d="M 96.355469 176.742188 L 96.414063 176.742188 C 140.636719 176.726563 176.492188 140.863281 176.492188 96.621094 C 176.492188 52.371094 140.621094 16.503906 96.382813 16.503906 C 52.144531 16.503906 16.277344 52.355469 16.261719 96.59375 L 16.261719 96.648438 C 16.277344 140.878906 52.128906 176.726563 96.355469 176.742188 Z M 96.355469 176.742188 "/>
</clipPath>
<clipPath id="clip119">
  <path d="M 107 61 L 124 61 L 124 78 L 107 78 Z M 107 61 "/>
</clipPath>
<clipPath id="clip120">
  <path d="M 96.355469 176.742188 L 96.414063 176.742188 C 140.636719 176.726563 176.492188 140.863281 176.492188 96.621094 C 176.492188 52.371094 140.621094 16.503906 96.382813 16.503906 C 52.144531 16.503906 16.277344 52.355469 16.261719 96.59375 L 16.261719 96.648438 C 16.277344 140.878906 52.128906 176.726563 96.355469 176.742188 Z M 96.355469 176.742188 "/>
</clipPath>
<clipPath id="clip121">
  <path d="M 108 62 L 123 62 L 123 77 L 108 77 Z M 108 62 "/>
</clipPath>
<clipPath id="clip122">
  <path d="M 96.355469 176.742188 L 96.414063 176.742188 C 140.636719 176.726563 176.492188 140.863281 176.492188 96.621094 C 176.492188 52.371094 140.621094 16.503906 96.382813 16.503906 C 52.144531 16.503906 16.277344 52.355469 16.261719 96.59375 L 16.261719 96.648438 C 16.277344 140.878906 52.128906 176.726563 96.355469 176.742188 Z M 96.355469 176.742188 "/>
</clipPath>
<clipPath id="clip123">
  <path d="M 110 63 L 122 63 L 122 75 L 110 75 Z M 110 63 "/>
</clipPath>
<clipPath id="clip124">
  <path d="M 96.355469 176.742188 L 96.414063 176.742188 C 140.636719 176.726563 176.492188 140.863281 176.492188 96.621094 C 176.492188 52.371094 140.621094 16.503906 96.382813 16.503906 C 52.144531 16.503906 16.277344 52.355469 16.261719 96.59375 L 16.261719 96.648438 C 16.277344 140.878906 52.128906 176.726563 96.355469 176.742188 Z M 96.355469 176.742188 "/>
</clipPath>
<clipPath id="clip125">
  <path d="M 111 65 L 120 65 L 120 74 L 111 74 Z M 111 65 "/>
</clipPath>
<clipPath id="clip126">
  <path d="M 96.355469 176.742188 L 96.414063 176.742188 C 140.636719 176.726563 176.492188 140.863281 176.492188 96.621094 C 176.492188 52.371094 140.621094 16.503906 96.382813 16.503906 C 52.144531 16.503906 16.277344 52.355469 16.261719 96.59375 L 16.261719 96.648438 C 16.277344 140.878906 52.128906 176.726563 96.355469 176.742188 Z M 96.355469 176.742188 "/>
</clipPath>
<clipPath id="clip127">
  <path d="M 112 66 L 119 66 L 119 73 L 112 73 Z M 112 66 "/>
</clipPath>
<clipPath id="clip128">
  <path d="M 96.355469 176.742188 L 96.414063 176.742188 C 140.636719 176.726563 176.492188 140.863281 176.492188 96.621094 C 176.492188 52.371094 140.621094 16.503906 96.382813 16.503906 C 52.144531 16.503906 16.277344 52.355469 16.261719 96.59375 L 16.261719 96.648438 C 16.277344 140.878906 52.128906 176.726563 96.355469 176.742188 Z M 96.355469 176.742188 "/>
</clipPath>
<clipPath id="clip129">
  <path d="M 114 68 L 117 68 L 117 71 L 114 71 Z M 114 68 "/>
</clipPath>
<clipPath id="clip130">
  <path d="M 96.355469 176.742188 L 96.414063 176.742188 C 140.636719 176.726563 176.492188 140.863281 176.492188 96.621094 C 176.492188 52.371094 140.621094 16.503906 96.382813 16.503906 C 52.144531 16.503906 16.277344 52.355469 16.261719 96.59375 L 16.261719 96.648438 C 16.277344 140.878906 52.128906 176.726563 96.355469 176.742188 Z M 96.355469 176.742188 "/>
</clipPath>
</defs>
<g id="surface1">
<path style=" stroke:none;fill-rule:evenodd;fill:rgb(100%,100%,100%);fill-opacity:1;" d="M 0 0.242188 L 192.757813 0.242188 L 192.757813 193 L 0 193 L 0 0.242188 "/>
<g clip-path="url(#clip1)" clip-rule="nonzero">
<g clip-path="url(#clip2)" clip-rule="nonzero">
<path style=" stroke:none;fill-rule:nonzero;fill:rgb(84.298706%,9.799194%,12.5%);fill-opacity:1;" d="M 96.355469 176.742188 L 96.414063 176.742188 C 140.636719 176.726563 176.492188 140.863281 176.492188 96.621094 C 176.492188 52.371094 140.621094 16.503906 96.382813 16.503906 C 52.144531 16.503906 16.277344 52.355469 16.261719 96.59375 L 16.261719 96.648438 C 16.277344 140.878906 52.128906 176.726563 96.355469 176.742188 Z M 176.492188 16.503906 L 16.261719 16.503906 L 16.261719 176.742188 L 176.492188 176.742188 Z M 115.605469 69.382813 L 262.253906 69.382813 C 262.253906 -11.609375 196.597656 -77.265625 115.605469 -77.265625 C 34.613281 -77.265625 -31.042969 -11.609375 -31.042969 69.382813 C -31.042969 150.371094 34.613281 216.027344 115.605469 216.027344 C 196.597656 216.027344 262.253906 150.371094 262.253906 69.382813 "/>
</g>
</g>
<g clip-path="url(#clip3)" clip-rule="nonzero">
<g clip-path="url(#clip4)" clip-rule="nonzero">
<path style=" stroke:none;fill-rule:nonzero;fill:rgb(84.298706%,9.799194%,12.5%);fill-opacity:1;" d="M 115.605469 69.382813 L 203.59375 69.382813 C 203.59375 20.785156 164.199219 -18.605469 115.605469 -18.605469 C 67.011719 -18.605469 27.617188 20.785156 27.617188 69.382813 C 27.617188 117.976563 67.011719 157.371094 115.605469 157.371094 C 164.199219 157.371094 203.59375 117.976563 203.59375 69.382813 "/>
</g>
</g>
<g clip-path="url(#clip5)" clip-rule="nonzero">
<g clip-path="url(#clip6)" clip-rule="nonzero">
<path style=" stroke:none;fill-rule:nonzero;fill:rgb(84.698486%,12.199402%,13.299561%);fill-opacity:1;" d="M 115.605469 69.382813 L 202.21875 69.382813 C 202.21875 21.546875 163.441406 -17.234375 115.605469 -17.234375 C 67.769531 -17.234375 28.992188 21.546875 28.992188 69.382813 C 28.992188 117.214844 67.769531 155.996094 115.605469 155.996094 C 163.441406 155.996094 202.21875 117.214844 202.21875 69.382813 "/>
</g>
</g>
<g clip-path="url(#clip7)" clip-rule="nonzero">
<g clip-path="url(#clip8)" clip-rule="nonzero">
<path style=" stroke:none;fill-rule:nonzero;fill:rgb(84.698486%,14.498901%,13.699341%);fill-opacity:1;" d="M 115.605469 69.382813 L 200.84375 69.382813 C 200.84375 22.304688 162.683594 -15.859375 115.605469 -15.859375 C 68.53125 -15.859375 30.367188 22.304688 30.367188 69.382813 C 30.367188 116.457031 68.53125 154.621094 115.605469 154.621094 C 162.683594 154.621094 200.84375 116.457031 200.84375 69.382813 "/>
</g>
</g>
<g clip-path="url(#clip9)" clip-rule="nonzero">
<g clip-path="url(#clip10)" clip-rule="nonzero">
<path style=" stroke:none;fill-rule:nonzero;fill:rgb(85.099792%,16.499329%,14.498901%);fill-opacity:1;" d="M 115.605469 69.382813 L 199.46875 69.382813 C 199.46875 23.0625 161.921875 -14.484375 115.605469 -14.484375 C 69.289063 -14.484375 31.742188 23.0625 31.742188 69.382813 C 31.742188 115.699219 69.289063 153.246094 115.605469 153.246094 C 161.921875 153.246094 199.46875 115.699219 199.46875 69.382813 "/>
</g>
</g>
<g clip-path="url(#clip11)" clip-rule="nonzero">
<g clip-path="url(#clip12)" clip-rule="nonzero">
<path style=" stroke:none;fill-rule:nonzero;fill:rgb(85.099792%,18.399048%,14.898682%);fill-opacity:1;" d="M 115.605469 69.382813 L 198.09375 69.382813 C 198.09375 23.824219 161.164063 -13.109375 115.605469 -13.109375 C 70.046875 -13.109375 33.117188 23.824219 33.117188 69.382813 C 33.117188 114.9375 70.046875 151.871094 115.605469 151.871094 C 161.164063 151.871094 198.09375 114.9375 198.09375 69.382813 "/>
</g>
</g>
<g clip-path="url(#clip13)" clip-rule="nonzero">
<g clip-path="url(#clip14)" clip-rule="nonzero">
<path style=" stroke:none;fill-rule:nonzero;fill:rgb(85.499573%,19.999695%,15.699768%);fill-opacity:1;" d="M 115.605469 69.382813 L 196.71875 69.382813 C 196.71875 24.582031 160.402344 -11.734375 115.605469 -11.734375 C 70.808594 -11.734375 34.492188 24.582031 34.492188 69.382813 C 34.492188 114.179688 70.808594 150.496094 115.605469 150.496094 C 160.402344 150.496094 196.71875 114.179688 196.71875 69.382813 "/>
</g>
</g>
<g clip-path="url(#clip15)" clip-rule="nonzero">
<g clip-path="url(#clip16)" clip-rule="nonzero">
<path style=" stroke:none;fill-rule:nonzero;fill:rgb(85.499573%,21.598816%,16.499329%);fill-opacity:1;" d="M 115.605469 69.382813 L 195.347656 69.382813 C 195.347656 25.34375 159.644531 -10.359375 115.605469 -10.359375 C 71.566406 -10.359375 35.867188 25.34375 35.867188 69.382813 C 35.867188 113.421875 71.566406 149.121094 115.605469 149.121094 C 159.644531 149.121094 195.347656 113.421875 195.347656 69.382813 "/>
</g>
</g>
<g clip-path="url(#clip17)" clip-rule="nonzero">
<g clip-path="url(#clip18)" clip-rule="nonzero">
<path style=" stroke:none;fill-rule:nonzero;fill:rgb(85.899353%,23.098755%,17.298889%);fill-opacity:1;" d="M 115.605469 69.382813 L 193.972656 69.382813 C 193.972656 26.101563 158.886719 -8.984375 115.605469 -8.984375 C 72.328125 -8.984375 37.242188 26.101563 37.242188 69.382813 C 37.242188 112.660156 72.328125 147.746094 115.605469 147.746094 C 158.886719 147.746094 193.972656 112.660156 193.972656 69.382813 "/>
</g>
</g>
<g clip-path="url(#clip19)" clip-rule="nonzero">
<g clip-path="url(#clip20)" clip-rule="nonzero">
<path style=" stroke:none;fill-rule:nonzero;fill:rgb(85.899353%,24.699402%,17.599487%);fill-opacity:1;" d="M 115.605469 69.382813 L 192.597656 69.382813 C 192.597656 26.859375 158.125 -7.609375 115.605469 -7.609375 C 73.085938 -7.609375 38.617188 26.859375 38.617188 69.382813 C 38.617188 111.902344 73.085938 146.371094 115.605469 146.371094 C 158.125 146.371094 192.597656 111.902344 192.597656 69.382813 "/>
</g>
</g>
<g clip-path="url(#clip21)" clip-rule="nonzero">
<g clip-path="url(#clip22)" clip-rule="nonzero">
<path style=" stroke:none;fill-rule:nonzero;fill:rgb(85.899353%,25.898743%,18.399048%);fill-opacity:1;" d="M 115.605469 69.382813 L 191.222656 69.382813 C 191.222656 27.621094 157.367188 -6.234375 115.605469 -6.234375 C 73.84375 -6.234375 39.992188 27.621094 39.992188 69.382813 C 39.992188 111.140625 73.84375 144.996094 115.605469 144.996094 C 157.367188 144.996094 191.222656 111.140625 191.222656 69.382813 "/>
</g>
</g>
<g clip-path="url(#clip23)" clip-rule="nonzero">
<g clip-path="url(#clip24)" clip-rule="nonzero">
<path style=" stroke:none;fill-rule:nonzero;fill:rgb(86.299133%,27.49939%,19.198608%);fill-opacity:1;" d="M 115.605469 69.382813 L 189.847656 69.382813 C 189.847656 28.378906 156.605469 -4.859375 115.605469 -4.859375 C 74.605469 -4.859375 41.363281 28.378906 41.363281 69.382813 C 41.363281 110.382813 74.605469 143.621094 115.605469 143.621094 C 156.605469 143.621094 189.847656 110.382813 189.847656 69.382813 "/>
</g>
</g>
<g clip-path="url(#clip25)" clip-rule="nonzero">
<g clip-path="url(#clip26)" clip-rule="nonzero">
<path style=" stroke:none;fill-rule:nonzero;fill:rgb(86.299133%,28.999329%,20.399475%);fill-opacity:1;" d="M 115.605469 69.382813 L 188.472656 69.382813 C 188.472656 29.140625 155.847656 -3.484375 115.605469 -3.484375 C 75.363281 -3.484375 42.738281 29.140625 42.738281 69.382813 C 42.738281 109.625 75.363281 142.246094 115.605469 142.246094 C 155.847656 142.246094 188.472656 109.625 188.472656 69.382813 "/>
</g>
</g>
<g clip-path="url(#clip27)" clip-rule="nonzero">
<g clip-path="url(#clip28)" clip-rule="nonzero">
<path style=" stroke:none;fill-rule:nonzero;fill:rgb(86.698914%,30.198669%,21.199036%);fill-opacity:1;" d="M 115.605469 69.382813 L 187.097656 69.382813 C 187.097656 29.898438 155.089844 -2.109375 115.605469 -2.109375 C 76.121094 -2.109375 44.113281 29.898438 44.113281 69.382813 C 44.113281 108.863281 76.121094 140.871094 115.605469 140.871094 C 155.089844 140.871094 187.097656 108.863281 187.097656 69.382813 "/>
</g>
</g>
<g clip-path="url(#clip29)" clip-rule="nonzero">
<g clip-path="url(#clip30)" clip-rule="nonzero">
<path style=" stroke:none;fill-rule:nonzero;fill:rgb(86.698914%,31.399536%,22.399902%);fill-opacity:1;" d="M 115.605469 69.382813 L 185.722656 69.382813 C 185.722656 30.65625 154.328125 -0.734375 115.605469 -0.734375 C 76.882813 -0.734375 45.488281 30.65625 45.488281 69.382813 C 45.488281 108.105469 76.882813 139.496094 115.605469 139.496094 C 154.328125 139.496094 185.722656 108.105469 185.722656 69.382813 "/>
</g>
</g>
<g clip-path="url(#clip31)" clip-rule="nonzero">
<g clip-path="url(#clip32)" clip-rule="nonzero">
<path style=" stroke:none;fill-rule:nonzero;fill:rgb(87.098694%,32.899475%,23.098755%);fill-opacity:1;" d="M 115.605469 69.382813 L 184.347656 69.382813 C 184.347656 31.417969 153.570313 0.640625 115.605469 0.640625 C 77.640625 0.640625 46.863281 31.417969 46.863281 69.382813 C 46.863281 107.34375 77.640625 138.121094 115.605469 138.121094 C 153.570313 138.121094 184.347656 107.34375 184.347656 69.382813 "/>
</g>
</g>
<g clip-path="url(#clip33)" clip-rule="nonzero">
<g clip-path="url(#clip34)" clip-rule="nonzero">
<path style=" stroke:none;fill-rule:nonzero;fill:rgb(87.098694%,34.098816%,23.899841%);fill-opacity:1;" d="M 115.605469 69.382813 L 182.972656 69.382813 C 182.972656 32.175781 152.8125 2.015625 115.605469 2.015625 C 78.402344 2.015625 48.238281 32.175781 48.238281 69.382813 C 48.238281 106.585938 78.402344 136.746094 115.605469 136.746094 C 152.8125 136.746094 182.972656 106.585938 182.972656 69.382813 "/>
</g>
</g>
<g clip-path="url(#clip35)" clip-rule="nonzero">
<g clip-path="url(#clip36)" clip-rule="nonzero">
<path style=" stroke:none;fill-rule:nonzero;fill:rgb(87.5%,35.299683%,25.099182%);fill-opacity:1;" d="M 115.605469 69.382813 L 181.597656 69.382813 C 181.597656 32.933594 152.050781 3.390625 115.605469 3.390625 C 79.160156 3.390625 49.613281 32.933594 49.613281 69.382813 C 49.613281 105.828125 79.160156 135.371094 115.605469 135.371094 C 152.050781 135.371094 181.597656 105.828125 181.597656 69.382813 "/>
</g>
</g>
<g clip-path="url(#clip37)" clip-rule="nonzero">
<g clip-path="url(#clip38)" clip-rule="nonzero">
<path style=" stroke:none;fill-rule:nonzero;fill:rgb(87.5%,36.499023%,25.898743%);fill-opacity:1;" d="M 115.605469 69.382813 L 180.222656 69.382813 C 180.222656 33.695313 151.292969 4.765625 115.605469 4.765625 C 79.917969 4.765625 50.988281 33.695313 50.988281 69.382813 C 50.988281 105.066406 79.917969 133.996094 115.605469 133.996094 C 151.292969 133.996094 180.222656 105.066406 180.222656 69.382813 "/>
</g>
</g>
<g clip-path="url(#clip39)" clip-rule="nonzero">
<g clip-path="url(#clip40)" clip-rule="nonzero">
<path style=" stroke:none;fill-rule:nonzero;fill:rgb(87.799072%,37.599182%,27.099609%);fill-opacity:1;" d="M 115.605469 69.382813 L 178.847656 69.382813 C 178.847656 34.453125 150.53125 6.140625 115.605469 6.140625 C 80.679688 6.140625 52.363281 34.453125 52.363281 69.382813 C 52.363281 104.308594 80.679688 132.621094 115.605469 132.621094 C 150.53125 132.621094 178.847656 104.308594 178.847656 69.382813 "/>
</g>
</g>
<g clip-path="url(#clip41)" clip-rule="nonzero">
<g clip-path="url(#clip42)" clip-rule="nonzero">
<path style=" stroke:none;fill-rule:nonzero;fill:rgb(87.799072%,38.798523%,28.199768%);fill-opacity:1;" d="M 115.605469 69.382813 L 177.472656 69.382813 C 177.472656 35.214844 149.773438 7.515625 115.605469 7.515625 C 81.4375 7.515625 53.738281 35.214844 53.738281 69.382813 C 53.738281 103.550781 81.4375 131.25 115.605469 131.25 C 149.773438 131.25 177.472656 103.550781 177.472656 69.382813 "/>
</g>
</g>
<g clip-path="url(#clip43)" clip-rule="nonzero">
<g clip-path="url(#clip44)" clip-rule="nonzero">
<path style=" stroke:none;fill-rule:nonzero;fill:rgb(88.198853%,39.99939%,29.399109%);fill-opacity:1;" d="M 115.605469 69.382813 L 176.097656 69.382813 C 176.097656 35.972656 149.015625 8.890625 115.605469 8.890625 C 82.199219 8.890625 55.113281 35.972656 55.113281 69.382813 C 55.113281 102.789063 82.199219 129.875 115.605469 129.875 C 149.015625 129.875 176.097656 102.789063 176.097656 69.382813 "/>
</g>
</g>
<g clip-path="url(#clip45)" clip-rule="nonzero">
<g clip-path="url(#clip46)" clip-rule="nonzero">
<path style=" stroke:none;fill-rule:nonzero;fill:rgb(88.198853%,41.19873%,30.198669%);fill-opacity:1;" d="M 115.605469 69.382813 L 174.722656 69.382813 C 174.722656 36.730469 148.253906 10.265625 115.605469 10.265625 C 82.957031 10.265625 56.488281 36.730469 56.488281 69.382813 C 56.488281 102.03125 82.957031 128.5 115.605469 128.5 C 148.253906 128.5 174.722656 102.03125 174.722656 69.382813 "/>
</g>
</g>
<g clip-path="url(#clip47)" clip-rule="nonzero">
<g clip-path="url(#clip48)" clip-rule="nonzero">
<path style=" stroke:none;fill-rule:nonzero;fill:rgb(88.598633%,42.399597%,31.399536%);fill-opacity:1;" d="M 115.605469 69.382813 L 173.347656 69.382813 C 173.347656 37.492188 147.496094 11.640625 115.605469 11.640625 C 83.714844 11.640625 57.863281 37.492188 57.863281 69.382813 C 57.863281 101.273438 83.714844 127.125 115.605469 127.125 C 147.496094 127.125 173.347656 101.273438 173.347656 69.382813 "/>
</g>
</g>
<g clip-path="url(#clip49)" clip-rule="nonzero">
<g clip-path="url(#clip50)" clip-rule="nonzero">
<path style=" stroke:none;fill-rule:nonzero;fill:rgb(88.598633%,43.099976%,32.499695%);fill-opacity:1;" d="M 115.605469 69.382813 L 171.972656 69.382813 C 171.972656 38.25 146.738281 13.011719 115.605469 13.011719 C 84.476563 13.011719 59.238281 38.25 59.238281 69.382813 C 59.238281 100.511719 84.476563 125.75 115.605469 125.75 C 146.738281 125.75 171.972656 100.511719 171.972656 69.382813 "/>
</g>
</g>
<g clip-path="url(#clip51)" clip-rule="nonzero">
<g clip-path="url(#clip52)" clip-rule="nonzero">
<path style=" stroke:none;fill-rule:nonzero;fill:rgb(88.999939%,44.299316%,33.299255%);fill-opacity:1;" d="M 115.605469 69.382813 L 170.597656 69.382813 C 170.597656 39.011719 145.976563 14.386719 115.605469 14.386719 C 85.234375 14.386719 60.613281 39.011719 60.613281 69.382813 C 60.613281 99.753906 85.234375 124.375 115.605469 124.375 C 145.976563 124.375 170.597656 99.753906 170.597656 69.382813 "/>
</g>
</g>
<g clip-path="url(#clip53)" clip-rule="nonzero">
<g clip-path="url(#clip54)" clip-rule="nonzero">
<path style=" stroke:none;fill-rule:nonzero;fill:rgb(88.999939%,45.498657%,34.098816%);fill-opacity:1;" d="M 115.605469 69.382813 L 169.222656 69.382813 C 169.222656 39.769531 145.21875 15.761719 115.605469 15.761719 C 85.992188 15.761719 61.988281 39.769531 61.988281 69.382813 C 61.988281 98.992188 85.992188 123 115.605469 123 C 145.21875 123 169.222656 98.992188 169.222656 69.382813 "/>
</g>
</g>
<g clip-path="url(#clip55)" clip-rule="nonzero">
<g clip-path="url(#clip56)" clip-rule="nonzero">
<path style=" stroke:none;fill-rule:nonzero;fill:rgb(89.399719%,46.299744%,35.299683%);fill-opacity:1;" d="M 115.605469 69.382813 L 167.847656 69.382813 C 167.847656 40.527344 144.460938 17.136719 115.605469 17.136719 C 86.753906 17.136719 63.363281 40.527344 63.363281 69.382813 C 63.363281 98.234375 86.753906 121.625 115.605469 121.625 C 144.460938 121.625 167.847656 98.234375 167.847656 69.382813 "/>
</g>
</g>
<g clip-path="url(#clip57)" clip-rule="nonzero">
<g clip-path="url(#clip58)" clip-rule="nonzero">
<path style=" stroke:none;fill-rule:nonzero;fill:rgb(89.399719%,47.499084%,36.499023%);fill-opacity:1;" d="M 115.605469 69.382813 L 166.472656 69.382813 C 166.472656 41.285156 143.699219 18.511719 115.605469 18.511719 C 87.511719 18.511719 64.738281 41.285156 64.738281 69.382813 C 64.738281 97.476563 87.511719 120.25 115.605469 120.25 C 143.699219 120.25 166.472656 97.476563 166.472656 69.382813 "/>
</g>
</g>
<g clip-path="url(#clip59)" clip-rule="nonzero">
<g clip-path="url(#clip60)" clip-rule="nonzero">
<path style=" stroke:none;fill-rule:nonzero;fill:rgb(89.7995%,48.599243%,37.599182%);fill-opacity:1;" d="M 115.605469 69.382813 L 165.101563 69.382813 C 165.101563 42.046875 142.941406 19.886719 115.605469 19.886719 C 88.273438 19.886719 66.113281 42.046875 66.113281 69.382813 C 66.113281 96.714844 88.273438 118.875 115.605469 118.875 C 142.941406 118.875 165.101563 96.714844 165.101563 69.382813 "/>
</g>
</g>
<g clip-path="url(#clip61)" clip-rule="nonzero">
<g clip-path="url(#clip62)" clip-rule="nonzero">
<path style=" stroke:none;fill-rule:nonzero;fill:rgb(89.7995%,49.798584%,38.798523%);fill-opacity:1;" d="M 115.605469 69.382813 L 163.726563 69.382813 C 163.726563 42.804688 142.179688 21.261719 115.605469 21.261719 C 89.03125 21.261719 67.488281 42.804688 67.488281 69.382813 C 67.488281 95.957031 89.03125 117.5 115.605469 117.5 C 142.179688 117.5 163.726563 95.957031 163.726563 69.382813 "/>
</g>
</g>
<g clip-path="url(#clip63)" clip-rule="nonzero">
<g clip-path="url(#clip64)" clip-rule="nonzero">
<path style=" stroke:none;fill-rule:nonzero;fill:rgb(90.19928%,50.59967%,39.599609%);fill-opacity:1;" d="M 115.605469 69.382813 L 162.351563 69.382813 C 162.351563 43.566406 141.421875 22.636719 115.605469 22.636719 C 89.789063 22.636719 68.863281 43.566406 68.863281 69.382813 C 68.863281 95.195313 89.789063 116.125 115.605469 116.125 C 141.421875 116.125 162.351563 95.195313 162.351563 69.382813 "/>
</g>
</g>
<g clip-path="url(#clip65)" clip-rule="nonzero">
<g clip-path="url(#clip66)" clip-rule="nonzero">
<path style=" stroke:none;fill-rule:nonzero;fill:rgb(90.19928%,51.799011%,40.79895%);fill-opacity:1;" d="M 115.605469 69.382813 L 160.976563 69.382813 C 160.976563 44.324219 140.664063 24.011719 115.605469 24.011719 C 90.550781 24.011719 70.238281 44.324219 70.238281 69.382813 C 70.238281 94.4375 90.550781 114.75 115.605469 114.75 C 140.664063 114.75 160.976563 94.4375 160.976563 69.382813 "/>
</g>
</g>
<g clip-path="url(#clip67)" clip-rule="nonzero">
<g clip-path="url(#clip68)" clip-rule="nonzero">
<path style=" stroke:none;fill-rule:nonzero;fill:rgb(90.59906%,52.89917%,41.999817%);fill-opacity:1;" d="M 115.605469 69.382813 L 159.601563 69.382813 C 159.601563 45.085938 139.902344 25.386719 115.605469 25.386719 C 91.308594 25.386719 71.609375 45.085938 71.609375 69.382813 C 71.609375 93.679688 91.308594 113.375 115.605469 113.375 C 139.902344 113.375 159.601563 93.679688 159.601563 69.382813 "/>
</g>
</g>
<g clip-path="url(#clip69)" clip-rule="nonzero">
<g clip-path="url(#clip70)" clip-rule="nonzero">
<path style=" stroke:none;fill-rule:nonzero;fill:rgb(90.59906%,53.69873%,42.698669%);fill-opacity:1;" d="M 115.605469 69.382813 L 158.226563 69.382813 C 158.226563 45.84375 139.144531 26.761719 115.605469 26.761719 C 92.066406 26.761719 72.984375 45.84375 72.984375 69.382813 C 72.984375 92.917969 92.066406 112 115.605469 112 C 139.144531 112 158.226563 92.917969 158.226563 69.382813 "/>
</g>
</g>
<g clip-path="url(#clip71)" clip-rule="nonzero">
<g clip-path="url(#clip72)" clip-rule="nonzero">
<path style=" stroke:none;fill-rule:nonzero;fill:rgb(90.99884%,54.899597%,43.899536%);fill-opacity:1;" d="M 115.605469 69.382813 L 156.851563 69.382813 C 156.851563 46.601563 138.382813 28.136719 115.605469 28.136719 C 92.828125 28.136719 74.359375 46.601563 74.359375 69.382813 C 74.359375 92.160156 92.828125 110.625 115.605469 110.625 C 138.382813 110.625 156.851563 92.160156 156.851563 69.382813 "/>
</g>
</g>
<g clip-path="url(#clip73)" clip-rule="nonzero">
<g clip-path="url(#clip74)" clip-rule="nonzero">
<path style=" stroke:none;fill-rule:nonzero;fill:rgb(90.99884%,55.699158%,45.098877%);fill-opacity:1;" d="M 115.605469 69.382813 L 155.476563 69.382813 C 155.476563 47.363281 137.625 29.511719 115.605469 29.511719 C 93.585938 29.511719 75.734375 47.363281 75.734375 69.382813 C 75.734375 91.402344 93.585938 109.25 115.605469 109.25 C 137.625 109.25 155.476563 91.402344 155.476563 69.382813 "/>
</g>
</g>
<g clip-path="url(#clip75)" clip-rule="nonzero">
<g clip-path="url(#clip76)" clip-rule="nonzero">
<path style=" stroke:none;fill-rule:nonzero;fill:rgb(91.398621%,56.898499%,46.299744%);fill-opacity:1;" d="M 115.605469 69.382813 L 154.101563 69.382813 C 154.101563 48.121094 136.867188 30.886719 115.605469 30.886719 C 94.34375 30.886719 77.109375 48.121094 77.109375 69.382813 C 77.109375 90.640625 94.34375 107.875 115.605469 107.875 C 136.867188 107.875 154.101563 90.640625 154.101563 69.382813 "/>
</g>
</g>
<g clip-path="url(#clip77)" clip-rule="nonzero">
<g clip-path="url(#clip78)" clip-rule="nonzero">
<path style=" stroke:none;fill-rule:nonzero;fill:rgb(91.398621%,57.998657%,47.499084%);fill-opacity:1;" d="M 115.605469 69.382813 L 152.726563 69.382813 C 152.726563 48.878906 136.105469 32.261719 115.605469 32.261719 C 95.105469 32.261719 78.484375 48.878906 78.484375 69.382813 C 78.484375 89.882813 95.105469 106.5 115.605469 106.5 C 136.105469 106.5 152.726563 89.882813 152.726563 69.382813 "/>
</g>
</g>
<g clip-path="url(#clip79)" clip-rule="nonzero">
<g clip-path="url(#clip80)" clip-rule="nonzero">
<path style=" stroke:none;fill-rule:nonzero;fill:rgb(91.799927%,59.199524%,48.599243%);fill-opacity:1;" d="M 115.605469 69.382813 L 151.351563 69.382813 C 151.351563 49.640625 135.347656 33.636719 115.605469 33.636719 C 95.863281 33.636719 79.859375 49.640625 79.859375 69.382813 C 79.859375 89.121094 95.863281 105.125 115.605469 105.125 C 135.347656 105.125 151.351563 89.121094 151.351563 69.382813 "/>
</g>
</g>
<g clip-path="url(#clip81)" clip-rule="nonzero">
<g clip-path="url(#clip82)" clip-rule="nonzero">
<path style=" stroke:none;fill-rule:nonzero;fill:rgb(92.199707%,60.398865%,49.798584%);fill-opacity:1;" d="M 115.605469 69.382813 L 149.976563 69.382813 C 149.976563 50.398438 134.589844 35.011719 115.605469 35.011719 C 96.625 35.011719 81.234375 50.398438 81.234375 69.382813 C 81.234375 88.363281 96.625 103.753906 115.605469 103.753906 C 134.589844 103.753906 149.976563 88.363281 149.976563 69.382813 "/>
</g>
</g>
<g clip-path="url(#clip83)" clip-rule="nonzero">
<g clip-path="url(#clip84)" clip-rule="nonzero">
<path style=" stroke:none;fill-rule:nonzero;fill:rgb(92.199707%,61.199951%,51.399231%);fill-opacity:1;" d="M 115.605469 69.382813 L 148.601563 69.382813 C 148.601563 51.15625 133.828125 36.386719 115.605469 36.386719 C 97.382813 36.386719 82.609375 51.15625 82.609375 69.382813 C 82.609375 87.605469 97.382813 102.378906 115.605469 102.378906 C 133.828125 102.378906 148.601563 87.605469 148.601563 69.382813 "/>
</g>
</g>
<g clip-path="url(#clip85)" clip-rule="nonzero">
<g clip-path="url(#clip86)" clip-rule="nonzero">
<path style=" stroke:none;fill-rule:nonzero;fill:rgb(92.498779%,62.399292%,52.49939%);fill-opacity:1;" d="M 115.605469 69.382813 L 147.226563 69.382813 C 147.226563 51.917969 133.070313 37.761719 115.605469 37.761719 C 98.140625 37.761719 83.984375 51.917969 83.984375 69.382813 C 83.984375 86.84375 98.140625 101.003906 115.605469 101.003906 C 133.070313 101.003906 147.226563 86.84375 147.226563 69.382813 "/>
</g>
</g>
<g clip-path="url(#clip87)" clip-rule="nonzero">
<g clip-path="url(#clip88)" clip-rule="nonzero">
<path style=" stroke:none;fill-rule:nonzero;fill:rgb(92.498779%,63.499451%,53.69873%);fill-opacity:1;" d="M 115.605469 69.382813 L 145.851563 69.382813 C 145.851563 52.675781 132.308594 39.136719 115.605469 39.136719 C 98.902344 39.136719 85.359375 52.675781 85.359375 69.382813 C 85.359375 86.085938 98.902344 99.628906 115.605469 99.628906 C 132.308594 99.628906 145.851563 86.085938 145.851563 69.382813 "/>
</g>
</g>
<g clip-path="url(#clip89)" clip-rule="nonzero">
<g clip-path="url(#clip90)" clip-rule="nonzero">
<path style=" stroke:none;fill-rule:nonzero;fill:rgb(92.89856%,64.698792%,54.899597%);fill-opacity:1;" d="M 115.605469 69.382813 L 144.476563 69.382813 C 144.476563 53.4375 131.550781 40.511719 115.605469 40.511719 C 99.660156 40.511719 86.734375 53.4375 86.734375 69.382813 C 86.734375 85.324219 99.660156 98.253906 115.605469 98.253906 C 131.550781 98.253906 144.476563 85.324219 144.476563 69.382813 "/>
</g>
</g>
<g clip-path="url(#clip91)" clip-rule="nonzero">
<g clip-path="url(#clip92)" clip-rule="nonzero">
<path style=" stroke:none;fill-rule:nonzero;fill:rgb(92.89856%,65.899658%,56.098938%);fill-opacity:1;" d="M 115.605469 69.382813 L 143.101563 69.382813 C 143.101563 54.195313 130.789063 41.886719 115.605469 41.886719 C 100.421875 41.886719 88.109375 54.195313 88.109375 69.382813 C 88.109375 84.566406 100.421875 96.878906 115.605469 96.878906 C 130.789063 96.878906 143.101563 84.566406 143.101563 69.382813 "/>
</g>
</g>
<g clip-path="url(#clip93)" clip-rule="nonzero">
<g clip-path="url(#clip94)" clip-rule="nonzero">
<path style=" stroke:none;fill-rule:nonzero;fill:rgb(93.299866%,67.098999%,57.598877%);fill-opacity:1;" d="M 115.605469 69.382813 L 141.726563 69.382813 C 141.726563 54.953125 130.03125 43.257813 115.605469 43.257813 C 101.179688 43.257813 89.484375 54.953125 89.484375 69.382813 C 89.484375 83.808594 101.179688 95.503906 115.605469 95.503906 C 130.03125 95.503906 141.726563 83.808594 141.726563 69.382813 "/>
</g>
</g>
<g clip-path="url(#clip95)" clip-rule="nonzero">
<g clip-path="url(#clip96)" clip-rule="nonzero">
<path style=" stroke:none;fill-rule:nonzero;fill:rgb(93.299866%,68.199158%,59.199524%);fill-opacity:1;" d="M 115.605469 69.382813 L 140.351563 69.382813 C 140.351563 55.714844 129.273438 44.632813 115.605469 44.632813 C 101.9375 44.632813 90.859375 55.714844 90.859375 69.382813 C 90.859375 83.046875 101.9375 94.128906 115.605469 94.128906 C 129.273438 94.128906 140.351563 83.046875 140.351563 69.382813 "/>
</g>
</g>
<g clip-path="url(#clip97)" clip-rule="nonzero">
<g clip-path="url(#clip98)" clip-rule="nonzero">
<path style=" stroke:none;fill-rule:nonzero;fill:rgb(93.699646%,69.398499%,60.398865%);fill-opacity:1;" d="M 115.605469 69.382813 L 138.976563 69.382813 C 138.976563 56.472656 128.515625 46.007813 115.605469 46.007813 C 102.699219 46.007813 92.234375 56.472656 92.234375 69.382813 C 92.234375 82.289063 102.699219 92.753906 115.605469 92.753906 C 128.515625 92.753906 138.976563 82.289063 138.976563 69.382813 "/>
</g>
</g>
<g clip-path="url(#clip99)" clip-rule="nonzero">
<g clip-path="url(#clip100)" clip-rule="nonzero">
<path style=" stroke:none;fill-rule:nonzero;fill:rgb(94.099426%,70.599365%,61.999512%);fill-opacity:1;" d="M 115.605469 69.382813 L 137.601563 69.382813 C 137.601563 57.234375 127.753906 47.382813 115.605469 47.382813 C 103.457031 47.382813 93.609375 57.234375 93.609375 69.382813 C 93.609375 81.53125 103.457031 91.378906 115.605469 91.378906 C 127.753906 91.378906 137.601563 81.53125 137.601563 69.382813 "/>
</g>
</g>
<g clip-path="url(#clip101)" clip-rule="nonzero">
<g clip-path="url(#clip102)" clip-rule="nonzero">
<path style=" stroke:none;fill-rule:nonzero;fill:rgb(94.099426%,71.798706%,63.499451%);fill-opacity:1;" d="M 115.605469 69.382813 L 136.226563 69.382813 C 136.226563 57.992188 126.996094 48.757813 115.605469 48.757813 C 104.21875 48.757813 94.984375 57.992188 94.984375 69.382813 C 94.984375 80.769531 104.21875 90.003906 115.605469 90.003906 C 126.996094 90.003906 136.226563 80.769531 136.226563 69.382813 "/>
</g>
</g>
<g clip-path="url(#clip103)" clip-rule="nonzero">
<g clip-path="url(#clip104)" clip-rule="nonzero">
<path style=" stroke:none;fill-rule:nonzero;fill:rgb(94.499207%,72.898865%,64.698792%);fill-opacity:1;" d="M 115.605469 69.382813 L 134.855469 69.382813 C 134.855469 58.75 126.234375 50.132813 115.605469 50.132813 C 104.976563 50.132813 96.359375 58.75 96.359375 69.382813 C 96.359375 80.011719 104.976563 88.628906 115.605469 88.628906 C 126.234375 88.628906 134.855469 80.011719 134.855469 69.382813 "/>
</g>
</g>
<g clip-path="url(#clip105)" clip-rule="nonzero">
<g clip-path="url(#clip106)" clip-rule="nonzero">
<path style=" stroke:none;fill-rule:nonzero;fill:rgb(94.499207%,74.099731%,66.299438%);fill-opacity:1;" d="M 115.605469 69.382813 L 133.480469 69.382813 C 133.480469 59.511719 125.476563 51.507813 115.605469 51.507813 C 105.734375 51.507813 97.734375 59.511719 97.734375 69.382813 C 97.734375 79.253906 105.734375 87.253906 115.605469 87.253906 C 125.476563 87.253906 133.480469 79.253906 133.480469 69.382813 "/>
</g>
</g>
<g clip-path="url(#clip107)" clip-rule="nonzero">
<g clip-path="url(#clip108)" clip-rule="nonzero">
<path style=" stroke:none;fill-rule:nonzero;fill:rgb(94.898987%,75.299072%,67.799377%);fill-opacity:1;" d="M 115.605469 69.382813 L 132.105469 69.382813 C 132.105469 60.269531 124.71875 52.882813 115.605469 52.882813 C 106.496094 52.882813 99.109375 60.269531 99.109375 69.382813 C 99.109375 78.492188 106.496094 85.878906 115.605469 85.878906 C 124.71875 85.878906 132.105469 78.492188 132.105469 69.382813 "/>
</g>
</g>
<g clip-path="url(#clip109)" clip-rule="nonzero">
<g clip-path="url(#clip110)" clip-rule="nonzero">
<path style=" stroke:none;fill-rule:nonzero;fill:rgb(95.298767%,76.499939%,68.998718%);fill-opacity:1;" d="M 115.605469 69.382813 L 130.730469 69.382813 C 130.730469 61.027344 123.957031 54.257813 115.605469 54.257813 C 107.253906 54.257813 100.484375 61.027344 100.484375 69.382813 C 100.484375 77.734375 107.253906 84.503906 115.605469 84.503906 C 123.957031 84.503906 130.730469 77.734375 130.730469 69.382813 "/>
</g>
</g>
<g clip-path="url(#clip111)" clip-rule="nonzero">
<g clip-path="url(#clip112)" clip-rule="nonzero">
<path style=" stroke:none;fill-rule:nonzero;fill:rgb(95.298767%,77.598572%,70.599365%);fill-opacity:1;" d="M 115.605469 69.382813 L 129.355469 69.382813 C 129.355469 61.789063 123.199219 55.632813 115.605469 55.632813 C 108.011719 55.632813 101.855469 61.789063 101.855469 69.382813 C 101.855469 76.972656 108.011719 83.128906 115.605469 83.128906 C 123.199219 83.128906 129.355469 76.972656 129.355469 69.382813 "/>
</g>
</g>
<g clip-path="url(#clip113)" clip-rule="nonzero">
<g clip-path="url(#clip114)" clip-rule="nonzero">
<path style=" stroke:none;fill-rule:nonzero;fill:rgb(95.698547%,78.799438%,72.198486%);fill-opacity:1;" d="M 115.605469 69.382813 L 127.980469 69.382813 C 127.980469 62.546875 122.4375 57.007813 115.605469 57.007813 C 108.773438 57.007813 103.230469 62.546875 103.230469 69.382813 C 103.230469 76.214844 108.773438 81.753906 115.605469 81.753906 C 122.4375 81.753906 127.980469 76.214844 127.980469 69.382813 "/>
</g>
</g>
<g clip-path="url(#clip115)" clip-rule="nonzero">
<g clip-path="url(#clip116)" clip-rule="nonzero">
<path style=" stroke:none;fill-rule:nonzero;fill:rgb(95.698547%,80.39856%,73.699951%);fill-opacity:1;" d="M 115.605469 69.382813 L 126.605469 69.382813 C 126.605469 63.308594 121.679688 58.382813 115.605469 58.382813 C 109.53125 58.382813 104.605469 63.308594 104.605469 69.382813 C 104.605469 75.453125 109.53125 80.378906 115.605469 80.378906 C 121.679688 80.378906 126.605469 75.453125 126.605469 69.382813 "/>
</g>
</g>
<g clip-path="url(#clip117)" clip-rule="nonzero">
<g clip-path="url(#clip118)" clip-rule="nonzero">
<path style=" stroke:none;fill-rule:nonzero;fill:rgb(96.099854%,81.599426%,75.299072%);fill-opacity:1;" d="M 115.605469 69.382813 L 125.230469 69.382813 C 125.230469 64.066406 120.921875 59.757813 115.605469 59.757813 C 110.289063 59.757813 105.980469 64.066406 105.980469 69.382813 C 105.980469 74.695313 110.289063 79.003906 115.605469 79.003906 C 120.921875 79.003906 125.230469 74.695313 125.230469 69.382813 "/>
</g>
</g>
<g clip-path="url(#clip119)" clip-rule="nonzero">
<g clip-path="url(#clip120)" clip-rule="nonzero">
<path style=" stroke:none;fill-rule:nonzero;fill:rgb(96.499634%,82.699585%,76.899719%);fill-opacity:1;" d="M 115.605469 69.382813 L 123.855469 69.382813 C 123.855469 64.824219 120.160156 61.132813 115.605469 61.132813 C 111.050781 61.132813 107.355469 64.824219 107.355469 69.382813 C 107.355469 73.9375 111.050781 77.628906 115.605469 77.628906 C 120.160156 77.628906 123.855469 73.9375 123.855469 69.382813 "/>
</g>
</g>
<g clip-path="url(#clip121)" clip-rule="nonzero">
<g clip-path="url(#clip122)" clip-rule="nonzero">
<path style=" stroke:none;fill-rule:nonzero;fill:rgb(96.499634%,83.898926%,78.399658%);fill-opacity:1;" d="M 115.605469 69.382813 L 122.480469 69.382813 C 122.480469 65.585938 119.402344 62.507813 115.605469 62.507813 C 111.808594 62.507813 108.730469 65.585938 108.730469 69.382813 C 108.730469 73.175781 111.808594 76.253906 115.605469 76.253906 C 119.402344 76.253906 122.480469 73.175781 122.480469 69.382813 "/>
</g>
</g>
<g clip-path="url(#clip123)" clip-rule="nonzero">
<g clip-path="url(#clip124)" clip-rule="nonzero">
<path style=" stroke:none;fill-rule:nonzero;fill:rgb(96.899414%,85.099792%,79.998779%);fill-opacity:1;" d="M 115.605469 69.382813 L 121.105469 69.382813 C 121.105469 66.34375 118.644531 63.882813 115.605469 63.882813 C 112.570313 63.882813 110.105469 66.34375 110.105469 69.382813 C 110.105469 72.417969 112.570313 74.878906 115.605469 74.878906 C 118.644531 74.878906 121.105469 72.417969 121.105469 69.382813 "/>
</g>
</g>
<g clip-path="url(#clip125)" clip-rule="nonzero">
<g clip-path="url(#clip126)" clip-rule="nonzero">
<path style=" stroke:none;fill-rule:nonzero;fill:rgb(96.899414%,86.299133%,81.599426%);fill-opacity:1;" d="M 115.605469 69.382813 L 119.730469 69.382813 C 119.730469 67.105469 117.882813 65.257813 115.605469 65.257813 C 113.328125 65.257813 111.480469 67.105469 111.480469 69.382813 C 111.480469 71.660156 113.328125 73.507813 115.605469 73.507813 C 117.882813 73.507813 119.730469 71.660156 119.730469 69.382813 "/>
</g>
</g>
<g clip-path="url(#clip127)" clip-rule="nonzero">
<g clip-path="url(#clip128)" clip-rule="nonzero">
<path style=" stroke:none;fill-rule:nonzero;fill:rgb(97.299194%,87.5%,83.099365%);fill-opacity:1;" d="M 115.605469 69.382813 L 118.355469 69.382813 C 118.355469 67.863281 117.125 66.632813 115.605469 66.632813 C 114.089844 66.632813 112.855469 67.863281 112.855469 69.382813 C 112.855469 70.898438 114.089844 72.132813 115.605469 72.132813 C 117.125 72.132813 118.355469 70.898438 118.355469 69.382813 "/>
</g>
</g>
<g clip-path="url(#clip129)" clip-rule="nonzero">
<g clip-path="url(#clip130)" clip-rule="nonzero">
<path style=" stroke:none;fill-rule:nonzero;fill:rgb(97.299194%,88.598633%,84.698486%);fill-opacity:1;" d="M 115.605469 69.382813 L 116.980469 69.382813 C 116.980469 68.621094 116.363281 68.007813 115.605469 68.007813 C 114.847656 68.007813 114.230469 68.621094 114.230469 69.382813 C 114.230469 70.140625 114.847656 70.757813 115.605469 70.757813 C 116.363281 70.757813 116.980469 70.140625 116.980469 69.382813 "/>
</g>
</g>
<path style=" stroke:none;fill-rule:nonzero;fill:rgb(100%,100%,100%);fill-opacity:1;" d="M 73.214844 30.644531 C 98.4375 30.46875 136.921875 45.539063 140.050781 95.46875 C 147.714844 90.921875 154.457031 82.339844 160.117188 67.886719 C 149.160156 43.609375 124.746094 26.714844 96.382813 26.714844 C 88.265625 26.714844 80.460938 28.101563 73.214844 30.644531 "/>
<path style=" stroke:none;fill-rule:nonzero;fill:rgb(100%,100%,100%);fill-opacity:1;" d="M 119.542969 162.597656 C 94.320313 162.777344 55.832031 147.699219 52.707031 97.773438 C 45.042969 102.320313 38.296875 110.902344 32.640625 125.359375 C 43.597656 149.640625 68.011719 166.519531 96.382813 166.519531 C 104.488281 166.519531 112.296875 165.140625 119.542969 162.597656 "/>
<path style=" stroke:none;fill-rule:nonzero;fill:rgb(100%,100%,100%);fill-opacity:1;" d="M 95.894531 47.871094 C 51.355469 104.25 92.527344 153.996094 123.46875 161.089844 C 148.621094 150.503906 166.289063 125.621094 166.289063 96.621094 C 166.289063 86.910156 164.304688 77.664063 160.726563 69.261719 C 161.859375 111.394531 140.574219 136.773438 96.871094 145.378906 C 141.398438 88.988281 100.226563 39.246094 69.285156 32.152344 C 44.136719 42.738281 26.480469 67.613281 26.480469 96.621094 C 26.480469 106.332031 28.449219 115.582031 32.03125 123.984375 C 30.898438 81.84375 52.179688 56.472656 95.894531 47.871094 "/>
</g>
</svg>
