<?xml version="1.0" encoding="UTF-8"?>
<svg xmlns="http://www.w3.org/2000/svg" xmlns:xlink="http://www.w3.org/1999/xlink" width="76pt" height="59pt" viewBox="0 0 76 59" version="1.1">
<g id="surface1">
<path style=" stroke:none;fill-rule:evenodd;fill:rgb(92.89856%,10.998535%,14.099121%);fill-opacity:1;" d="M 12.742188 5.066406 L 63.023438 5.066406 L 63.023438 53.921875 L 12.742188 53.921875 L 12.742188 5.066406 "/>
<path style=" stroke:none;fill-rule:evenodd;fill:rgb(100%,100%,100%);fill-opacity:1;" d="M 24.128906 41.539063 L 36.40625 41.539063 L 36.40625 26.839844 C 36.40625 23.445313 35.734375 21.40625 34.015625 19.816406 L 24.261719 10.820313 C 24.261719 10.820313 24.132813 41.511719 24.128906 41.539063 "/>
<path style=" stroke:none;fill-rule:evenodd;fill:rgb(100%,100%,100%);fill-opacity:1;" d="M 51.570313 41.539063 L 39.292969 41.539063 L 39.292969 26.839844 C 39.292969 23.445313 39.964844 21.40625 41.6875 19.816406 L 51.441406 10.820313 C 51.441406 10.820313 51.566406 41.511719 51.570313 41.539063 "/>
<path style=" stroke:none;fill-rule:evenodd;fill:rgb(100%,100%,100%);fill-opacity:1;" d="M 23.996094 42.890625 L 25.957031 42.890625 L 25.957031 48.027344 L 23.996094 48.027344 Z M 30.273438 44.378906 C 30.222656 44.085938 29.953125 43.9375 29.46875 43.9375 C 29.082031 43.9375 28.878906 44.03125 28.863281 44.214844 C 28.859375 44.328125 28.921875 44.425781 29.058594 44.5 C 29.195313 44.578125 29.375 44.640625 29.601563 44.6875 C 29.828125 44.738281 30.042969 44.785156 30.253906 44.828125 C 30.957031 44.96875 31.472656 45.164063 31.804688 45.40625 C 32.132813 45.648438 32.296875 45.980469 32.292969 46.410156 C 32.292969 46.828125 32.160156 47.167969 31.902344 47.429688 C 31.644531 47.695313 31.300781 47.882813 30.878906 47.996094 C 30.457031 48.113281 30.003906 48.167969 29.519531 48.167969 C 28.789063 48.167969 28.171875 48.007813 27.667969 47.6875 C 27.160156 47.367188 26.894531 46.949219 26.859375 46.4375 L 28.738281 46.4375 C 28.785156 46.640625 28.898438 46.785156 29.082031 46.863281 C 29.269531 46.945313 29.460938 46.984375 29.660156 46.984375 C 30.140625 46.96875 30.394531 46.851563 30.421875 46.636719 C 30.441406 46.488281 30.355469 46.378906 30.160156 46.296875 C 29.964844 46.21875 29.660156 46.140625 29.253906 46.054688 C 28.738281 45.945313 28.332031 45.832031 28.027344 45.71875 C 27.722656 45.605469 27.472656 45.433594 27.277344 45.210938 C 27.082031 44.984375 26.988281 44.683594 26.992188 44.316406 C 27.003906 43.855469 27.238281 43.480469 27.699219 43.191406 C 28.160156 42.898438 28.792969 42.753906 29.59375 42.753906 C 30.019531 42.753906 30.40625 42.804688 30.765625 42.90625 C 31.121094 43.011719 31.421875 43.183594 31.671875 43.429688 C 31.917969 43.671875 32.074219 43.988281 32.132813 44.378906 Z M 33.152344 42.890625 L 35.113281 42.890625 L 35.113281 45.980469 C 35.113281 46.300781 35.183594 46.535156 35.324219 46.683594 C 35.460938 46.832031 35.691406 46.90625 36.019531 46.902344 C 36.355469 46.902344 36.59375 46.824219 36.730469 46.671875 C 36.867188 46.519531 36.9375 46.289063 36.9375 45.980469 L 36.9375 42.890625 L 38.898438 42.890625 L 38.898438 45.8125 C 38.898438 46.640625 38.65625 47.242188 38.175781 47.613281 C 37.691406 47.984375 36.976563 48.167969 36.035156 48.167969 C 35.085938 48.167969 34.367188 47.984375 33.882813 47.621094 C 33.394531 47.253906 33.152344 46.652344 33.152344 45.8125 Z M 39.882813 42.890625 L 45.027344 42.890625 L 45.027344 44.085938 L 42.128906 46.828125 L 45.140625 46.828125 L 45.140625 48.027344 L 39.769531 48.027344 L 39.769531 46.800781 L 42.617188 44.085938 L 39.882813 44.085938 Z M 46.027344 42.890625 L 47.988281 42.890625 L 47.988281 45.980469 C 47.988281 46.300781 48.058594 46.535156 48.199219 46.683594 C 48.335938 46.832031 48.566406 46.90625 48.894531 46.902344 C 49.230469 46.902344 49.46875 46.824219 49.605469 46.671875 C 49.742188 46.519531 49.8125 46.289063 49.8125 45.980469 L 49.8125 42.890625 L 51.773438 42.890625 L 51.773438 45.8125 C 51.773438 46.640625 51.53125 47.242188 51.050781 47.613281 C 50.566406 47.984375 49.851563 48.167969 48.910156 48.167969 C 47.960938 48.167969 47.242188 47.984375 46.757813 47.621094 C 46.269531 47.253906 46.027344 46.652344 46.027344 45.8125 L 46.027344 42.890625 "/>
</g>
</svg>
