<?xml version="1.0" encoding="UTF-8"?>
<svg xmlns="http://www.w3.org/2000/svg" xmlns:xlink="http://www.w3.org/1999/xlink" width="884.23pt" height="884.23pt" viewBox="0 0 884.23 884.23" version="1.1">
<g id="surface1">
<path style=" stroke:none;fill-rule:nonzero;fill:rgb(99.198914%,90.19928%,16.899109%);fill-opacity:1;" d="M 442.113281 0 C 686.285156 0 884.230469 197.941406 884.230469 442.113281 C 884.230469 686.289063 686.285156 884.230469 442.113281 884.230469 C 197.941406 884.230469 0 686.289063 0 442.113281 C 0 197.941406 197.941406 0 442.113281 0 "/>
<path style=" stroke:none;fill-rule:nonzero;fill:rgb(0%,28.999329%,25.898743%);fill-opacity:1;" d="M 95.410156 448.246094 C 79.648438 468.605469 70.28125 494.144531 70.28125 521.882813 C 70.28125 526.679688 70.570313 531.40625 71.121094 536.0625 C 75.246094 571.207031 94.496094 601.734375 122.199219 620.925781 C 122.199219 620.925781 204.023438 684.738281 443.015625 684.738281 C 681.996094 684.738281 762.039063 620.925781 762.039063 620.925781 C 789.261719 602.0625 808.332031 572.265625 812.902344 537.886719 C 813.597656 532.65625 813.972656 527.316406 813.972656 521.894531 C 813.972656 494.15625 804.59375 468.617188 788.839844 448.261719 C 788.839844 448.261719 594.3125 220.4375 548.105469 174.171875 L 547.976563 174.035156 C 520.8125 146.925781 483.453125 130.136719 442.136719 130.136719 C 400.824219 130.136719 363.246094 146.925781 336.085938 174.035156 C 336.085938 174.035156 336.050781 174.074219 335.964844 174.15625 C 289.480469 220.113281 95.410156 448.246094 95.410156 448.246094 "/>
<path style=" stroke:none;fill-rule:nonzero;fill:rgb(99.198914%,90.19928%,16.899109%);fill-opacity:1;" d="M 749.449219 528.015625 C 745.410156 523.300781 740.578125 519.851563 734.9375 517.664063 C 729.296875 515.476563 722.058594 513.296875 713.210938 511.109375 C 704.695313 509.148438 698.359375 507.164063 694.210938 505.15625 C 690.0625 503.148438 687.996094 500.070313 687.996094 495.921875 C 687.996094 491.785156 689.785156 488.445313 693.382813 485.921875 C 696.976563 483.394531 702.53125 482.117188 710.046875 482.117188 C 720.773438 482.117188 731.496094 485.28125 742.222656 491.605469 L 750.519531 470.386719 C 745.21875 466.933594 739.015625 464.285156 731.941406 462.449219 C 724.859375 460.609375 717.621094 459.695313 710.214844 459.695313 C 699.597656 459.695313 690.617188 461.367188 683.257813 464.695313 C 675.898438 468.039063 670.402344 472.550781 666.75 478.234375 C 663.105469 483.921875 661.277344 490.285156 661.277344 497.292969 C 661.277344 505.351563 663.296875 511.78125 667.339844 516.617188 C 671.378906 521.449219 676.210938 524.960938 681.851563 527.136719 C 687.488281 529.324219 694.730469 531.515625 703.578125 533.691406 C 709.324219 535.074219 713.882813 536.335938 717.261719 537.492188 C 720.628906 538.644531 723.394531 540.160156 725.558594 542.0625 C 727.710938 543.960938 728.792969 546.351563 728.792969 549.214844 C 728.792969 553.121094 726.964844 556.261719 723.320313 558.617188 C 719.679688 560.972656 714.027344 562.152344 706.402344 562.152344 C 699.550781 562.152344 692.695313 561.011719 685.832031 558.699219 C 678.976563 556.402344 673.0625 553.351563 668.082031 549.5625 L 665.328125 547.339844 L 662.226563 572.9375 C 666.941406 576.027344 672.726563 578.613281 679.613281 580.691406 C 688.1875 583.277344 697.0625 584.578125 706.234375 584.578125 C 716.855469 584.578125 725.859375 582.90625 733.277344 579.574219 C 740.683594 576.242188 746.238281 571.722656 749.941406 566.035156 C 753.648438 560.347656 755.496094 554.046875 755.496094 547.144531 C 755.496094 539.113281 753.480469 532.730469 749.449219 528.015625 "/>
<path style=" stroke:none;fill-rule:nonzero;fill:rgb(99.198914%,90.19928%,16.899109%);fill-opacity:1;" d="M 310.039063 559.613281 C 289.230469 559.613281 272.347656 542.734375 272.347656 521.917969 C 272.347656 501.105469 289.230469 484.226563 310.039063 484.226563 C 330.855469 484.226563 347.738281 501.105469 347.738281 521.917969 C 347.738281 542.734375 330.855469 559.613281 310.039063 559.613281 Z M 310.039063 459.417969 C 275.472656 459.417969 247.445313 487.445313 247.445313 522.015625 C 247.445313 556.585938 275.472656 584.613281 310.039063 584.613281 C 344.609375 584.613281 372.640625 556.585938 372.640625 522.015625 C 372.640625 487.445313 344.609375 459.417969 310.039063 459.417969 "/>
<path style=" stroke:none;fill-rule:nonzero;fill:rgb(99.198914%,90.19928%,16.899109%);fill-opacity:1;" d="M 603.898438 461.511719 L 603.898438 530.648438 C 603.898438 545.992188 591.464844 558.425781 576.121094 558.425781 C 560.78125 558.425781 548.347656 545.992188 548.347656 530.648438 L 548.347656 462.339844 L 522.171875 462.339844 L 522.171875 530.648438 C 522.171875 560.445313 546.328125 584.601563 576.121094 584.601563 C 605.917969 584.601563 630.074219 560.445313 630.074219 530.648438 L 630.074219 461.496094 L 603.898438 461.496094 L 603.898438 461.511719 "/>
<path style=" stroke:none;fill-rule:nonzero;fill:rgb(99.198914%,90.19928%,16.899109%);fill-opacity:1;" d="M 491.425781 461.511719 L 392.945313 461.511719 L 389.882813 486.796875 L 428.960938 486.796875 L 428.960938 582.761719 L 455.28125 582.761719 L 455.28125 486.796875 L 494.480469 486.796875 L 491.425781 461.511719 "/>
<path style=" stroke:none;fill-rule:nonzero;fill:rgb(99.198914%,90.19928%,16.899109%);fill-opacity:1;" d="M 234.445313 557.308594 L 169.25 557.308594 L 169.25 461.511719 L 142.929688 461.511719 L 142.929688 582.761719 L 231.367188 582.761719 L 234.445313 557.308594 "/>
<path style=" stroke:none;fill-rule:nonzero;fill:rgb(99.198914%,90.19928%,16.899109%);fill-opacity:1;" d="M 416.574219 254.730469 C 421.070313 250.355469 426.988281 247.949219 433.265625 247.949219 L 435.5 247.949219 L 435.5 263.664063 C 420.601563 266.394531 408.84375 278.164063 406.113281 293.0625 L 378.265625 293.0625 Z M 448.714844 277.230469 C 450.757813 277.84375 452.683594 278.71875 454.464844 279.824219 L 472.871094 279.824219 C 467.484375 271.503906 458.828125 265.503906 448.726563 263.652344 L 448.726563 247.949219 L 466.1875 247.949219 C 478.617188 247.949219 488.742188 258.0625 488.742188 270.507813 C 488.742188 282.941406 478.632813 293.0625 466.1875 293.0625 L 448.726563 293.0625 L 448.726563 277.230469 Z M 488.730469 328.800781 C 488.730469 341.195313 478.617188 351.285156 466.175781 351.285156 L 448.714844 351.285156 L 448.714844 335.664063 C 458.816406 333.8125 467.472656 327.8125 472.859375 319.492188 L 454.449219 319.492188 C 452.683594 320.601563 450.757813 321.488281 448.703125 322.089844 L 448.703125 306.265625 L 466.160156 306.265625 C 478.605469 306.265625 488.730469 316.378906 488.730469 328.800781 Z M 418.714844 299.664063 C 418.714844 289.0625 425.808594 280.101563 435.488281 277.238281 L 435.488281 322.089844 C 425.808594 319.230469 418.714844 310.257813 418.714844 299.664063 Z M 442.136719 389.378906 C 398.574219 389.378906 362.285156 358.296875 354.207031 317.101563 L 354.253906 317.054688 L 365.027344 306.277344 L 406.101563 306.277344 C 408.832031 321.175781 420.601563 332.949219 435.488281 335.679688 L 435.488281 364.511719 L 466.160156 364.511719 C 485.894531 364.511719 501.933594 348.496094 501.933594 328.800781 C 501.933594 316.789063 495.980469 306.144531 486.855469 299.664063 C 495.972656 293.171875 501.933594 282.519531 501.933594 270.507813 C 501.933594 250.773438 485.882813 234.734375 466.160156 234.734375 L 433.253906 234.734375 C 423.515625 234.734375 414.3125 238.476563 407.269531 245.339844 L 352.511719 300.097656 C 352.511719 300.003906 352.511719 299.894531 352.511719 299.796875 C 352.511719 250.308594 392.621094 210.195313 442.113281 210.195313 C 477.5625 210.195313 508.199219 230.777344 522.722656 260.636719 L 537.1875 260.636719 C 521.8125 223.214844 484.992188 196.882813 442.042969 196.882813 C 385.238281 196.882813 339.199219 242.925781 339.199219 299.726563 C 339.199219 304.089844 339.476563 308.394531 340.007813 312.628906 L 288.6875 363.945313 L 307.382813 363.945313 L 343.179688 328.152344 C 355.515625 371.125 395.101563 402.566406 442.042969 402.566406 C 484.773438 402.566406 521.414063 376.511719 536.949219 339.417969 L 522.519531 339.417969 C 507.910156 368.996094 477.402344 389.378906 442.136719 389.378906 "/>
</g>
</svg>
