<?xml version="1.0" encoding="utf-8"?>
<!-- Generator: Adobe Illustrator 19.0.0, SVG Export Plug-In . SVG Version: 6.00 Build 0)  -->
<svg version="1.1" id="Layer_1" xmlns="http://www.w3.org/2000/svg" xmlns:xlink="http://www.w3.org/1999/xlink" x="0px" y="0px"
	 viewBox="0 0 500 500" style="enable-background:new 0 0 500 500;" xml:space="preserve">
<style type="text/css">
	.st0{fill:#0088CF;}
	.st1{fill:#455E66;}
	.st2{fill-rule:evenodd;clip-rule:evenodd;fill:#697C86;}
	.st3{clip-path:url(#XMLID_79_);fill:url(#XMLID_80_);}
	.st4{clip-path:url(#XMLID_84_);fill:url(#XMLID_85_);}
	.st5{clip-path:url(#XMLID_86_);fill:url(#XMLID_87_);}
	.st6{clip-path:url(#XMLID_88_);fill:url(#XMLID_89_);}
	.st7{fill:#00010B;}
	.st8{fill:#C5CBD0;}
	.st9{clip-path:url(#XMLID_90_);fill:url(#XMLID_91_);}
	.st10{clip-path:url(#XMLID_92_);fill:url(#XMLID_93_);}
	.st11{fill:#2B373E;}
	.st12{clip-path:url(#XMLID_95_);fill:url(#XMLID_96_);}
	.st13{clip-path:url(#XMLID_97_);fill:url(#XMLID_101_);}
	.st14{clip-path:url(#XMLID_102_);fill:url(#XMLID_103_);}
	.st15{clip-path:url(#XMLID_104_);fill:url(#XMLID_109_);}
	.st16{clip-path:url(#XMLID_110_);fill:url(#XMLID_111_);}
	.st17{fill:url(#XMLID_112_);}
	.st18{clip-path:url(#XMLID_113_);fill:url(#XMLID_114_);}
	.st19{clip-path:url(#XMLID_115_);fill:url(#XMLID_116_);}
	.st20{clip-path:url(#XMLID_117_);fill:url(#XMLID_118_);}
	.st21{fill:#3F4E56;}
	.st22{clip-path:url(#XMLID_119_);fill:url(#XMLID_120_);}
	.st23{fill-rule:evenodd;clip-rule:evenodd;fill:#3F4E56;}
	.st24{clip-path:url(#XMLID_121_);fill:url(#XMLID_122_);}
	.st25{clip-path:url(#XMLID_123_);fill:url(#XMLID_124_);}
	.st26{fill:url(#XMLID_125_);}
	.st27{fill:url(#XMLID_126_);}
	.st28{fill-rule:evenodd;clip-rule:evenodd;fill:url(#XMLID_127_);}
	.st29{clip-path:url(#XMLID_128_);fill:url(#XMLID_129_);}
	.st30{fill:#FFFFFF;}
	.st31{clip-path:url(#XMLID_130_);fill:url(#XMLID_131_);}
	.st32{fill:url(#XMLID_132_);}
	.st33{fill:url(#XMLID_133_);}
</style>
<g id="XMLID_1_">
	<path id="XMLID_5841_" class="st0" d="M245.3,425h39.3v-13.3h-23L245.3,425 M274.3,376.5H235v13.4h23.1L274.3,376.5z M316.4,411.7
		h-14.2v-21.8h14.2c3.9,0,9.7,1.5,9.7,10.9C326.1,410.2,320.3,411.7,316.4,411.7z M376.1,376.5H342v13.4h30.5c2.6,0,5.1,0.7,5.1,2.9
		v1.2h-23.2c-7.6,0-11.5,2.6-13.5,5.8c-0.2-19.9-6-23.4-22.8-23.4h-40.3L232.3,414v-24.1c0-4.9-4-13.4-16.5-13.4h-34.1v13.4h30.5
		c2.5,0,5.2,0.7,5.2,2.9v1.2h-23.2c-10.4,0-13.9,4.9-15.1,9.6v-13.1c0-9.4-8.4-14.1-15.5-14.1h-56.2V425h15.3v-35.1h12.9V425H151
		v-35.1h6.9c3.8,0,5.9,2.2,5.9,5.5V425h15.4v-10.7c1.2,4.7,4.7,10.7,15.1,10.7h47.5l45-37.1V425h31.3c12.3,0,18.7-1.8,21.4-10.5
		c1.2,4.6,4.7,10.5,15,10.5h38.1v-35.1C392.5,385,388.6,376.5,376.1,376.5z M377.7,413.1h-20c-2.5,0-4.4-1.6-4.4-3.5
		c0-1.9,1.9-3.5,4.4-3.5h20V413.1z M217.5,413.1h-20.1c-2.5,0-4.4-1.6-4.4-3.5c0-1.9,1.9-3.5,4.4-3.5h20.1V413.1z"/>
	<g id="XMLID_2_">
		<path id="XMLID_5840_" class="st1" d="M220.1,196.5c-9.9-13.4-21.6-20.9-33.7-26.9c-2-1-3.9-1.9-5.9-2.8
			c5.7,2.3,11.3,4.8,20.1,9.9c9.7,5.5,18.4,17.3,23.9,25.5c0.7,1,1.4,2,2.1,3C224.4,202.4,222.3,199.5,220.1,196.5L220.1,196.5z"/>
		<path id="XMLID_5737_" class="st2" d="M122.3,218.1c0.4,3,0.9,6.6,1.5,10.6c24.1,80.7,52.2,86.7,121.2,89.7
			c53.6,2.4,84.3-10.9,102.3-27.6c18.1-16.7,23.6-36.8,26.8-48.3c2.3-8.3,3.8-16.3,4.4-24.4l38.4,0c-1.6,26.1-9.8,51.3-27.1,73.6
			c-21.4,26.4-54.9,38.5-83.8,44c-29,5.5-53.6,4.4-57.3,4.3c-3.8-0.1-17.5,0.1-34.5-1.4c-17-1.5-37.2-4.6-53.9-11.4
			c-7.3-3-13.7-6.1-19.2-9.3c-15.1-9.1-29-22.3-35.8-32c-8.6-12.2-18.8-33.5-21.8-67.8L122.3,218.1L122.3,218.1z M247.8,218.1
			c1.2,1.6,2.1,2.6,2.6,2.7c0.3-0.1,0.6-0.3,1.1-0.9c0.4-0.5,0.8-1.1,1.3-1.8l33.5,0c-5.8,4.3-10.8,9.3-15.5,15.2
			c-7.7,9.7-12.1,19.3-13.5,23.9c-1.5,4.8-4.3,8.9-4.7,9.5c-0.5,0.7-2.9,1.3-3.7,0c-0.8-0.7-1.6-2.2-2.4-4.2
			c-1-2.6-2.2-6.6-4.7-11.6c-2.5-5-6.2-11.1-12.3-17.7c-5.2-5.8-10.6-10.8-16.1-15.1L247.8,218.1L247.8,218.1z"/>
		<path id="XMLID_5736_" class="st2" d="M83.6,218.1c-0.5-6.2-0.8-12.8-0.8-19.8l0-0.2l0-0.2l0-0.2l0-0.2
			c0.3-32.6,15.2-62.1,26.1-74.8c1.5-1.7,7-8.1,11.7-12.5c13.6-12.8,50.5-37.2,132.8-35c46.8,0.1,75.2,6.3,94.5,14.6
			c9.6,4.2,17,8.9,23.1,13.7c6.1,4.8,11.1,9.6,16,14l0.1,0.1l0.1,0.2c0,0.1,23.3,28.1,28.6,67.6c1.5,11,2,21.9,1.3,32.7l-38.4,0
			c0.7-8.3,0.5-16.7-0.7-25.7c-0.8-4.7-1.7-8.4-2.3-10.9c0.1-0.1-0.8,0.7-0.8,0.7s-6.8,4.2-39.9,14.2c-22,6.6-36.8,12.8-48.5,21.6
			l-33.5,0c0.1-0.1,0.2-0.3,0.3-0.4c1.1-1.8,2.3-4,3.5-5.8c2.5-4,10-14.7,20.6-24.7c10.4-9.7,35.3-21.2,53.8-28.1
			c3.4-1.3,6.4-2.5,9.2-3.6c7.6-3.5,15.1-7.9,21.8-12.4c-0.4-1.7-0.9-2.8-1.2-3.4c0,0-0.3-0.8-1.1-2.3c-0.8-1.4-2-3.5-3.8-5.9
			c-3.6-4.9-9.5-11.3-18.8-17.6c-4.3-3-10.6-6.3-18.8-9.9c-16.3-6.7-38.6-11.7-68.8-11.7c-46.7,0-74.1,11.8-89.7,23.5
			c-7.8,5.9-12.7,11.7-15.7,16.1c-1.5,2.2-2.5,4-3.1,5.3c-0.6,1.2-1.5,3-1.5,3c-0.9,2.5,0.1,3.5,1.9,4.7c3.7,2.4,9.2,5.7,10.2,6.3
			c4.5,2.2,10.6,5,18.5,7.9c18.4,6.8,43.4,18.3,53.8,28.1c10.7,10,17.6,20.9,20.1,24.8c1.1,1.8,2.4,4,3.7,5.7
			c0.1,0.1,0.2,0.2,0.3,0.4l-34.4,0c-7.3-5.6-14.8-9.9-22.3-12.6c-13.3-4.8-26.9-7.8-32.9-9.6c-2.8-0.9-6.3-2-9.1-2.9
			c-2-0.6-3.6-1.2-4.6-1.5l-0.7-0.2c-6.5-2.3-13.1-5.1-19.3-8.7c-0.2-0.1-0.4-0.2-0.5-0.2c-0.1,0-0.1,0-0.2,0.1
			c-0.1,0-0.1,0.1-0.2,0.3c-0.1,0.1-0.2,0.3-0.3,0.5c-0.4,0.5-1.8,12-2,25.7c0,0,0.2,3.6,0.9,9.3L83.6,218.1L83.6,218.1z"/>
		<g id="XMLID_27_">
			<defs>
				<path id="XMLID_28_" d="M122.8,227.4c24.3,82.5,52.6,88.7,122.3,91.8c107.4,4.8,123.5-53.3,129.8-76.4c7-25.5,3.1-58.8,3.1-58.8
					l10.9,37.2l-21.5,69.9l-30.2,22.4l-32.2,9.8l-51.5,5.9l-65.7-5.9l-37.2-18.7l-18.7-26.9l-7.3-25.5
					C124.5,252.3,121.4,234.1,122.8,227.4L122.8,227.4z"/>
			</defs>
			<clipPath id="XMLID_79_">
				<use xlink:href="#XMLID_28_"  style="overflow:visible;"/>
			</clipPath>
			<linearGradient id="XMLID_80_" gradientUnits="userSpaceOnUse" x1="255.6514" y1="330.3259" x2="255.6514" y2="182.9357">
				<stop  offset="0" style="stop-color:#E6E6E6"/>
				<stop  offset="0.1" style="stop-color:#E1E2E2"/>
				<stop  offset="0.2183" style="stop-color:#D3D5D7"/>
				<stop  offset="0.3454" style="stop-color:#BBC1C4"/>
				<stop  offset="0.414" style="stop-color:#ABB3B8"/>
				<stop  offset="0.4894" style="stop-color:#B9BFC3"/>
				<stop  offset="0.6313" style="stop-color:#DDDFDF"/>
				<stop  offset="0.6613" style="stop-color:#E6E6E6"/>
				<stop  offset="0.8905" style="stop-color:#7B858A"/>
				<stop  offset="1" style="stop-color:#46555D"/>
			</linearGradient>
			<rect id="XMLID_26_" x="122.4" y="182.9" class="st3" width="266.4" height="147.4"/>
		</g>
		<g id="XMLID_24_">
			<defs>
				<path id="XMLID_25_" d="M376,175.3c0,0,11.8,48.7-7,87.6c-18.8,38.9-36.6,62.7-120,62.9c-83.4,0.3-100.7-34.4-113.6-58.5
					c-12.9-24-14.5-58.5-14.5-58.5l-1.5,40.4l23.9,44.9l19.9,18.2l28.2,12.3l75.5,4.8l33.3-4.8l35.5-8.9l33.9-28.3l13.4-48.4
					l-1.4-53.7C379.5,177.2,377.7,173.8,376,175.3L376,175.3z"/>
			</defs>
			<clipPath id="XMLID_84_">
				<use xlink:href="#XMLID_25_"  style="overflow:visible;"/>
			</clipPath>
			<linearGradient id="XMLID_85_" gradientUnits="userSpaceOnUse" x1="251.1344" y1="329.6633" x2="251.1344" y2="174.8249">
				<stop  offset="0" style="stop-color:#E6E6E6"/>
				<stop  offset="5.510966e-002" style="stop-color:#E1E1E2"/>
				<stop  offset="0.1203" style="stop-color:#D3D4D5"/>
				<stop  offset="0.1906" style="stop-color:#BBBFC1"/>
				<stop  offset="0.2646" style="stop-color:#99A0A4"/>
				<stop  offset="0.3406" style="stop-color:#6F7A80"/>
				<stop  offset="0.414" style="stop-color:#3F4E56"/>
				<stop  offset="0.5538" style="stop-color:#3F4E56"/>
				<stop  offset="0.5989" style="stop-color:#4E5F67"/>
				<stop  offset="0.6613" style="stop-color:#697C86"/>
				<stop  offset="0.7634" style="stop-color:#46555D"/>
				<stop  offset="0.9355" style="stop-color:#000000"/>
			</linearGradient>
			<rect id="XMLID_23_" x="119.4" y="174.8" class="st4" width="263.6" height="154.8"/>
		</g>
		<g id="XMLID_9_">
			<defs>
				<path id="XMLID_10_" d="M378.3,176.8c0,0,11.9,50-6.1,88.6c-18.1,38.6-31.1,58.1-119.3,61.6c-71.6,1.8-90.2-16.8-103.4-30.4
					c-10.5-10.7-17.8-28.7-17.8-28.7s-32.3-59.8-28.9-40.9c4.5,24.7,11.7,60.1,39.5,82.4c17,13.6,51.4,22,51.4,22l53.9,4.3l48.2-2.9
					l76.2-29.4l32.6-71.3c-1.5-33.1-4.7-60.5-9.6-82.2l-10.6,9.2L378.3,176.8L378.3,176.8z"/>
			</defs>
			<clipPath id="XMLID_86_">
				<use xlink:href="#XMLID_10_"  style="overflow:visible;"/>
			</clipPath>
			<linearGradient id="XMLID_87_" gradientUnits="userSpaceOnUse" x1="253.5068" y1="337.5862" x2="253.5068" y2="147.898">
				<stop  offset="0.1183" style="stop-color:#E6E6E6"/>
				<stop  offset="0.2903" style="stop-color:#697C86"/>
				<stop  offset="0.4086" style="stop-color:#768790"/>
				<stop  offset="0.5538" style="stop-color:#CED2D3"/>
				<stop  offset="0.7581" style="stop-color:#E6E6E6"/>
				<stop  offset="0.7842" style="stop-color:#CBCDCE"/>
				<stop  offset="0.8598" style="stop-color:#80898E"/>
				<stop  offset="0.9139" style="stop-color:#515E66"/>
				<stop  offset="0.9409" style="stop-color:#3F4E56"/>
			</linearGradient>
			<rect id="XMLID_8_" x="102.5" y="147.9" class="st5" width="302" height="189.7"/>
		</g>
		<g id="XMLID_6_">
			<defs>
				<path id="XMLID_7_" d="M109.3,128.5c0,0-1.4,15,2,23.8c-4.5,7.3-10.5,29-11.3,46.5c-0.8,17.5,2.5,63.2,25,89.2
					c-3.8,7.1-6,11.5-6,11.5s-35.5-24.1-35.5-101.2c0-37.2,20-70.6,30.7-79.5C110.9,123.4,109.3,128.5,109.3,128.5L109.3,128.5z"/>
			</defs>
			<clipPath id="XMLID_88_">
				<use xlink:href="#XMLID_7_"  style="overflow:visible;"/>
			</clipPath>
			<linearGradient id="XMLID_89_" gradientUnits="userSpaceOnUse" x1="104.255" y1="299.7748" x2="104.255" y2="118.7569">
				<stop  offset="0.2204" style="stop-color:#3F4E56"/>
				<stop  offset="0.4946" style="stop-color:#FFFFFF"/>
				<stop  offset="0.7581" style="stop-color:#E6E6E6"/>
				<stop  offset="0.7842" style="stop-color:#CBCDCE"/>
				<stop  offset="0.8598" style="stop-color:#80898E"/>
				<stop  offset="0.9139" style="stop-color:#515E66"/>
				<stop  offset="0.9409" style="stop-color:#3F4E56"/>
			</linearGradient>
			<rect id="XMLID_5_" x="83.5" y="118.8" class="st6" width="41.5" height="181"/>
		</g>
		<path id="XMLID_4871_" class="st7" d="M86.1,213.2c0,0,1,37.4,15,61.1c14,23.7,26.6,38.9,59.7,52.4c33.1,13.6,80.6,12.5,88.1,12.8
			c7.5,0.2,98.1,4.3,140.6-48.1c24.4-31.4,30.7-68.6,25.6-105.8c-5.1-37.2-24-58.9-24-58.9s2.6,6.7-0.5,25.4
			c4.6,8,12.1,34.6,10.6,55.8c-1.4,21.3-5.3,50.1-21.5,72.7c-10.4,14.5-18.6,24.7-41.3,35.3c-22.7,10.6-57.4,15.9-88.9,15.5
			c-31.4-0.5-61.6-2.9-87-14.5c-25.4-11.6-38.9-29.2-48.6-43.2c-9.7-14-2.2-6.9-14-18.6C88.2,243.3,86.1,213.2,86.1,213.2
			L86.1,213.2z"/>
		<path id="XMLID_4870_" class="st8" d="M110,122.5c0,0,32.8-49.6,143.4-46.6c93.4,0.2,113.6,24.6,133.2,42.2
			c0.4,1.3-7.8,7.9-7.8,7.9l-13.5,5.1l-38.5-30.2l-68.4-14.9c0,0-64.4,7.6-67.1,7.3c-2.7-0.3-44.9,23.2-44.9,23.2l-7.9,24.2
			l-25-18.9L110,122.5L110,122.5z"/>
		<g id="XMLID_48_">
			<defs>
				<path id="XMLID_49_" d="M115.9,118.7c0,0,30-44.9,137.4-42c90.8,0.2,112.8,26.2,131.8,43.3c-6.1,5.2-12.5,4.5-12.5,4.5
					l-10.6,5.8L324.6,101l-66.5-14.5c0,0-62.6,7.4-65.2,7.1c-2.6-0.3-43.6,22.6-43.6,22.6l-21.7,13.5l-13.1-7.9L115.9,118.7
					L115.9,118.7z"/>
			</defs>
			<clipPath id="XMLID_90_">
				<use xlink:href="#XMLID_49_"  style="overflow:visible;"/>
			</clipPath>
			<linearGradient id="XMLID_91_" gradientUnits="userSpaceOnUse" x1="108.1674" y1="103.4966" x2="404.5202" y2="103.4966">
				<stop  offset="0" style="stop-color:#CCD1DB"/>
				<stop  offset="0.1477" style="stop-color:#D3D7E0"/>
				<stop  offset="0.3561" style="stop-color:#E5E8ED"/>
				<stop  offset="0.5699" style="stop-color:#FFFFFF"/>
			</linearGradient>
			<rect id="XMLID_47_" x="108.2" y="70.4" class="st9" width="296.4" height="66.2"/>
		</g>
		<g id="XMLID_30_">
			<defs>
				<path id="XMLID_31_" d="M115.9,123.7c0,0,36.2-40.5,132.9-40.5s132,32.7,135.7,37.7c-4.2,5.4-11.8,11.2-11.8,11.2
					c-24.8-15.6-48-27.9-69.8-36.9l-58.5-8.6c0,0-69.1,15.9-70.4,15.9c-1.3,0-37.2,25.2-37.2,25.2s-2.9,4.9-5.7,4.3
					C123.7,126,115.9,123.7,115.9,123.7L115.9,123.7z"/>
			</defs>
			<clipPath id="XMLID_92_">
				<use xlink:href="#XMLID_31_"  style="overflow:visible;"/>
			</clipPath>
			<linearGradient id="XMLID_93_" gradientUnits="userSpaceOnUse" x1="109.5922" y1="107.6429" x2="390.1319" y2="107.6429">
				<stop  offset="0" style="stop-color:#46555D"/>
				<stop  offset="5.564948e-002" style="stop-color:#5B6A73"/>
				<stop  offset="0.3387" style="stop-color:#C2D2DE"/>
				<stop  offset="0.4003" style="stop-color:#CDDAE4"/>
				<stop  offset="0.6374" style="stop-color:#F1F5F7"/>
				<stop  offset="0.7634" style="stop-color:#FFFFFF"/>
				<stop  offset="0.8064" style="stop-color:#EDF2F5"/>
				<stop  offset="0.8776" style="stop-color:#D5E0E8"/>
				<stop  offset="0.9439" style="stop-color:#C7D6E1"/>
				<stop  offset="1" style="stop-color:#C2D2DE"/>
			</linearGradient>
			<rect id="XMLID_29_" x="109.6" y="83.2" class="st10" width="280.5" height="48.9"/>
		</g>
		<path id="XMLID_4542_" class="st11" d="M361.4,139.5c0,0-18.1-47.8-111.9-47.8s-110,47.3-110,47.3l-4.5-7.9l15.9-21.8L193.3,90
			l29.3-4.5l28-1.4l35.9,2l28.3,6l39,19.7l21.1,16.8l1.5,1.7L361.4,139.5L361.4,139.5z"/>
		<g id="XMLID_60_">
			<defs>
				<path id="XMLID_65_" d="M358.8,146.9c0,0-9,6-27.5,12.9c-18.4,6.8-43.3,18.3-53.5,27.9c-10.6,9.9-18,20.5-20.5,24.5
					c-2.4,4-5.3,9.9-6.9,9.3c-0.2,3.4-1,23.7-1,23.7l1.1,0.8l9.7-16.7l32.1-34.9l14.6-15.6l49.8-23.8L358.8,146.9L358.8,146.9z"/>
			</defs>
			<clipPath id="XMLID_95_">
				<use xlink:href="#XMLID_65_"  style="overflow:visible;"/>
			</clipPath>
			<linearGradient id="XMLID_96_" gradientUnits="userSpaceOnUse" x1="248.3281" y1="196.4823" x2="361.651" y2="196.4823">
				<stop  offset="1.612900e-002" style="stop-color:#697C86"/>
				<stop  offset="1" style="stop-color:#F2F2F2"/>
			</linearGradient>
			<rect id="XMLID_59_" x="248.3" y="143.9" class="st12" width="113.3" height="105.2"/>
		</g>
		<path id="XMLID_4430_" class="st7" d="M329.4,161c-6,2.6-34.1,11.5-48,28.5c-4.7,5.8-13.1,21.1-15.3,24.8
			c-2.3,3.7-13.3,27.2-15.9,30.5c-2.7,3.2,14.3-13.7,14.3-13.7s46-40.9,47-41.5c1-0.6,17.4-15.3,17.4-15.3S334.1,159,329.4,161
			L329.4,161z"/>
		<g id="XMLID_57_">
			<defs>
				<path id="XMLID_58_" d="M388.2,124.3c0,0-24.1,21.3-48.6,32.3c-24.5,11-55.2,21.6-73.5,61.9c-13.9,24.6,21.8-22.1,21.8-22.1
					l18.8-13.5l43.6-19.4l22.3-14.3L388.2,124.3L388.2,124.3z"/>
			</defs>
			<clipPath id="XMLID_97_">
				<use xlink:href="#XMLID_58_"  style="overflow:visible;"/>
			</clipPath>
			<linearGradient id="XMLID_101_" gradientUnits="userSpaceOnUse" x1="327.1848" y1="111.8908" x2="333.8004" y2="238.1234">
				<stop  offset="1.612900e-002" style="stop-color:#B3B3B3"/>
				<stop  offset="0.1774" style="stop-color:#F2F2F2"/>
				<stop  offset="0.2444" style="stop-color:#C9CCCE"/>
				<stop  offset="0.3486" style="stop-color:#8E969B"/>
				<stop  offset="0.4378" style="stop-color:#636F75"/>
				<stop  offset="0.5072" style="stop-color:#49575E"/>
				<stop  offset="0.5484" style="stop-color:#3F4E56"/>
			</linearGradient>
			<rect id="XMLID_56_" x="250" y="115.9" class="st13" width="161" height="118.1"/>
		</g>
		<g id="XMLID_143_">
			<defs>
				<path id="XMLID_144_" d="M388.6,123.9c0,0-17.1,17.3-41.3,30.9c-8,4.5-29.2,13.8-39,19c-21.6,11.4-32.7,31.5-36.2,35.6
					c-3.5,4.1-21.5,36.4-21.5,36.4l7.7-1.7l29.9-39.4l24.3-14.7l55.4-17.4l18.2-15.1c0,0,4.4,2.2,5.7-18.4
					C392.6,126.3,388.6,123.9,388.6,123.9L388.6,123.9z"/>
			</defs>
			<clipPath id="XMLID_102_">
				<use xlink:href="#XMLID_144_"  style="overflow:visible;"/>
			</clipPath>
			<linearGradient id="XMLID_103_" gradientUnits="userSpaceOnUse" x1="242.0693" y1="222.4029" x2="398.9896" y2="148.3385">
				<stop  offset="0.3226" style="stop-color:#697C86"/>
				<stop  offset="0.5269" style="stop-color:#FFFFFF"/>
				<stop  offset="1" style="stop-color:#C2D2DE"/>
			</linearGradient>
			<polygon id="XMLID_4_" class="st14" points="388.6,123.9 411.9,172.5 251.2,247.4 228.4,198.6 			"/>
		</g>
		<g id="XMLID_67_">
			<defs>
				<path id="XMLID_68_" d="M347.8,191.7l-36.7,11.8l-20.6,8.5l-26.1,19.4c0,0-6.1,11-6.6,13.3c-0.5,2.3-4.3,14.9-4.3,14.9l-0.5,4.2
					l-1.3,1.7l-1.2-7.5l0.7-10.2l5.1-9.4l5.9-10.1l11-11.8l15.1-9l25.6-8L335,194L347.8,191.7L347.8,191.7z"/>
			</defs>
			<clipPath id="XMLID_104_">
				<use xlink:href="#XMLID_68_"  style="overflow:visible;"/>
			</clipPath>
			<linearGradient id="XMLID_109_" gradientUnits="userSpaceOnUse" x1="299.3342" y1="269.0042" x2="299.3342" y2="188.0788">
				<stop  offset="1.612900e-002" style="stop-color:#999999"/>
				<stop  offset="0.2204" style="stop-color:#F2F2F2"/>
				<stop  offset="1" style="stop-color:#B3B3B3"/>
			</linearGradient>
			<rect id="XMLID_66_" x="246.5" y="188.1" class="st15" width="105.6" height="80.9"/>
		</g>
		<g id="XMLID_39_">
			<defs>
				<path id="XMLID_40_" d="M374.5,181.9c0,0-6.8,4.2-39.6,14.1c-32.9,9.9-50,19-64.4,37.1c-7.8,9.8-12.2,19.4-13.6,24.1
					c-1.4,4.7-4.2,8.8-4.6,9.3c-0.4,0.6-2.6,0.9-2.7-0.4c0-0.4,1.9,1.2,2.5-3.5c0-5.5,0.5-15.3,3.7-21c4.5-7.9,11.2-17.4,22.1-23.8
					c10.9-6.5,25-12.1,34.2-15.4c9.2-3.3,32.2-9.6,42.1-13.2c9.9-3.6,22.4-9.1,22.4-9.1L374.5,181.9L374.5,181.9z"/>
			</defs>
			<clipPath id="XMLID_110_">
				<use xlink:href="#XMLID_40_"  style="overflow:visible;"/>
			</clipPath>
			<linearGradient id="XMLID_111_" gradientUnits="userSpaceOnUse" x1="313.7484" y1="269.8277" x2="313.7484" y2="177.2179">
				<stop  offset="0" style="stop-color:#CCCCCC"/>
				<stop  offset="2.362528e-002" style="stop-color:#B0B3B4"/>
				<stop  offset="5.817317e-002" style="stop-color:#8D9497"/>
				<stop  offset="9.503651e-002" style="stop-color:#717A80"/>
				<stop  offset="0.1343" style="stop-color:#5B676D"/>
				<stop  offset="0.1772" style="stop-color:#4B5960"/>
				<stop  offset="0.2263" style="stop-color:#425158"/>
				<stop  offset="0.2957" style="stop-color:#3F4E56"/>
				<stop  offset="0.4473" style="stop-color:#3C4A52"/>
				<stop  offset="0.5995" style="stop-color:#333F46"/>
				<stop  offset="0.7521" style="stop-color:#242D32"/>
				<stop  offset="0.9041" style="stop-color:#101416"/>
				<stop  offset="1" style="stop-color:#000000"/>
			</linearGradient>
			<rect id="XMLID_38_" x="246.5" y="177.2" class="st16" width="134.4" height="92.6"/>
		</g>
		<linearGradient id="XMLID_112_" gradientUnits="userSpaceOnUse" x1="208.3103" y1="264.276" x2="208.3103" y2="192.8914">
			<stop  offset="1.612900e-002" style="stop-color:#B3B3B3"/>
			<stop  offset="1" style="stop-color:#F2F2F2"/>
		</linearGradient>
		<path id="XMLID_64_" class="st17" d="M251.4,247c0,0,0.5,15.1,0,16.7c-0.5,1.6-3.2-0.8-3.2-0.8l-10.8-25.1l-15.1-15.7l-23-14.4
			l-10.1-4l-16.2-5l-6.6-2l-1.3-3.8l33.9,8.2l25.4,13.3l13,12.2l9.7,13.3L251.4,247L251.4,247z"/>
		<g id="XMLID_45_">
			<defs>
				<path id="XMLID_46_" d="M142.5,146.9c0,0,9,6,27.5,12.9c18.4,6.8,43.3,18.3,53.5,27.9c10.6,9.9,17.5,20.7,20,24.7
					c2.4,4,5.8,9.7,7.4,9.1c0.2,3.4,1,23.7,1,23.7l-1.1,0.8l-9.7-16.7l-32.1-34.9l-14.6-15.6l-49.8-23.8L142.5,146.9L142.5,146.9z"
					/>
			</defs>
			<clipPath id="XMLID_113_">
				<use xlink:href="#XMLID_46_"  style="overflow:visible;"/>
			</clipPath>
			<linearGradient id="XMLID_114_" gradientUnits="userSpaceOnUse" x1="138.6654" y1="196.4823" x2="255.6552" y2="196.4823">
				<stop  offset="0" style="stop-color:#F2F2F2"/>
				<stop  offset="0.2634" style="stop-color:#E6E6E6"/>
				<stop  offset="0.4946" style="stop-color:#FFFFFF"/>
				<stop  offset="0.6795" style="stop-color:#F1F1F1"/>
				<stop  offset="0.8871" style="stop-color:#E6E6E6"/>
				<stop  offset="0.8872" style="stop-color:#E6E6E6"/>
				<stop  offset="0.9217" style="stop-color:#F8F8F8"/>
				<stop  offset="0.9462" style="stop-color:#FFFFFF"/>
				<stop  offset="0.9531" style="stop-color:#DFE1E2"/>
				<stop  offset="0.9625" style="stop-color:#BBC0C2"/>
				<stop  offset="0.9719" style="stop-color:#9FA5A8"/>
				<stop  offset="0.9813" style="stop-color:#8B9296"/>
				<stop  offset="0.9907" style="stop-color:#7F878B"/>
				<stop  offset="1" style="stop-color:#7B8387"/>
			</linearGradient>
			<rect id="XMLID_44_" x="138.7" y="147" class="st18" width="117" height="99"/>
		</g>
		<g id="XMLID_3_">
			<defs>
				<path id="XMLID_12_" d="M247.3,240.3l-13.2-16.4l-23.9-20.5l-75.9-29.6l-23.1-20.9c0,0-5.4-17.7-2-24.3
					c-0.1-2.1,3.7-12.8,5.2-9.5c3.9,4,8.6,9.9,24.7,20.4c-1.4,3.3-0.1,4.7,2,6c4.1,2.6,10.4,6.4,10.4,6.4l13.5,7.5l26.4,13.3l14,8.8
					l13.7,14.4l10.2,12.6l11,14.4l11.3,22.6L247.3,240.3L247.3,240.3z"/>
			</defs>
			<clipPath id="XMLID_115_">
				<use xlink:href="#XMLID_12_"  style="overflow:visible;"/>
			</clipPath>
			<linearGradient id="XMLID_116_" gradientUnits="userSpaceOnUse" x1="179.8974" y1="245.6258" x2="179.8974" y2="118.3666">
				<stop  offset="0" style="stop-color:#697C86"/>
				<stop  offset="0.7204" style="stop-color:#FFFFFF"/>
				<stop  offset="1" style="stop-color:#E6E6E6"/>
			</linearGradient>
			<rect id="XMLID_11_" x="106.4" y="118.4" class="st19" width="146.9" height="127.3"/>
		</g>
		<g id="XMLID_36_">
			<defs>
				<path id="XMLID_37_" d="M136.7,277.9c-5.9-4.1-13.2-7.5-20.4-12.1c-5.8-3.7-10.3-19-12.6-31.7c-8-45.3,7.8-78.6,7.8-78.6
					s0.3-0.8,0-1.1c-1.2-1.1-0.3-3,1.5-1.7c20.3,13.5,25.5,13.6,41.3,21c22.7,10.6,46.6,10.5,71.9,36c12,12.1,24,36,25.4,35.7
					c-0.1,2.4-0.5,13.6-0.5,13.6s0.6-10.8-2.8-16.2c-14-22-34.4-31.1-34.4-31.1s-17.6-9.2-45.3-14.5c-11.9-2.3-28.9-6.5-43.7-15.1
					c-1.2-0.7-1.7,0.2-2.1,0.8c-0.8,1.2-4,31.7-0.7,51.2C125.3,252.3,129.5,262.1,136.7,277.9L136.7,277.9z"/>
			</defs>
			<clipPath id="XMLID_117_">
				<use xlink:href="#XMLID_37_"  style="overflow:visible;"/>
			</clipPath>
			<linearGradient id="XMLID_118_" gradientUnits="userSpaceOnUse" x1="287.8966" y1="244.4632" x2="68.8557" y2="185.7713">
				<stop  offset="0" style="stop-color:#3F4E56"/>
				<stop  offset="0.2152" style="stop-color:#3C4A52"/>
				<stop  offset="0.4313" style="stop-color:#333F46"/>
				<stop  offset="0.6481" style="stop-color:#242D32"/>
				<stop  offset="0.8639" style="stop-color:#101416"/>
				<stop  offset="1" style="stop-color:#000000"/>
			</linearGradient>
			<rect id="XMLID_35_" x="82.7" y="134" class="st20" width="191.3" height="162.3"/>
		</g>
		<path id="XMLID_3681_" class="st21" d="M114.6,119.3c0,0,8.9,10.5,24.1,20.3c-6.3-2.4-9.2-2.7-14.9-7.1
			C119.9,129.6,114.6,119.3,114.6,119.3L114.6,119.3z"/>
		<path id="XMLID_3680_" class="st7" d="M386.4,118.8c0,0-7,7.6-11.8,11.1c-4.7,3.5-12.6,9.3-12.6,9.3l14.4-7.1L386.4,118.8
			L386.4,118.8z"/>
		<g id="XMLID_33_">
			<defs>
				<path id="XMLID_34_" d="M126.1,128.7c0,0,12.7-17.6,34-27.9c21.3-10.3,35.4-12.5,48.6-14.5c12.6-1.9,38.2-2.3,40.2-2.4h0.1
					c2.1,0,29.1,0.5,41.7,2.4c13.1,1.9,27.4,3.7,48.7,14s36.2,28.9,36.2,28.9s-5.3,1.3-8.6,3.9c-3.3,2.7-4.5,1.5-4.5,1.5
					s-0.3-7.4-10.2-18.1c-9.9-10.8-25.2-17.1-45-24.2c-19.1-6.8-56-7.1-58.4-7.1h-0.1c-2.4,0-37.7,0.2-56.9,7.1
					c-19.8,7.1-31.3,15.2-41.2,26c-9.9,10.8-12,21.7-12,21.7s-3.2-4.1-6.5-6.8C129.1,130.5,126.1,128.7,126.1,128.7L126.1,128.7z"/>
			</defs>
			<clipPath id="XMLID_119_">
				<use xlink:href="#XMLID_34_"  style="overflow:visible;"/>
			</clipPath>
			<linearGradient id="XMLID_120_" gradientUnits="userSpaceOnUse" x1="122.4501" y1="111.949" x2="380.9589" y2="111.949">
				<stop  offset="0" style="stop-color:#3F4E56"/>
				<stop  offset="0.3065" style="stop-color:#3F4E56"/>
				<stop  offset="0.3387" style="stop-color:#5D6F78"/>
				<stop  offset="0.6882" style="stop-color:#697C86"/>
				<stop  offset="0.7269" style="stop-color:#596A72"/>
				<stop  offset="0.8029" style="stop-color:#3F4B51"/>
				<stop  offset="0.8756" style="stop-color:#2C3539"/>
				<stop  offset="0.943" style="stop-color:#20282B"/>
				<stop  offset="1" style="stop-color:#1C2326"/>
			</linearGradient>
			<rect id="XMLID_32_" x="122.5" y="84" class="st22" width="258.5" height="56"/>
		</g>
		<path id="XMLID_3437_" class="st23" d="M226.6,205.2c-2.1-2.8-4.2-5.8-6.4-8.8c-9.9-13.4-21.6-20.9-33.7-26.9
			c-2-1-3.9-1.9-5.9-2.8c5.7,2.3,11.2,4.9,20.1,10c9.7,5.5,18.4,17.3,23.9,25.5C225.2,203.2,225.9,204.2,226.6,205.2L226.6,205.2z
			 M111.9,124.6c1.7,1.9,15.4,13.5,38,28.2c23,15,49.8,18.3,69.2,44.5c15.1,20.5,16.7,18.3,30.3,43.5c-2.5-7.2-5.2-12.2-8.6-17.6
			c-3.4-5.4-9.6-13.6-15.1-21.8c-5.5-8.1-14.4-20.2-24.4-25.9c-10-5.7-15.8-8.3-22.3-10.9c-6.5-2.6-17.2-6.8-27.5-12.6
			C141.1,146.1,123.4,134,111.9,124.6L111.9,124.6z"/>
		<g id="XMLID_42_">
			<defs>
				<path id="XMLID_43_" d="M252.3,245.7c10.2-22.1,20-34.7,40.4-49.5c11.8-8.5,20.3-10.1,33.8-15.5c8.9-3.5,14.3-4.7,23.2-8.3
					c16.3-6.6,23.5-9.9,40.2-20.2c1.2,3.9-7.5,19.4-13.7,28.5c-17.4,7.7-31.4,11.9-52.2,16.8c-12.5,2.9-21.7,5.9-34.4,11.1
					C268.5,217.1,262.4,227.7,252.3,245.7L252.3,245.7z"/>
			</defs>
			<clipPath id="XMLID_121_">
				<use xlink:href="#XMLID_43_"  style="overflow:visible;"/>
			</clipPath>
			<linearGradient id="XMLID_122_" gradientUnits="userSpaceOnUse" x1="411.1815" y1="143.5843" x2="219.537" y2="254.2303">
				<stop  offset="0" style="stop-color:#000000"/>
				<stop  offset="0.1361" style="stop-color:#101416"/>
				<stop  offset="0.3519" style="stop-color:#242D32"/>
				<stop  offset="0.5687" style="stop-color:#333F46"/>
				<stop  offset="0.7848" style="stop-color:#3C4A52"/>
				<stop  offset="1" style="stop-color:#3F4E56"/>
			</linearGradient>
			<rect id="XMLID_41_" x="226.2" y="132" class="st24" width="178.3" height="133.7"/>
		</g>
		<g id="XMLID_51_">
			<defs>
				<path id="XMLID_52_" d="M246.6,244.7c3.3,6.5,4.8,12.3,4.8,18.1c0,5.8-2.2,4.8-4.2-0.3c-2-5.1-5-16.1-17.1-29.6
					c-12.1-13.5-25.4-23.1-38.7-27.9c-13.3-4.8-26.9-7.8-32.9-9.6c-6-1.8-14.5-4.6-14.5-4.6l15,3.8c0,0,34.1,7.6,53.5,19.1
					C232,225.1,241.4,234.3,246.6,244.7L246.6,244.7z"/>
			</defs>
			<clipPath id="XMLID_123_">
				<use xlink:href="#XMLID_52_"  style="overflow:visible;"/>
			</clipPath>
			<linearGradient id="XMLID_124_" gradientUnits="userSpaceOnUse" x1="197.9822" y1="270.5728" x2="197.9822" y2="186.8345">
				<stop  offset="0" style="stop-color:#E6E6E6"/>
				<stop  offset="7.709240e-002" style="stop-color:#DDDEDF"/>
				<stop  offset="0.2028" style="stop-color:#C5CACC"/>
				<stop  offset="0.3615" style="stop-color:#9DA8AE"/>
				<stop  offset="0.5376" style="stop-color:#697C86"/>
				<stop  offset="0.5947" style="stop-color:#657781"/>
				<stop  offset="0.662" style="stop-color:#586A73"/>
				<stop  offset="0.7342" style="stop-color:#43535B"/>
				<stop  offset="0.7473" style="stop-color:#3F4E56"/>
				<stop  offset="1" style="stop-color:#3F4E56"/>
			</linearGradient>
			<rect id="XMLID_50_" x="142.5" y="186.8" class="st25" width="111" height="83.7"/>
		</g>
		<path id="XMLID_3259_" class="st8" d="M109.3,128.5c-0.7,0.9-19.7,24.4-25.8,69.9c0-35.2,18-67.9,29-78.7
			C110.9,121.9,109.3,127,109.3,128.5L109.3,128.5z"/>
		<path id="XMLID_3258_" class="st7" d="M138.8,139.8c0,0-4.8-6.3-10.8-11c-6-4.7-10.6-6.6-10.6-6.6s3.3,4.1,10.1,9.4
			C134.2,136.9,138.8,139.8,138.8,139.8L138.8,139.8z"/>
		<path id="XMLID_3257_" class="st8" d="M117.4,122.2c0,0,3.8,1.2,9.4,5.7c0,0,12-16.3,29.8-25.4c17.8-9.1,35.4-14.7,59.6-17.1
			c0,0-29.8,1-60.1,16.4c-17.2,8.7-29.5,24.8-29.5,24.8C123.7,124.4,120.6,122.9,117.4,122.2L117.4,122.2z"/>
		<linearGradient id="XMLID_125_" gradientUnits="userSpaceOnUse" x1="390.0257" y1="174.0757" x2="401.3613" y2="174.0757">
			<stop  offset="1.612900e-002" style="stop-color:#B3B3B3"/>
			<stop  offset="1" style="stop-color:#F2F2F2"/>
		</linearGradient>
		<path id="XMLID_62_" class="st26" d="M390.3,151.4c0,0,3.3,4.3,7.3,20.7c3.1,12.5,3.8,24.8,3.8,24.8s-2.6-25.5-11.3-44.6
			L390.3,151.4L390.3,151.4z"/>
		<linearGradient id="XMLID_126_" gradientUnits="userSpaceOnUse" x1="248.9728" y1="106.2135" x2="376.2191" y2="106.2135">
			<stop  offset="1.612900e-002" style="stop-color:#B3B3B3"/>
			<stop  offset="1" style="stop-color:#F2F2F2"/>
		</linearGradient>
		<path id="XMLID_61_" class="st27" d="M249,83.2c2.2-0.1,29.2,0.4,41.8,2.2c6.6,1,13.5,1.9,21.4,3.9c7.9,2,16.9,5,27.6,10.2
			c10.7,5.2,19.9,12.5,26.3,18.4c3.2,3,5.9,5.8,7.8,7.8c0.9,1,1.8,2,2.4,2.8l-0.6,0.6c0,0-15-18.5-36.2-28.9s-35.6-12.1-48.7-14
			C278,84.5,249,83.2,249,83.2L249,83.2z"/>
		<linearGradient id="XMLID_127_" gradientUnits="userSpaceOnUse" x1="170.4187" y1="316.7392" x2="332.8082" y2="316.7392">
			<stop  offset="1.612900e-002" style="stop-color:#999999"/>
			<stop  offset="0.2204" style="stop-color:#F2F2F2"/>
			<stop  offset="1" style="stop-color:#B3B3B3"/>
		</linearGradient>
		<path id="XMLID_71_" class="st28" d="M170.4,307.9c42,19.9,126.3,18.8,162.4,0C294.9,330.8,211.9,332,170.4,307.9L170.4,307.9z"/>
		<g id="XMLID_13_">
			<defs>
				<path id="XMLID_22_" d="M373.9,263.2h14.6c0,0-15.9,41.5-60.5,55.9c-18.7,6-46.6,6.4-46.6,6.4
					C332.4,322.5,358.6,306.2,373.9,263.2L373.9,263.2z"/>
			</defs>
			<clipPath id="XMLID_128_">
				<use xlink:href="#XMLID_22_"  style="overflow:visible;"/>
			</clipPath>
			<linearGradient id="XMLID_129_" gradientUnits="userSpaceOnUse" x1="334.9448" y1="327.0804" x2="334.9448" y2="261.6466">
				<stop  offset="0" style="stop-color:#E6E6E6"/>
				<stop  offset="0.1708" style="stop-color:#E1E2E2"/>
				<stop  offset="0.373" style="stop-color:#D3D5D7"/>
				<stop  offset="0.591" style="stop-color:#BBC1C4"/>
				<stop  offset="0.8186" style="stop-color:#9AA4AA"/>
				<stop  offset="1" style="stop-color:#7A8991"/>
			</linearGradient>
			<rect id="XMLID_14_" x="281.4" y="261.6" class="st29" width="107.1" height="65.4"/>
		</g>
		<path id="XMLID_3042_" class="st30" d="M259.2,232.1c0,0,13.3-28,44.9-43.8c8.3-4.2,22.2-7.5,22.2-7.5l-8.1,3
			c-9.1,3.3-16.3,5.7-25.4,12.3c-15.8,11.4-25.2,21.5-33.4,35.7L259.2,232.1L259.2,232.1z"/>
		<g id="XMLID_54_">
			<defs>
				<path id="XMLID_55_" d="M249.9,264.6c-0.3-0.5-0.8-1.4-1.3-2.7c-1-2.6-2.3-6.7-4.8-11.8c-2.6-5.2-6.4-11.4-12.6-18.2
					c-5.1-5.7-10.4-10.7-15.9-15c17,10.4,25.3,19,30,28.4c3.2,6.4,4.7,11.9,4.7,17.5C250,263.5,250,264.1,249.9,264.6L249.9,264.6z"
					/>
			</defs>
			<clipPath id="XMLID_130_">
				<use xlink:href="#XMLID_55_"  style="overflow:visible;"/>
			</clipPath>
			<linearGradient id="XMLID_131_" gradientUnits="userSpaceOnUse" x1="232.5005" y1="268.4564" x2="232.5005" y2="213.0637">
				<stop  offset="0" style="stop-color:#697C86"/>
				<stop  offset="0.1554" style="stop-color:#6B7E88"/>
				<stop  offset="0.2435" style="stop-color:#74858E"/>
				<stop  offset="0.3147" style="stop-color:#819199"/>
				<stop  offset="0.3769" style="stop-color:#95A2A9"/>
				<stop  offset="0.4333" style="stop-color:#AFB8BD"/>
				<stop  offset="0.4846" style="stop-color:#CED3D5"/>
				<stop  offset="0.5323" style="stop-color:#F2F2F2"/>
				<stop  offset="0.5583" style="stop-color:#D8DADB"/>
				<stop  offset="0.6056" style="stop-color:#B0B5B8"/>
				<stop  offset="0.6559" style="stop-color:#8D959A"/>
				<stop  offset="0.7089" style="stop-color:#707B81"/>
				<stop  offset="0.7654" style="stop-color:#5B676E"/>
				<stop  offset="0.8273" style="stop-color:#4B5960"/>
				<stop  offset="0.8984" style="stop-color:#425158"/>
				<stop  offset="1" style="stop-color:#3F4E56"/>
			</linearGradient>
			<rect id="XMLID_53_" x="210.5" y="213.1" class="st31" width="43.9" height="55.4"/>
		</g>
		<linearGradient id="XMLID_132_" gradientUnits="userSpaceOnUse" x1="361.4665" y1="130.8567" x2="400.4513" y2="130.8567">
			<stop  offset="1.612900e-002" style="stop-color:#CCCCCC"/>
			<stop  offset="0.5753" style="stop-color:#F2F2F2"/>
		</linearGradient>
		<path id="XMLID_72_" class="st32" d="M361.5,139.8l1,3c0,0,5.1-2.8,14.2-9.8c9.1-7,11.9-9.1,11.9-9.1s2.6,2,11.8,17.1
			c0,0-2.9-8.9-13.3-22L376.5,132L361.5,139.8L361.5,139.8z"/>
		<linearGradient id="XMLID_133_" gradientUnits="userSpaceOnUse" x1="147.2584" y1="173.485" x2="218.0263" y2="173.485">
			<stop  offset="0" style="stop-color:#F2F2F2"/>
			<stop  offset="0.9839" style="stop-color:#B3B3B3"/>
		</linearGradient>
		<path id="XMLID_63_" class="st33" d="M218,195.9c-14.7-15.8-25-19.4-43.9-26.1c-18.1-6.5-25.5-16.6-26.9-18.8
			c0.8,0.6,1.7,1.1,2.6,1.7C172.5,167.5,198.7,170.9,218,195.9L218,195.9z"/>
	</g>
</g>
</svg>
