<?xml version="1.0" encoding="UTF-8"?>
<svg xmlns="http://www.w3.org/2000/svg" xmlns:xlink="http://www.w3.org/1999/xlink" width="466.22pt" height="66.91pt" viewBox="0 0 466.22 66.91" version="1.1">
<defs>
<clipPath id="clip1">
  <path d="M 370 0 L 466.21875 0 L 466.21875 53 L 370 53 Z M 370 0 "/>
</clipPath>
<clipPath id="clip2">
  <path d="M 205 34 L 262 34 L 262 66.910156 L 205 66.910156 Z M 205 34 "/>
</clipPath>
<clipPath id="clip3">
  <path d="M 300 34 L 357 34 L 357 66.910156 L 300 66.910156 Z M 300 34 "/>
</clipPath>
<clipPath id="clip4">
  <path d="M 266 34 L 299 34 L 299 66.910156 L 266 66.910156 Z M 266 34 "/>
</clipPath>
<clipPath id="clip5">
  <path d="M 167 28 L 204 28 L 204 66.910156 L 167 66.910156 Z M 167 28 "/>
</clipPath>
<clipPath id="clip6">
  <path d="M 111 34 L 164 34 L 164 66.910156 L 111 66.910156 Z M 111 34 "/>
</clipPath>
<clipPath id="clip7">
  <path d="M 0 28 L 108 28 L 108 66.910156 L 0 66.910156 Z M 0 28 "/>
</clipPath>
<clipPath id="clip8">
  <path d="M 360 34 L 414 34 L 414 66.910156 L 360 66.910156 Z M 360 34 "/>
</clipPath>
</defs>
<g id="surface1">
<path style=" stroke:none;fill-rule:nonzero;fill:rgb(100%,100%,100%);fill-opacity:1;" d="M 461.199219 13.667969 C 466.144531 4.980469 457.796875 2.503906 446.554688 2.320313 C 455.929688 3.109375 462.523438 7.636719 461.199219 13.667969 "/>
<g clip-path="url(#clip1)" clip-rule="nonzero">
<path style=" stroke:none;fill-rule:nonzero;fill:rgb(0%,0%,0%);fill-opacity:1;" d="M 370.460938 28.523438 C 434.515625 -12.214844 520.84375 -13.574219 420.023438 52.4375 C 452.96875 10.390625 389.714844 20.660156 370.460938 28.523438 "/>
<path style=" stroke:none;fill-rule:nonzero;fill:rgb(7.499695%,7.499695%,7.499695%);fill-opacity:1;" d="M 420.046875 52.425781 C 452.957031 10.390625 389.707031 20.660156 370.488281 28.503906 C 434.476563 -12.183594 520.679688 -13.507813 420.046875 52.425781 "/>
<path style=" stroke:none;fill-rule:nonzero;fill:rgb(8.999634%,8.999634%,9.399414%);fill-opacity:1;" d="M 420.058594 52.402344 C 452.953125 10.367188 389.707031 20.664063 370.527344 28.488281 C 434.453125 -12.136719 520.496094 -13.441406 420.058594 52.402344 "/>
</g>
<path style=" stroke:none;fill-rule:nonzero;fill:rgb(12.89978%,12.5%,12.89978%);fill-opacity:1;" d="M 420.074219 52.390625 C 452.957031 10.363281 389.695313 20.664063 370.5625 28.476563 C 434.425781 -12.097656 520.339844 -13.359375 420.074219 52.390625 "/>
<path style=" stroke:none;fill-rule:nonzero;fill:rgb(15.699768%,15.299988%,15.699768%);fill-opacity:1;" d="M 420.101563 52.359375 C 452.945313 10.351563 389.691406 20.652344 370.585938 28.476563 C 434.398438 -12.054688 520.152344 -13.308594 420.101563 52.359375 "/>
<path style=" stroke:none;fill-rule:nonzero;fill:rgb(16.899109%,16.499329%,16.899109%);fill-opacity:1;" d="M 420.128906 52.34375 C 452.933594 10.335938 389.675781 20.65625 370.625 28.457031 C 434.367188 -12.007813 519.996094 -13.222656 420.128906 52.34375 "/>
<path style=" stroke:none;fill-rule:nonzero;fill:rgb(17.298889%,16.899109%,17.298889%);fill-opacity:1;" d="M 420.15625 52.320313 C 452.929688 10.328125 389.664063 20.652344 370.664063 28.4375 C 434.351563 -11.976563 519.820313 -13.144531 420.15625 52.320313 "/>
<path style=" stroke:none;fill-rule:nonzero;fill:rgb(16.899109%,16.499329%,16.499329%);fill-opacity:1;" d="M 420.175781 52.28125 C 452.921875 10.324219 389.664063 20.652344 370.691406 28.425781 C 434.316406 -11.921875 519.644531 -13.09375 420.175781 52.28125 "/>
<path style=" stroke:none;fill-rule:nonzero;fill:rgb(16.899109%,16.499329%,16.499329%);fill-opacity:1;" d="M 420.203125 52.28125 C 452.921875 10.300781 389.65625 20.652344 370.730469 28.414063 C 434.289063 -11.890625 519.472656 -13.011719 420.203125 52.28125 "/>
<path style=" stroke:none;fill-rule:nonzero;fill:rgb(16.499329%,16.099548%,16.099548%);fill-opacity:1;" d="M 420.226563 52.257813 C 452.917969 10.289063 389.652344 20.652344 370.757813 28.390625 C 434.253906 -11.84375 519.300781 -12.945313 420.226563 52.257813 "/>
<path style=" stroke:none;fill-rule:nonzero;fill:rgb(15.299988%,15.699768%,15.299988%);fill-opacity:1;" d="M 420.253906 52.226563 C 452.917969 10.273438 389.648438 20.65625 370.796875 28.382813 C 434.222656 -11.800781 519.121094 -12.882813 420.253906 52.226563 "/>
<path style=" stroke:none;fill-rule:nonzero;fill:rgb(13.699341%,14.498901%,14.099121%);fill-opacity:1;" d="M 420.261719 52.203125 C 452.90625 10.269531 389.640625 20.652344 370.832031 28.371094 C 434.195313 -11.769531 518.949219 -12.804688 420.261719 52.203125 "/>
<path style=" stroke:none;fill-rule:nonzero;fill:rgb(13.699341%,14.498901%,13.699341%);fill-opacity:1;" d="M 420.285156 52.175781 C 452.90625 10.242188 389.640625 20.652344 370.867188 28.347656 C 434.171875 -11.714844 518.796875 -12.738281 420.285156 52.175781 "/>
<path style=" stroke:none;fill-rule:nonzero;fill:rgb(12.5%,13.699341%,12.89978%);fill-opacity:1;" d="M 420.316406 52.164063 C 452.898438 10.242188 389.628906 20.640625 370.898438 28.34375 C 434.136719 -11.675781 518.613281 -12.667969 420.316406 52.164063 "/>
<path style=" stroke:none;fill-rule:nonzero;fill:rgb(12.199402%,14.099121%,12.89978%);fill-opacity:1;" d="M 420.339844 52.136719 C 452.902344 10.230469 389.625 20.640625 370.929688 28.332031 C 434.117188 -11.644531 518.429688 -12.589844 420.339844 52.136719 "/>
<path style=" stroke:none;fill-rule:nonzero;fill:rgb(12.89978%,14.099121%,13.699341%);fill-opacity:1;" d="M 420.351563 52.113281 C 452.898438 10.230469 389.621094 20.628906 370.964844 28.308594 C 434.066406 -11.59375 518.269531 -12.523438 420.351563 52.113281 "/>
<path style=" stroke:none;fill-rule:nonzero;fill:rgb(13.299561%,15.299988%,13.699341%);fill-opacity:1;" d="M 420.378906 52.097656 C 452.894531 10.21875 389.601563 20.628906 370.996094 28.292969 C 434.046875 -11.558594 518.097656 -12.441406 420.378906 52.097656 "/>
<path style=" stroke:none;fill-rule:nonzero;fill:rgb(13.299561%,15.299988%,14.099121%);fill-opacity:1;" d="M 420.410156 52.058594 C 452.894531 10.195313 389.601563 20.617188 371.035156 28.277344 C 434.007813 -11.492188 517.925781 -12.378906 420.410156 52.058594 "/>
<path style=" stroke:none;fill-rule:nonzero;fill:rgb(13.699341%,15.699768%,14.099121%);fill-opacity:1;" d="M 420.433594 52.046875 C 452.890625 10.195313 389.601563 20.617188 371.0625 28.277344 C 433.996094 -11.453125 517.746094 -12.304688 420.433594 52.046875 "/>
<path style=" stroke:none;fill-rule:nonzero;fill:rgb(14.099121%,16.099548%,14.498901%);fill-opacity:1;" d="M 420.449219 52.015625 C 452.878906 10.175781 389.59375 20.628906 371.113281 28.261719 C 433.957031 -11.425781 517.578125 -12.226563 420.449219 52.015625 "/>
<path style=" stroke:none;fill-rule:nonzero;fill:rgb(14.099121%,16.099548%,14.498901%);fill-opacity:1;" d="M 420.46875 52.003906 C 452.878906 10.152344 389.585938 20.628906 371.125 28.242188 C 433.925781 -11.378906 517.40625 -12.175781 420.46875 52.003906 "/>
<path style=" stroke:none;fill-rule:nonzero;fill:rgb(15.699768%,16.899109%,15.699768%);fill-opacity:1;" d="M 420.488281 51.980469 C 452.871094 10.152344 389.585938 20.617188 371.167969 28.226563 C 433.894531 -11.335938 517.226563 -12.101563 420.488281 51.980469 "/>
<path style=" stroke:none;fill-rule:nonzero;fill:rgb(16.499329%,17.298889%,15.699768%);fill-opacity:1;" d="M 420.523438 51.960938 C 452.867188 10.136719 389.570313 20.605469 371.207031 28.214844 C 433.867188 -11.304688 517.074219 -12.023438 420.523438 51.960938 "/>
<path style=" stroke:none;fill-rule:nonzero;fill:rgb(16.899109%,17.298889%,16.099548%);fill-opacity:1;" d="M 420.539063 51.9375 C 452.867188 10.125 389.570313 20.605469 371.230469 28.203125 C 433.835938 -11.257813 516.894531 -11.957031 420.539063 51.9375 "/>
<path style=" stroke:none;fill-rule:nonzero;fill:rgb(16.899109%,17.298889%,16.099548%);fill-opacity:1;" d="M 420.550781 51.90625 C 452.851563 10.117188 389.5625 20.605469 371.269531 28.195313 C 433.8125 -11.214844 516.71875 -11.886719 420.550781 51.90625 "/>
<path style=" stroke:none;fill-rule:nonzero;fill:rgb(17.298889%,17.599487%,16.499329%);fill-opacity:1;" d="M 420.597656 51.894531 C 452.851563 10.097656 389.558594 20.605469 371.300781 28.171875 C 433.78125 -11.167969 516.546875 -11.820313 420.597656 51.894531 "/>
<path style=" stroke:none;fill-rule:nonzero;fill:rgb(17.298889%,17.599487%,16.499329%);fill-opacity:1;" d="M 420.601563 51.875 C 452.851563 10.089844 389.539063 20.605469 371.339844 28.160156 C 433.742188 -11.128906 516.382813 -11.738281 420.601563 51.875 "/>
<path style=" stroke:none;fill-rule:nonzero;fill:rgb(17.599487%,17.999268%,16.899109%);fill-opacity:1;" d="M 420.628906 51.847656 C 452.847656 10.089844 389.542969 20.605469 371.371094 28.136719 C 433.71875 -11.085938 516.203125 -11.671875 420.628906 51.847656 "/>
<path style=" stroke:none;fill-rule:nonzero;fill:rgb(17.999268%,18.798828%,16.899109%);fill-opacity:1;" d="M 420.65625 51.816406 C 452.847656 10.070313 389.542969 20.605469 371.394531 28.125 C 433.695313 -11.046875 516.03125 -11.605469 420.65625 51.816406 "/>
<path style=" stroke:none;fill-rule:nonzero;fill:rgb(18.399048%,18.399048%,17.298889%);fill-opacity:1;" d="M 420.671875 51.792969 C 452.835938 10.050781 389.53125 20.597656 371.429688 28.109375 C 433.664063 -11.007813 515.863281 -11.539063 420.671875 51.792969 "/>
<path style=" stroke:none;fill-rule:nonzero;fill:rgb(19.198608%,19.198608%,17.298889%);fill-opacity:1;" d="M 420.707031 51.769531 C 452.824219 10.03125 389.53125 20.605469 371.480469 28.105469 C 433.636719 -10.960938 515.699219 -11.457031 420.707031 51.769531 "/>
<path style=" stroke:none;fill-rule:nonzero;fill:rgb(19.999695%,19.999695%,17.599487%);fill-opacity:1;" d="M 420.722656 51.761719 C 452.824219 10.023438 389.53125 20.605469 371.519531 28.082031 C 433.601563 -10.917969 515.523438 -11.386719 420.722656 51.761719 "/>
<path style=" stroke:none;fill-rule:nonzero;fill:rgb(20.399475%,19.198608%,18.399048%);fill-opacity:1;" d="M 420.746094 51.738281 C 452.824219 10.019531 389.519531 20.605469 371.535156 28.070313 C 433.578125 -10.871094 515.347656 -11.332031 420.746094 51.738281 "/>
<path style=" stroke:none;fill-rule:nonzero;fill:rgb(20.799255%,20.799255%,17.999268%);fill-opacity:1;" d="M 420.757813 51.710938 C 452.824219 10.007813 389.515625 20.605469 371.574219 28.066406 C 433.535156 -10.835938 515.175781 -11.253906 420.757813 51.710938 "/>
<path style=" stroke:none;fill-rule:nonzero;fill:rgb(21.199036%,21.199036%,18.798828%);fill-opacity:1;" d="M 420.777344 51.6875 C 452.816406 9.996094 389.492188 20.605469 371.605469 28.039063 C 433.511719 -10.804688 514.996094 -11.183594 420.777344 51.6875 "/>
<path style=" stroke:none;fill-rule:nonzero;fill:rgb(21.598816%,21.598816%,18.798828%);fill-opacity:1;" d="M 420.804688 51.667969 C 452.816406 9.984375 389.492188 20.597656 371.632813 28.019531 C 433.480469 -10.761719 514.820313 -11.109375 420.804688 51.667969 "/>
<path style=" stroke:none;fill-rule:nonzero;fill:rgb(22.399902%,21.598816%,19.198608%);fill-opacity:1;" d="M 420.828125 51.644531 C 452.804688 9.976563 389.492188 20.597656 371.671875 28.015625 C 433.445313 -10.703125 514.648438 -11.042969 420.828125 51.644531 "/>
<path style=" stroke:none;fill-rule:nonzero;fill:rgb(22.399902%,22.399902%,20.399475%);fill-opacity:1;" d="M 420.855469 51.621094 C 452.796875 9.953125 389.476563 20.605469 371.703125 28 C 433.425781 -10.667969 514.480469 -10.96875 420.855469 51.621094 "/>
<path style=" stroke:none;fill-rule:nonzero;fill:rgb(22.698975%,22.399902%,20.399475%);fill-opacity:1;" d="M 420.867188 51.605469 C 452.789063 9.953125 389.464844 20.59375 371.726563 27.992188 C 433.386719 -10.628906 514.304688 -10.882813 420.867188 51.605469 "/>
<path style=" stroke:none;fill-rule:nonzero;fill:rgb(23.098755%,22.399902%,20.799255%);fill-opacity:1;" d="M 420.894531 51.582031 C 452.785156 9.929688 389.464844 20.597656 371.765625 27.980469 C 433.359375 -10.578125 514.132813 -10.835938 420.894531 51.582031 "/>
<path style=" stroke:none;fill-rule:nonzero;fill:rgb(23.498535%,22.698975%,20.799255%);fill-opacity:1;" d="M 420.921875 51.550781 C 452.785156 9.921875 389.445313 20.597656 371.816406 27.960938 C 433.332031 -10.539063 513.96875 -10.765625 420.921875 51.550781 "/>
<path style=" stroke:none;fill-rule:nonzero;fill:rgb(23.899841%,23.098755%,21.199036%);fill-opacity:1;" d="M 420.953125 51.527344 C 452.777344 9.910156 389.445313 20.59375 371.84375 27.960938 C 433.304688 -10.503906 513.789063 -10.695313 420.953125 51.527344 "/>
<path style=" stroke:none;fill-rule:nonzero;fill:rgb(25.099182%,23.098755%,21.598816%);fill-opacity:1;" d="M 420.960938 51.5 C 452.777344 9.90625 389.441406 20.585938 371.871094 27.925781 C 433.277344 -10.457031 513.628906 -10.609375 420.960938 51.5 "/>
<path style=" stroke:none;fill-rule:nonzero;fill:rgb(25.898743%,23.498535%,21.998596%);fill-opacity:1;" d="M 420.988281 51.484375 C 452.777344 9.875 389.441406 20.585938 371.910156 27.917969 C 433.246094 -10.417969 513.453125 -10.554688 420.988281 51.484375 "/>
<path style=" stroke:none;fill-rule:nonzero;fill:rgb(26.298523%,23.899841%,22.399902%);fill-opacity:1;" d="M 421.015625 51.457031 C 452.78125 9.863281 389.425781 20.585938 371.9375 27.90625 C 433.214844 -10.371094 513.28125 -10.480469 421.015625 51.457031 "/>
<path style=" stroke:none;fill-rule:nonzero;fill:rgb(26.298523%,24.299622%,21.998596%);fill-opacity:1;" d="M 421.019531 51.4375 C 452.78125 9.855469 389.425781 20.585938 371.972656 27.894531 C 433.191406 -10.339844 513.109375 -10.398438 421.019531 51.4375 "/>
<path style=" stroke:none;fill-rule:nonzero;fill:rgb(26.699829%,24.299622%,22.399902%);fill-opacity:1;" d="M 421.0625 51.429688 C 452.757813 9.84375 389.421875 20.585938 372.007813 27.867188 C 433.160156 -10.289063 512.9375 -10.339844 421.0625 51.429688 "/>
<path style=" stroke:none;fill-rule:nonzero;fill:rgb(27.49939%,25.099182%,22.399902%);fill-opacity:1;" d="M 421.070313 51.390625 C 452.757813 9.835938 389.421875 20.585938 372.042969 27.851563 C 433.128906 -10.242188 512.761719 -10.269531 421.070313 51.390625 "/>
<path style=" stroke:none;fill-rule:nonzero;fill:rgb(27.49939%,25.898743%,22.698975%);fill-opacity:1;" d="M 421.09375 51.371094 C 452.75 9.820313 389.398438 20.585938 372.082031 27.84375 C 433.09375 -10.203125 512.59375 -10.199219 421.09375 51.371094 "/>
<path style=" stroke:none;fill-rule:nonzero;fill:rgb(27.799988%,26.298523%,23.098755%);fill-opacity:1;" d="M 421.132813 51.339844 C 452.746094 9.8125 389.398438 20.585938 372.105469 27.832031 C 433.054688 -10.160156 512.429688 -10.132813 421.132813 51.339844 "/>
<path style=" stroke:none;fill-rule:nonzero;fill:rgb(28.199768%,26.298523%,23.098755%);fill-opacity:1;" d="M 421.144531 51.339844 C 452.742188 9.804688 389.398438 20.585938 372.136719 27.820313 C 433.042969 -10.128906 512.253906 -10.058594 421.144531 51.339844 "/>
<path style=" stroke:none;fill-rule:nonzero;fill:rgb(28.599548%,26.699829%,23.899841%);fill-opacity:1;" d="M 421.164063 51.304688 C 452.726563 9.785156 389.394531 20.574219 372.183594 27.816406 C 433.011719 -10.066406 512.085938 -9.992188 421.164063 51.304688 "/>
<path style=" stroke:none;fill-rule:nonzero;fill:rgb(28.599548%,26.699829%,23.899841%);fill-opacity:1;" d="M 421.1875 51.285156 C 452.730469 9.773438 389.394531 20.574219 372.203125 27.785156 C 432.976563 -10.039063 511.902344 -9.925781 421.1875 51.285156 "/>
<path style=" stroke:none;fill-rule:nonzero;fill:rgb(30.198669%,27.099609%,24.299622%);fill-opacity:1;" d="M 421.210938 51.257813 C 452.730469 9.753906 389.382813 20.574219 372.246094 27.78125 C 432.953125 -9.992188 511.734375 -9.847656 421.210938 51.257813 "/>
<path style=" stroke:none;fill-rule:nonzero;fill:rgb(30.599976%,27.49939%,24.299622%);fill-opacity:1;" d="M 421.238281 51.234375 C 452.71875 9.742188 389.378906 20.574219 372.28125 27.761719 C 432.914063 -9.949219 511.558594 -9.777344 421.238281 51.234375 "/>
<path style=" stroke:none;fill-rule:nonzero;fill:rgb(30.599976%,27.49939%,24.299622%);fill-opacity:1;" d="M 421.253906 51.210938 C 452.71875 9.742188 389.371094 20.574219 372.308594 27.738281 C 432.890625 -9.917969 511.394531 -9.703125 421.253906 51.210938 "/>
<path style=" stroke:none;fill-rule:nonzero;fill:rgb(30.999756%,27.49939%,24.299622%);fill-opacity:1;" d="M 421.285156 51.195313 C 452.710938 9.730469 389.359375 20.574219 372.335938 27.726563 C 432.859375 -9.875 511.214844 -9.625 421.285156 51.195313 "/>
<path style=" stroke:none;fill-rule:nonzero;fill:rgb(31.799316%,27.799988%,25.099182%);fill-opacity:1;" d="M 421.285156 51.171875 C 452.710938 9.71875 389.351563 20.5625 372.371094 27.726563 C 432.828125 -9.820313 511.042969 -9.5625 421.285156 51.171875 "/>
<path style=" stroke:none;fill-rule:nonzero;fill:rgb(32.199097%,28.199768%,25.099182%);fill-opacity:1;" d="M 421.324219 51.152344 C 452.710938 9.710938 389.34375 20.574219 372.402344 27.707031 C 432.800781 -9.800781 510.867188 -9.496094 421.324219 51.152344 "/>
<path style=" stroke:none;fill-rule:nonzero;fill:rgb(32.199097%,27.799988%,25.498962%);fill-opacity:1;" d="M 421.359375 51.117188 C 452.703125 9.6875 389.339844 20.5625 372.453125 27.707031 C 432.773438 -9.738281 510.695313 -9.425781 421.359375 51.117188 "/>
<path style=" stroke:none;fill-rule:nonzero;fill:rgb(32.199097%,28.599548%,25.498962%);fill-opacity:1;" d="M 421.371094 51.105469 C 452.691406 9.675781 389.335938 20.5625 372.480469 27.671875 C 432.734375 -9.707031 510.527344 -9.351563 421.371094 51.105469 "/>
<path style=" stroke:none;fill-rule:nonzero;fill:rgb(33.299255%,28.599548%,25.898743%);fill-opacity:1;" d="M 421.398438 51.074219 C 452.691406 9.664063 389.324219 20.5625 372.511719 27.671875 C 432.714844 -9.667969 510.363281 -9.277344 421.398438 51.074219 "/>
<path style=" stroke:none;fill-rule:nonzero;fill:rgb(33.299255%,28.599548%,25.898743%);fill-opacity:1;" d="M 421.421875 51.0625 C 452.691406 9.648438 389.3125 20.550781 372.542969 27.640625 C 432.671875 -9.613281 510.175781 -9.203125 421.421875 51.0625 "/>
<path style=" stroke:none;fill-rule:nonzero;fill:rgb(34.098816%,28.599548%,25.898743%);fill-opacity:1;" d="M 421.4375 51.03125 C 452.691406 9.648438 389.3125 20.550781 372.578125 27.640625 C 432.65625 -9.578125 510.015625 -9.140625 421.4375 51.03125 "/>
<path style=" stroke:none;fill-rule:nonzero;fill:rgb(34.498596%,28.999329%,26.298523%);fill-opacity:1;" d="M 421.449219 51.019531 C 452.679688 9.636719 389.308594 20.550781 372.609375 27.617188 C 432.609375 -9.535156 509.84375 -9.0625 421.449219 51.019531 "/>
<path style=" stroke:none;fill-rule:nonzero;fill:rgb(35.299683%,29.399109%,26.298523%);fill-opacity:1;" d="M 421.480469 50.996094 C 452.671875 9.621094 389.296875 20.550781 372.644531 27.605469 C 432.59375 -9.503906 509.664063 -9 421.480469 50.996094 "/>
<path style=" stroke:none;fill-rule:nonzero;fill:rgb(35.699463%,30.599976%,26.699829%);fill-opacity:1;" d="M 421.507813 50.964844 C 452.675781 9.605469 389.296875 20.5625 372.6875 27.589844 C 432.566406 -9.449219 509.5 -8.925781 421.507813 50.964844 "/>
<path style=" stroke:none;fill-rule:nonzero;fill:rgb(35.699463%,30.198669%,26.699829%);fill-opacity:1;" d="M 421.515625 50.945313 C 452.667969 9.601563 389.296875 20.550781 372.726563 27.578125 C 432.539063 -9.410156 509.320313 -8.851563 421.515625 50.945313 "/>
<path style=" stroke:none;fill-rule:nonzero;fill:rgb(36.499023%,30.999756%,26.699829%);fill-opacity:1;" d="M 421.546875 50.914063 C 452.65625 9.582031 389.296875 20.550781 372.753906 27.5625 C 432.5 -9.359375 509.140625 -8.792969 421.546875 50.914063 "/>
<path style=" stroke:none;fill-rule:nonzero;fill:rgb(36.898804%,30.599976%,26.699829%);fill-opacity:1;" d="M 421.574219 50.902344 C 452.65625 9.570313 389.28125 20.550781 372.773438 27.550781 C 432.484375 -9.324219 508.976563 -8.714844 421.574219 50.902344 "/>
<path style=" stroke:none;fill-rule:nonzero;fill:rgb(36.898804%,30.999756%,27.099609%);fill-opacity:1;" d="M 421.597656 50.875 C 452.65625 9.566406 389.269531 20.539063 372.8125 27.535156 C 432.4375 -9.277344 508.808594 -8.648438 421.597656 50.875 "/>
<path style=" stroke:none;fill-rule:nonzero;fill:rgb(37.298584%,30.999756%,27.099609%);fill-opacity:1;" d="M 421.621094 50.851563 C 452.640625 9.558594 389.269531 20.539063 372.847656 27.523438 C 432.417969 -9.242188 508.636719 -8.570313 421.621094 50.851563 "/>
<path style=" stroke:none;fill-rule:nonzero;fill:rgb(37.599182%,31.799316%,27.099609%);fill-opacity:1;" d="M 421.648438 50.832031 C 452.644531 9.53125 389.253906 20.539063 372.882813 27.511719 C 432.378906 -9.199219 508.464844 -8.511719 421.648438 50.832031 "/>
<path style=" stroke:none;fill-rule:nonzero;fill:rgb(37.998962%,31.399536%,27.099609%);fill-opacity:1;" d="M 421.664063 50.808594 C 452.636719 9.519531 389.253906 20.539063 372.917969 27.5 C 432.351563 -9.152344 508.28125 -8.433594 421.664063 50.808594 "/>
<path style=" stroke:none;fill-rule:nonzero;fill:rgb(38.398743%,32.199097%,27.49939%);fill-opacity:1;" d="M 421.679688 50.785156 C 452.632813 9.511719 389.253906 20.53125 372.945313 27.484375 C 432.320313 -9.117188 508.121094 -8.363281 421.679688 50.785156 "/>
<path style=" stroke:none;fill-rule:nonzero;fill:rgb(38.398743%,31.799316%,27.49939%);fill-opacity:1;" d="M 421.695313 50.761719 C 452.632813 9.5 389.242188 20.53125 372.984375 27.460938 C 432.296875 -9.0625 507.9375 -8.300781 421.695313 50.761719 "/>
<path style=" stroke:none;fill-rule:nonzero;fill:rgb(39.199829%,32.199097%,27.49939%);fill-opacity:1;" d="M 421.726563 50.742188 C 452.636719 9.488281 389.230469 20.535156 373.019531 27.460938 C 432.269531 -9.03125 507.78125 -8.230469 421.726563 50.742188 "/>
<path style=" stroke:none;fill-rule:nonzero;fill:rgb(39.99939%,32.199097%,27.799988%);fill-opacity:1;" d="M 421.746094 50.730469 C 452.636719 9.476563 389.226563 20.523438 373.050781 27.441406 C 432.234375 -8.976563 507.601563 -8.15625 421.746094 50.730469 "/>
<path style=" stroke:none;fill-rule:nonzero;fill:rgb(39.99939%,32.199097%,27.799988%);fill-opacity:1;" d="M 421.769531 50.703125 C 452.632813 9.464844 389.222656 20.523438 373.078125 27.429688 C 432.203125 -8.945313 507.433594 -8.078125 421.769531 50.703125 "/>
<path style=" stroke:none;fill-rule:nonzero;fill:rgb(40.79895%,32.499695%,27.799988%);fill-opacity:1;" d="M 421.796875 50.679688 C 452.613281 9.453125 389.214844 20.523438 373.117188 27.40625 C 432.191406 -8.910156 507.269531 -8.007813 421.796875 50.679688 "/>
<path style=" stroke:none;fill-rule:nonzero;fill:rgb(41.19873%,32.499695%,27.49939%);fill-opacity:1;" d="M 421.824219 50.652344 C 452.605469 9.433594 389.214844 20.523438 373.15625 27.394531 C 432.140625 -8.871094 507.085938 -7.945313 421.824219 50.652344 "/>
<path style=" stroke:none;fill-rule:nonzero;fill:rgb(41.598511%,32.499695%,27.49939%);fill-opacity:1;" d="M 421.851563 50.640625 C 452.605469 9.425781 389.214844 20.523438 373.183594 27.378906 C 432.113281 -8.8125 506.914063 -7.871094 421.851563 50.640625 "/>
<path style=" stroke:none;fill-rule:nonzero;fill:rgb(41.598511%,32.499695%,27.49939%);fill-opacity:1;" d="M 421.867188 50.609375 C 452.605469 9.414063 389.191406 20.523438 373.21875 27.355469 C 432.085938 -8.785156 506.742188 -7.804688 421.867188 50.609375 "/>
<path style=" stroke:none;fill-rule:nonzero;fill:rgb(42.399597%,32.899475%,27.799988%);fill-opacity:1;" d="M 421.878906 50.585938 C 452.601563 9.398438 389.191406 20.523438 373.25 27.351563 C 432.058594 -8.738281 506.570313 -7.726563 421.878906 50.585938 "/>
<path style=" stroke:none;fill-rule:nonzero;fill:rgb(42.399597%,32.899475%,27.799988%);fill-opacity:1;" d="M 421.914063 50.554688 C 452.601563 9.394531 389.175781 20.511719 373.285156 27.339844 C 432.023438 -8.6875 506.386719 -7.660156 421.914063 50.554688 "/>
<path style=" stroke:none;fill-rule:nonzero;fill:rgb(42.399597%,32.899475%,27.799988%);fill-opacity:1;" d="M 421.929688 50.535156 C 452.589844 9.386719 389.175781 20.511719 373.3125 27.324219 C 431.996094 -8.65625 506.226563 -7.585938 421.929688 50.535156 "/>
<path style=" stroke:none;fill-rule:nonzero;fill:rgb(43.499756%,33.299255%,28.199768%);fill-opacity:1;" d="M 421.953125 50.519531 C 452.589844 9.382813 389.164063 20.5 373.351563 27.3125 C 431.984375 -8.613281 506.042969 -7.527344 421.953125 50.519531 "/>
<path style=" stroke:none;fill-rule:nonzero;fill:rgb(43.499756%,33.299255%,28.199768%);fill-opacity:1;" d="M 421.980469 50.503906 C 452.578125 9.359375 389.164063 20.503906 373.390625 27.308594 C 431.929688 -8.570313 505.882813 -7.453125 421.980469 50.503906 "/>
<path style=" stroke:none;fill-rule:nonzero;fill:rgb(43.499756%,33.299255%,27.799988%);fill-opacity:1;" d="M 421.996094 50.46875 C 452.578125 9.34375 389.160156 20.5 373.433594 27.273438 C 431.90625 -8.523438 505.71875 -7.386719 421.996094 50.46875 "/>
<path style=" stroke:none;fill-rule:nonzero;fill:rgb(43.899536%,33.699036%,28.199768%);fill-opacity:1;" d="M 422.023438 50.449219 C 452.574219 9.332031 389.152344 20.5 373.449219 27.261719 C 431.878906 -8.496094 505.535156 -7.316406 422.023438 50.449219 "/>
<path style=" stroke:none;fill-rule:nonzero;fill:rgb(45.098877%,33.299255%,28.199768%);fill-opacity:1;" d="M 422.039063 50.421875 C 452.5625 9.320313 389.152344 20.503906 373.488281 27.253906 C 431.847656 -8.445313 505.363281 -7.226563 422.039063 50.421875 "/>
<path style=" stroke:none;fill-rule:nonzero;fill:rgb(45.498657%,34.098816%,28.599548%);fill-opacity:1;" d="M 422.066406 50.410156 C 452.550781 9.308594 389.152344 20.507813 373.515625 27.230469 C 431.820313 -8.40625 505.183594 -7.167969 422.066406 50.410156 "/>
<path style=" stroke:none;fill-rule:nonzero;fill:rgb(45.498657%,33.699036%,28.199768%);fill-opacity:1;" d="M 422.097656 50.375 C 452.550781 9.289063 389.144531 20.503906 373.550781 27.21875 C 431.796875 -8.355469 505.023438 -7.097656 422.097656 50.375 "/>
<path style=" stroke:none;fill-rule:nonzero;fill:rgb(46.299744%,33.699036%,28.199768%);fill-opacity:1;" d="M 422.101563 50.363281 C 452.550781 9.289063 389.128906 20.5 373.589844 27.207031 C 431.765625 -8.320313 504.847656 -7.023438 422.101563 50.363281 "/>
<path style=" stroke:none;fill-rule:nonzero;fill:rgb(46.699524%,35.299683%,28.599548%);fill-opacity:1;" d="M 422.136719 50.34375 C 452.550781 9.277344 389.121094 20.5 373.621094 27.195313 C 431.742188 -8.273438 504.675781 -6.960938 422.136719 50.34375 "/>
<path style=" stroke:none;fill-rule:nonzero;fill:rgb(47.099304%,34.098816%,28.199768%);fill-opacity:1;" d="M 422.152344 50.320313 C 452.550781 9.253906 389.109375 20.492188 373.660156 27.195313 C 431.691406 -8.230469 504.515625 -6.882813 422.152344 50.320313 "/>
<path style=" stroke:none;fill-rule:nonzero;fill:rgb(47.099304%,34.098816%,28.199768%);fill-opacity:1;" d="M 422.183594 50.292969 C 452.546875 9.253906 389.105469 20.488281 373.699219 27.175781 C 431.671875 -8.191406 504.328125 -6.816406 422.183594 50.292969 "/>
<path style=" stroke:none;fill-rule:nonzero;fill:rgb(47.099304%,34.498596%,28.599548%);fill-opacity:1;" d="M 422.199219 50.257813 C 452.523438 9.242188 389.09375 20.492188 373.730469 27.152344 C 431.648438 -8.15625 504.15625 -6.746094 422.199219 50.257813 "/>
<path style=" stroke:none;fill-rule:nonzero;fill:rgb(47.799683%,35.299683%,28.999329%);fill-opacity:1;" d="M 422.234375 50.25 C 452.519531 9.222656 389.097656 20.484375 373.75 27.136719 C 431.621094 -8.109375 503.996094 -6.671875 422.234375 50.25 "/>
<path style=" stroke:none;fill-rule:nonzero;fill:rgb(47.799683%,35.299683%,28.999329%);fill-opacity:1;" d="M 422.238281 50.230469 C 452.519531 9.210938 389.097656 20.484375 373.792969 27.125 C 431.582031 -8.066406 503.824219 -6.605469 422.238281 50.230469 "/>
<path style=" stroke:none;fill-rule:nonzero;fill:rgb(48.599243%,35.299683%,28.999329%);fill-opacity:1;" d="M 422.261719 50.203125 C 452.519531 9.207031 389.074219 20.480469 373.824219 27.105469 C 431.558594 -8.03125 503.644531 -6.539063 422.261719 50.203125 "/>
<path style=" stroke:none;fill-rule:nonzero;fill:rgb(48.599243%,35.299683%,28.999329%);fill-opacity:1;" d="M 422.296875 50.175781 C 452.507813 9.1875 389.074219 20.480469 373.863281 27.101563 C 431.53125 -7.972656 503.472656 -6.476563 422.296875 50.175781 "/>
<path style=" stroke:none;fill-rule:nonzero;fill:rgb(48.599243%,35.299683%,28.599548%);fill-opacity:1;" d="M 422.324219 50.15625 C 452.507813 9.175781 389.074219 20.484375 373.890625 27.085938 C 431.488281 -7.945313 503.296875 -6.40625 422.324219 50.15625 "/>
<path style=" stroke:none;fill-rule:nonzero;fill:rgb(50.19989%,36.099243%,28.999329%);fill-opacity:1;" d="M 422.335938 50.144531 C 452.507813 9.164063 389.070313 20.484375 373.925781 27.074219 C 431.460938 -7.894531 503.132813 -6.320313 422.335938 50.144531 "/>
<path style=" stroke:none;fill-rule:nonzero;fill:rgb(50.19989%,36.099243%,28.999329%);fill-opacity:1;" d="M 422.355469 50.121094 C 452.496094 9.15625 389.054688 20.484375 373.964844 27.058594 C 431.425781 -7.859375 502.960938 -6.25 422.355469 50.121094 "/>
<path style=" stroke:none;fill-rule:nonzero;fill:rgb(50.19989%,36.099243%,28.999329%);fill-opacity:1;" d="M 422.378906 50.082031 C 452.496094 9.140625 389.054688 20.484375 373.992188 27.03125 C 431.402344 -7.824219 502.777344 -6.183594 422.378906 50.082031 "/>
<path style=" stroke:none;fill-rule:nonzero;fill:rgb(50.59967%,35.699463%,28.599548%);fill-opacity:1;" d="M 422.394531 50.078125 C 452.496094 9.121094 389.042969 20.484375 374.023438 27.019531 C 431.378906 -7.777344 502.609375 -6.109375 422.394531 50.078125 "/>
<path style=" stroke:none;fill-rule:nonzero;fill:rgb(50.59967%,35.699463%,28.599548%);fill-opacity:1;" d="M 422.433594 50.039063 C 452.492188 9.117188 389.042969 20.480469 374.058594 27.019531 C 431.34375 -7.726563 502.449219 -6.042969 422.433594 50.039063 "/>
<path style=" stroke:none;fill-rule:nonzero;fill:rgb(50.59967%,35.699463%,28.599548%);fill-opacity:1;" d="M 422.445313 50.015625 C 452.492188 9.109375 389.050781 20.480469 374.105469 26.996094 C 431.316406 -7.691406 502.273438 -5.972656 422.445313 50.015625 "/>
<path style=" stroke:none;fill-rule:nonzero;fill:rgb(50.999451%,36.099243%,28.999329%);fill-opacity:1;" d="M 422.472656 49.988281 C 452.484375 9.09375 389.042969 20.46875 374.128906 26.972656 C 431.289063 -7.652344 502.09375 -5.890625 422.472656 49.988281 "/>
<path style=" stroke:none;fill-rule:nonzero;fill:rgb(51.799011%,36.499023%,28.999329%);fill-opacity:1;" d="M 422.492188 49.972656 C 452.46875 9.078125 389.03125 20.46875 374.152344 26.976563 C 431.261719 -7.605469 501.925781 -5.824219 422.492188 49.972656 "/>
<path style=" stroke:none;fill-rule:nonzero;fill:rgb(52.198792%,36.099243%,28.599548%);fill-opacity:1;" d="M 422.507813 49.957031 C 452.46875 9.066406 389.015625 20.46875 374.199219 26.964844 C 431.234375 -7.566406 501.746094 -5.757813 422.507813 49.957031 "/>
<path style=" stroke:none;fill-rule:nonzero;fill:rgb(52.198792%,36.099243%,28.599548%);fill-opacity:1;" d="M 422.539063 49.921875 C 452.46875 9.054688 389.011719 20.46875 374.234375 26.941406 C 431.195313 -7.527344 501.578125 -5.6875 422.539063 49.921875 "/>
<path style=" stroke:none;fill-rule:nonzero;fill:rgb(52.198792%,36.499023%,28.599548%);fill-opacity:1;" d="M 422.5625 49.910156 C 452.457031 9.035156 389.003906 20.472656 374.257813 26.941406 C 431.171875 -7.480469 501.402344 -5.621094 422.5625 49.910156 "/>
<path style=" stroke:none;fill-rule:nonzero;fill:rgb(52.198792%,36.099243%,28.599548%);fill-opacity:1;" d="M 422.582031 49.890625 C 452.457031 9.035156 389.003906 20.46875 374.296875 26.902344 C 431.144531 -7.433594 501.234375 -5.546875 422.582031 49.890625 "/>
<path style=" stroke:none;fill-rule:nonzero;fill:rgb(53.29895%,36.499023%,28.999329%);fill-opacity:1;" d="M 422.609375 49.867188 C 452.457031 9.023438 389.003906 20.460938 374.335938 26.898438 C 431.109375 -7.394531 501.058594 -5.484375 422.609375 49.867188 "/>
<path style=" stroke:none;fill-rule:nonzero;fill:rgb(53.29895%,36.898804%,28.599548%);fill-opacity:1;" d="M 422.628906 49.839844 C 452.453125 9.011719 388.992188 20.464844 374.363281 26.882813 C 431.078125 -7.351563 500.894531 -5.410156 422.628906 49.839844 "/>
<path style=" stroke:none;fill-rule:nonzero;fill:rgb(53.29895%,36.499023%,28.599548%);fill-opacity:1;" d="M 422.640625 49.8125 C 452.453125 9 388.988281 20.457031 374.386719 26.871094 C 431.054688 -7.308594 500.71875 -5.339844 422.640625 49.8125 "/>
<path style=" stroke:none;fill-rule:nonzero;fill:rgb(53.69873%,36.898804%,28.599548%);fill-opacity:1;" d="M 422.679688 49.800781 C 452.441406 8.976563 388.988281 20.457031 374.4375 26.859375 C 431.023438 -7.269531 500.546875 -5.257813 422.679688 49.800781 "/>
<path style=" stroke:none;fill-rule:nonzero;fill:rgb(53.69873%,36.898804%,28.599548%);fill-opacity:1;" d="M 422.699219 49.777344 C 452.441406 8.976563 388.972656 20.457031 374.46875 26.839844 C 430.988281 -7.214844 500.382813 -5.199219 422.699219 49.777344 "/>
<path style=" stroke:none;fill-rule:nonzero;fill:rgb(54.499817%,37.298584%,28.599548%);fill-opacity:1;" d="M 422.710938 49.761719 C 452.441406 8.957031 388.960938 20.457031 374.496094 26.824219 C 430.960938 -7.183594 500.199219 -5.125 422.710938 49.761719 "/>
<path style=" stroke:none;fill-rule:nonzero;fill:rgb(54.499817%,36.499023%,27.799988%);fill-opacity:1;" d="M 422.742188 49.734375 C 452.429688 8.949219 388.949219 20.457031 374.523438 26.820313 C 430.929688 -7.152344 500.027344 -5.054688 422.742188 49.734375 "/>
<path style=" stroke:none;fill-rule:nonzero;fill:rgb(55.299377%,36.898804%,28.199768%);fill-opacity:1;" d="M 422.753906 49.710938 C 452.429688 8.933594 388.949219 20.453125 374.5625 26.796875 C 430.90625 -7.101563 499.859375 -4.972656 422.753906 49.710938 "/>
<path style=" stroke:none;fill-rule:nonzero;fill:rgb(56.098938%,36.898804%,28.199768%);fill-opacity:1;" d="M 422.78125 49.6875 C 452.414063 8.910156 388.933594 20.453125 374.59375 26.785156 C 430.878906 -7.054688 499.679688 -4.914063 422.78125 49.6875 "/>
<path style=" stroke:none;fill-rule:nonzero;fill:rgb(56.098938%,36.499023%,27.799988%);fill-opacity:1;" d="M 422.816406 49.667969 C 452.410156 8.914063 388.933594 20.457031 374.628906 26.765625 C 430.84375 -7.015625 499.523438 -4.835938 422.816406 49.667969 "/>
<path style=" stroke:none;fill-rule:nonzero;fill:rgb(56.498718%,36.898804%,28.199768%);fill-opacity:1;" d="M 422.84375 49.644531 C 452.394531 8.90625 388.921875 20.457031 374.667969 26.765625 C 430.816406 -6.964844 499.339844 -4.769531 422.84375 49.644531 "/>
<path style=" stroke:none;fill-rule:nonzero;fill:rgb(56.498718%,36.898804%,28.199768%);fill-opacity:1;" d="M 422.859375 49.613281 C 452.394531 8.894531 388.921875 20.457031 374.695313 26.730469 C 430.789063 -6.9375 499.171875 -4.703125 422.859375 49.613281 "/>
<path style=" stroke:none;fill-rule:nonzero;fill:rgb(57.299805%,37.298584%,28.599548%);fill-opacity:1;" d="M 422.878906 49.578125 C 452.398438 8.882813 388.90625 20.457031 374.734375 26.71875 C 430.757813 -6.886719 499.003906 -4.621094 422.878906 49.578125 "/>
<path style=" stroke:none;fill-rule:nonzero;fill:rgb(57.299805%,37.298584%,28.599548%);fill-opacity:1;" d="M 422.898438 49.566406 C 452.394531 8.867188 388.90625 20.445313 374.777344 26.710938 C 430.730469 -6.851563 498.828125 -4.566406 422.898438 49.566406 "/>
<path style=" stroke:none;fill-rule:nonzero;fill:rgb(57.299805%,36.499023%,28.199768%);fill-opacity:1;" d="M 422.914063 49.554688 C 452.386719 8.855469 388.898438 20.445313 374.796875 26.707031 C 430.683594 -6.804688 498.648438 -4.484375 422.914063 49.554688 "/>
<path style=" stroke:none;fill-rule:nonzero;fill:rgb(57.598877%,36.898804%,27.49939%);fill-opacity:1;" d="M 422.9375 49.535156 C 452.386719 8.839844 388.898438 20.445313 374.84375 26.6875 C 430.65625 -6.757813 498.484375 -4.425781 422.9375 49.535156 "/>
<path style=" stroke:none;fill-rule:nonzero;fill:rgb(57.598877%,36.898804%,27.49939%);fill-opacity:1;" d="M 422.960938 49.5 C 452.378906 8.824219 388.890625 20.441406 374.863281 26.675781 C 430.640625 -6.722656 498.308594 -4.355469 422.960938 49.5 "/>
<path style=" stroke:none;fill-rule:nonzero;fill:rgb(57.998657%,36.898804%,27.49939%);fill-opacity:1;" d="M 422.992188 49.488281 C 452.378906 8.824219 388.890625 20.441406 374.910156 26.664063 C 430.613281 -6.675781 498.140625 -4.269531 422.992188 49.488281 "/>
<path style=" stroke:none;fill-rule:nonzero;fill:rgb(57.998657%,36.898804%,27.49939%);fill-opacity:1;" d="M 423.011719 49.457031 C 452.363281 8.8125 388.882813 20.433594 374.941406 26.640625 C 430.566406 -6.636719 497.953125 -4.207031 423.011719 49.457031 "/>
<path style=" stroke:none;fill-rule:nonzero;fill:rgb(58.799744%,36.898804%,27.49939%);fill-opacity:1;" d="M 423.03125 49.433594 C 452.363281 8.789063 388.882813 20.4375 374.972656 26.625 C 430.539063 -6.589844 497.785156 -4.140625 423.03125 49.433594 "/>
<path style=" stroke:none;fill-rule:nonzero;fill:rgb(59.199524%,37.298584%,27.799988%);fill-opacity:1;" d="M 423.054688 49.421875 C 452.363281 8.789063 388.867188 20.433594 374.996094 26.625 C 430.511719 -6.5625 497.625 -4.074219 423.054688 49.421875 "/>
<path style=" stroke:none;fill-rule:nonzero;fill:rgb(59.199524%,37.298584%,27.49939%);fill-opacity:1;" d="M 423.082031 49.390625 C 452.359375 8.777344 388.867188 20.433594 375.039063 26.605469 C 430.484375 -6.515625 497.460938 -3.992188 423.082031 49.390625 "/>
<path style=" stroke:none;fill-rule:nonzero;fill:rgb(60.398865%,36.898804%,27.49939%);fill-opacity:1;" d="M 423.109375 49.367188 C 452.359375 8.757813 388.855469 20.441406 375.070313 26.59375 C 430.453125 -6.472656 497.285156 -3.925781 423.109375 49.367188 "/>
<path style=" stroke:none;fill-rule:nonzero;fill:rgb(60.798645%,36.898804%,27.49939%);fill-opacity:1;" d="M 423.125 49.339844 C 452.359375 8.746094 388.851563 20.441406 375.105469 26.574219 C 430.425781 -6.421875 497.105469 -3.851563 423.125 49.339844 "/>
<path style=" stroke:none;fill-rule:nonzero;fill:rgb(60.798645%,36.898804%,27.49939%);fill-opacity:1;" d="M 423.136719 49.324219 C 452.351563 8.730469 388.832031 20.40625 375.144531 26.554688 C 430.40625 -6.386719 496.933594 -3.796875 423.136719 49.324219 "/>
<path style=" stroke:none;fill-rule:nonzero;fill:rgb(61.199951%,36.499023%,27.49939%);fill-opacity:1;" d="M 423.164063 49.308594 C 452.351563 8.71875 388.828125 20.40625 375.171875 26.53125 C 430.367188 -6.347656 496.761719 -3.710938 423.164063 49.308594 "/>
<path style=" stroke:none;fill-rule:nonzero;fill:rgb(61.199951%,36.499023%,27.49939%);fill-opacity:1;" d="M 423.191406 49.28125 C 452.339844 8.710938 388.828125 20.417969 375.195313 26.53125 C 430.339844 -6.300781 496.578125 -3.640625 423.191406 49.28125 "/>
<path style=" stroke:none;fill-rule:nonzero;fill:rgb(61.999512%,36.898804%,27.49939%);fill-opacity:1;" d="M 423.210938 49.257813 C 452.34375 8.714844 388.816406 20.417969 375.238281 26.507813 C 430.296875 -6.253906 496.429688 -3.582031 423.210938 49.257813 "/>
<path style=" stroke:none;fill-rule:nonzero;fill:rgb(61.999512%,36.499023%,27.49939%);fill-opacity:1;" d="M 423.242188 49.242188 C 452.34375 8.695313 388.808594 20.417969 375.289063 26.5 C 430.273438 -6.214844 496.253906 -3.503906 423.242188 49.242188 "/>
<path style=" stroke:none;fill-rule:nonzero;fill:rgb(62.399292%,36.499023%,27.099609%);fill-opacity:1;" d="M 423.253906 49.214844 C 452.34375 8.667969 388.8125 20.40625 375.300781 26.488281 C 430.246094 -6.171875 496.0625 -3.425781 423.253906 49.214844 "/>
<path style=" stroke:none;fill-rule:nonzero;fill:rgb(62.399292%,36.499023%,27.099609%);fill-opacity:1;" d="M 423.285156 49.191406 C 452.335938 8.65625 388.804688 20.40625 375.339844 26.476563 C 430.214844 -6.128906 495.910156 -3.363281 423.285156 49.191406 "/>
<path style=" stroke:none;fill-rule:nonzero;fill:rgb(62.69989%,36.898804%,27.099609%);fill-opacity:1;" d="M 423.296875 49.179688 C 452.320313 8.652344 388.789063 20.40625 375.382813 26.464844 C 430.191406 -6.097656 495.734375 -3.296875 423.296875 49.179688 "/>
<path style=" stroke:none;fill-rule:nonzero;fill:rgb(62.399292%,36.099243%,27.099609%);fill-opacity:1;" d="M 423.324219 49.136719 C 452.308594 8.640625 388.789063 20.40625 375.402344 26.449219 C 430.164063 -6.054688 495.554688 -3.21875 423.324219 49.136719 "/>
<path style=" stroke:none;fill-rule:nonzero;fill:rgb(63.499451%,36.499023%,26.699829%);fill-opacity:1;" d="M 423.347656 49.125 C 452.308594 8.613281 388.789063 20.40625 375.433594 26.433594 C 430.128906 -6.011719 495.390625 -3.160156 423.347656 49.125 "/>
<path style=" stroke:none;fill-rule:nonzero;fill:rgb(63.499451%,36.499023%,26.699829%);fill-opacity:1;" d="M 423.375 49.101563 C 452.296875 8.613281 388.777344 20.394531 375.480469 26.414063 C 430.097656 -5.972656 495.210938 -3.078125 423.375 49.101563 "/>
<path style=" stroke:none;fill-rule:nonzero;fill:rgb(63.499451%,36.499023%,26.699829%);fill-opacity:1;" d="M 423.398438 49.082031 C 452.285156 8.613281 388.769531 20.394531 375.515625 26.410156 C 430.0625 -5.929688 495.035156 -3.011719 423.398438 49.082031 "/>
<path style=" stroke:none;fill-rule:nonzero;fill:rgb(64.299011%,36.099243%,26.298523%);fill-opacity:1;" d="M 423.414063 49.046875 C 452.285156 8.589844 388.769531 20.394531 375.542969 26.386719 C 430.035156 -5.886719 494.867188 -2.945313 423.414063 49.046875 "/>
<path style=" stroke:none;fill-rule:nonzero;fill:rgb(64.299011%,36.099243%,26.298523%);fill-opacity:1;" d="M 423.429688 49.023438 C 452.28125 8.578125 388.761719 20.398438 375.578125 26.382813 C 430.007813 -5.847656 494.699219 -2.859375 423.429688 49.023438 "/>
<path style=" stroke:none;fill-rule:nonzero;fill:rgb(64.299011%,36.099243%,26.298523%);fill-opacity:1;" d="M 423.457031 49.003906 C 452.28125 8.558594 388.761719 20.394531 375.609375 26.367188 C 429.980469 -5.789063 494.523438 -2.796875 423.457031 49.003906 "/>
<path style=" stroke:none;fill-rule:nonzero;fill:rgb(65.098572%,36.099243%,26.298523%);fill-opacity:1;" d="M 423.480469 48.980469 C 452.273438 8.558594 388.75 20.394531 375.644531 26.359375 C 429.953125 -5.757813 494.335938 -2.726563 423.480469 48.980469 "/>
<path style=" stroke:none;fill-rule:nonzero;fill:rgb(65.899658%,35.699463%,26.298523%);fill-opacity:1;" d="M 423.519531 48.957031 C 452.273438 8.546875 388.738281 20.394531 375.675781 26.320313 C 429.925781 -5.710938 494.183594 -2.65625 423.519531 48.957031 "/>
<path style=" stroke:none;fill-rule:nonzero;fill:rgb(65.899658%,35.699463%,26.298523%);fill-opacity:1;" d="M 423.53125 48.949219 C 452.261719 8.535156 388.738281 20.375 375.714844 26.328125 C 429.898438 -5.675781 494.011719 -2.59375 423.53125 48.949219 "/>
<path style=" stroke:none;fill-rule:nonzero;fill:rgb(65.899658%,35.699463%,26.298523%);fill-opacity:1;" d="M 423.558594 48.925781 C 452.265625 8.523438 388.722656 20.375 375.757813 26.300781 C 429.859375 -5.632813 493.832031 -2.515625 423.558594 48.925781 "/>
<path style=" stroke:none;fill-rule:nonzero;fill:rgb(66.299438%,36.099243%,25.498962%);fill-opacity:1;" d="M 423.578125 48.902344 C 452.265625 8.511719 388.71875 20.375 375.78125 26.300781 C 429.832031 -5.59375 493.660156 -2.445313 423.578125 48.902344 "/>
<path style=" stroke:none;fill-rule:nonzero;fill:rgb(66.299438%,35.299683%,25.099182%);fill-opacity:1;" d="M 423.589844 48.871094 C 452.257813 8.492188 388.699219 20.375 375.808594 26.277344 C 429.808594 -5.546875 493.488281 -2.375 423.589844 48.871094 "/>
<path style=" stroke:none;fill-rule:nonzero;fill:rgb(66.699219%,35.299683%,25.099182%);fill-opacity:1;" d="M 423.617188 48.847656 C 452.257813 8.492188 388.699219 20.386719 375.847656 26.265625 C 429.769531 -5.503906 493.328125 -2.304688 423.617188 48.847656 "/>
<path style=" stroke:none;fill-rule:nonzero;fill:rgb(66.699219%,35.299683%,25.099182%);fill-opacity:1;" d="M 423.636719 48.832031 C 452.257813 8.472656 388.695313 20.386719 375.875 26.246094 C 429.75 -5.46875 493.152344 -2.234375 423.636719 48.832031 "/>
<path style=" stroke:none;fill-rule:nonzero;fill:rgb(67.498779%,35.699463%,25.498962%);fill-opacity:1;" d="M 423.652344 48.808594 C 452.246094 8.453125 388.6875 20.375 375.90625 26.234375 C 429.71875 -5.425781 492.984375 -2.167969 423.652344 48.808594 "/>
<path style=" stroke:none;fill-rule:nonzero;fill:rgb(67.498779%,35.699463%,25.498962%);fill-opacity:1;" d="M 423.679688 48.785156 C 452.246094 8.441406 388.6875 20.375 375.949219 26.210938 C 429.6875 -5.382813 492.808594 -2.101563 423.679688 48.785156 "/>
<path style=" stroke:none;fill-rule:nonzero;fill:rgb(67.498779%,35.299683%,25.099182%);fill-opacity:1;" d="M 423.695313 48.769531 C 452.246094 8.4375 388.671875 20.375 375.96875 26.195313 C 429.660156 -5.339844 492.632813 -2.027344 423.695313 48.769531 "/>
<path style=" stroke:none;fill-rule:nonzero;fill:rgb(68.199158%,35.299683%,24.299622%);fill-opacity:1;" d="M 423.734375 48.738281 C 452.234375 8.425781 388.675781 20.375 376.023438 26.1875 C 429.632813 -5.292969 492.464844 -1.953125 423.734375 48.738281 "/>
<path style=" stroke:none;fill-rule:nonzero;fill:rgb(67.799377%,34.098816%,24.299622%);fill-opacity:1;" d="M 423.753906 48.714844 C 452.230469 8.414063 388.667969 20.375 376.054688 26.1875 C 429.59375 -5.253906 492.289063 -1.882813 423.753906 48.714844 "/>
<path style=" stroke:none;fill-rule:nonzero;fill:rgb(67.799377%,34.098816%,24.299622%);fill-opacity:1;" d="M 423.769531 48.691406 C 452.21875 8.402344 388.664063 20.375 376.078125 26.171875 C 429.570313 -5.207031 492.109375 -1.8125 423.769531 48.691406 "/>
<path style=" stroke:none;fill-rule:nonzero;fill:rgb(67.799377%,34.098816%,23.899841%);fill-opacity:1;" d="M 423.796875 48.671875 C 452.21875 8.378906 388.65625 20.375 376.113281 26.15625 C 429.539063 -5.167969 491.945313 -1.742188 423.796875 48.671875 "/>
<path style=" stroke:none;fill-rule:nonzero;fill:rgb(68.998718%,35.299683%,23.899841%);fill-opacity:1;" d="M 423.816406 48.644531 C 452.207031 8.378906 388.648438 20.375 376.144531 26.15625 C 429.503906 -5.132813 491.765625 -1.671875 423.816406 48.644531 "/>
<path style=" stroke:none;fill-rule:nonzero;fill:rgb(68.998718%,33.699036%,23.899841%);fill-opacity:1;" d="M 423.839844 48.632813 C 452.207031 8.347656 388.652344 20.375 376.1875 26.128906 C 429.484375 -5.082031 491.597656 -1.597656 423.839844 48.632813 "/>
<path style=" stroke:none;fill-rule:nonzero;fill:rgb(68.998718%,33.699036%,23.098755%);fill-opacity:1;" d="M 423.867188 48.609375 C 452.207031 8.347656 388.648438 20.375 376.214844 26.097656 C 429.453125 -5.046875 491.417969 -1.527344 423.867188 48.609375 "/>
<path style=" stroke:none;fill-rule:nonzero;fill:rgb(70.199585%,34.098816%,23.498535%);fill-opacity:1;" d="M 423.886719 48.582031 C 452.195313 8.335938 388.632813 20.375 376.246094 26.089844 C 429.421875 -5 491.257813 -1.464844 423.886719 48.582031 "/>
<path style=" stroke:none;fill-rule:nonzero;fill:rgb(70.599365%,33.299255%,23.098755%);fill-opacity:1;" d="M 423.90625 48.570313 C 452.195313 8.324219 388.632813 20.375 376.285156 26.078125 C 429.386719 -4.957031 491.074219 -1.390625 423.90625 48.570313 "/>
<path style=" stroke:none;fill-rule:nonzero;fill:rgb(70.599365%,33.299255%,22.698975%);fill-opacity:1;" d="M 423.929688 48.539063 C 452.191406 8.3125 388.613281 20.351563 376.320313 26.066406 C 429.355469 -4.914063 490.898438 -1.328125 423.929688 48.539063 "/>
<path style=" stroke:none;fill-rule:nonzero;fill:rgb(70.599365%,33.299255%,22.698975%);fill-opacity:1;" d="M 423.957031 48.515625 C 452.191406 8.3125 388.601563 20.351563 376.339844 26.054688 C 429.328125 -4.875 490.738281 -1.253906 423.957031 48.515625 "/>
<path style=" stroke:none;fill-rule:nonzero;fill:rgb(70.999146%,32.899475%,22.698975%);fill-opacity:1;" d="M 423.972656 48.492188 C 452.1875 8.292969 388.605469 20.351563 376.378906 26.042969 C 429.289063 -4.835938 490.570313 -1.175781 423.972656 48.492188 "/>
<path style=" stroke:none;fill-rule:nonzero;fill:rgb(70.999146%,32.899475%,22.698975%);fill-opacity:1;" d="M 423.988281 48.460938 C 452.1875 8.28125 388.601563 20.351563 376.40625 26.023438 C 429.273438 -4.792969 490.386719 -1.101563 423.988281 48.460938 "/>
<path style=" stroke:none;fill-rule:nonzero;fill:rgb(71.798706%,32.899475%,22.698975%);fill-opacity:1;" d="M 424.023438 48.460938 C 452.1875 8.269531 388.601563 20.351563 376.457031 26.011719 C 429.238281 -4.753906 490.222656 -1.042969 424.023438 48.460938 "/>
<path style=" stroke:none;fill-rule:nonzero;fill:rgb(72.198486%,33.299255%,23.098755%);fill-opacity:1;" d="M 424.046875 48.425781 C 452.171875 8.257813 388.59375 20.351563 376.484375 25.984375 C 429.21875 -4.703125 490.039063 -0.960938 424.046875 48.425781 "/>
<path style=" stroke:none;fill-rule:nonzero;fill:rgb(72.198486%,32.499695%,22.399902%);fill-opacity:1;" d="M 424.074219 48.398438 C 452.164063 8.246094 388.585938 20.351563 376.515625 25.972656 C 429.1875 -4.65625 489.875 -0.902344 424.074219 48.398438 "/>
<path style=" stroke:none;fill-rule:nonzero;fill:rgb(72.198486%,32.499695%,22.399902%);fill-opacity:1;" d="M 424.089844 48.378906 C 452.164063 8.21875 388.578125 20.351563 376.550781 25.957031 C 429.15625 -4.625 489.71875 -0.816406 424.089844 48.378906 "/>
<path style=" stroke:none;fill-rule:nonzero;fill:rgb(72.499084%,32.499695%,22.399902%);fill-opacity:1;" d="M 424.117188 48.347656 C 452.15625 8.207031 388.578125 20.339844 376.585938 25.949219 C 429.128906 -4.582031 489.535156 -0.75 424.117188 48.347656 "/>
<path style=" stroke:none;fill-rule:nonzero;fill:rgb(72.198486%,32.199097%,22.399902%);fill-opacity:1;" d="M 424.132813 48.332031 C 452.15625 8.203125 388.5625 20.339844 376.628906 25.9375 C 429.089844 -4.542969 489.359375 -0.691406 424.132813 48.332031 "/>
<path style=" stroke:none;fill-rule:nonzero;fill:rgb(72.898865%,32.199097%,22.399902%);fill-opacity:1;" d="M 424.15625 48.316406 C 452.15625 8.191406 388.5625 20.339844 376.648438 25.933594 C 429.0625 -4.503906 489.191406 -0.613281 424.15625 48.316406 "/>
<path style=" stroke:none;fill-rule:nonzero;fill:rgb(72.898865%,32.199097%,22.399902%);fill-opacity:1;" d="M 424.167969 48.28125 C 452.140625 8.1875 388.550781 20.339844 376.683594 25.917969 C 429.035156 -4.464844 489.019531 -0.550781 424.167969 48.28125 "/>
<path style=" stroke:none;fill-rule:nonzero;fill:rgb(72.898865%,31.799316%,21.998596%);fill-opacity:1;" d="M 424.207031 48.261719 C 452.140625 8.179688 388.550781 20.339844 376.722656 25.894531 C 429.007813 -4.421875 488.851563 -0.472656 424.207031 48.261719 "/>
<path style=" stroke:none;fill-rule:nonzero;fill:rgb(74.099731%,31.799316%,22.399902%);fill-opacity:1;" d="M 424.234375 48.25 C 452.140625 8.15625 388.539063 20.332031 376.75 25.882813 C 428.96875 -4.371094 488.667969 -0.398438 424.234375 48.25 "/>
<path style=" stroke:none;fill-rule:nonzero;fill:rgb(74.099731%,31.799316%,21.598816%);fill-opacity:1;" d="M 424.242188 48.226563 C 452.132813 8.136719 388.523438 20.328125 376.800781 25.867188 C 428.933594 -4.328125 488.511719 -0.335938 424.242188 48.226563 "/>
<path style=" stroke:none;fill-rule:nonzero;fill:rgb(73.699951%,30.999756%,21.598816%);fill-opacity:1;" d="M 424.261719 48.195313 C 452.132813 8.132813 388.523438 20.339844 376.816406 25.851563 C 428.917969 -4.277344 488.335938 -0.261719 424.261719 48.195313 "/>
<path style=" stroke:none;fill-rule:nonzero;fill:rgb(74.499512%,31.399536%,21.598816%);fill-opacity:1;" d="M 424.289063 48.183594 C 452.132813 8.113281 388.523438 20.339844 376.859375 25.832031 C 428.886719 -4.242188 488.144531 -0.1875 424.289063 48.183594 "/>
<path style=" stroke:none;fill-rule:nonzero;fill:rgb(74.499512%,31.399536%,21.598816%);fill-opacity:1;" d="M 424.316406 48.144531 C 452.121094 8.105469 388.511719 20.339844 376.882813 25.8125 C 428.863281 -4.210938 487.992188 -0.125 424.316406 48.144531 "/>
<path style=" stroke:none;fill-rule:nonzero;fill:rgb(74.499512%,30.599976%,21.598816%);fill-opacity:1;" d="M 424.339844 48.132813 C 452.109375 8.101563 388.511719 20.339844 376.921875 25.8125 C 428.816406 -4.160156 487.808594 -0.0546875 424.339844 48.132813 "/>
<path style=" stroke:none;fill-rule:nonzero;fill:rgb(75.299072%,30.599976%,21.199036%);fill-opacity:1;" d="M 424.34375 48.109375 C 452.109375 8.082031 388.488281 20.339844 376.953125 25.800781 C 428.800781 -4.117188 487.644531 0.0234375 424.34375 48.109375 "/>
<path style=" stroke:none;fill-rule:nonzero;fill:rgb(76.098633%,29.399109%,20.799255%);fill-opacity:1;" d="M 424.378906 48.089844 C 452.105469 8.082031 388.488281 20.328125 376.988281 25.789063 C 428.761719 -4.085938 487.472656 0.101563 424.378906 48.089844 "/>
<path style=" stroke:none;fill-rule:nonzero;fill:rgb(76.098633%,29.399109%,20.399475%);fill-opacity:1;" d="M 424.398438 48.0625 C 452.105469 8.070313 388.488281 20.320313 377.03125 25.777344 C 428.742188 -4.035156 487.292969 0.164063 424.398438 48.0625 "/>
<path style=" stroke:none;fill-rule:nonzero;fill:rgb(76.098633%,29.399109%,20.799255%);fill-opacity:1;" d="M 424.425781 48.050781 C 452.09375 8.046875 388.480469 20.320313 377.050781 25.75 C 428.707031 -3.992188 487.121094 0.234375 424.425781 48.050781 "/>
<path style=" stroke:none;fill-rule:nonzero;fill:rgb(76.499939%,29.399109%,20.799255%);fill-opacity:1;" d="M 424.441406 48.007813 C 452.089844 8.027344 388.476563 20.320313 377.082031 25.746094 C 428.664063 -3.949219 486.949219 0.296875 424.441406 48.007813 "/>
<path style=" stroke:none;fill-rule:nonzero;fill:rgb(76.499939%,28.599548%,20.399475%);fill-opacity:1;" d="M 424.460938 47.996094 C 452.09375 8.023438 388.472656 20.320313 377.113281 25.71875 C 428.640625 -3.90625 486.777344 0.378906 424.460938 47.996094 "/>
<path style=" stroke:none;fill-rule:nonzero;fill:rgb(77.2995%,28.599548%,20.399475%);fill-opacity:1;" d="M 424.5 47.984375 C 452.09375 8.003906 388.460938 20.320313 377.148438 25.703125 C 428.613281 -3.867188 486.605469 0.445313 424.5 47.984375 "/>
<path style=" stroke:none;fill-rule:nonzero;fill:rgb(77.2995%,28.599548%,19.999695%);fill-opacity:1;" d="M 424.515625 47.949219 C 452.078125 7.992188 388.453125 20.320313 377.199219 25.703125 C 428.597656 -3.828125 486.445313 0.507813 424.515625 47.949219 "/>
<path style=" stroke:none;fill-rule:nonzero;fill:rgb(76.899719%,27.799988%,19.999695%);fill-opacity:1;" d="M 424.539063 47.929688 C 452.082031 7.992188 388.449219 20.304688 377.226563 25.683594 C 428.554688 -3.785156 486.273438 0.582031 424.539063 47.929688 "/>
<path style=" stroke:none;fill-rule:nonzero;fill:rgb(77.2995%,27.799988%,19.198608%);fill-opacity:1;" d="M 424.566406 47.90625 C 452.074219 7.976563 388.445313 20.300781 377.253906 25.671875 C 428.539063 -3.742188 486.097656 0.636719 424.566406 47.90625 "/>
<path style=" stroke:none;fill-rule:nonzero;fill:rgb(77.2995%,27.799988%,19.198608%);fill-opacity:1;" d="M 424.582031 47.882813 C 452.074219 7.96875 388.445313 20.300781 377.292969 25.660156 C 428.507813 -3.699219 485.933594 0.726563 424.582031 47.882813 "/>
<path style=" stroke:none;fill-rule:nonzero;fill:rgb(77.598572%,27.49939%,18.798828%);fill-opacity:1;" d="M 424.605469 47.867188 C 452.054688 7.964844 388.429688 20.308594 377.328125 25.640625 C 428.464844 -3.652344 485.75 0.792969 424.605469 47.867188 "/>
<path style=" stroke:none;fill-rule:nonzero;fill:rgb(77.598572%,27.49939%,18.798828%);fill-opacity:1;" d="M 424.621094 47.839844 C 452.046875 7.949219 388.429688 20.308594 377.359375 25.625 C 428.429688 -3.625 485.570313 0.867188 424.621094 47.839844 "/>
<path style=" stroke:none;fill-rule:nonzero;fill:rgb(78.399658%,27.49939%,18.798828%);fill-opacity:1;" d="M 424.644531 47.824219 C 452.046875 7.929688 388.40625 20.308594 377.394531 25.613281 C 428.402344 -3.585938 485.398438 0.933594 424.644531 47.824219 "/>
<path style=" stroke:none;fill-rule:nonzero;fill:rgb(78.399658%,27.49939%,18.399048%);fill-opacity:1;" d="M 424.675781 47.796875 C 452.046875 7.914063 388.40625 20.308594 377.441406 25.601563 C 428.378906 -3.535156 485.234375 1.007813 424.675781 47.796875 "/>
<path style=" stroke:none;fill-rule:nonzero;fill:rgb(77.999878%,26.699829%,18.399048%);fill-opacity:1;" d="M 424.703125 47.785156 C 452.042969 7.90625 388.40625 20.300781 377.460938 25.578125 C 428.347656 -3.488281 485.066406 1.070313 424.703125 47.785156 "/>
<path style=" stroke:none;fill-rule:nonzero;fill:rgb(78.799438%,26.699829%,17.599487%);fill-opacity:1;" d="M 424.714844 47.75 C 452.042969 7.894531 388.402344 20.296875 377.496094 25.558594 C 428.320313 -3.449219 484.902344 1.144531 424.714844 47.75 "/>
<path style=" stroke:none;fill-rule:nonzero;fill:rgb(78.799438%,26.699829%,17.599487%);fill-opacity:1;" d="M 424.730469 47.730469 C 452.023438 7.882813 388.402344 20.296875 377.53125 25.558594 C 428.292969 -3.414063 484.726563 1.222656 424.730469 47.730469 "/>
<path style=" stroke:none;fill-rule:nonzero;fill:rgb(78.799438%,26.699829%,17.599487%);fill-opacity:1;" d="M 424.761719 47.695313 C 452.027344 7.882813 388.394531 20.296875 377.558594 25.546875 C 428.265625 -3.363281 484.539063 1.292969 424.761719 47.695313 "/>
<path style=" stroke:none;fill-rule:nonzero;fill:rgb(79.199219%,25.898743%,17.599487%);fill-opacity:1;" d="M 424.78125 47.679688 C 452.015625 7.847656 388.378906 20.296875 377.597656 25.523438 C 428.230469 -3.3125 484.375 1.359375 424.78125 47.679688 "/>
<path style=" stroke:none;fill-rule:nonzero;fill:rgb(80.39856%,25.898743%,17.599487%);fill-opacity:1;" d="M 424.804688 47.664063 C 452.015625 7.847656 388.371094 20.285156 377.632813 25.523438 C 428.199219 -3.285156 484.203125 1.4375 424.804688 47.664063 "/>
<path style=" stroke:none;fill-rule:nonzero;fill:rgb(80.39856%,25.898743%,17.298889%);fill-opacity:1;" d="M 424.832031 47.636719 C 452.003906 7.839844 388.371094 20.285156 377.664063 25.511719 C 428.171875 -3.234375 484.035156 1.503906 424.832031 47.636719 "/>
<path style=" stroke:none;fill-rule:nonzero;fill:rgb(80.39856%,24.299622%,17.298889%);fill-opacity:1;" d="M 424.847656 47.613281 C 452.003906 7.816406 388.367188 20.285156 377.691406 25.492188 C 428.144531 -3.207031 483.859375 1.5625 424.847656 47.613281 "/>
<path style=" stroke:none;fill-rule:nonzero;fill:rgb(80.799866%,24.299622%,16.899109%);fill-opacity:1;" d="M 424.871094 47.585938 C 452.003906 7.804688 388.351563 20.285156 377.722656 25.480469 C 428.121094 -3.160156 483.695313 1.644531 424.871094 47.585938 "/>
<path style=" stroke:none;fill-rule:nonzero;fill:rgb(80.799866%,24.299622%,16.899109%);fill-opacity:1;" d="M 424.898438 47.5625 C 452.003906 7.792969 388.351563 20.285156 377.761719 25.457031 C 428.082031 -3.109375 483.503906 1.703125 424.898438 47.5625 "/>
<path style=" stroke:none;fill-rule:nonzero;fill:rgb(81.599426%,25.099182%,17.298889%);fill-opacity:1;" d="M 424.921875 47.550781 C 451.992188 7.78125 388.347656 20.285156 377.808594 25.445313 C 428.054688 -3.070313 483.351563 1.777344 424.921875 47.550781 "/>
<path style=" stroke:none;fill-rule:nonzero;fill:rgb(81.599426%,25.099182%,16.499329%);fill-opacity:1;" d="M 424.945313 47.519531 C 451.992188 7.769531 388.34375 20.28125 377.828125 25.429688 C 428.027344 -3.019531 483.175781 1.855469 424.945313 47.519531 "/>
<path style=" stroke:none;fill-rule:nonzero;fill:rgb(81.999207%,23.498535%,16.499329%);fill-opacity:1;" d="M 424.964844 47.496094 C 451.988281 7.765625 388.335938 20.269531 377.863281 25.417969 C 427.992188 -2.984375 482.984375 1.914063 424.964844 47.496094 "/>
<path style=" stroke:none;fill-rule:nonzero;fill:rgb(81.999207%,23.498535%,16.499329%);fill-opacity:1;" d="M 424.980469 47.472656 C 451.988281 7.742188 388.316406 20.273438 377.914063 25.402344 C 427.972656 -2.949219 482.820313 2 424.980469 47.472656 "/>
<path style=" stroke:none;fill-rule:nonzero;fill:rgb(81.999207%,23.498535%,16.499329%);fill-opacity:1;" d="M 425.007813 47.464844 C 451.988281 7.742188 388.316406 20.273438 377.941406 25.390625 C 427.9375 -2.898438 482.660156 2.066406 425.007813 47.464844 "/>
<path style=" stroke:none;fill-rule:nonzero;fill:rgb(82.398987%,22.399902%,16.099548%);fill-opacity:1;" d="M 425.035156 47.4375 C 451.976563 7.726563 388.3125 20.269531 377.957031 25.378906 C 427.902344 -2.867188 482.472656 2.144531 425.035156 47.4375 "/>
<path style=" stroke:none;fill-rule:nonzero;fill:rgb(82.398987%,22.399902%,16.099548%);fill-opacity:1;" d="M 425.046875 47.414063 C 451.972656 7.714844 388.308594 20.269531 378.003906 25.359375 C 427.871094 -2.824219 482.300781 2.199219 425.046875 47.414063 "/>
<path style=" stroke:none;fill-rule:nonzero;fill:rgb(82.398987%,22.399902%,15.299988%);fill-opacity:1;" d="M 425.070313 47.386719 C 451.96875 7.699219 388.296875 20.269531 378.035156 25.347656 C 427.847656 -2.785156 482.136719 2.277344 425.070313 47.386719 "/>
<path style=" stroke:none;fill-rule:nonzero;fill:rgb(82.398987%,21.998596%,15.299988%);fill-opacity:1;" d="M 425.097656 47.371094 C 451.964844 7.691406 388.289063 20.269531 378.070313 25.324219 C 427.816406 -2.730469 481.960938 2.339844 425.097656 47.371094 "/>
<path style=" stroke:none;fill-rule:nonzero;fill:rgb(82.398987%,21.998596%,15.299988%);fill-opacity:1;" d="M 425.132813 47.351563 C 451.964844 7.675781 388.285156 20.265625 378.089844 25.324219 C 427.789063 -2.695313 481.785156 2.410156 425.132813 47.351563 "/>
<path style=" stroke:none;fill-rule:nonzero;fill:rgb(83.099365%,21.998596%,14.498901%);fill-opacity:1;" d="M 425.140625 47.320313 C 451.941406 7.660156 388.285156 20.261719 378.136719 25.300781 C 427.765625 -2.652344 481.621094 2.488281 425.140625 47.320313 "/>
<path style=" stroke:none;fill-rule:nonzero;fill:rgb(83.099365%,21.998596%,14.498901%);fill-opacity:1;" d="M 425.164063 47.285156 C 451.941406 7.660156 388.273438 20.261719 378.179688 25.28125 C 427.722656 -2.609375 481.449219 2.550781 425.164063 47.285156 "/>
<path style=" stroke:none;fill-rule:nonzero;fill:rgb(82.699585%,20.799255%,14.498901%);fill-opacity:1;" d="M 425.1875 47.285156 C 451.941406 7.636719 388.273438 20.261719 378.203125 25.28125 C 427.699219 -2.570313 481.273438 2.621094 425.1875 47.285156 "/>
<path style=" stroke:none;fill-rule:nonzero;fill:rgb(83.499146%,20.799255%,14.498901%);fill-opacity:1;" d="M 425.207031 47.253906 C 451.941406 7.636719 388.273438 20.257813 378.234375 25.253906 C 427.667969 -2.519531 481.097656 2.699219 425.207031 47.253906 "/>
<path style=" stroke:none;fill-rule:nonzero;fill:rgb(83.898926%,20.799255%,14.498901%);fill-opacity:1;" d="M 425.242188 47.226563 C 451.9375 7.617188 388.257813 20.265625 378.273438 25.246094 C 427.636719 -2.484375 480.9375 2.765625 425.242188 47.226563 "/>
<path style=" stroke:none;fill-rule:nonzero;fill:rgb(83.898926%,20.799255%,14.498901%);fill-opacity:1;" d="M 425.253906 47.203125 C 451.933594 7.605469 388.25 20.257813 378.300781 25.230469 C 427.617188 -2.449219 480.761719 2.832031 425.253906 47.203125 "/>
<path style=" stroke:none;fill-rule:nonzero;fill:rgb(83.898926%,19.198608%,13.699341%);fill-opacity:1;" d="M 425.28125 47.179688 C 451.929688 7.59375 388.25 20.257813 378.351563 25.21875 C 427.578125 -2.394531 480.582031 2.910156 425.28125 47.179688 "/>
<path style=" stroke:none;fill-rule:nonzero;fill:rgb(85.099792%,19.198608%,13.699341%);fill-opacity:1;" d="M 425.300781 47.164063 C 451.925781 7.582031 388.230469 20.257813 378.371094 25.207031 C 427.550781 -2.359375 480.414063 2.984375 425.300781 47.164063 "/>
<path style=" stroke:none;fill-rule:nonzero;fill:rgb(85.099792%,19.198608%,13.699341%);fill-opacity:1;" d="M 425.328125 47.148438 C 451.910156 7.5625 388.222656 20.257813 378.40625 25.1875 C 427.523438 -2.316406 480.238281 3.042969 425.328125 47.148438 "/>
<path style=" stroke:none;fill-rule:nonzero;fill:rgb(85.099792%,19.198608%,13.699341%);fill-opacity:1;" d="M 425.339844 47.109375 C 451.910156 7.554688 388.222656 20.257813 378.433594 25.179688 C 427.496094 -2.277344 480.0625 3.121094 425.339844 47.109375 "/>
<path style=" stroke:none;fill-rule:nonzero;fill:rgb(85.099792%,19.198608%,13.699341%);fill-opacity:1;" d="M 425.367188 47.097656 C 451.902344 7.539063 388.21875 20.257813 378.472656 25.164063 C 427.46875 -2.230469 479.902344 3.195313 425.367188 47.097656 "/>
<path style=" stroke:none;fill-rule:nonzero;fill:rgb(85.499573%,17.999268%,13.699341%);fill-opacity:1;" d="M 425.390625 47.074219 C 451.90625 7.53125 388.214844 20.261719 378.503906 25.148438 C 427.417969 -2.179688 479.730469 3.257813 425.390625 47.074219 "/>
<path style=" stroke:none;fill-rule:nonzero;fill:rgb(85.499573%,17.999268%,13.699341%);fill-opacity:1;" d="M 425.425781 47.054688 C 451.898438 7.523438 388.199219 20.246094 378.539063 25.125 C 427.402344 -2.15625 479.554688 3.351563 425.425781 47.054688 "/>
<path style=" stroke:none;fill-rule:nonzero;fill:rgb(85.499573%,17.999268%,13.699341%);fill-opacity:1;" d="M 425.433594 47.042969 C 451.898438 7.503906 388.195313 20.246094 378.5625 25.125 C 427.371094 -2.109375 479.375 3.40625 425.433594 47.042969 "/>
<path style=" stroke:none;fill-rule:nonzero;fill:rgb(85.899353%,16.899109%,13.699341%);fill-opacity:1;" d="M 425.449219 47.019531 C 451.886719 7.5 388.191406 20.246094 378.609375 25.089844 C 427.347656 -2.058594 479.214844 3.46875 425.449219 47.019531 "/>
<path style=" stroke:none;fill-rule:nonzero;fill:rgb(85.899353%,16.899109%,13.699341%);fill-opacity:1;" d="M 425.480469 46.988281 C 451.886719 7.488281 388.191406 20.246094 378.640625 25.082031 C 427.3125 -2.023438 479.042969 3.550781 425.480469 46.988281 "/>
<path style=" stroke:none;fill-rule:nonzero;fill:rgb(86.698914%,16.899109%,13.699341%);fill-opacity:1;" d="M 425.507813 46.964844 C 451.886719 7.476563 388.183594 20.242188 378.671875 25.082031 C 427.285156 -1.980469 478.859375 3.605469 425.507813 46.964844 "/>
<path style=" stroke:none;fill-rule:nonzero;fill:rgb(87.098694%,16.899109%,13.699341%);fill-opacity:1;" d="M 425.527344 46.9375 C 451.875 7.457031 388.175781 20.242188 378.703125 25.058594 C 427.257813 -1.9375 478.6875 3.691406 425.527344 46.9375 "/>
<path style=" stroke:none;fill-rule:nonzero;fill:rgb(87.098694%,16.899109%,13.699341%);fill-opacity:1;" d="M 425.558594 46.921875 C 451.875 7.453125 388.167969 20.246094 378.738281 25.046875 C 427.222656 -1.890625 478.527344 3.761719 425.558594 46.921875 "/>
<path style=" stroke:none;fill-rule:nonzero;fill:rgb(87.098694%,15.299988%,14.099121%);fill-opacity:1;" d="M 425.566406 46.875 C 451.871094 7.445313 388.167969 20.246094 378.78125 25.039063 C 427.195313 -1.851563 478.34375 3.804688 425.566406 46.875 "/>
<path style=" stroke:none;fill-rule:nonzero;fill:rgb(87.5%,14.498901%,14.099121%);fill-opacity:1;" d="M 425.585938 46.875 C 451.871094 7.429688 388.164063 20.234375 378.800781 25.007813 C 427.167969 -1.8125 478.179688 3.898438 425.585938 46.875 "/>
<path style=" stroke:none;fill-rule:nonzero;fill:rgb(87.5%,12.89978%,14.099121%);fill-opacity:1;" d="M 425.621094 46.855469 C 451.871094 7.40625 388.144531 20.230469 378.84375 25.007813 C 427.136719 -1.769531 478.007813 3.964844 425.621094 46.855469 "/>
<path style=" stroke:none;fill-rule:nonzero;fill:rgb(87.799072%,12.5%,13.699341%);fill-opacity:1;" d="M 425.636719 46.820313 C 451.855469 7.40625 388.140625 20.230469 378.871094 24.988281 C 427.097656 -1.71875 477.820313 4.039063 425.636719 46.820313 "/>
<path style=" stroke:none;fill-rule:nonzero;fill:rgb(87.799072%,12.5%,13.699341%);fill-opacity:1;" d="M 425.667969 46.800781 C 451.855469 7.382813 388.140625 20.230469 378.902344 24.980469 C 427.085938 -1.6875 477.664063 4.109375 425.667969 46.800781 "/>
<path style=" stroke:none;fill-rule:nonzero;fill:rgb(87.799072%,12.5%,14.498901%);fill-opacity:1;" d="M 425.683594 46.777344 C 451.855469 7.371094 388.136719 20.230469 378.945313 24.964844 C 427.050781 -1.644531 477.480469 4.167969 425.683594 46.777344 "/>
<path style=" stroke:none;fill-rule:nonzero;fill:rgb(87.5%,10.998535%,14.099121%);fill-opacity:1;" d="M 425.707031 46.753906 C 451.84375 7.371094 388.117188 20.230469 378.988281 24.960938 C 427.007813 -1.597656 477.300781 4.25 425.707031 46.753906 "/>
<path style=" stroke:none;fill-rule:nonzero;fill:rgb(87.5%,10.998535%,14.099121%);fill-opacity:1;" d="M 425.734375 46.738281 C 451.84375 7.351563 388.113281 20.230469 379.015625 24.941406 C 426.980469 -1.566406 477.152344 4.316406 425.734375 46.738281 "/>
<path style=" stroke:none;fill-rule:nonzero;fill:rgb(88.198853%,10.998535%,14.099121%);fill-opacity:1;" d="M 379.03125 24.925781 C 426.945313 -1.503906 476.972656 4.382813 425.75 46.710938 C 451.84375 7.339844 388.113281 20.214844 379.03125 24.925781 "/>
<path style=" stroke:none;fill-rule:nonzero;fill:rgb(100%,100%,100%);fill-opacity:1;" d="M 462.113281 13.265625 C 467.089844 4.503906 458.652344 2.015625 447.351563 1.824219 C 456.777344 2.644531 463.4375 7.183594 462.113281 13.265625 "/>
<g clip-path="url(#clip2)" clip-rule="nonzero">
<path style=" stroke:none;fill-rule:nonzero;fill:rgb(0%,0%,0%);fill-opacity:1;" d="M 261.738281 54.257813 L 261.738281 46.875 C 261.738281 38.6875 256.382813 34.027344 244.875 34.027344 L 209.109375 34.027344 L 209.109375 43.664063 L 237.832031 43.664063 C 240.734375 43.664063 241.765625 44.605469 241.765625 46.800781 L 241.765625 47.136719 L 218.839844 47.136719 C 209.160156 47.136719 205.914063 51.261719 205.914063 56.511719 L 205.914063 57.683594 C 205.914063 60.066406 206.65625 62.085938 208.03125 63.417969 C 210.808594 66.097656 216.226563 66.910156 223.527344 66.910156 L 243.386719 66.910156 C 256.339844 66.910156 261.738281 63.902344 261.738281 54.257813 M 238.773438 57.351563 L 227.980469 57.351563 C 226.136719 57.351563 224.996094 56.804688 224.996094 55.359375 C 224.996094 53.886719 225.671875 52.980469 227.980469 52.980469 L 241.769531 52.980469 L 241.769531 54.242188 C 241.769531 56.105469 241.027344 57.351563 238.773438 57.351563 "/>
</g>
<g clip-path="url(#clip3)" clip-rule="nonzero">
<path style=" stroke:none;fill-rule:nonzero;fill:rgb(0%,0%,0%);fill-opacity:1;" d="M 300.566406 48.074219 L 300.566406 53.804688 C 300.566406 61.984375 305.929688 66.625 317.425781 66.625 L 354.023438 66.625 L 354.023438 57.078125 L 324.472656 57.078125 C 321.570313 57.078125 320.539063 56.191406 320.539063 54.003906 L 320.539063 53.675781 L 343.464844 53.675781 C 351.617188 53.675781 356.464844 50.953125 356.464844 44.832031 L 356.464844 43.519531 C 356.464844 38.132813 353.394531 34.007813 339.425781 34.007813 L 318.914063 34.007813 C 305.960938 34.007813 300.566406 38.414063 300.566406 48.074219 M 323.546875 43.507813 L 334.464844 43.507813 C 336.3125 43.507813 337.511719 44.175781 337.511719 45.601563 C 337.511719 47.074219 336.890625 47.882813 334.585938 47.882813 L 320.535156 47.882813 L 320.535156 46.621094 C 320.535156 44.753906 321.277344 43.507813 323.546875 43.507813 "/>
</g>
<g clip-path="url(#clip4)" clip-rule="nonzero">
<path style=" stroke:none;fill-rule:nonzero;fill:rgb(0%,0%,0%);fill-opacity:1;" d="M 298.429688 34.695313 L 272.753906 34.695313 C 268.632813 34.695313 266.046875 36.898438 266.046875 40.453125 L 266.046875 66.65625 L 285.949219 66.65625 L 285.949219 44.539063 L 298.429688 44.539063 "/>
</g>
<g clip-path="url(#clip5)" clip-rule="nonzero">
<path style=" stroke:none;fill-rule:nonzero;fill:rgb(0%,0%,0%);fill-opacity:1;" d="M 187.617188 28.773438 L 167.628906 28.773438 L 167.628906 66.617188 L 203.023438 66.617188 L 203.035156 56.753906 L 187.617188 56.753906 "/>
</g>
<g clip-path="url(#clip6)" clip-rule="nonzero">
<path style=" stroke:none;fill-rule:nonzero;fill:rgb(0%,0%,0%);fill-opacity:1;" d="M 162.84375 44.546875 L 136.609375 44.546875 C 133.816406 44.546875 131.617188 46.257813 131.617188 50.519531 C 131.617188 55.382813 134.25 56.800781 136.785156 56.800781 L 163.1875 56.800781 L 163.1875 66.644531 L 130.9375 66.644531 C 117.316406 66.644531 111.472656 62.402344 111.472656 51.863281 L 111.472656 49.507813 C 111.472656 40.542969 116.960938 34.695313 130.308594 34.695313 L 162.84375 34.695313 "/>
</g>
<g clip-path="url(#clip7)" clip-rule="nonzero">
<path style=" stroke:none;fill-rule:nonzero;fill:rgb(0%,0%,0%);fill-opacity:1;" d="M 66.34375 66.644531 L 87.40625 47.429688 L 87.402344 66.644531 L 107.414063 66.644531 L 107.414063 28.785156 L 95.722656 28.785156 C 90.902344 28.785156 87.5 30.816406 84.226563 33.652344 C 80.558594 36.84375 67.351563 48.304688 67.351563 48.304688 L 67.351563 28.785156 L 55.574219 28.785156 C 48.902344 28.785156 45.5625 31.066406 41.835938 33.984375 C 39.257813 36.011719 0 66.644531 0 66.644531 L 23.78125 66.644531 L 47.296875 47.296875 L 47.296875 66.644531 "/>
</g>
<g clip-path="url(#clip8)" clip-rule="nonzero">
<path style=" stroke:none;fill-rule:nonzero;fill:rgb(0%,0%,0%);fill-opacity:1;" d="M 360.304688 66.613281 L 360.304688 34.464844 L 391.984375 34.464844 C 408.085938 34.464844 413.660156 37.640625 413.660156 48.949219 L 413.660156 66.613281 L 393.660156 66.613281 L 393.660156 52.257813 C 393.660156 48.503906 391.589844 45.03125 385.644531 45.03125 L 380.300781 45.03125 L 380.300781 66.613281 "/>
</g>
</g>
</svg>
