<?xml version="1.0" encoding="utf-8"?><svg version="1.1" id="Layer_1" xmlns="http://www.w3.org/2000/svg" xmlns:xlink="http://www.w3.org/1999/xlink" x="0px" y="0px" viewBox="0 0 122.88 122.88" style="enable-background:new 0 0 122.88 122.88" xml:space="preserve"><style type="text/css"><![CDATA[
	.st0{fill-rule:evenodd;clip-rule:evenodd;}
]]></style><g><path fill="#d42529" class="st0" d="M88.53,0H34.91L0,34.91v53.2l34.63,34.77h53.34l34.91-34.91V34.63L88.53,0L88.53,0z M112.27,83.22 l-29.04,29.04H39.66L10.61,83.36V39.66l29.04-28.9h44.13l28.49,28.63V83.22L112.27,83.22L112.27,83.22z"/><path fill="#d42529" class="st0" d="M35.35,47.48l-7.4-15.08L16.92,42.73v37l10.61,10.75V54.46l9.22,20.53l10.47-27.37v57.39h11.73V17.59H46.52 L35.35,47.48L35.35,47.48z M67.15,17.59v87.41h13.41l25.41-25.27V61.3H86.42v10.61h7.26c1.96-0.28,2.09,1.96,0.7,3.63 c-1.4,1.68-15.5,15.5-15.5,15.5V31.56l16.48,17.17v4.19h10.61v-9.77L80.83,17.59H67.15L67.15,17.59z"/></g></svg>