<?xml version="1.0" encoding="iso-8859-1"?>
<!-- Generator: Adobe Illustrator 23.0.1, SVG Export Plug-In . SVG Version: 6.00 Build 0)  -->
<svg version="1.1" id="Layer_1" xmlns="http://www.w3.org/2000/svg" xmlns:xlink="http://www.w3.org/1999/xlink" x="0px" y="0px"
	 viewBox="0 0 512 512" style="enable-background:new 0 0 512 512;" xml:space="preserve">
<g>
	<path style="fill:#231F20;" d="M240.107,442.787l-47.457-0.022c-0.585,0-1.058,0.472-1.058,1.057v24.495
		c0,0.975-0.773,1.744-1.744,1.744h-28.674c-0.966,0-1.739-0.769-1.739-1.744v-85.447c0-0.577,0.45-1.053,1.049-1.053h79.622
		c16.734,0,28.844,8.867,28.844,30.483C268.951,433.924,256.841,442.787,240.107,442.787L240.107,442.787z M227.669,423.729
		c6.346,0,10.952-3.23,10.952-11.428c0-8.19-4.606-11.446-10.952-11.446l-35.019-0.017c-0.585,0-1.058,0.472-1.058,1.053v20.802
		c0,0.581,0.472,1.058,1.058,1.058L227.669,423.729L227.669,423.729z M385.16,383.587c0-0.97,0.778-1.77,1.744-1.77h28.678
		c0.966,0,1.739,0.8,1.739,1.77v66.406c0,0.581,0.477,1.049,1.053,1.049h60.882c0.966,0,1.743,0.8,1.743,1.765v15.51
		c0,0.975-0.778,1.744-1.743,1.744h-93.038c-0.608,0-1.058-0.472-1.058-1.049V383.587L385.16,383.587z M374.619,381.818
		c0.97,0,1.744,0.8,1.744,1.77v15.506c0,0.97-0.773,1.744-1.744,1.744h-65.934c-0.581,0-1.053,0.472-1.053,1.053v13.487
		c0,0.581,0.472,1.057,1.053,1.057h51.307c0.966,0,1.761,0.795,1.761,1.766v15.506c0,0.97-0.796,1.743-1.761,1.743h-51.307
		c-0.581,0-1.053,0.477-1.053,1.058v13.487c0,0.581,0.472,1.049,1.053,1.049h65.934c0.97,0,1.744,0.8,1.744,1.765v15.51
		c0,0.975-0.773,1.744-1.744,1.744h-98.117c-0.577,0-1.053-0.472-1.053-1.049v-86.142c0-0.577,0.476-1.053,1.053-1.053H374.619
		L374.619,381.818z M123.224,469.83c-23.398,2.683-43.646,2.561-64.964,0c-9.641-1.468-22.048-7.084-25.103-19.255
		c-3.055-12.202-2.692-36.291,0-49.699c3.055-12.171,15.423-17.896,25.103-19.059c21.318-2.556,41.566-2.666,64.964,0
		c9.684,1.123,22.052,6.888,25.111,19.059c2.661,13.408,3.033,37.497,0,49.699C145.276,462.746,132.843,468.362,123.224,469.83
		L123.224,469.83z M108.702,449.649c4.929-0.752,9.877-4.135,11.428-10.371c0.839-3.352,0.795-23.162,0-27.148
		c-1.552-6.219-6.542-8.968-11.428-9.554c-11.975-1.377-24.627-1.311-35.557,0c-4.942,0.586-9.872,3.334-11.441,9.554
		c-0.795,3.986-0.839,23.796,0,27.148c1.569,6.236,6.52,9.619,11.441,10.371C84.075,450.959,96.727,451.025,108.702,449.649
		L108.702,449.649z M112.495,170.843l-42.296-1.818v-24.622l46.08-0.437c14.544-59.558,68.259-103.763,132.301-103.763
		c75.182,0,136.169,60.965,136.169,136.169c0,2.068-0.065,4.143-0.144,6.197l41.989,1.818v24.128L380.812,209
		c-14.623,59.448-68.272,103.536-132.231,103.536c-75.208,0-136.173-60.965-136.173-136.165
		C112.408,174.523,112.43,172.674,112.495,170.843L112.495,170.843z M128.11,171.477c-0.066,1.639-0.088,3.251-0.088,4.894
		c0,66.572,53.977,120.558,120.558,120.558c55.197,0,101.753-37.121,116.039-87.76l-193.507,2.019l46.574-35.827L128.11,171.477
		L128.11,171.477z M132.48,143.804l194.639-1.84l-47.518,36.076l89.403,3.85c0.087-1.831,0.131-3.675,0.131-5.52
		c0-66.576-53.977-120.553-120.554-120.553C193.293,55.818,146.701,93.046,132.48,143.804L132.48,143.804z"/>
</g>
</svg>
