<?xml version="1.0" encoding="UTF-8"?>
<svg xmlns="http://www.w3.org/2000/svg" xmlns:xlink="http://www.w3.org/1999/xlink" width="249.45pt" height="280.33pt" viewBox="0 0 249.45 280.33" version="1.1">
<defs>
<clipPath id="clip1">
  <path d="M 0 0 L 249.449219 0 L 249.449219 280.328125 L 0 280.328125 Z M 0 0 "/>
</clipPath>
</defs>
<g id="surface1">
<path style=" stroke:none;fill-rule:nonzero;fill:rgb(0%,3.529358%,32.151794%);fill-opacity:1;" d="M 1.507813 79.734375 C -1.503906 50.988281 9.429688 44.5 19.132813 35.882813 C 42.363281 23.128906 80.34375 8.046875 102.433594 3.609375 C 128.3125 -1.59375 141.324219 2.160156 149.867188 4.65625 C 175.691406 12.203125 197.46875 17.988281 228.546875 33.425781 C 248.199219 43.546875 249.773438 59.996094 247.808594 77.683594 C 221.386719 188.363281 182.730469 226.039063 151.910156 265.382813 C 136.605469 280.1875 120.183594 287.421875 99.457031 265.382813 C 71.335938 233.160156 43.082031 203.453125 17.082031 130.960938 C 12.335938 117.207031 8.300781 108.804688 1.507813 79.734375 "/>
<g clip-path="url(#clip1)" clip-rule="nonzero">
<path style="fill:none;stroke-width:20;stroke-linecap:butt;stroke-linejoin:miter;stroke:rgb(100%,74.021912%,0%);stroke-opacity:1;stroke-miterlimit:4;" d="M 15.078125 2005.95625 C -15.039063 2293.417187 94.296875 2358.3 191.328125 2444.471875 C 423.632813 2572.010937 803.4375 2722.83125 1024.335938 2767.20625 C 1283.125 2819.2375 1413.242188 2781.698437 1498.671875 2756.7375 C 1756.914063 2681.26875 1974.6875 2623.417187 2285.46875 2469.042187 C 2481.992188 2367.83125 2497.734375 2203.339062 2478.085938 2026.464062 C 2213.867188 919.667187 1827.304688 542.909375 1519.101563 149.471875 C 1366.054688 1.425 1201.835938 -70.91875 994.570313 149.471875 C 713.359375 471.698437 430.820313 768.76875 170.820313 1493.690625 C 123.359375 1631.229687 83.007813 1715.253125 15.078125 2005.95625 Z M 15.078125 2005.95625 " transform="matrix(0.1,0,0,-0.1,0,280.33)"/>
</g>
<path style=" stroke:none;fill-rule:nonzero;fill:rgb(4.704285%,43.138123%,5.099487%);fill-opacity:1;" d="M 125.132813 70.90625 C 99.566406 69.953125 55.101563 89.050781 54.644531 141.390625 C 57.007813 176.78125 78.785156 209.878906 124.3125 211.882813 C 157.945313 212.03125 191.550781 194.367188 197.261719 144.671875 C 200.027344 95.363281 156.949219 68.496094 125.132813 70.90625 "/>
<path style="fill:none;stroke-width:20;stroke-linecap:butt;stroke-linejoin:miter;stroke:rgb(100%,74.021912%,0%);stroke-opacity:1;stroke-miterlimit:4;" d="M 1251.328125 2094.2375 C 995.664063 2103.76875 551.015625 1912.792187 546.445313 1389.39375 C 570.078125 1035.4875 787.851563 704.510937 1243.125 684.471875 C 1579.453125 682.9875 1915.507813 859.628125 1972.617188 1356.58125 C 2000.273438 1849.667187 1569.492188 2118.339062 1251.328125 2094.2375 Z M 1251.328125 2094.2375 " transform="matrix(0.1,0,0,-0.1,0,280.33)"/>
<path style=" stroke:none;fill-rule:nonzero;fill:rgb(100%,74.021912%,0%);fill-opacity:1;" d="M 21.039063 58.199219 L 27.597656 77.050781 L 33.335938 75.003906 L 30.875 67.625 L 27.1875 59.839844 L 42.761719 54.921875 C 47.28125 53.753906 47.457031 57.917969 45.21875 59.019531 L 29.648438 64.757813 L 30.875 68.035156 L 48.089844 62.300781 C 53.628906 55.980469 49.824219 49.878906 42.761719 50.824219 "/>
<path style="fill:none;stroke-width:10;stroke-linecap:butt;stroke-linejoin:miter;stroke:rgb(100%,74.021912%,0%);stroke-opacity:1;stroke-miterlimit:4;" d="M 210.390625 2221.307812 L 275.976563 2032.792187 L 333.359375 2053.260937 L 308.75 2127.05 L 271.875 2204.901562 L 427.617188 2254.08125 C 472.8125 2265.760937 474.570313 2224.120312 452.1875 2213.104687 L 296.484375 2155.721875 L 308.75 2122.948437 L 480.898438 2180.292187 C 536.289063 2243.495312 498.242188 2304.510937 427.617188 2295.057812 Z M 210.390625 2221.307812 " transform="matrix(0.1,0,0,-0.1,0,280.33)"/>
<path style=" stroke:none;fill-rule:nonzero;fill:rgb(100%,74.021912%,0%);fill-opacity:1;" d="M 54.953125 46.929688 L 59.253906 65.886719 L 64.683594 64.859375 L 61.40625 49.285156 L 74.726563 46.316406 C 81.363281 45.695313 79.214844 51.402344 76.367188 51.335938 L 62.429688 54.203125 L 63.046875 57.585938 L 74.214844 56.152344 L 82.101563 61.785156 L 89.070313 59.324219 L 79.234375 54 C 83.597656 52.453125 87.105469 43.921875 78.824219 41.808594 "/>
<path style="fill:none;stroke-width:10;stroke-linecap:butt;stroke-linejoin:miter;stroke:rgb(100%,74.021912%,0%);stroke-opacity:1;stroke-miterlimit:4;" d="M 549.53125 2334.003125 L 592.539063 2144.432812 L 646.835938 2154.70625 L 614.0625 2310.448437 L 747.265625 2340.135937 C 813.632813 2346.346875 792.148438 2289.276562 763.671875 2289.940625 L 624.296875 2261.26875 L 630.46875 2227.440625 L 742.148438 2241.776562 L 821.015625 2185.448437 L 890.703125 2210.057812 L 792.34375 2263.3 C 835.976563 2278.76875 871.054688 2364.08125 788.242188 2385.214062 Z M 549.53125 2334.003125 " transform="matrix(0.1,0,0,-0.1,0,280.33)"/>
<path style=" stroke:none;fill-rule:nonzero;fill:rgb(100%,74.021912%,0%);fill-opacity:1;" d="M 90.605469 45.804688 L 95.625 45.90625 C 96.035156 48.835938 93.851563 54.019531 99.804688 54.03125 C 101.402344 54.035156 104.789063 53.910156 107.101563 54.410156 L 113.246094 54.410156 C 118.386719 54.546875 117.808594 51.671875 117.960938 49.183594 L 117.960938 45.597656 C 117.40625 43.867188 116.84375 42.140625 113.351563 42.011719 L 100.238281 42.011719 C 98.191406 42.253906 96.132813 42.46875 95.421875 45.90625 L 91.117188 45.804688 C 90.453125 42.105469 96.644531 38.453125 98.496094 38.222656 L 115.914063 38.222656 C 122.800781 39.898438 122.585938 44.417969 122.675781 43.652344 L 122.675781 50.925781 C 122.023438 54.53125 120.058594 57.28125 114.785156 57.894531 L 98.597656 58.097656 C 93.347656 57.578125 92.09375 55.117188 90.8125 52.566406 "/>
<path style="fill:none;stroke-width:10;stroke-linecap:butt;stroke-linejoin:miter;stroke:rgb(100%,74.021912%,0%);stroke-opacity:1;stroke-miterlimit:4;" d="M 906.054688 2345.253125 L 956.25 2344.2375 C 960.351563 2314.940625 938.515625 2263.104687 998.046875 2262.9875 C 1014.023438 2262.948437 1047.890625 2264.198437 1071.015625 2259.198437 L 1132.460938 2259.198437 C 1183.867188 2257.83125 1178.085938 2286.58125 1179.609375 2311.464062 L 1179.609375 2347.323437 C 1174.0625 2364.628125 1168.4375 2381.89375 1133.515625 2383.182812 L 1002.382813 2383.182812 C 981.914063 2380.760937 961.328125 2378.6125 954.21875 2344.2375 L 911.171875 2345.253125 C 904.53125 2382.245312 966.445313 2418.76875 984.960938 2421.073437 L 1159.140625 2421.073437 C 1228.007813 2404.315625 1225.859375 2359.120312 1226.757813 2366.776562 L 1226.757813 2294.042187 C 1220.234375 2257.9875 1200.585938 2230.4875 1147.851563 2224.354687 L 985.976563 2222.323437 C 933.476563 2227.51875 920.9375 2252.128125 908.125 2277.635937 Z M 906.054688 2345.253125 " transform="matrix(0.1,0,0,-0.1,0,280.33)"/>
<path style=" stroke:none;fill-rule:nonzero;fill:rgb(100%,74.021912%,0%);fill-opacity:1;" d="M 127.183594 38.222656 L 127.183594 42.320313 L 138.65625 42.21875 L 138.761719 58.710938 L 143.78125 58.710938 L 143.675781 42.320313 L 156.484375 42.421875 L 156.484375 38.632813 "/>
<path style="fill:none;stroke-width:10;stroke-linecap:butt;stroke-linejoin:miter;stroke:rgb(100%,74.021912%,0%);stroke-opacity:1;stroke-miterlimit:4;" d="M 1271.835938 2421.073437 L 1271.835938 2380.096875 L 1386.5625 2381.1125 L 1387.617188 2216.190625 L 1437.8125 2216.190625 L 1436.757813 2380.096875 L 1564.84375 2379.08125 L 1564.84375 2416.971875 Z M 1271.835938 2421.073437 " transform="matrix(0.1,0,0,-0.1,0,280.33)"/>
<path style=" stroke:none;fill-rule:nonzero;fill:rgb(100%,74.021912%,0%);fill-opacity:1;" d="M 159.753906 46.726563 L 164.679688 47.703125 C 164.566406 50.664063 161.515625 55.386719 167.375 56.433594 C 168.945313 56.714844 172.300781 57.1875 174.492188 58.082031 L 180.546875 59.15625 C 185.578125 60.183594 185.511719 57.253906 186.097656 54.832031 L 186.722656 51.300781 C 186.476563 49.5 186.226563 47.703125 182.8125 46.964844 L 169.898438 44.675781 C 167.84375 44.558594 165.777344 44.40625 164.476563 47.667969 L 160.257813 46.816406 C 160.246094 43.058594 166.980469 40.546875 168.84375 40.640625 L 185.996094 43.679688 C 192.484375 46.535156 191.480469 50.949219 191.703125 50.207031 L 190.433594 57.371094 C 189.164063 60.808594 186.746094 63.171875 181.449219 62.851563 L 165.476563 60.226563 C 160.398438 58.800781 159.589844 56.160156 158.773438 53.421875 "/>
<path style="fill:none;stroke-width:10;stroke-linecap:butt;stroke-linejoin:miter;stroke:rgb(100%,74.021912%,0%);stroke-opacity:1;stroke-miterlimit:4;" d="M 1597.539063 2336.034375 L 1646.796875 2326.26875 C 1645.664063 2296.659375 1615.15625 2249.432812 1673.75 2238.964062 C 1689.453125 2236.151562 1723.007813 2231.425 1744.921875 2222.479687 L 1805.46875 2211.7375 C 1855.78125 2201.464062 1855.117188 2230.760937 1860.976563 2254.979687 L 1867.226563 2290.292187 C 1864.765625 2308.3 1862.265625 2326.26875 1828.125 2333.651562 L 1698.984375 2356.542187 C 1678.4375 2357.714062 1657.773438 2359.2375 1644.765625 2326.620312 L 1602.578125 2335.135937 C 1602.460938 2372.714062 1669.804688 2397.83125 1688.4375 2396.89375 L 1859.960938 2366.503125 C 1924.84375 2337.948437 1914.804688 2293.807812 1917.03125 2301.229687 L 1904.335938 2229.589062 C 1891.640625 2195.214062 1867.460938 2171.58125 1814.492188 2174.784375 L 1654.765625 2201.034375 C 1603.984375 2215.292187 1595.898438 2241.698437 1587.734375 2269.08125 Z M 1597.539063 2336.034375 " transform="matrix(0.1,0,0,-0.1,0,280.33)"/>
<path style=" stroke:none;fill-rule:nonzero;fill:rgb(100%,74.021912%,0%);fill-opacity:1;" d="M 193.980469 65.578125 L 199.207031 67.421875 L 203.816406 54.613281 L 220.210938 76.027344 L 224.308594 77.050781 L 230.867188 58.199219 L 226.152344 56.460938 L 221.03125 70.390625 L 204.84375 48.261719 L 200.230469 47.136719 "/>
<path style="fill:none;stroke-width:10;stroke-linecap:butt;stroke-linejoin:miter;stroke:rgb(100%,74.021912%,0%);stroke-opacity:1;stroke-miterlimit:4;" d="M 1939.804688 2147.51875 L 1992.070313 2129.08125 L 2038.164063 2257.167187 L 2202.109375 2043.026562 L 2243.085938 2032.792187 L 2308.671875 2221.307812 L 2261.523438 2238.690625 L 2210.3125 2099.39375 L 2048.4375 2320.682812 L 2002.304688 2331.932812 Z M 1939.804688 2147.51875 " transform="matrix(0.1,0,0,-0.1,0,280.33)"/>
<path style=" stroke:none;fill-rule:nonzero;fill:rgb(100%,74.021912%,0%);fill-opacity:1;" d="M 77.1875 100.007813 C 93.628906 80.476563 109.3125 79.816406 125 79.140625 C 115.136719 84.453125 109.882813 89.769531 106.164063 95.078125 C 115.921875 92.554688 125.675781 90.171875 135.433594 92.183594 C 159.289063 99.472656 171.226563 114.097656 185.566406 127.246094 C 178.839844 125.929688 173.371094 125.871094 168.179688 126.085938 C 175.660156 131.101563 182.757813 136.035156 186.433594 140.285156 C 179.058594 156.789063 173.863281 155.859375 167.886719 161.152344 L 170.785156 151.589844 C 167.929688 149.285156 164.5625 148.003906 160.933594 147.242188 C 158.710938 145.296875 156.488281 146.46875 154.269531 147.53125 C 127.640625 155 130.246094 161.675781 131.375 168.394531 C 134.648438 172.839844 138.164063 177.28125 142.964844 181.722656 C 144.34375 182.734375 145.757813 183.675781 147.894531 183.171875 L 154.269531 179.40625 C 151.035156 190.480469 145.050781 200.425781 125 204.617188 C 114.59375 168.78125 85.660156 160.253906 61.539063 144.632813 C 76.164063 141.914063 90.28125 144.277344 104.136719 149.269531 C 94.617188 136.769531 80.132813 128.527344 65.304688 120.582031 C 79.503906 120.988281 93.703125 121.59375 107.902344 129.566406 C 101.394531 117.472656 91.417969 107.464844 77.1875 100.007813 "/>
<path style="fill:none;stroke-width:10;stroke-linecap:butt;stroke-linejoin:miter;stroke:rgb(100%,74.021912%,0%);stroke-opacity:1;stroke-miterlimit:4;" d="M 771.875 1803.221875 C 936.289063 1998.534375 1093.125 2005.135937 1250 2011.89375 C 1151.367188 1958.76875 1098.828125 1905.604687 1061.640625 1852.51875 C 1159.21875 1877.753125 1256.757813 1901.58125 1354.335938 1881.464062 C 1592.890625 1808.573437 1712.265625 1662.323437 1855.664063 1530.839062 C 1788.398438 1544.003125 1733.710938 1544.589062 1681.796875 1542.440625 C 1756.601563 1492.284375 1827.578125 1442.948437 1864.335938 1400.448437 C 1790.585938 1235.409375 1738.632813 1244.70625 1678.867188 1191.776562 L 1707.851563 1287.401562 C 1679.296875 1310.448437 1645.625 1323.260937 1609.335938 1330.878125 C 1587.109375 1350.33125 1564.882813 1338.6125 1542.695313 1327.9875 C 1276.40625 1253.3 1302.460938 1186.542187 1313.75 1119.354687 C 1346.484375 1074.901562 1381.640625 1030.4875 1429.648438 986.073437 C 1443.4375 975.95625 1457.578125 966.542187 1478.945313 971.58125 L 1542.695313 1009.2375 C 1510.351563 898.495312 1450.507813 799.042187 1250 757.128125 C 1145.9375 1115.4875 856.601563 1200.760937 615.390625 1356.971875 C 761.640625 1384.159375 902.8125 1360.526562 1041.367188 1310.604687 C 946.171875 1435.604687 801.328125 1518.026562 653.046875 1597.479687 C 795.039063 1593.417187 937.03125 1587.3625 1079.023438 1507.635937 C 1013.945313 1628.573437 914.179688 1728.651562 771.875 1803.221875 Z M 771.875 1803.221875 " transform="matrix(0.1,0,0,-0.1,0,280.33)"/>
<path style=" stroke:none;fill-rule:nonzero;fill:rgb(4.704285%,43.138123%,5.099487%);fill-opacity:1;" d="M 149.925781 117.828125 C 142.261719 113.601563 134.367188 110.515625 126.15625 109.015625 C 139.503906 106.105469 148.417969 108.890625 158.121094 110.65625 C 152.398438 110.726563 146.308594 110.679688 142.140625 111.269531 C 145.828125 113.183594 148.425781 115.371094 149.925781 117.828125 "/>
<path style="fill:none;stroke-width:10;stroke-linecap:butt;stroke-linejoin:miter;stroke:rgb(4.704285%,43.138123%,5.099487%);stroke-opacity:1;stroke-miterlimit:4;" d="M 1499.257813 1625.01875 C 1422.617188 1667.284375 1343.671875 1698.14375 1261.5625 1713.14375 C 1395.039063 1742.245312 1484.179688 1714.39375 1581.210938 1696.7375 C 1523.984375 1696.034375 1463.085938 1696.503125 1421.40625 1690.604687 C 1458.28125 1671.464062 1484.257813 1649.589062 1499.257813 1625.01875 Z M 1499.257813 1625.01875 " transform="matrix(0.1,0,0,-0.1,0,280.33)"/>
<path style=" stroke:none;fill-rule:nonzero;fill:rgb(4.704285%,43.138123%,5.099487%);fill-opacity:1;" d="M 113.863281 138.523438 C 118.964844 143.976563 121.257813 154.730469 121.445313 169.464844 C 122.15625 163.628906 123.371094 167.128906 123.085938 142.828125 L 146.03125 142.621094 C 136.660156 139.714844 126.996094 137.136719 113.863281 138.523438 "/>
<path style="fill:none;stroke-width:10;stroke-linecap:butt;stroke-linejoin:miter;stroke:rgb(4.704285%,43.138123%,5.099487%);stroke-opacity:1;stroke-miterlimit:4;" d="M 1138.632813 1418.065625 C 1189.648438 1363.534375 1212.578125 1255.995312 1214.453125 1108.651562 C 1221.5625 1167.010937 1233.710938 1132.010937 1230.859375 1375.01875 L 1460.3125 1377.089062 C 1366.601563 1406.151562 1269.960938 1431.932812 1138.632813 1418.065625 Z M 1138.632813 1418.065625 " transform="matrix(0.1,0,0,-0.1,0,280.33)"/>
</g>
</svg>
