<?xml version="1.0" encoding="iso-8859-1"?>
<!-- Generator: Adobe Illustrator 23.0.1, SVG Export Plug-In . SVG Version: 6.00 Build 0)  -->
<svg version="1.1" id="Layer_1" xmlns="http://www.w3.org/2000/svg" xmlns:xlink="http://www.w3.org/1999/xlink" x="0px" y="0px"
	 viewBox="0 0 512 512" style="enable-background:new 0 0 512 512;" xml:space="preserve">
<g>
	<polygon points="244.807,461.979 285.535,461.979 294.671,461.644 301.529,461.305 308.269,460.121 314.802,457.749 
		320.897,454.438 326.056,450.054 330.604,444.824 335,437.289 339.161,429.064 345.419,414.436 353.651,393.898 362.188,369.557 
		367.101,355.747 371.473,342.028 375.653,328.082 379.524,313.959 383.568,298.822 387.232,283.68 390.774,268.438 
		393.996,253.194 396.869,238.063 399.679,222.917 402.223,207.78 404.572,193.217 406.439,179.942 408.295,167.503 
		409.582,155.912 411.105,142.627 412.8,125.81 414.323,109.663 414.996,100.603 415.344,92.888 414.495,85.299 411.951,77.926 
		408.314,71.176 403.245,65.326 397.233,60.434 390.489,56.946 383.091,54.576 375.344,53.901 363.918,53.237 345.286,52.378 
		318.912,51.37 285.594,50.695 247.406,50.52 207.907,50.695 172.628,51.37 147.428,52.378 133.305,53.218 127.563,53.901 
		122.052,55.249 116.83,57.398 111.918,60.259 107.6,63.97 103.706,68.197 100.508,73.024 98.194,78.267 96.672,83.776 
		95.998,89.342 95.998,95.028 96.828,108.984 98.699,129.853 101.165,155.237 104.535,181.907 108.755,208.968 113.088,235.691 
		118.314,262.03 124.326,288.907 130.913,315.305 137.599,339.672 144.171,360.478 150.356,378.493 156.619,395.096 
		163.132,410.892 173.532,435.256 179.102,445.159 185.69,452.076 195.75,457.598 206.173,460.795 218.926,461.644 226.809,461.818 
		244.807,461.979 	"/>
	<path d="M293.649,481l6.646-0.34l7.249-0.897l7.375-1.624l7.245-2.421l6.975-3.331l8.173-6.063l6.913-6.934l5.629-7.871
		l4.392-8.332l5.452-12.531l6.991-16.996l7.421-19.423l7.418-20.311l6.995-20.472l6.243-20.712l5.625-20.922l9.809-43.208
		l4.548-22.053l4.22-22.458l3.714-22.503l3.221-22.503l4.893-39.953l3.719-37.649l0.56-7.93l-0.56-8.322l-1.738-8.161l-3.037-7.983
		l-3.934-7.149l-4.893-6.815l-5.919-5.901l-6.799-5.118l-7.304-4.049l-7.997-2.648l-7.993-1.691l-9.23-0.849l-35.322-1.902
		L264.903,31h-8.885v6.592h8.768l39.828,1.014l35.451,1.008l23.854,1.184l11.249,0.677l8.788,0.836l7.19,1.523l7.03,2.313
		l6.415,3.534l6.028,4.57l5.226,5.169l4.392,6.081l3.488,6.339l2.697,7.11l1.503,7.198l0.521,7.414l-0.521,7.372l-1.675,16.653
		l-2.024,20.822l-2.987,25.039l-1.867,14.796l-3.198,22.339l-3.738,22.333l-4.161,22.343l-4.549,21.994l-5.069,22.174l-4.682,20.82
		l-5.566,20.646l-6.188,20.519l-6.936,20.321l-7.363,20.199l-7.414,19.307l-6.877,16.81l-5.418,12.265l-3.989,7.715l-5.065,7.022
		l-6.184,6.253l-7.265,5.408l-6.016,2.803l-6.584,2.196l-6.709,1.535l-6.721,0.834l-6.208,0.329h-37.514V481H293.649L293.649,481z
		 M256.018,31h-28.86l-32.351,0.456l-45.856,1.348l-20.538,1.405l-7.093,0.902l-7.069,2.129l-6.591,2.822l-6.263,3.586l-5.781,4.46
		l-5.124,5.282l-4.564,5.752l-3.472,6.339l-2.814,6.76l-1.926,7.149l-0.791,7.255v6.915l2.024,30.108l2.196,22.503l3.025,26.679
		l3.777,27.836l4.22,26.496l4.376,25l4.721,24.006l5.566,23.691l6.13,23.57l7.089,24.032l7.418,23.458l7.492,21.558l7.245,19.021
		l15.07,34.927l6.975,10.85l8.729,9.461l10.694,6.868l11.637,4.492l11.809,2.041l5.898,0.499l33.581,0.34h9.363v-6.592h-9.285
		l-33.314-0.329l-5.335-0.509l-10.905-1.859l-10.482-4.049l-9.382-6.018l-7.707-8.38l-6.416-9.952l-8.212-18.799l-6.529-15.469
		l-7.245-18.799l-7.382-21.374l-7.414-23.366l-7.038-23.842l-6.067-23.353l-5.507-23.515l-4.72-23.795l-4.337-24.875l-4.22-26.396
		l-3.699-27.736l-3.045-26.553l-2.137-22.329l-1.331-18.123l-0.693-11.602v-6.406l0.693-6.359l1.679-6.242l2.482-6.018l3.045-5.578
		l4.047-5.059l4.509-4.666l5.049-3.879l5.566-3.21l5.856-2.473l6.263-1.863l6.341-0.838l20.151-1.358l19.52-0.666l26.202-0.683
		l32.257-0.499h28.801V31L256.018,31z"/>
	<path style="fill:#F5C159;" d="M333.551,355.025c22.331-61.155,34.896-122.646,37.553-187.697h3.202l0.634-7.308h-60.386
		l-0.019,173.001C321.629,339.147,328.044,346.52,333.551,355.025L333.551,355.025L333.551,355.025z M314.536,422.423v-7.929
		c1.291-0.344,2.521-0.722,3.832-1.184L314.536,422.423L314.536,422.423L314.536,422.423z M314.536,386.433v-1.64
		c3.754,3.261,7.531,6.408,11.426,9.56l-0.638,0.844C321.722,392.271,318.141,389.41,314.536,386.433L314.536,386.433
		L314.536,386.433z M314.536,381.308c4.161,3.311,8.321,6.638,12.428,10.116l0.904-2.188c-4.607-3.38-8.995-6.813-13.332-10.3
		V381.308L314.536,381.308L314.536,381.308z M314.536,375.847c4.74,3.821,9.457,7.59,14.181,11.318l2.082-4.519
		c-5.531-4.104-10.929-8.216-16.264-12.377V375.847L314.536,375.847L314.536,375.847z M314.536,364.488v-4.521
		c3.546,1.64,5.124,7.324,4.662,11.252l-2.466-1.572C316.732,367.185,316,365.545,314.536,364.488L314.536,364.488L314.536,364.488z
		 M314.555,154.16v-0.338l29.263,3.554L314.555,154.16L314.555,154.16z M314.555,160.02h-6.979l-0.016,167.494
		c2.368,1.691,4.721,3.544,6.975,5.507L314.555,160.02L314.555,160.02L314.555,160.02z M307.545,391.483
		c1.037,0.673,2.098,1.356,3.214,1.973l2.756-3.997c-2.235-1.237-4.259-2.08-5.954-3.094L307.545,391.483L307.545,391.483
		L307.545,391.483z M314.555,153.822v0.338l-6.979-0.781v-0.391L314.555,153.822L314.555,153.822L314.555,153.822z M314.536,359.967
		v4.521c-0.963-0.685-2.196-1.073-3.758-1.309c1.906,0.683,2.352,1.634,2.579,3.554l-3.946-3.21v-3.255
		C311.451,359.303,313.131,359.303,314.536,359.967L314.536,359.967L314.536,359.967z M314.536,370.269
		c-2.372-1.853-4.666-3.71-6.975-5.627v5.462c2.309,1.914,4.662,3.821,6.975,5.742V370.269L314.536,370.269L314.536,370.269z
		 M314.536,378.936v2.372c-2.372-1.965-4.666-3.901-6.975-5.919v-2.298C309.87,375.057,312.223,377.029,314.536,378.936
		L314.536,378.936L314.536,378.936z M314.536,384.793v1.64c-0.908-0.732-1.851-1.533-2.756-2.323c-1.636,0-3.026-0.325-4.22-0.906
		v-4.662C309.87,380.632,312.164,382.703,314.536,384.793L314.536,384.793L314.536,384.793z M314.536,414.495v7.929l-0.564,1.417
		c-2.306,0.896-4.466,1.513-6.427,1.863v-9.915C309.909,415.558,312.223,415.119,314.536,414.495L314.536,414.495L314.536,414.495z
		 M307.545,438.419v-9.854c1.515-0.049,3.155-0.282,4.795-0.622L307.545,438.419L307.545,438.419L307.545,438.419z M307.545,397.107
		v-3.37c0.576,0.345,1.132,0.673,1.75,1.008L307.545,397.107L307.545,397.107z M307.576,160.02h-3.867l-0.02,164.843
		c1.288,0.836,2.58,1.742,3.871,2.65L307.576,160.02L307.576,160.02L307.576,160.02z M303.67,388.956
		c1.229,0.837,2.54,1.687,3.875,2.526l0.016-5.118c-1.523-0.838-2.814-1.805-3.891-3.263V388.956L303.67,388.956L303.67,388.956z
		 M307.576,152.988v0.391l-3.867-0.46v-0.388L307.576,152.988L307.576,152.988L307.576,152.988z M307.561,364.642v5.462
		c-1.311-1.072-2.603-2.139-3.891-3.202v-5.402C304.958,362.558,306.25,363.629,307.561,364.642L307.561,364.642L307.561,364.642z
		 M307.561,373.091v2.298c-0.619-0.499-1.178-1.008-1.812-1.517l1.194-1.296C307.154,372.751,307.33,372.917,307.561,373.091
		L307.561,373.091L307.561,373.091z M307.561,378.542v4.662c-1.91-0.836-3.217-2.417-3.891-4.544v-3.104l0.345-0.223
		C305.193,376.413,306.383,377.48,307.561,378.542L307.561,378.542L307.561,378.542z M307.545,393.737v3.37l-1.621,2.198
		c-0.79-0.456-1.523-0.898-2.255-1.292v-6.638C304.958,392.225,306.25,393.005,307.545,393.737L307.545,393.737L307.545,393.737z
		 M307.545,415.788v9.915c-1.354,0.217-2.587,0.266-3.875,0.266v-9.903C304.958,416.017,306.25,415.959,307.545,415.788
		L307.545,415.788L307.545,415.788z M307.545,428.565v9.854l-1.182,2.521c-0.943-0.047-1.847-0.115-2.693-0.233v-12.191
		C304.958,428.627,306.191,428.627,307.545,428.565L307.545,428.565L307.545,428.565z M303.67,401.826v-0.781
		c0.172,0.127,0.345,0.174,0.517,0.282L303.67,401.826L303.67,401.826L303.67,401.826z M303.67,371.404v-1.184l0.517,0.45
		C304.015,370.943,303.842,371.171,303.67,371.404L303.67,371.404L303.67,371.404z M303.67,356.665l0.02-5.801
		c2.693,1.965,3.601,6.359,3.253,10.287l-2.756-1.74C304.186,358.348,304.015,357.446,303.67,356.665L303.67,356.665L303.67,356.665
		z M303.689,341.077v-3.544l2.791,12.091l-0.83-0.282L303.689,341.077L303.689,341.077z M303.709,160.02h-5.86l-0.02,161.362
		c1.965,1.063,3.934,2.247,5.86,3.482L303.709,160.02L303.709,160.02L303.709,160.02z M297.83,384.793
		c1.906,1.397,3.816,2.805,5.84,4.163v-5.854c-1.115-1.466-2.082-3.435-2.873-6.306c-1.061,0.107-2.078,0.107-2.967,0.059V384.793
		L297.83,384.793L297.83,384.793z M303.709,152.532v0.388l-5.86-0.611v-0.511L303.709,152.532L303.709,152.532L303.709,152.532z
		 M303.689,337.532v3.544l-3.605-14.97h0.889L303.689,337.532L303.689,337.532L303.689,337.532z M303.689,350.864l-0.02,5.801
		c-0.889-2.041-2.814-3.104-5.492-3.104c1.558,0.519,2.58,1.687,3.081,3.21l-3.429-2.255v-4.335
		C300.296,349.449,302.261,349.85,303.689,350.864L303.689,350.864L303.689,350.864z M303.67,361.501
		c-1.965-1.64-3.934-3.274-5.84-4.894v5.403c1.906,1.667,3.875,3.317,5.84,4.893V361.501L303.67,361.501L303.67,361.501z
		 M303.67,370.22v1.184c-1.847,2.639-3.934,3.709-5.84,3.652v-5.409c1.061-0.11,2.372-0.499,3.993-1.057L303.67,370.22
		L303.67,370.22L303.67,370.22z M303.67,375.556v3.104c-0.274-0.849-0.442-1.756-0.501-2.746L303.67,375.556L303.67,375.556
		L303.67,375.556z M303.67,391.375v6.638c-2.024-1.188-3.934-2.419-5.84-3.66v-7.081
		C299.736,388.727,301.705,390.076,303.67,391.375L303.67,391.375L303.67,391.375z M303.67,401.045
		c-2.024-1.126-3.934-2.245-5.84-3.429v3.429c0.039,0.059,0.172,0.127,0.211,0.174l3.95,2.306l1.679-1.699V401.045L303.67,401.045
		L303.67,401.045z M303.67,416.066v9.903c-1.906-0.049-3.836-0.384-5.84-1.067v-9.289c0.497,0.127,1.002,0.239,1.503,0.345
		C300.797,416.066,302.202,416.066,303.67,416.066L303.67,416.066L303.67,416.066z M303.67,428.516v12.191
		c-2.082-0.159-4.008-0.499-5.86-0.949l0.02-12.324C299.795,427.942,301.764,428.332,303.67,428.516L303.67,428.516L303.67,428.516z
		 M297.83,406.279v-2.861c0.83,0.452,1.675,0.955,2.525,1.397C299.505,405.439,298.66,405.881,297.83,406.279L297.83,406.279
		L297.83,406.279z M297.83,365.095v-0.34l0.231,0.233C298.002,364.987,297.888,365.036,297.83,365.095L297.83,365.095z
		 M297.85,160.02h-5.276l-0.02,158.655c1.789,0.839,3.527,1.748,5.276,2.707L297.85,160.02L297.85,160.02L297.85,160.02z
		 M292.534,380.507c1.73,1.464,3.487,2.871,5.296,4.286v-7.938c-2.082-0.18-3.891-0.732-5.276-1.742L292.534,380.507
		L292.534,380.507L292.534,380.507z M292.553,358.851c3.312-4.959,2.924-12.715,0-16.755V358.851L292.553,358.851L292.553,358.851z
		 M297.85,151.798v0.511l-5.276-0.626v-0.509L297.85,151.798L297.85,151.798L297.85,151.798z M297.83,350.181v4.335l-0.791-0.505
		l0.732-3.83H297.83L297.83,350.181L297.83,350.181z M297.83,356.607v5.403c-0.849-0.743-1.695-1.417-2.58-2.149l1.789-3.928
		C297.27,356.151,297.544,356.373,297.83,356.607L297.83,356.607L297.83,356.607z M297.83,364.754l-3.605-3.147l-1.671,1.683v8.23
		c1.386,2.071,3.253,3.429,5.276,3.536v-5.409c-2.697,0.291-3.605-1.124-3.605-6.018c0.908,1.184,2.235,2.247,3.605,1.466V364.754
		L297.83,364.754L297.83,364.754z M297.83,387.273v7.081c-1.809-1.131-3.566-2.362-5.296-3.595v-7.656
		C294.264,384.56,296.021,385.958,297.83,387.273L297.83,387.273L297.83,387.273z M297.83,397.616
		c-1.809-1.116-3.566-2.255-5.296-3.429v3.711c1.691,1.057,3.487,2.149,5.296,3.147V397.616L297.83,397.616L297.83,397.616z
		 M297.83,403.417v2.861c-1.636,0.732-3.276,1.126-5.296,1.582v-7.654C294.264,401.278,296.021,402.335,297.83,403.417
		L297.83,403.417L297.83,403.417z M297.83,415.614v9.289c-0.908-0.282-1.867-0.606-2.893-1.063
		c-0.771-0.276-1.613-0.509-2.403-0.685v-8.437C294.225,414.951,295.963,415.227,297.83,415.614L297.83,415.614L297.83,415.614z
		 M297.83,427.433l-0.02,12.324c-1.73-0.397-3.488-0.83-5.276-1.407v-12.604c1.077,0.338,2.196,0.732,3.312,1.188
		C296.538,427.099,297.137,427.269,297.83,427.433L297.83,427.433L297.83,427.433z M292.553,330.441v-5.906l2.697,14.565h-1.025
		L292.553,330.441L292.553,330.441L292.553,330.441z M292.573,143.535v-0.059l0.109,0.059
		C292.683,143.535,292.624,143.535,292.573,143.535L292.573,143.535z M292.573,160.02h-5.742l-0.02,156.183
		c1.965,0.79,3.871,1.575,5.742,2.472L292.573,160.02L292.573,160.02L292.573,160.02z M286.792,375.287
		c1.867,1.791,3.773,3.536,5.742,5.22l0.02-5.394c-2.662-1.851-4.071-5.175-4.298-9.568c-0.505,0.069-0.947,0.117-1.464,0.174
		V375.287L286.792,375.287L286.792,375.287z M286.792,362.965c2.54-0.627,4.447-2.149,5.762-4.114v-16.755
		c-1.37-1.984-3.339-3.051-5.742-2.648l-0.02,14.621c2.83-0.834,4.951-6.468,0.575-10.854c3.316,0,4.838,2.92,4.838,5.952
		c0,5.906-2.697,8.729-5.414,9.181V362.965L286.792,362.965L286.792,362.965z M292.573,143.477v0.059
		c-1.969,0.673-3.875,1.125-5.742,1.338v-7.813l5.237-0.291l-3.217,4.394L292.573,143.477L292.573,143.477L292.573,143.477z
		 M292.573,151.174v0.509l-5.742-0.616v-0.615L292.573,151.174L292.573,151.174L292.573,151.174z M292.553,324.535v5.906
		l-1.816-9.461h1.178L292.553,324.535L292.553,324.535L292.553,324.535z M292.553,363.29v8.23c-1.084-1.638-1.871-3.777-2.102-6.149
		L292.553,363.29L292.553,363.29L292.553,363.29z M292.534,383.102v7.656c-1.969-1.415-3.895-2.861-5.742-4.394v-8.331
		C288.718,379.775,290.624,381.472,292.534,383.102L292.534,383.102L292.534,383.102z M292.534,394.187
		c-1.969-1.289-3.895-2.705-5.742-4.112v3.879c1.847,1.358,3.773,2.654,5.742,3.944V394.187L292.534,394.187L292.534,394.187z
		 M292.534,400.206v7.654c-0.059,0-0.117,0.059-0.176,0.059c-1.906-1.247-3.777-2.431-5.566-3.615v-7.978
		C288.639,397.675,290.565,398.955,292.534,400.206L292.534,400.206L292.534,400.206z M292.534,414.718v8.437
		c-1.969-0.499-3.895-0.789-5.742-0.955v-7.648C288.581,414.436,290.51,414.495,292.534,414.718L292.534,414.718L292.534,414.718z
		 M292.534,425.746v12.604c-1.816-0.558-3.722-1.119-5.742-1.795v-11.819C288.639,424.844,290.565,425.188,292.534,425.746
		L292.534,425.746L292.534,425.746z M286.792,409.209l2.196-0.558c-0.732-0.456-1.464-0.908-2.196-1.354V409.209L286.792,409.209z
		 M286.831,160.02h-16.593l-0.02,151.517c0.771,0.174,1.562,0.282,2.352,0.456c2.638,8.604,5.969,17.319,10.287,26.378l1.758-1.014
		c-3.993-8.38-7.21-16.659-9.79-24.865c4.047,0.965,8.032,2.198,11.986,3.711L286.831,160.02L286.831,160.02L286.831,160.02z
		 M270.199,355.199l0.02-13.332c1.887-0.975,3.817-5.418,0.948-6.862c0,1.62,0.438,3.409-0.948,4.039v-23.74
		c2.697,9.161,6.126,18.45,10.443,27.91c2.274-2.323,4.333-3.439,6.149-3.767l-0.02,14.621c-1.679,0.447-3.585-0.785-4.549-5.053
		c-2.485,6.29,1.022,9.893,4.549,9.332v4.617c-0.098,0.049-0.157,0.049-0.274,0.105c-7.265,0-8.322-7.265-8.322-12.997
		c-4.509,7.091,0.442,15.927,8.596,15.645v9.568C280.568,369.255,275.033,362.558,270.199,355.199L270.199,355.199L270.199,355.199z
		 M286.831,137.061v7.813c-5.684,0.801-10.733-0.164-16.593-1.63v-8.147c2.815,0.616,5.625,1.624,8.557,2.405L286.831,137.061
		L286.831,137.061L286.831,137.061z M286.831,150.452v0.615l-16.593-1.857v-0.781L286.831,150.452L286.831,150.452L286.831,150.452z
		 M286.792,378.033c-6.071-5.733-11.758-12.091-16.593-18.799v10.985c5.128,5.952,10.576,11.301,16.593,16.145V378.033
		L286.792,378.033L286.792,378.033z M286.792,390.076c-5.781-4.443-11.12-9.394-16.205-15.185c-0.153-0.115-0.27-0.29-0.388-0.46
		v4.611c5.245,5.578,10.576,10.471,16.593,14.913V390.076L286.792,390.076L286.792,390.076z M286.792,396.327v7.978
		c-5.899-3.817-11.253-7.525-16.593-12.08v-9.903C275.366,387.549,280.815,392.107,286.792,396.327L286.792,396.327L286.792,396.327
		z M286.792,407.296c-5.801-3.544-11.426-7.433-16.593-11.827v4.45c4.259,3.498,8.709,6.703,13.489,10.021l3.104-0.732V407.296
		L286.792,407.296L286.792,407.296z M286.792,414.551v7.648c-5.684-0.382-10.87,0.955-16.593,3.327v-2.803
		C275.131,417.297,280.376,414.902,286.792,414.551L286.792,414.551L286.792,414.551z M286.792,424.736
		c-5.899-0.397-11.14,1.466-16.593,4.502v8.099c4.932-1.405,9.884-2.372,16.593-0.781l0,0V424.736L286.792,424.736L286.792,424.736z
		 M270.199,417.53l1.965-1.742c-0.673-0.339-1.347-0.62-1.965-0.955V417.53L270.199,417.53L270.199,417.53z M270.199,411.739
		c1.292,0.84,2.638,1.631,4.043,2.48c2.587-1.922,3.781-2.595,6.979-3.386c-3.93-2.857-7.594-5.345-11.023-8.042V411.739
		L270.199,411.739z M270.238,160.02h-3.213l-0.02,168.725c1.076-0.394,1.346-1.906,0.325-3.37c2.752,1.356,1.307,4.562-0.325,5.519
		v19.18c1.018,1.746,2.137,3.429,3.194,5.126l0.02-13.332c-1.213,0.607-2.423-0.174-2.423-3.951l1.17,1.299
		c0.521,0,0.944-0.068,1.253-0.17v-23.74c-0.403-1.347-0.732-2.648-1.135-3.938c0.403,0.043,0.791,0.121,1.135,0.17L270.238,160.02
		L270.238,160.02L270.238,160.02z M270.238,135.096v8.147c-1.018-0.217-2.098-0.499-3.163-0.781l-0.051,0.049v-8.042
		C268.101,134.571,269.162,134.804,270.238,135.096L270.238,135.096L270.238,135.096z M270.238,148.428v0.781l-3.213-0.329v-0.791
		L270.238,148.428L270.238,148.428L270.238,148.428z M270.199,359.235v10.985c-1.057-1.247-2.137-2.595-3.213-3.875v-11.829
		C268.023,356.107,269.083,357.673,270.199,359.235L270.199,359.235L270.199,359.235z M270.199,374.43v4.611
		c-1.057-1.162-2.137-2.366-3.213-3.534v-5.069C268.062,371.796,269.142,373.15,270.199,374.43L270.199,374.43L270.199,374.43z
		 M270.199,382.321c-1.057-1.082-2.137-2.198-3.213-3.386v10.474c1.076,0.942,2.137,1.897,3.213,2.815V382.321L270.199,382.321
		L270.199,382.321z M270.199,395.47v4.45c-1.076-0.838-2.137-1.746-3.213-2.705v-4.599
		C268.062,393.63,269.123,394.581,270.199,395.47L270.199,395.47L270.199,395.47z M270.199,402.791v8.948
		c-1.076-0.732-2.137-1.464-3.213-2.186v-9.347C268.062,401.104,269.123,401.953,270.199,402.791L270.199,402.791L270.199,402.791z
		 M270.199,414.833v2.697l-0.673,0.626l-2.54-1.515v-3.715C268.003,413.592,269.083,414.219,270.199,414.833L270.199,414.833
		L270.199,414.833z M270.199,422.725v2.803c-1.076,0.442-2.137,0.908-3.213,1.407v-0.174
		C268.062,425.237,269.123,423.956,270.199,422.725L270.199,422.725L270.199,422.725z M270.199,429.238v8.099
		c-1.076,0.282-2.137,0.626-3.213,0.955v-7.089C268.062,430.478,269.123,429.864,270.199,429.238L270.199,429.238L270.199,429.238z
		 M266.986,420.129v-0.354c0.058,0.069,0.168,0.069,0.227,0.127C267.154,419.961,267.044,420.071,266.986,420.129L266.986,420.129z
		 M267.025,160.02h-3.934l-0.039,158.714c2.372,1.407,2.544-0.509,1.985-2.697c1.91,0.957,1.346,5.394-1.636,4.662
		c-0.117-0.276-0.231-0.499-0.349-0.732v23.016c1.233,2.421,2.599,4.787,3.954,7.091v-19.18c-1.178,0.683-2.411,0.223-2.411-2.775
		c0.944,0.742,1.789,0.859,2.411,0.626L267.025,160.02L267.025,160.02L267.025,160.02z M267.025,134.47v8.042l-3.934,0.291v-8.38
		C264.437,134.296,265.729,134.296,267.025,134.47L267.025,134.47L267.025,134.47z M267.025,148.09v0.791l-3.934-0.452v-0.857
		L267.025,148.09L267.025,148.09L267.025,148.09z M266.986,354.516v11.829c-1.335-1.703-2.627-3.38-3.934-5.194v-13.273
		C264.245,350.132,265.596,352.32,266.986,354.516L266.986,354.516L266.986,354.516z M266.986,370.438
		c-1.335-1.798-2.627-3.534-3.934-5.343v5.848c0.673,0.791,1.464,1.693,2.431,2.756c0.497,0.625,0.998,1.192,1.503,1.809V370.438
		L266.986,370.438L266.986,370.438z M266.986,378.936v10.474c-0.771-0.732-1.621-1.464-2.411-2.245
		c-0.56-0.624-1.057-1.208-1.523-1.707v-10.962C264.339,376.015,265.651,377.528,266.986,378.936L266.986,378.936L266.986,378.936z
		 M266.986,392.616c-1.335-1.309-2.701-2.589-3.934-3.938v4.952c1.288,1.233,2.599,2.415,3.934,3.585V392.616L266.986,392.616
		L266.986,392.616z M266.986,400.206v9.347c-1.335-0.902-2.646-1.926-3.934-2.93v-10.015
		C264.339,397.849,265.651,399.024,266.986,400.206L266.986,400.206L266.986,400.206z M266.986,412.927v3.715l-3.934-2.366v-4.171
		C264.339,411.115,265.651,412.08,266.986,412.927L266.986,412.927L266.986,412.927z M266.986,419.775v0.354
		c-1.409,1.456-2.701,2.979-3.934,4.492v-6.809C264.226,418.495,265.482,419.112,266.986,419.775L266.986,419.775L266.986,419.775z
		 M266.986,426.76v0.174c-0.059,0.049-0.176,0.105-0.176,0.105C266.809,426.934,266.927,426.866,266.986,426.76L266.986,426.76
		L266.986,426.76z M266.986,431.203v7.089c-1.296,0.403-2.587,0.734-3.934,1.069v-5.792c0.497-0.219,1.002-0.499,1.523-0.843
		C265.423,432.22,266.214,431.711,266.986,431.203L266.986,431.203z M263.091,160.02h-15.129l-0.039,158.33
		c0.117-0.067,0.235-0.174,0.352-0.289c0,0.732-0.117,1.299-0.352,1.687v22.955c0.948-1.916,1.934-3.832,2.819-5.797l0.344-26.727
		c0.889,0,1.847-0.049,2.756-0.049l-0.02,122.763h3.699l0.019-122.715c0.791,0.069,1.582,0.069,2.314,0.116l0.344,26.889
		c0.948,1.963,1.855,3.892,2.853,5.799v-23.016c-0.215-0.452-0.384-0.834-0.384-1.466c0.168,0.059,0.286,0.174,0.384,0.233
		L263.091,160.02L263.091,160.02L263.091,160.02z M263.091,134.423v8.38l-4.067,0.276l0.019-7.774
		C260.452,134.804,261.799,134.525,263.091,134.423L263.091,134.423L263.091,134.423z M263.091,147.571v0.857l-2.255-0.233v-0.887
		L263.091,147.571L263.091,147.571L263.091,147.571z M263.051,347.878v13.273c-1.35-1.847-2.697-3.705-4.043-5.674V339.38
		C260.198,342.251,261.548,345.073,263.051,347.878L263.051,347.878L263.051,347.878z M263.051,365.095v5.848
		c-2.987-3.488-4.043-5.329-4.043-11.531C260.355,361.325,261.701,363.241,263.051,365.095L263.051,365.095L263.051,365.095z
		 M263.051,374.497v10.962c-4.72-5.451-4.063-6.635-4.043-15.97C260.355,371.219,261.701,372.858,263.051,374.497L263.051,374.497
		L263.051,374.497z M263.051,388.678v4.952c-1.35-1.29-2.697-2.705-4.063-4.118v-5.566
		C260.296,385.574,261.647,387.165,263.051,388.678L263.051,388.678L263.051,388.678z M263.051,396.608v10.015
		c-1.35-1.077-2.697-2.198-4.063-3.38v-10.972C260.355,393.849,261.701,395.246,263.051,396.608L263.051,396.608L263.051,396.608z
		 M263.051,410.105v4.171l-4.063-2.429v-5.223C260.413,407.919,261.701,409.044,263.051,410.105L263.051,410.105L263.051,410.105z
		 M263.051,417.812v6.809c-1.464,1.746-2.814,3.603-4.161,5.519l0.098-15.54C260.413,416.017,261.701,416.972,263.051,417.812
		L263.051,417.812L263.051,417.812z M263.051,433.569v5.792c-2.255,0.614-4.623,1.08-7.206,1.299
		c-2.756-0.345-5.413-1.077-7.934-1.857v-6.243C253.321,435.42,256.867,436.663,263.051,433.569L263.051,433.569L263.051,433.569z
		 M247.911,424.063v-6.581c1.366-0.84,2.658-1.867,4.004-3.157l0.157,15.363C250.776,427.715,249.371,425.852,247.911,424.063
		L247.911,424.063L247.911,424.063z M247.911,414.387v-4.728c1.366-1.008,2.658-2.196,4.004-3.496v5.241
		C250.569,412.53,249.277,413.485,247.911,414.387L247.911,414.387L247.911,414.387z M247.911,406.279l0.012-10.126
		c1.354-1.358,2.705-2.756,3.993-4.335v11.148C250.569,404.13,249.277,405.265,247.911,406.279L247.911,406.279L247.911,406.279z
		 M247.923,393.164v-4.834c1.413-1.513,2.76-3.147,3.993-4.826v5.558C250.569,390.526,249.277,391.864,247.923,393.164
		L247.923,393.164L247.923,393.164z M247.923,385.016v-10.799c1.354-1.689,2.705-3.38,3.993-5.184
		C251.915,378.387,252.589,379.556,247.923,385.016L247.923,385.016L247.923,385.016z M247.923,370.555v-5.913l3.993-5.513
		C251.915,365.269,250.796,367.058,247.923,370.555L247.923,370.555L247.923,370.555z M247.923,360.816v-13.332
		c1.523-2.812,2.873-5.684,3.993-8.545v16.076C250.628,357.058,249.277,358.959,247.923,360.816L247.923,360.816L247.923,360.816z
		 M247.962,147.978v-0.84l2.239-0.301v0.918L247.962,147.978L247.962,147.978L247.962,147.978z M254.15,156.973h2.407v-24.689
		l1.64-1.198v-1.164h-5.511v1.164l1.464,1.198V156.973L254.15,156.973z M247.962,160.02h-3.946l-0.02,168.399
		c0.615,0.325,1.464,0.21,2.431-0.732c-0.02,3.088-1.315,3.535-2.431,2.862l-0.019,19.235c1.366-2.3,2.657-4.662,3.945-7.081
		v-22.955c-1.17,1.916-4.545-0.558-2.231-4.049h0.27c-0.345,1.397-0.501,2.028,0.289,3.212c0.673-0.117,1.174-0.176,1.671-0.56
		L247.962,160.02L247.962,160.02L247.962,160.02z M247.962,147.138v0.84l-3.946,0.45v-0.791L247.962,147.138L247.962,147.138
		L247.962,147.138z M247.923,347.484v13.332c-1.288,1.799-2.638,3.546-3.945,5.234v-11.921
		C245.382,351.931,246.674,349.745,247.923,347.484L247.923,347.484L247.923,347.484z M247.923,364.642l-3.945,5.413v5.106
		c0.497-0.562,1.021-1.119,1.522-1.746c0.908-1.115,1.691-2.012,2.423-2.861V364.642L247.923,364.642L247.923,364.642z
		 M247.923,374.217v10.799c-0.438,0.511-0.959,1.067-1.515,1.673c-0.849,0.859-1.64,1.591-2.431,2.372v-10.345
		C245.285,377.252,246.616,375.73,247.923,374.217L247.923,374.217L247.923,374.217z M247.923,388.33
		c-1.307,1.417-2.599,2.697-3.945,4.01v4.544c1.307-1.184,2.638-2.415,3.945-3.72V388.33L247.923,388.33L247.923,388.33z
		 M247.923,396.153l-0.012,10.126c-1.295,1.018-2.627,1.965-3.934,2.93v-9.394C245.285,398.63,246.616,397.442,247.923,396.153
		L247.923,396.153L247.923,396.153z M247.911,409.659v4.728c-1.295,0.781-2.587,1.513-3.934,2.178v-4.036
		C245.324,411.623,246.616,410.731,247.911,409.659L247.911,409.659L247.911,409.659z M247.911,417.481v6.581
		c-1.295-1.464-2.587-2.93-3.934-4.393v-0.282C245.441,418.781,246.733,418.203,247.911,417.481L247.911,417.481L247.911,417.481z
		 M247.911,432.559v6.243c-1.354-0.384-2.646-0.84-3.934-1.233v-7.324c0.329,0.233,0.732,0.511,1.061,0.734
		C246.056,431.535,247.003,432.04,247.911,432.559L247.911,432.559L247.911,432.559z M243.978,426.537v-0.229
		c0.059,0.127,0.117,0.229,0.231,0.276C244.095,426.584,244.036,426.537,243.978,426.537L243.978,426.537z M244.016,160.02h-3.202
		l-0.016,151.242c0.325-0.069,0.728-0.127,1.057-0.176c-0.329,1.292-0.673,2.523-1.057,3.819l-0.02,23.812
		c0.56,0.223,1.35-0.069,2.368-1.077c0,3.496-1.194,4.329-2.368,3.879v13.342c1.115-1.625,2.133-3.37,3.198-5.077l0.019-19.235
		c-1.64-0.955-3.104-4.269-0.403-5.631c-0.908,1.362-0.564,2.928,0.403,3.501L244.016,160.02L244.016,160.02L244.016,160.02z
		 M244.016,147.637v0.791l-3.202,0.325v-0.728L244.016,147.637L244.016,147.637L244.016,147.637z M243.978,354.129v11.921
		c-1.065,1.31-2.122,2.589-3.198,3.82v-11.065C241.895,357.272,242.971,355.701,243.978,354.129L243.978,354.129L243.978,354.129z
		 M243.978,370.056v5.106c-1.065,1.251-2.122,2.425-3.198,3.554v-4.742c0.845-0.942,1.675-2.022,2.544-3.032L243.978,370.056
		L243.978,370.056L243.978,370.056z M243.978,378.716v10.345c-1.065,0.965-2.122,1.916-3.198,2.803v-9.776
		C241.856,380.963,242.913,379.89,243.978,378.716L243.978,378.716L243.978,378.716z M243.978,392.34v4.544
		c-1.065,0.965-2.122,1.857-3.198,2.756v-4.496C241.856,394.236,242.913,393.271,243.978,392.34L243.978,392.34L243.978,392.34z
		 M243.978,399.814v9.394c-1.065,0.673-2.141,1.405-3.198,2.09v-8.895C241.856,401.56,242.913,400.711,243.978,399.814
		L243.978,399.814L243.978,399.814z M243.978,412.53v4.036c-0.85,0.407-1.699,0.8-2.599,1.139l-0.599-0.557v-2.822
		C241.895,413.763,242.971,413.156,243.978,412.53L243.978,412.53L243.978,412.53z M243.978,419.387v0.282
		c-0.117-0.049-0.176-0.108-0.235-0.223C243.801,419.446,243.86,419.387,243.978,419.387L243.978,419.387L243.978,419.387z
		 M243.978,426.308v0.229c-1.136-0.501-2.141-1.01-3.198-1.417v-2.803C241.836,423.486,242.913,424.795,243.978,426.308
		L243.978,426.308L243.978,426.308z M243.978,430.246v7.324c-1.081-0.339-2.141-0.683-3.198-1.014v-8.224
		C241.836,428.909,242.842,429.514,243.978,430.246L243.978,430.246z M240.815,160.02h-16.663l-0.02,155.678
		c4.161-1.576,8.322-2.764,12.541-3.656c-2.58,8.331-5.801,16.653-9.845,25.142l1.754,1.023c4.318-9.124,7.707-17.96,10.346-26.621
		c0.614-0.098,1.233-0.219,1.871-0.325L240.815,160.02L240.815,160.02L240.815,160.02z M240.799,314.904l-0.02,23.812
		c-0.944-0.452-1.178-2.314-0.845-4.171c-2.971,2.022-1.065,6.193,0.845,6.973v13.342c-4.838,7.373-10.349,14.064-16.667,20.147
		v-9.637c8.173,0.348,13.117-8.488,8.67-15.626c0,5.733-1.061,13.046-8.326,13.046c-0.113-0.049-0.207-0.049-0.344-0.117v-4.554
		c1.077,0.16,2.274-0.115,3.566-0.896c2.294-2.756,2.294-5.404,1.002-8.614c-0.947,4.269-2.869,5.519-4.548,5.067v-14.53
		c1.847,0.301,3.875,1.483,6.184,3.73C234.65,333.414,238.079,324.132,240.799,314.904L240.799,314.904L240.799,314.904z
		 M240.815,148.025v0.728l-16.663,1.873v-0.568L240.815,148.025L240.815,148.025L240.815,148.025z M240.779,358.804
		c-4.838,6.682-10.522,13.099-16.667,18.783v8.439c6.087-4.895,11.543-10.179,16.667-16.156V358.804L240.779,358.804
		L240.779,358.804z M240.779,373.974c-5.124,5.975-10.639,11.101-16.667,15.714v3.709c5.973-4.335,11.308-9.054,16.667-14.681
		V373.974L240.779,373.974L240.779,373.974z M240.779,382.089v9.776c-5.359,4.511-10.807,8.183-16.667,12.052v-7.938
		C230.14,391.759,235.656,387.273,240.779,382.089L240.779,382.089L240.779,382.089z M240.779,395.145
		c-5.183,4.388-10.866,8.204-16.667,11.76v1.857l3.104,0.781c4.952-3.196,9.34-6.408,13.563-9.903V395.145L240.779,395.145
		L240.779,395.145z M240.779,402.403c-3.433,2.756-7.089,5.282-11.101,8.154c3.162,0.742,4.395,1.523,7.053,3.206
		c1.386-0.836,2.756-1.634,4.047-2.464V402.403L240.779,402.403L240.779,402.403z M240.779,414.325v2.822l-2.028-1.813
		C239.468,415.056,240.161,414.718,240.779,414.325L240.779,414.325L240.779,414.325z M240.779,422.317
		c-4.857-5.453-9.907-7.823-16.667-8.167v7.668c5.742-0.403,10.925,0.906,16.667,3.302V422.317L240.779,422.317L240.779,422.317z
		 M240.779,428.332v8.224c-2.047-0.558-4.184-1.067-6.38-1.299c-3.582,0-6.955,0.568-10.287,1.349v-11.76
		C229.855,424.296,235.096,425.237,240.779,428.332L240.779,428.332z M224.152,160.02h-5.664l-0.039,158.041
		c1.906-0.84,3.836-1.631,5.684-2.362L224.152,160.02L224.152,160.02L224.152,160.02z M224.132,339.147
		c-2.372-0.384-4.278,0.63-5.684,2.546v16.935c1.346,1.916,3.194,3.429,5.664,4.046v-4.554c-6.048-0.896-7.919-15.367-0.54-15.367
		c-4.392,4.392-2.255,10.126,0.56,10.925V339.147L224.132,339.147L224.132,339.147z M224.112,365.371
		c-0.423,0-0.889-0.053-1.39-0.102c-0.231,4.378-1.636,7.649-4.274,9.506v5.397c1.965-1.679,3.875-3.376,5.664-5.165V365.371
		L224.112,365.371L224.112,365.371z M224.152,150.058v0.568l-5.664,0.605v-0.489L224.152,150.058L224.152,150.058L224.152,150.058z
		 M224.112,377.587v8.439c-1.789,1.464-3.699,2.861-5.664,4.276v-7.656C220.413,381.016,222.265,379.343,224.112,377.587
		L224.112,377.587L224.112,377.587z M224.112,389.688c-1.789,1.464-3.699,2.812-5.664,4.161v3.433
		c1.965-1.237,3.875-2.595,5.664-3.885V389.688L224.112,389.688L224.112,389.688z M224.112,395.978v7.938
		c-1.738,1.188-3.527,2.313-5.339,3.546c-0.114,0-0.212,0-0.325-0.059v-7.717C220.413,398.525,222.324,397.215,224.112,395.978
		L224.112,395.978L224.112,395.978z M224.112,406.905c-0.673,0.45-1.405,0.838-2.141,1.29l2.141,0.568V406.905L224.112,406.905
		L224.112,406.905z M224.112,414.15v7.668c-1.789,0.106-3.664,0.382-5.684,0.906l0.02-8.449
		C220.507,414.101,222.374,414.042,224.112,414.15L224.112,414.15L224.112,414.15z M224.112,424.844v11.76
		c-1.847,0.397-3.758,0.908-5.684,1.407v-12.265C220.413,425.294,222.324,425.018,224.112,424.844L224.112,424.844L224.112,424.844z
		 M218.448,371.452v-8.661l2.196,2.196l-0.85,4.045C219.392,369.987,218.945,370.788,218.448,371.452L218.448,371.452
		L218.448,371.452z M218.448,330.044v-6.31l0.614-3.186h1.194L218.448,330.044L218.448,330.044z M218.488,160.02h-5.304
		l-0.019,160.679c1.738-0.951,3.526-1.789,5.284-2.638L218.488,160.02L218.488,160.02L218.488,160.02z M218.448,341.693
		c-2.991,4.045-3.315,11.983,0,16.935V341.693L218.448,341.693L218.448,341.693z M218.448,374.775
		c-1.429,1.014-3.163,1.638-5.304,1.794v7.929c1.816-1.396,3.605-2.861,5.304-4.326V374.775L218.448,374.775L218.448,374.775z
		 M218.488,150.741v0.489l-5.304,0.626v-0.509L218.488,150.741L218.488,150.741L218.488,150.741z M218.448,323.735v6.31
		l-1.581,8.778h-1.174L218.448,323.735L218.448,323.735L218.448,323.735z M218.448,362.791v8.661
		c-1.464,2.09-3.315,3.104-5.304,3.104v-5.018c2.607,0.11,3.722-2.479,3.722-6.359c-1.233,1.251-1.582,1.809-3.37,1.809
		l-0.352-0.394v-0.105l3.722-3.337L218.448,362.791L218.448,362.791L218.448,362.791z M218.448,382.646v7.656
		c-1.699,1.227-3.488,2.47-5.304,3.652v-7.089C214.961,385.527,216.691,384.11,218.448,382.646L218.448,382.646L218.448,382.646z
		 M218.448,393.849c-1.699,1.188-3.488,2.303-5.304,3.433v3.37c1.816-1.12,3.605-2.245,5.304-3.37V393.849L218.448,393.849
		L218.448,393.849z M218.448,399.687v7.717c-2.082-0.393-3.664-0.84-5.304-1.634v-2.805
		C214.961,401.885,216.75,400.818,218.448,399.687L218.448,399.687L218.448,399.687z M218.448,414.276l-0.02,8.449
		c-0.771,0.154-1.621,0.43-2.47,0.653c-0.959,0.462-1.906,0.859-2.814,1.135v-9.394c0.736-0.168,1.468-0.286,2.239-0.519
		C216.464,414.495,217.482,414.387,218.448,414.276L218.448,414.276L218.448,414.276z M218.429,425.746v12.265
		c-1.738,0.456-3.488,0.906-5.284,1.241V427.21C215,426.652,216.75,426.153,218.429,425.746L218.429,425.746L218.429,425.746z
		 M213.145,361.548v-5.398c0.235-0.217,0.524-0.45,0.79-0.673l1.758,3.934C214.843,360.143,213.994,360.875,213.145,361.548
		L213.145,361.548L213.145,361.548z M213.145,354.07v-4.325h0.059l0.732,3.817L213.145,354.07L213.145,354.07z M213.184,160.02
		h-5.852l-0.02,164.166c1.906-1.243,3.891-2.407,5.852-3.488L213.184,160.02L213.184,160.02L213.184,160.02z M213.145,376.569
		c-0.939,0.057-1.961,0.057-3.037-0.049c-0.732,2.871-1.679,4.834-2.795,6.31v5.848c1.965-1.358,3.93-2.763,5.832-4.18V376.569
		L213.145,376.569L213.145,376.569z M213.184,151.348v0.509l-5.852,0.626v-0.394L213.184,151.348L213.184,151.348L213.184,151.348z
		 M213.145,349.745v4.325l-3.425,2.255c0.845-1.75,1.253-2.313,3.045-3.215c-2.657,0-4.623,1.253-5.452,3.264v-5.969
		C208.718,349.391,210.624,349.06,213.145,349.745L213.145,349.745L213.145,349.745z M213.145,356.151
		c-1.961,1.64-3.868,3.308-5.832,4.899v5.45c1.965-1.618,3.871-3.259,5.832-4.951V356.151L213.145,356.151L213.145,356.151z
		 M213.145,364.488v0.105l-0.11-0.057L213.145,364.488L213.145,364.488L213.145,364.488z M213.145,369.537v5.018
		c-2.02-0.059-4.161-1.188-5.832-3.613v-1.12l1.965-1.625C210.8,369.099,212.088,369.537,213.145,369.537L213.145,369.537
		L213.145,369.537z M213.145,386.866v7.089c-1.902,1.243-3.868,2.421-5.832,3.613v-6.59
		C209.277,389.688,211.184,388.33,213.145,386.866L213.145,386.866L213.145,386.866z M213.145,397.282
		c-1.902,1.174-3.868,2.358-5.832,3.488v0.732l1.671,1.568c1.409-0.777,2.814-1.627,4.161-2.417V397.282L213.145,397.282
		L213.145,397.282z M213.145,402.965v2.805c-0.842-0.331-1.671-0.781-2.58-1.345C211.473,403.916,212.303,403.417,213.145,402.965
		L213.145,402.965L213.145,402.965z M213.145,415.119v9.394c-2.02,0.675-3.946,1.014-5.852,1.122l0.02-10.021
		C209.16,415.614,211.066,415.45,213.145,415.119L213.145,415.119L213.145,415.119z M213.145,427.21v12.042
		c-1.922,0.397-3.887,0.679-5.852,0.83v-12.187c1.578,0,3.194-0.113,5.01-0.403C212.589,427.385,212.859,427.318,213.145,427.21
		L213.145,427.21L213.145,427.21z M207.312,378.309v-3.022l0.501,0.325C207.755,376.569,207.579,377.48,207.312,378.309
		L207.312,378.309L207.312,378.309z M207.312,341.135v-4.059l2.697-11.426h0.85L207.312,341.135L207.312,341.135z M207.332,160.02
		h-3.875l-0.039,166.818c1.292-0.906,2.599-1.805,3.895-2.652L207.332,160.02L207.332,160.02L207.332,160.02z M207.312,382.83
		c-1.139,1.454-2.431,2.4-3.895,3.253v5.118c1.292-0.849,2.58-1.689,3.895-2.523V382.83L207.312,382.83L207.312,382.83z
		 M207.332,152.09v0.394l-3.875,0.436v-0.388L207.332,152.09L207.332,152.09L207.332,152.09z M207.312,337.076v4.059l-1.871,7.881
		l-1.002,0.151L207.312,337.076L207.312,337.076L207.312,337.076z M207.312,350.404v5.969c-0.348,0.791-0.505,1.746-0.505,2.756
		l-2.834,1.572C203.707,356.761,204.612,352.377,207.312,350.404L207.312,350.404L207.312,350.404z M207.312,361.049v5.45
		c-1.296,1.069-2.603,2.139-3.895,3.206v-5.45C204.709,363.179,206.017,362.165,207.312,361.049L207.312,361.049L207.312,361.049z
		 M207.312,369.823v1.12c-0.176-0.223-0.348-0.456-0.525-0.722L207.312,369.823L207.312,369.823L207.312,369.823z M207.312,375.287
		v3.022c-0.673,2.09-2.043,3.613-3.895,4.521v-4.676c1.194-1.076,2.372-2.09,3.488-3.098L207.312,375.287L207.312,375.287
		L207.312,375.287z M207.312,390.978v6.59c-0.732,0.446-1.542,0.84-2.274,1.282l-1.621-2.071v-3.323
		C204.709,392.665,205.997,391.817,207.312,390.978L207.312,390.978L207.312,390.978z M207.312,400.769v0.732l-0.525-0.456
		C206.964,400.94,207.136,400.891,207.312,400.769L207.312,400.769L207.312,400.769z M207.312,415.614l-0.02,10.021
		c-1.295,0-2.583-0.049-3.875-0.282v-9.903C204.709,415.558,205.997,415.614,207.312,415.614L207.312,415.614L207.312,415.614z
		 M207.293,427.895v12.187c-0.505,0.077-1.022,0.126-1.523,0.126l-2.372-5.243l0.02-7.249
		C204.764,427.895,205.997,427.942,207.293,427.895L207.293,427.895L207.293,427.895z M203.418,374.949v-2.313
		c0.176-0.17,0.407-0.335,0.556-0.509l1.202,1.29C204.612,373.925,203.974,374.43,203.418,374.949L203.418,374.949z M203.457,160.02
		h-6.917l-0.039,172.327c2.255-1.965,4.564-3.826,6.917-5.509L203.457,160.02L203.457,160.02L203.457,160.02z M203.418,386.083
		c-1.73,1.014-3.718,1.863-5.957,3.086l2.763,3.995c1.057-0.664,2.118-1.3,3.194-1.963V386.083L203.418,386.083L203.418,386.083z
		 M203.457,152.532v0.388l-6.917,0.794v-0.335L203.457,152.532L203.457,152.532L203.457,152.532z M203.418,364.255v5.45
		c-2.294,1.863-4.603,3.779-6.917,5.627v-5.509C198.815,368.014,201.124,366.161,203.418,364.255L203.418,364.255L203.418,364.255z
		 M203.418,372.636c-2.294,1.965-4.603,3.885-6.917,5.791v2.36c2.313-1.901,4.623-3.817,6.917-5.838V372.636L203.418,372.636
		L203.418,372.636z M203.418,378.155v4.676c-1.174,0.548-2.579,0.838-4.219,0.838c-0.908,0.783-1.809,1.515-2.697,2.247v-1.699
		C198.815,382.204,201.124,380.172,203.418,378.155L203.418,378.155L203.418,378.155z M203.418,393.455v3.323l-1.73-2.31
		C202.243,394.131,202.842,393.781,203.418,393.455L203.418,393.455L203.418,393.455z M203.418,415.45v9.903
		c-2.082-0.335-4.219-0.965-6.415-1.975l-0.521-1.231v-8.046C198.854,414.718,201.163,415.168,203.418,415.45L203.418,415.45
		L203.418,415.45z M203.418,427.715l-0.02,7.249l-3.488-7.754C201.163,427.433,202.283,427.598,203.418,427.715L203.418,427.715
		L203.418,427.715z M196.501,363.973c0.908-0.683,2.141-1.076,3.722-1.076c-1.973,0.675-2.372,1.358-2.665,3.38l4.13-3.206v-3.209
		c-2.028-0.902-3.781-0.849-5.187-0.219V363.973L196.501,363.973z M196.54,160.02h-60.158l0.446,6.3l3.218,0.392
		c3.202,64.818,14.952,127.265,37.209,188.149c5.703-8.841,12.158-16.328,19.246-22.513L196.54,160.02L196.54,160.02L196.54,160.02z
		 M196.54,153.38v0.335l-29.326,3.259L196.54,153.38L196.54,153.38L196.54,153.38z M196.501,359.642v4.331
		c-1.523,1.121-2.313,2.979-2.313,5.349l-2.462,1.466C191.26,366.559,192.9,361.21,196.501,359.642L196.501,359.642L196.501,359.642
		z M196.501,369.823c-5.339,4.22-10.752,8.331-16.319,12.381l2.024,4.486c4.775-3.763,9.551-7.531,14.295-11.357V369.823
		L196.501,369.823L196.501,369.823z M196.501,378.427v2.36c-4.161,3.382-8.38,6.703-12.486,10.191l-0.732-2.09
		C187.713,385.41,192.109,381.971,196.501,378.427L196.501,378.427L196.501,378.427z M196.501,384.216v1.699
		c-3.601,3.022-7.265,5.902-10.925,8.83l-0.442-0.742C188.966,390.759,192.724,387.49,196.501,384.216L196.501,384.216
		L196.501,384.216z M196.481,414.101v8.046l-3.758-9.118C194.016,413.438,195.253,413.763,196.481,414.101L196.481,414.101z"/>
	<path style="fill:#F5C159;" d="M368.526,101.676v-8.337l0.286-0.102l1.738-0.965l1.632-1.184l1.237-1.337l0.908-1.364l0.556-1.405
		l0.403-1.46l0.157-1.247v-1.174l-0.274-1.523l-0.403-1.231l-0.556-1.073l-0.791-1.358l-1.237-1.231l-1.346-0.906l-1.519-0.665
		l-0.791-0.174v-4.045h2.157l1.789,0.117l2.141,0.27l2.02,0.403l2.023,0.84l1.91,0.949l1.37,1.082l1.229,1.348l1.065,1.64
		l0.959,2.012l0.56,1.916l0.27,1.851l-0.157,1.634l-0.286,1.795l-0.673,1.634l-0.79,1.572l-1.237,1.417l-1.46,1.348l-1.64,1.188
		l-1.792,0.84l-2.024,0.785l-1.75,0.397l-0.791,0.276l1.346,0.675l1.194,0.849l1.12,1.061l0.904,1.076l12.373,14.913l1.057,1.237
		l1.256,1.057l1.347,0.965l1.35,0.961l0.943,0.552l1.077,0.403l1.08,0.282v0.781h-11.101l-1.346-0.108l-1.405-0.28l-1.174-0.568
		l-1.084-0.791l-1.112-1.233L368.526,101.676L368.526,101.676z M368.526,70.894v4.045l-0.673-0.102l-1.914-0.174h-1.922
		l-1.621,0.276l-0.791,0.174v19.461h1.464l1.522-0.105l1.464-0.282l1.39-0.393l1.08-0.456v8.337l-1.91-2.478l-0.677-0.685
		l-0.693-0.663l-0.771-0.519l-0.842-0.558l-0.947-0.282l-0.967-0.107l-0.114,24.638h-12.212v-0.781l0.556-0.564l0.403-0.556
		l0.388-0.685l0.286-0.79l0.274-0.849l0.29-0.775v-0.849V76.967v-0.669l-0.153-0.685l-0.117-0.673l-0.407-0.558l-0.443-0.501
		l-0.384-0.556l-0.525-0.409l-1.115-0.673l-0.963-0.403l-0.501-0.155v-0.791H368.526L368.526,70.894L368.526,70.894z
		 M192.646,121.983v-5.961l1.139,0.102h1.636l1.335-0.102l1.632-0.572l1.851-0.941l1.538-1.083l1.178-1.241l1.115-1.456l1.084-1.924
		l0.791-1.736l0.654-2.024l0.458-2.022l0.274-2.313l0.109-2.198v-2.022l-0.266-2.139l-0.575-2.304l-0.505-2.298l-1.057-2.605
		l-1.233-2.294l-1.366-2.192l-1.621-1.863l-1.91-1.798l-1.926-1.348l-1.847-0.965l-2.47-0.665v-6.081h1.796l2.811,0.388l2.466,0.568
		l2.427,0.791l2.2,1.115l2.137,1.188l2.196,1.513l2.024,1.857l1.73,1.916l1.542,2.024l1.158,2.196l1.253,2.595l0.94,3.088
		l0.505,2.595l0.286,2.415v2.586l-0.38,3.255l-0.58,2.822l-0.947,2.589l-1.346,2.989l-1.464,2.419l-1.621,2.071l-1.925,2.041
		l-2.314,1.838l-2.137,1.524l-2.2,1.235l-2.693,1.079l-3.257,0.945l-2.544,0.403H192.646L192.646,121.983L192.646,121.983z
		 M249.297,121.695h3.656l19.211-45.01l0.446-0.781l0.501-0.79l0.673-0.85l0.673-0.683l0.85-0.558l1.444-0.889l0.869-0.45v-0.791
		h-14.24v0.791l0.403,0.282l0.556,0.558l0.392,0.673l0.286,0.683l0.094,0.783l-0.094,0.95l-0.286,0.849l-11.876,27.619L241.05,76.86
		l-0.403-1.08l-0.098-0.942v-0.679l0.098-0.685l0.403-0.673l0.439-0.665l0.681-0.45v-0.791h-17.501v0.791l0.505,0.282l1.409,0.673
		l1.19,0.834l1.057,1.082l0.849,1.057l0.293,0.573l0.266,0.499L249.297,121.695L249.297,121.695L249.297,121.695z M292.624,120.241
		v0.781h36.575l3.162-10.408l-0.697-0.286l-0.83,1.077l-0.963,1.231l-0.908,0.967l-0.959,0.779l-0.947,0.394l-1.077,0.184h-0.732
		h-20.311V97.574h15.88h0.791l0.673,0.16l0.556,0.397l0.579,0.382l0.368,0.4l0.305,0.558h0.771v-9.617h-0.771l-0.176,0.106
		l-0.399,0.732l-0.384,0.397l-0.681,0.403l-0.669,0.282h-0.677h-16.166V76.578h15.994l1.35,0.107l1.233,0.282l1.229,0.577
		l1.084,0.673l0.959,0.941l0.791,0.955l0.446,0.791h0.791l-0.29-10.011h-38.094v0.791h0.462l0.673,0.282l0.791,0.392l0.673,0.558
		l0.677,0.791l0.673,0.957l0.29,0.95l0.153,0.965l0.113,0.781l-0.113,37.601v0.781l-0.172,0.947l-0.388,1.251l-0.403,1.057
		l-0.556,0.683L292.624,120.241L292.624,120.241z M134.323,74.664h0.098l1.366,0.451l1.346,0.781l1.354,1.073l1.057,1.251
		l0.849,1.338l0.501,1.464l0.407,1.64v1.338l-0.117,1.523l-0.289,1.46l-0.677,1.405l-0.787,1.188l-1.233,1.233l-1.464,1.241
		l-1.906,1.063l-0.525,0.174v8.381l13.125,16.935l0.943,0.955l1.077,0.787l1.084,0.398l1.209,0.174h0.58h11.249v-0.673l-0.732-0.282
		l-1.75-0.857l-1.621-0.951l-1.867-1.746l-4.873-5.791l-4.357-5.175l-4.897-5.969l-0.767-0.781l-0.849-0.84l-0.791-0.683
		l-1.906-1.233l0.943-0.125l1.93-0.675l2.023-0.663l1.73-0.955l1.464-1.243l1.405-1.184l1.065-1.513l0.81-1.638l0.654-1.742
		l0.285-1.638v-1.896l-0.285-1.863l-0.388-1.798l-0.791-1.64l-0.943-1.464l-1.081-1.231l-1.523-1.19l-1.73-0.949l-1.797-0.84
		l-1.867-0.509l-1.906-0.291h-2.869h-1.969V74.664L134.323,74.664L134.323,74.664z M192.665,69.939v6.081l0,0l-2.039-0.24
		l-2.122,0.24l-1.809,0.443l-1.621,0.896l-1.601,1.243l-1.233,1.237l-1.061,1.356l-0.959,1.906l-0.947,2.034l-0.693,2.012
		l-0.384,2.313l-0.289,2.589v2.527l0.289,2.591l0.384,2.705l0.693,2.478l0.947,2.417l1.632,3.084l1.449,2.09l0.865,0.906
		l0.391,0.558l0.38,0.558l0.697,0.673l1.327,1.073l1.523,0.951l1.758,0.79l1.613,0.456l0.791,0.115v5.961h-0.497l-2.583-0.107
		l-2.603-0.45l-2.293-0.511l-2.697-1.129l-2.697-1.349l-2.02-1.464l-1.64-1.348l-0.673-0.849l-0.869-0.673l-1.331-1.634
		l-1.194-1.738l-1.229-2.196l-1.065-2.255l-0.846-2.591l-0.52-2.977l-0.442-2.707v-2.744l0.286-2.707l0.564-2.803l0.959-2.871
		l0.967-2.421l1.327-2.323l1.468-2.196l1.75-2.024l1.812-1.73l2.024-1.63l2.314-1.532l2.967-1.456l2.579-0.847l2.431-0.499
		l2.427-0.282H192.665L192.665,69.939z M127.328,94.353V74.94l1.523-0.276l1.926-0.282h2.008l1.538,0.282v-3.779h-21.442v0.8h0.403
		l1.061,0.45l0.963,0.39l0.673,0.499l0.556,0.683l0.407,0.957l0.274,0.95l0.109,0.965v0.39l-0.02,37.808l-0.109,1.247l-0.27,1.057
		l-0.392,1.073l-0.556,1.125l-0.693,0.965v0.673h11.923l0.117-24.705h0.56l0.56,0.174l1.37,0.501l1.174,0.669l0.963,0.959
		l0.673,0.957l0.442,0.558l1.233,1.638v-8.381l-1.519,0.509l-1.89,0.393l-2.31,0.165H127.328L127.328,94.353z"/>
	<path style="fill:#932E36;" d="M331.532,339.38l0.02-55.238c8.145-38.381,12.714-76.569,13.829-117.089h18.401
		C361.413,226.578,350.665,282.784,331.532,339.38L331.532,339.38L331.532,339.38z M331.551,271.473
		c6.357-33.988,8.995-67.631,10.921-104.305h-10.901L331.551,271.473L331.551,271.473z M331.571,167.168l-0.02,104.305
		c-3.398,17.955-7.785,35.952-13.645,54.634l-9.617-6.917v-33.768c7.093-38.882,10.604-78.824,8.463-118.254H331.571
		L331.571,167.168L331.571,167.168z M331.551,284.142c-3.163,14.622-6.826,29.316-10.987,44.16l10.615,11.986
		c0.117-0.282,0.235-0.616,0.352-0.908L331.551,284.142L331.551,284.142L331.551,284.142z M308.289,268.671
		c4.9-33.547,6.767-67.296,5.82-101.618h-5.801L308.289,268.671L308.289,268.671z M285.594,166.712h2.411
		c2.427,32.737,1.405,65.493-2.431,97.947L285.594,166.712L285.594,166.712L285.594,166.712z M308.309,167.052H290.49
		c2.29,40.17,1.214,79.099-4.936,118.369v22.284l14.412,5.801c3.37-14.913,6.188-29.876,8.322-44.836L308.309,167.052
		L308.309,167.052L308.309,167.052z M308.289,285.422v33.768l-6.009-4.335C304.535,305.12,306.559,295.266,308.289,285.422
		L308.289,285.422z M279.198,305.519c-2.18-0.466-4.431-0.849-6.686-1.131c-0.83-3.38-1.64-6.701-2.294-10.071v-63.184
		c1.311,0.513,1.061-1.916,0-7.032v-21.442c1.405-1.353,2.599-2.76,3.719-4.375l-1.754-3.603c-0.615,0.781-1.292,1.621-1.965,2.415
		v-3.773c2.658-4.5,3.507-9.22,2.658-14.012c-0.732,2.372-1.577,4.85-2.658,7.198v-19.798h15.375l-0.02,97.947
		C283.938,278.331,281.801,291.955,279.198,305.519L279.198,305.519L279.198,305.519z M270.219,303.545v0.558h0.157
		C270.316,303.938,270.258,303.715,270.219,303.545L270.219,303.545L270.219,303.545z M285.555,285.422
		c-1.057,6.915-2.29,13.837-3.695,20.82l3.695,1.464V285.422L285.555,285.422z M270.219,294.317
		c-3.546-17.557-4.623-35.493-4.623-54.974l-1.851,0.732v-6.081c0.462,0.965,0.908,1.815,1.581,2.429
		c2.255-1.697,1.174-7.429-1.581-10.576v-3.212c2.255,1.922,3.953,4.899,5.241,7.547c0.501,0.499,0.904,0.79,1.233,0.951V294.317
		L270.219,294.317L270.219,294.317z M263.744,254.538v30.277c0.849,6.406,1.965,12.696,3.429,18.949
		c1.002,0.105,2.027,0.233,3.045,0.338v-0.558C266.234,287.676,264.476,271.867,263.744,254.538L263.744,254.538L263.744,254.538z
		 M263.764,166.712h6.454v19.798c-1.386,3.22-3.194,6.196-5.625,8.555h-0.849L263.764,166.712L263.764,166.712L263.764,166.712z
		 M270.219,193.323c-1.115,1.965-2.638,3.832-4.431,5.693h-2.043v4.161c0.059,0.216,0.176,0.443,0.29,0.666h-0.29v2.871l3.331,0.335
		v0.906h-3.331v2.756h0.407c0,1.631-0.117,2.977-0.407,4.21v6.658c1.984-3.272,2.889-5.801,2.889-9.864h0.716
		c1.249,5.126,2.196,9.238,2.869,12.387v-21.442c-0.501,0.452-0.998,0.902-1.523,1.358l-2.196-2.822
		c1.237-1.339,2.544-2.701,3.718-4.098V193.323L270.219,193.323z M263.744,240.075l-0.442,0.174
		c0.059,4.895,0.235,9.691,0.442,14.289v30.277c-1.965-14.133-2.58-28.584-2.352-44.006l-2.368,0.45l0.775,62.112
		c-0.736-0.059-1.468-0.059-2.239-0.059v-63.063h-1.961v-2.813h3.985c3.605-0.847,0.231-5.791-1.405-7.429h-2.579v-2.871
		c0.055,0,0.055,0,0.055,0c5.335-0.108,6.588,3.836,8.091,6.858V240.075L263.744,240.075L263.744,240.075z M255.599,166.712h8.165
		l-0.02,28.353h-3.026l-1.809-0.84v0.84h-1.738v-3.763h-1.573V166.712L255.599,166.712L255.599,166.712z M263.744,199.016v4.161
		c-0.614-1.464-0.998-2.763-1.233-4.161H263.744L263.744,199.016L263.744,199.016z M263.744,203.843h-4.834v-4.826h-1.738v7.024
		l6.572,0.673V203.843L263.744,203.843L263.744,203.843z M263.744,207.954v2.756h-8.145v-2.756H263.744L263.744,207.954
		L263.744,207.954z M263.744,214.92v6.658c-0.157,0.213-0.325,0.432-0.442,0.665c0.117,0.115,0.286,0.223,0.442,0.391v3.212
		c-2.024-2.245-4.834-3.153-7.977-0.509c-0.059-0.049-0.114-0.117-0.168-0.117v-2.245h0.673c0.497-1.184,0.842-1.63,1.633-2.58
		c-0.634-2.499-1.135-4.676-1.366-7.218h6.764c-1.464,1.916-2.255,2.648-4.568,3.38c0.29,1.916,0.673,2.824,2.196,4.114
		C262.398,218.648,263.243,216.908,263.744,214.92L263.744,214.92z M255.599,240.249h-1.758v63.063
		c-0.908,0-1.789,0.059-2.658,0.059l0.752-62.387l-2.313-0.456c0.176,14.636-0.325,28.361-2.079,41.81v-24.924
		c0.29-5.578,0.517-11.373,0.614-17.338l-0.614-0.223v-3.429c0.113,0.049,0.172,0.117,0.29,0.166
		c0.615-3.934,3.985-9.279,7.766-9.453v2.871h-1.582c-1.468,1.638-5.511,6.582-1.291,7.429h2.873V240.249L255.599,240.249
		L255.599,240.249z M247.559,166.712h8.04v24.59h-1.182v3.763h-1.867v-1.115l-1.792,1.115h-3.198V166.712L247.559,166.712
		L247.559,166.712z M255.599,207.954v2.756h-8.04v-2.756H255.599L255.599,207.954L255.599,207.954z M255.599,222.975v2.245
		c-3.221-2.245-6.189-0.732-8.056,1.857v-4.161c0.231-0.335,0.458-0.558,0.614-0.791c-0.215-0.441-0.384-0.849-0.614-1.231
		l0.016-6.474c0.501,2.032,1.292,3.948,2.466,5.975c1.237-1.247,1.852-2.313,2.525-3.838c-2.235-0.673-3.139-1.356-4.372-3.38h6.239
		c0,2.881-0.399,4.505-1.307,7.218c0.673,0.881,1.022,1.507,1.464,2.58H255.599L255.599,222.975L255.599,222.975z M247.559,206.665
		v-2.822h4.991v-4.826h1.867v6.848L247.559,206.665L247.559,206.665L247.559,206.665z M247.559,203.11
		c0.736-1.338,1.233-2.648,1.468-4.094h-1.468V203.11L247.559,203.11z M247.543,282.337c-0.908,7.255-2.2,14.395-3.84,21.483
		c-0.881,0.117-1.789,0.176-2.693,0.282c3.875-15.195,5.684-30.263,6.533-46.689V282.337L247.543,282.337L247.543,282.337z
		 M247.543,239.852v-3.429c-2.756-1.523-2.18-6.183,0-9.346v-4.161c-1.621,2.421-4.611,7.323-6.126,7.822
		c-0.176-0.106-0.294-0.223-0.446-0.335v64.861c3.758-17.949,4.814-36.174,4.814-56.029L247.543,239.852L247.543,239.852
		L247.543,239.852z M240.971,166.712h6.587v28.353h-1.131c-2.529-2.474-4.278-5.404-5.456-8.555V166.712L240.971,166.712
		L240.971,166.712z M247.559,199.016v4.094c-0.113,0.233-0.29,0.509-0.458,0.732h0.458v2.822l-3.331,0.384v0.906h3.331v2.756h-0.556
		c0.098,1.349,0.266,2.537,0.556,3.711l-0.016,6.474c-1.527-3.212-2.259-5.801-2.912-9.569h-0.403
		c-0.407,1.697-2.255,7.089-3.257,11.764v-21.043c0.329,0.331,0.673,0.722,1.061,1.063c0.959-0.955,1.691-1.571,2.481-2.756
		c-1.405-1.405-2.481-2.593-3.542-3.991v-2.589c1.021,1.857,2.372,3.603,4.274,5.241H247.559L247.559,199.016z M240.971,295.266
		c-0.638,3.045-1.311,6.034-2.102,9.056c-2.403,0.28-4.834,0.63-7.265,1.014c-2.521-12.092-4.427-24.251-5.832-36.399l0.019-102.225
		h15.18v19.798c-0.85-2.3-1.409-4.72-1.734-7.198c-0.693,5.116-0.579,10.011,1.734,14.463v2.589
		c-0.56-0.732-1.136-1.528-1.754-2.415l-1.734,3.767c1.119,1.451,2.255,2.916,3.488,4.331v21.043c-0.677,3.255-0.908,6.126,0,7.314
		V295.266L240.971,295.266L240.971,295.266z M225.772,307.259l3.37-1.348c-1.233-6.251-2.352-12.492-3.37-18.744V307.259
		L225.772,307.259z M225.772,268.937c-3.934-33.813-3.875-67.956-2.74-102.225h2.759L225.772,268.937L225.772,268.937
		L225.772,268.937z M225.772,287.167c-6.474-39.828-8.212-80.178-5.108-120.571h-17.9v100.716
		c2.137,15.131,4.893,30.326,8.439,45.797l14.569-5.85V287.167L225.772,287.167L225.772,287.167z M202.744,318.675l0.02-33.021
		c1.789,9.611,3.758,19.248,5.895,28.744L202.744,318.675L202.744,318.675z M202.764,166.596v100.716
		c-4.662-33.252-6.184-66.167-5.899-100.716H202.764L202.764,166.596L202.764,166.596z M202.764,285.655
		c-7.151-39.115-10.674-79.339-8.556-118.943H179.47v101.9c3.429,18.667,7.801,37.456,13.602,57.039l9.672-6.975L202.764,285.655
		L202.764,285.655L202.764,285.655z M179.451,338.939l0.02-56.215c3.084,15.019,6.74,30.001,10.96,45.122l-10.694,11.985
		C179.681,339.554,179.568,339.274,179.451,338.939L179.451,338.939z M179.47,166.712v101.9
		c-6.071-33.154-9.054-65.953-10.968-101.9H179.47L179.47,166.712L179.47,166.712z M179.47,282.725
		c-7.923-38.086-12.432-76.126-13.876-116.128h-18.401c2.411,59.53,13.144,115.721,32.257,172.343L179.47,282.725L179.47,282.725z"
		/>
</g>
</svg>
