<?xml version="1.0" encoding="UTF-8"?>
<svg xmlns="http://www.w3.org/2000/svg" xmlns:xlink="http://www.w3.org/1999/xlink" width="192.76pt" height="192.76pt" viewBox="0 0 192.76 192.76" version="1.1">
<g id="surface1">
<path style=" stroke:none;fill-rule:evenodd;fill:rgb(100%,100%,100%);fill-opacity:1;" d="M 0 0.00390625 L 192.757813 0.00390625 L 192.757813 192.761719 L 0 192.761719 L 0 0.00390625 "/>
<path style=" stroke:none;fill-rule:evenodd;fill:rgb(0%,17.999268%,39.99939%);fill-opacity:1;" d="M 184.253906 96.382813 C 184.253906 47.855469 144.90625 8.507813 96.378906 8.507813 C 47.851563 8.507813 8.503906 47.855469 8.503906 96.382813 C 8.503906 144.910156 47.851563 184.257813 96.378906 184.257813 C 144.90625 184.257813 184.253906 144.910156 184.253906 96.382813 "/>
<path style=" stroke:none;fill-rule:evenodd;fill:rgb(86.299133%,86.698914%,87.098694%);fill-opacity:1;" d="M 96.378906 14.878906 C 141.15625 14.878906 177.882813 51.414063 177.882813 96.382813 C 177.882813 141.160156 141.15625 177.886719 96.378906 177.886719 C 51.410156 177.886719 14.875 141.160156 14.875 96.382813 C 14.875 51.414063 51.410156 14.878906 96.378906 14.878906 "/>
<path style=" stroke:none;fill-rule:evenodd;fill:rgb(0%,17.999268%,39.99939%);fill-opacity:1;" d="M 174.882813 96.382813 C 174.882813 52.914063 139.660156 17.875 96.378906 17.875 C 53.097656 17.875 17.871094 52.914063 17.871094 96.382813 C 17.871094 139.664063 53.097656 174.886719 96.378906 174.886719 C 139.660156 174.886719 174.882813 139.664063 174.882813 96.382813 "/>
<path style=" stroke:none;fill-rule:evenodd;fill:rgb(86.299133%,86.698914%,87.098694%);fill-opacity:1;" d="M 54.222656 63.78125 C 55.90625 65.28125 58.53125 68.089844 62.464844 68.089844 C 66.585938 68.089844 69.585938 66.589844 72.394531 66.589844 C 74.457031 66.589844 78.015625 67.714844 79.703125 71.273438 C 78.765625 70.527344 76.890625 69.589844 73.707031 69.589844 C 71.460938 69.589844 67.523438 71.835938 64.152344 71.835938 C 58.90625 71.835938 55.90625 67.527344 54.222656 63.78125 "/>
<path style=" stroke:none;fill-rule:evenodd;fill:rgb(90.19928%,69.799805%,22.698975%);fill-opacity:1;" d="M 82.699219 48.980469 L 73.332031 27.242188 C 77.265625 27.242188 81.203125 28.929688 81.203125 32.117188 C 81.203125 33.050781 80.828125 34.175781 80.078125 35.300781 C 80.078125 35.488281 80.078125 35.488281 80.265625 35.488281 C 81.015625 34.738281 81.949219 34.175781 83.074219 34.175781 C 85.136719 34.175781 86.636719 35.863281 86.636719 37.925781 C 86.636719 39.796875 85.136719 41.484375 83.074219 41.484375 C 82.886719 41.484375 82.511719 41.484375 82.324219 41.484375 C 82.511719 42.234375 85.136719 43.730469 88.132813 43.730469 C 90.382813 43.730469 93.003906 42.796875 94.503906 39.796875 C 93.941406 40.359375 93.003906 40.546875 92.257813 40.546875 C 90.195313 40.546875 88.507813 39.046875 88.507813 36.988281 C 88.507813 34.925781 90.195313 33.238281 92.257813 33.238281 C 93.003906 33.238281 93.753906 33.425781 94.316406 33.800781 C 93.566406 33.238281 93.003906 32.304688 93.003906 31.179688 C 93.003906 29.304688 94.691406 27.617188 96.753906 27.617188 C 98.8125 27.617188 100.5 29.304688 100.5 31.179688 C 100.5 32.117188 100.125 33.050781 99.375 33.613281 C 99.9375 33.425781 100.5 33.238281 101.0625 33.238281 C 103.121094 33.238281 104.808594 34.925781 104.808594 36.988281 C 104.808594 39.046875 103.121094 40.546875 101.0625 40.546875 C 100.125 40.546875 99.375 40.171875 98.628906 39.796875 C 99.1875 41.296875 102 43.917969 105.371094 43.917969 C 107.246094 43.917969 109.308594 43.171875 111.179688 41.484375 C 110.992188 41.484375 110.804688 41.484375 110.617188 41.484375 C 108.367188 41.484375 106.683594 39.796875 106.683594 37.925781 C 106.683594 35.863281 108.367188 34.175781 110.617188 34.175781 C 111.554688 34.175781 112.492188 34.738281 113.242188 35.488281 C 113.242188 35.488281 113.242188 35.488281 113.429688 35.488281 C 113.429688 35.488281 113.613281 35.488281 113.613281 35.300781 C 112.679688 34.175781 112.304688 33.050781 112.304688 32.117188 C 112.304688 28.929688 116.238281 27.242188 119.984375 27.242188 L 110.992188 48.789063 L 83.824219 48.789063 C 83.449219 48.789063 83.074219 48.789063 82.699219 48.980469 "/>
<path style=" stroke:none;fill-rule:evenodd;fill:rgb(86.299133%,86.698914%,87.098694%);fill-opacity:1;" d="M 79.890625 53.664063 C 80.265625 51.414063 81.949219 48.789063 83.824219 48.789063 L 110.992188 48.789063 C 111.554688 49.351563 112.117188 50.101563 112.679688 50.851563 C 114.554688 50.101563 116.425781 49.914063 117.925781 49.914063 C 119.234375 49.914063 120.175781 50.101563 120.359375 50.101563 C 120.359375 50.101563 121.484375 50.289063 121.671875 50.664063 C 120.359375 53.664063 119.425781 55.347656 118.300781 56.847656 C 122.984375 61.71875 124.855469 67.714844 123.921875 75.398438 C 122.609375 74.648438 119.984375 73.523438 118.488281 73.148438 C 120.921875 76.894531 121.671875 80.269531 121.671875 84.015625 C 121.671875 86.640625 121.109375 89.449219 119.984375 92.070313 L 119.234375 94.132813 C 117.738281 92.070313 116.613281 90.574219 114.925781 89.261719 C 115.300781 90.574219 115.863281 93.382813 115.863281 95.257813 C 115.863281 100.316406 113.804688 104.8125 109.117188 107.8125 C 108.183594 105.375 106.308594 101.816406 104.433594 99.566406 C 104.621094 104.25 104.433594 109.683594 102.5625 113.242188 C 99 117.929688 94.128906 120.738281 86.449219 122.613281 C 87.757813 119.429688 88.882813 110.996094 88.320313 100.878906 C 86.824219 103.128906 85.136719 107.4375 84.574219 112.871094 C 82.699219 111.371094 77.078125 107.25 77.078125 99.941406 C 77.078125 96.945313 78.203125 93.945313 80.078125 90.949219 C 77.453125 92.070313 75.582031 93.757813 73.707031 97.507813 C 73.144531 92.261719 74.082031 86.640625 76.707031 82.515625 C 69.960938 82.328125 68.085938 78.394531 68.460938 72.398438 C 70.335938 74.085938 72.394531 75.210938 75.207031 75.210938 C 78.015625 75.210938 81.578125 74.085938 85.136719 69.402344 C 83.449219 68.464844 81.949219 67.902344 80.828125 67.527344 C 79.515625 67.152344 77.453125 66.777344 75.394531 64.15625 C 74.644531 63.21875 73.332031 63.03125 71.832031 63.03125 C 69.960938 63.03125 67.148438 63.40625 62.839844 65.652344 C 63.402344 54.785156 68.648438 51.414063 72.769531 51.414063 C 74.832031 51.414063 77.265625 52.164063 79.890625 53.664063 "/>
<path style=" stroke:none;fill-rule:evenodd;fill:rgb(86.299133%,86.698914%,87.098694%);fill-opacity:1;" d="M 127.480469 143.035156 L 134.789063 143.035156 C 135.726563 143.035156 136.476563 142.285156 136.476563 141.535156 C 136.476563 140.601563 135.726563 140.039063 134.789063 140.039063 L 127.480469 140.039063 Z M 134.414063 135.355469 C 135.160156 135.355469 135.910156 134.605469 135.910156 133.667969 C 135.910156 132.917969 135.160156 132.167969 134.414063 132.167969 L 127.480469 132.167969 L 127.480469 135.355469 Z M 79.703125 140.226563 L 86.261719 140.226563 L 82.886719 132.167969 Z M 103.6875 140.226563 L 110.242188 140.226563 L 106.871094 132.167969 Z M 57.40625 126.546875 C 64.339844 126.546875 70.710938 127.671875 70.710938 133.480469 L 61.339844 133.480469 C 61.339844 131.042969 59.65625 130.667969 57.40625 130.667969 C 55.34375 130.667969 53.847656 131.230469 53.847656 132.730469 C 53.847656 134.230469 55.15625 134.980469 58.53125 134.980469 C 66.960938 134.980469 70.710938 136.476563 71.460938 140.410156 L 76.890625 126.921875 L 89.070313 126.921875 L 94.878906 141.347656 L 100.875 126.921875 L 112.867188 126.921875 L 119.609375 142.847656 L 119.609375 126.921875 L 138.910156 126.921875 C 143.78125 126.921875 144.90625 130.296875 144.90625 132.355469 C 144.90625 134.230469 144.15625 136.851563 140.40625 137.414063 C 144.71875 137.789063 145.65625 140.976563 145.65625 142.847656 C 145.65625 145.097656 143.96875 148.65625 139.847656 148.65625 L 113.613281 148.65625 L 112.304688 145.285156 L 101.625 145.285156 L 100.125 148.65625 L 89.820313 148.65625 L 88.320313 145.285156 L 77.640625 145.285156 L 76.144531 148.65625 L 67.898438 148.65625 L 68.648438 146.78125 C 67.335938 147.90625 65.089844 149.21875 57.59375 149.21875 C 50.472656 149.21875 44.101563 147.71875 43.914063 141.910156 L 53.472656 141.910156 C 53.472656 143.222656 54.40625 144.722656 57.40625 144.722656 C 61.152344 144.722656 61.527344 143.597656 61.527344 142.660156 C 61.527344 141.347656 60.59375 140.226563 56.09375 140.226563 C 49.535156 140.226563 44.851563 139.101563 44.851563 133.855469 C 44.851563 127.859375 51.785156 126.546875 57.40625 126.546875 "/>
<path style=" stroke:none;fill-rule:evenodd;fill:rgb(80.799866%,6.298828%,25.498962%);fill-opacity:1;" d="M 87.945313 57.035156 C 87.945313 57.785156 87.011719 58.910156 85.324219 58.910156 C 83.824219 58.910156 83.074219 57.972656 82.886719 57.222656 C 82.511719 57.222656 82.136719 57.222656 81.765625 57.035156 C 81.765625 59.65625 83.636719 60.40625 85.511719 60.40625 C 86.824219 60.40625 88.882813 60.03125 89.445313 57.035156 C 89.070313 57.035156 88.507813 57.035156 87.945313 57.035156 "/>
<path style=" stroke:none;fill-rule:evenodd;fill:rgb(80.799866%,6.298828%,25.498962%);fill-opacity:1;" d="M 79.703125 56.285156 C 77.078125 54.785156 74.644531 53.851563 72.769531 53.851563 C 68.273438 53.851563 66.398438 58.910156 65.652344 61.71875 C 68.085938 60.96875 70.148438 60.59375 71.832031 60.59375 C 74.269531 60.59375 75.957031 61.15625 77.265625 62.65625 C 78.578125 64.53125 80.265625 64.90625 80.828125 64.90625 C 83.261719 65.652344 87.570313 67.152344 87.570313 69.214844 C 87.570313 69.589844 87.570313 70.152344 87.011719 70.714844 C 82.699219 76.148438 78.765625 77.644531 75.394531 77.644531 C 73.707031 77.644531 72.394531 77.269531 71.273438 76.894531 C 72.207031 79.519531 74.832031 80.082031 76.890625 80.082031 C 78.578125 80.082031 80.078125 79.894531 83.261719 79.144531 C 79.890625 81.765625 77.078125 85.140625 76.332031 90.386719 C 79.328125 88.136719 82.511719 87.574219 85.886719 87.574219 C 81.949219 91.695313 79.703125 95.820313 79.703125 99.941406 C 79.703125 104.25 81.578125 106.6875 82.886719 108.1875 C 84.386719 101.253906 87.945313 96.945313 90.195313 94.695313 C 91.507813 104.4375 90.757813 114.929688 90.007813 119.054688 C 94.128906 117.554688 97.691406 115.679688 100.5 111.933594 C 102.1875 109.121094 102.375 100.878906 101.8125 94.132813 C 105.371094 96.382813 108.558594 100.503906 110.054688 103.875 C 112.117188 101.816406 113.242188 99.003906 113.242188 95.257813 C 113.242188 91.136719 111.929688 87.386719 110.617188 84.578125 C 113.613281 85.515625 116.238281 86.824219 118.300781 89.261719 C 118.863281 87.386719 119.234375 85.703125 119.234375 83.828125 C 119.234375 77.269531 115.675781 72.585938 113.242188 70.152344 C 117.175781 70.152344 119.425781 70.902344 121.671875 71.648438 C 121.859375 67.527344 120.734375 62.65625 116.988281 58.722656 C 113.613281 62.65625 110.429688 64.90625 104.058594 67.152344 C 109.679688 71.460938 107.996094 78.019531 102.746094 84.578125 C 102.1875 81.765625 101.4375 79.332031 99.5625 77.269531 C 99.9375 80.832031 99 87.386719 91.695313 90.949219 C 91.882813 88.136719 91.507813 85.703125 90.945313 83.265625 C 90.382813 83.828125 89.445313 84.578125 88.507813 85.328125 C 88.320313 84.578125 88.132813 83.265625 88.320313 82.328125 C 89.632813 81.203125 90.757813 79.707031 92.070313 78.207031 C 93.191406 81.019531 93.753906 84.765625 93.941406 86.449219 C 96.566406 84.015625 98.628906 79.519531 96.003906 71.460938 C 99.9375 73.523438 102 75.585938 103.496094 78.957031 C 107.621094 72.023438 103.3125 68.464844 96.941406 66.027344 C 104.433594 65.09375 113.613281 61.71875 118.300781 52.351563 C 115.113281 52.164063 110.242188 53.289063 105.558594 59.285156 C 104.996094 58.910156 104.246094 58.347656 104.058594 57.785156 C 105.933594 55.160156 108.183594 53.101563 110.617188 51.789063 C 110.429688 51.414063 110.242188 51.039063 110.054688 51.039063 L 84.011719 51.039063 C 83.074219 51.039063 82.136719 52.726563 81.765625 54.597656 C 82.324219 54.785156 83.261719 54.785156 84.199219 54.785156 C 85.136719 54.785156 86.074219 54.785156 87.199219 54.785156 C 89.070313 54.785156 91.882813 54.972656 93.566406 56.097656 C 93.378906 56.847656 93.003906 57.410156 92.632813 57.785156 C 92.257813 57.597656 91.882813 57.597656 91.507813 57.410156 C 90.570313 61.71875 87.570313 62.65625 85.511719 62.65625 C 80.265625 62.65625 79.328125 58.535156 79.703125 56.285156 "/>
</g>
</svg>
