<?xml version="1.0" encoding="utf-8"?>
<!-- Svg Vector Icons : http://www.onlinewebfonts.com/icon -->
<!DOCTYPE svg PUBLIC "-//W3C//DTD SVG 1.1//EN" "http://www.w3.org/Graphics/SVG/1.1/DTD/svg11.dtd">
<svg version="1.1" xmlns="http://www.w3.org/2000/svg" xmlns:xlink="http://www.w3.org/1999/xlink" x="0px" y="0px" viewBox="0 0 1000 1000" enable-background="new 0 0 1000 1000" xml:space="preserve">
<metadata> Svg Vector Icons : http://www.onlinewebfonts.com/icon </metadata>
<g><g transform="translate(0.000000,511.000000) scale(0.100000,-0.100000)"><path fill="#b5b5b7" d="M4371.2,4652.6c-338.1-25.7-794.9-116.7-1127.1-227.4C1978.5,4008,1039.3,3165.6,544.9,2006.8C252.3,1318.7,100,672.1,100,122.4c2-512.2,104.8-988.7,383.6-1754c480.5-1324.8,1665-2335.3,3148-2685.3c1067.8-253.1,2191-124.6,2871.2,328.2l122.6,83v1291.2v1293.2l-120.6-106.8c-221.5-193.8-361.9-292.7-561.6-391.5c-887.9-437-1931.9-261-2624,441c-448.9,454.8-676.3,1016.4-642.7,1593.8c17.8,286.7,75.1,506.2,199.7,763.3c407.3,830.5,1243.8,1330.8,2155.4,1289.3c541.8-25.7,957-191.8,1398-563.6l195.8-164.1v1291.2v1291.2l-122.6,83.1C5994.6,4543.8,5181.9,4713.9,4371.2,4652.6z"/><path fill="#dea200" d="M6902.2,118.4c0-3749.1,2-3939,35.6-3913.3c132.5,102.8,468.6,401.4,672.3,599.2c862.2,836.4,1285.3,1368.4,1785.6,2236.4c148.3,257.1,369.8,719.8,433.1,899.7c25.7,71.2,53.4,138.4,63.3,152.3c11.9,13.8,9.9,37.6-2,59.3c-9.9,19.8-47.4,110.7-83,203.7c-243.2,642.7-810.7,1560.2-1370.4,2212.7C8041.2,3031.1,7311.5,3745,6937.8,4031.7C6904.2,4057.4,6902.2,3867.6,6902.2,118.4z"/></g></g>
</svg>