<?xml version="1.0" encoding="UTF-8" standalone="no"?>
<svg
   xmlns:dc="http://purl.org/dc/elements/1.1/"
   xmlns:cc="http://creativecommons.org/ns#"
   xmlns:rdf="http://www.w3.org/1999/02/22-rdf-syntax-ns#"
   xmlns:svg="http://www.w3.org/2000/svg"
   xmlns="http://www.w3.org/2000/svg"
   xmlns:sodipodi="http://sodipodi.sourceforge.net/DTD/sodipodi-0.dtd"
   xmlns:inkscape="http://www.inkscape.org/namespaces/inkscape"
   inkscape:version="1.0 (4035a4fb49, 2020-05-01)"
   sodipodi:docname="Suzuki-logo.svg"
   viewBox="0 0 682.66669 682.66669"
   height="682.66669"
   width="682.66669"
   xml:space="preserve"
   id="svg2"
   version="1.1"><metadata
     id="metadata8"><rdf:RDF><cc:Work
         rdf:about=""><dc:format>image/svg+xml</dc:format><dc:type
           rdf:resource="http://purl.org/dc/dcmitype/StillImage" /><dc:title></dc:title></cc:Work></rdf:RDF></metadata><defs
     id="defs6"><clipPath
       id="clipPath18"
       clipPathUnits="userSpaceOnUse"><path
         id="path16"
         d="M 0,512 H 512 V 0 H 0 Z" /></clipPath></defs><sodipodi:namedview
     inkscape:current-layer="g10"
     inkscape:window-maximized="1"
     inkscape:window-y="-8"
     inkscape:window-x="-8"
     inkscape:cy="341.33334"
     inkscape:cx="341.33334"
     inkscape:zoom="1.2451172"
     showgrid="false"
     id="namedview4"
     inkscape:window-height="1017"
     inkscape:window-width="1920"
     inkscape:pageshadow="2"
     inkscape:pageopacity="0"
     guidetolerance="10"
     gridtolerance="10"
     objecttolerance="10"
     borderopacity="1"
     bordercolor="#666666"
     pagecolor="#ffffff" /><g
     transform="matrix(1.3333333,0,0,-1.3333333,0,682.66667)"
     inkscape:label="Suzuki-logo"
     inkscape:groupmode="layer"
     id="g10"><g
       id="g12"><g
         clip-path="url(#clipPath18)"
         id="g14"><g
           transform="translate(352.5479,267.4836)"
           id="g20"><path
             id="path22"
             style="fill:#e60012;fill-opacity:1;fill-rule:nonzero;stroke:none"
             d="m 0,0 c 0,0 -18.117,-5.254 -53.129,-26.775 -31.426,-19.312 -43.704,-32.306 -43.704,-32.306 l -96.93,66.935 c 0,0 40.737,30.003 74.825,7.034 l 45.667,-31.338 5.62,3.647 -126.094,88.325 c 0,0 18.152,5.245 53.129,26.765 31.425,19.313 43.783,32.316 43.783,32.316 L 0.017,67.642 c 0,0 -40.771,-29.977 -74.806,-7.017 l -45.703,31.347 -5.533,-3.665 z" /></g><g
           transform="translate(277.4838,176.1498)"
           id="g24"><path
             id="path26"
             style="fill:#004ea2;fill-opacity:1;fill-rule:nonzero;stroke:none"
             d="m 0,0 h -73.698 v -16.398 h 35.605 L -75.016,-50.843 V -64.579 H -0.105 V -48.12 H -37.342 L 0,-13.789 Z" /></g><g
           transform="translate(160.3362,109.9138)"
           id="g28"><path
             id="path30"
             style="fill:#004ea2;fill-opacity:1;fill-rule:nonzero;stroke:none"
             d="M 0,0 C 29.506,0 37.037,7.566 37.037,24.173 V 66.237 H 13.719 V 26.678 C 13.719,20.01 8.011,16.075 0,16.075 c -8.334,0 -13.649,3.971 -13.649,10.699 V 66.237 H -37.037 V 24.173 C -37.037,7.566 -29.453,0 0,0" /></g><g
           transform="translate(320.2995,109.9138)"
           id="g32"><path
             id="path34"
             style="fill:#004ea2;fill-opacity:1;fill-rule:nonzero;stroke:none"
             d="M 0,0 C 29.54,0 37.054,7.566 37.054,24.173 V 66.237 H 13.649 V 26.678 C 13.649,20.01 7.994,16.075 0,16.075 c -8.299,0 -13.666,3.971 -13.666,10.699 V 66.237 H -37.037 V 24.173 C -37.037,7.566 -29.453,0 0,0" /></g><path
           id="path36"
           style="fill:#004ea2;fill-opacity:1;fill-rule:nonzero;stroke:none"
           d="m 473.978,176.151 h -24.374 v -64.579 h 24.374 z" /><g
           transform="translate(445.9192,176.1498)"
           id="g38"><path
             id="path40"
             style="fill:#004ea2;fill-opacity:1;fill-rule:nonzero;stroke:none"
             d="M 0,0 H -32.045 L -58.016,-22.298 V 0 h -24.331 v -64.579 h 24.331 v 22.908 l 24.095,-22.908 h 32.725 l -35.623,33.127 z" /></g><g
           transform="translate(65.7213,158.287)"
           id="g42"><path
             id="path44"
             style="fill:#004ea2;fill-opacity:1;fill-rule:nonzero;stroke:none"
             d="m 0,0 c 0,4.991 7.435,5.149 9.922,5.149 2.47,0 8.125,-0.986 11.948,-7.279 h 27.559 c 0,12.166 -11.537,21.835 -39.454,21.835 -30.989,0 -36.278,-13.605 -36.278,-21.407 0,-14.425 11.188,-18.632 35.475,-21.206 2.042,-0.218 14.67,0.375 14.67,-5.69 0,-4.521 -7.121,-4.791 -9.713,-4.791 -2.61,0 -7.462,0.41 -11.45,7.548 h -30.378 c 0,-14.163 9.599,-22.375 41.793,-22.375 29.645,0 37.499,12.113 37.499,21.32 0,8.945 -6.117,18.029 -31.399,21.267 C 9.661,-4.277 0,-3.7 0,0" /></g></g></g></g></svg>
